%TF.GenerationSoftware,KiCad,Pcbnew,(5.99.0-12980-gcf6acae791)*%
%TF.CreationDate,2022-01-10T14:37:02+01:00*%
%TF.ProjectId,GRIPPER_TWO_ADVANCED_CONTROL_BOARD,47524950-5045-4525-9f54-574f5f414456,rev?*%
%TF.SameCoordinates,Original*%
%TF.FileFunction,Copper,L2,Bot*%
%TF.FilePolarity,Positive*%
%FSLAX46Y46*%
G04 Gerber Fmt 4.6, Leading zero omitted, Abs format (unit mm)*
G04 Created by KiCad (PCBNEW (5.99.0-12980-gcf6acae791)) date 2022-01-10 14:37:02*
%MOMM*%
%LPD*%
G01*
G04 APERTURE LIST*
G04 Aperture macros list*
%AMRoundRect*
0 Rectangle with rounded corners*
0 $1 Rounding radius*
0 $2 $3 $4 $5 $6 $7 $8 $9 X,Y pos of 4 corners*
0 Add a 4 corners polygon primitive as box body*
4,1,4,$2,$3,$4,$5,$6,$7,$8,$9,$2,$3,0*
0 Add four circle primitives for the rounded corners*
1,1,$1+$1,$2,$3*
1,1,$1+$1,$4,$5*
1,1,$1+$1,$6,$7*
1,1,$1+$1,$8,$9*
0 Add four rect primitives between the rounded corners*
20,1,$1+$1,$2,$3,$4,$5,0*
20,1,$1+$1,$4,$5,$6,$7,0*
20,1,$1+$1,$6,$7,$8,$9,0*
20,1,$1+$1,$8,$9,$2,$3,0*%
G04 Aperture macros list end*
%TA.AperFunction,SMDPad,CuDef*%
%ADD10R,0.350000X1.000000*%
%TD*%
%TA.AperFunction,SMDPad,CuDef*%
%ADD11R,0.350000X0.800000*%
%TD*%
%TA.AperFunction,SMDPad,CuDef*%
%ADD12R,2.468750X1.700000*%
%TD*%
%TA.AperFunction,SMDPad,CuDef*%
%ADD13RoundRect,0.249999X0.450001X1.425001X-0.450001X1.425001X-0.450001X-1.425001X0.450001X-1.425001X0*%
%TD*%
%TA.AperFunction,ComponentPad*%
%ADD14R,1.700000X1.700000*%
%TD*%
%TA.AperFunction,ComponentPad*%
%ADD15O,1.700000X1.700000*%
%TD*%
%TA.AperFunction,ViaPad*%
%ADD16C,0.400000*%
%TD*%
%TA.AperFunction,ViaPad*%
%ADD17C,0.800000*%
%TD*%
%TA.AperFunction,ViaPad*%
%ADD18C,2.006400*%
%TD*%
%TA.AperFunction,Conductor*%
%ADD19C,0.380000*%
%TD*%
%TA.AperFunction,Conductor*%
%ADD20C,0.250000*%
%TD*%
%TA.AperFunction,Conductor*%
%ADD21C,0.400000*%
%TD*%
%TA.AperFunction,Conductor*%
%ADD22C,0.200000*%
%TD*%
G04 APERTURE END LIST*
D10*
%TO.P,Q3,1,S*%
%TO.N,/24V*%
X153100000Y-116350000D03*
%TO.P,Q3,2,S*%
X152475000Y-116350000D03*
%TO.P,Q3,3,S*%
X151825000Y-116350000D03*
%TO.P,Q3,4,G*%
%TO.N,Net-(Q1-Pad3)*%
X151200000Y-116350000D03*
D11*
%TO.P,Q3,5,D*%
%TO.N,/MOTOR_POWER*%
X151200000Y-113100000D03*
%TO.P,Q3,6,D*%
X151825000Y-113100000D03*
%TO.P,Q3,7,D*%
X152475000Y-113100000D03*
%TO.P,Q3,8,D*%
X153100000Y-113100000D03*
D12*
%TO.P,Q3,9*%
X152200000Y-114300000D03*
%TD*%
D13*
%TO.P,R12,1*%
%TO.N,/MOTOR_1*%
X161450000Y-108400000D03*
%TO.P,R12,2*%
%TO.N,/MOTOR_POWER*%
X155350000Y-108400000D03*
%TD*%
%TO.P,R15,1*%
%TO.N,/MOTOR_2*%
X161450000Y-114300000D03*
%TO.P,R15,2*%
%TO.N,/MOTOR_POWER*%
X155350000Y-114300000D03*
%TD*%
D14*
%TO.P,J1,1,Pin_1*%
%TO.N,/SWCLK*%
X189400000Y-121300000D03*
D15*
%TO.P,J1,2,Pin_2*%
%TO.N,/SWDIO*%
X186860000Y-121300000D03*
%TO.P,J1,3,Pin_3*%
%TO.N,GND*%
X184320000Y-121300000D03*
%TO.P,J1,4,Pin_4*%
%TO.N,+3V3*%
X181780000Y-121300000D03*
%TD*%
D16*
%TO.N,GND*%
X150600000Y-100100000D03*
D17*
X177400000Y-97300000D03*
X165900000Y-115573100D03*
D16*
X149900000Y-100100000D03*
D17*
X152576900Y-108478300D03*
X187800000Y-113200000D03*
X180500000Y-114600000D03*
D16*
X150600000Y-99400000D03*
D17*
X177400000Y-99700000D03*
X176003820Y-113900000D03*
D16*
X173500000Y-84600000D03*
D17*
X193300000Y-112200000D03*
D16*
X150700000Y-91900000D03*
D17*
X183700000Y-101200000D03*
X151200000Y-108500000D03*
D16*
X172800000Y-84600000D03*
D17*
X183000000Y-112800000D03*
X190400000Y-106200000D03*
X176003820Y-112300000D03*
X190400000Y-115500000D03*
D16*
X174200000Y-84600000D03*
X150700000Y-92600000D03*
X149900000Y-99400000D03*
X150000000Y-91900000D03*
D17*
X184100000Y-109400000D03*
X185800000Y-112500000D03*
D16*
X174200000Y-85300000D03*
D17*
X173700000Y-122600000D03*
X177400000Y-98500000D03*
X169200000Y-122600000D03*
X185800000Y-111200000D03*
X179100000Y-108700000D03*
X177900000Y-107500000D03*
D16*
X150000000Y-92600000D03*
X173500000Y-85300000D03*
D17*
X168100000Y-122600000D03*
D18*
X179100000Y-118200000D03*
D17*
X180500000Y-115800000D03*
X169900000Y-115100000D03*
X184700000Y-101200000D03*
D16*
X172800000Y-85300000D03*
%TO.N,Net-(Q1-Pad1)*%
X177300000Y-111000000D03*
X150088719Y-114966157D03*
%TO.N,Net-(Q1-Pad3)*%
X150300000Y-117200000D03*
D18*
%TO.N,/24V*%
X152100000Y-118177200D03*
D16*
%TO.N,/MOTOR_POWER*%
X156365902Y-107100000D03*
X155811000Y-110800000D03*
X156300000Y-116500000D03*
D18*
%TO.N,/RS485-*%
X167100000Y-118177200D03*
%TO.N,/RS485+*%
X170100000Y-118177200D03*
%TO.N,/CAN+*%
X176100000Y-118177200D03*
D16*
X173894455Y-99994455D03*
X173894455Y-99994455D03*
%TO.N,/CAN-*%
X173400000Y-99600000D03*
D18*
X173100000Y-118177200D03*
D16*
X173400000Y-99600000D03*
%TO.N,/CS1*%
X187376900Y-111600000D03*
X182400000Y-104500000D03*
%TO.N,/SPI_CLK*%
X188800000Y-112600000D03*
X189000000Y-104200000D03*
X184086366Y-103352730D03*
%TO.N,/SPI_MISO*%
X186501864Y-108000000D03*
X182500000Y-103800000D03*
X188900000Y-102900000D03*
%TO.N,/SPI_MOSI*%
X183200000Y-103800000D03*
X187100000Y-108000000D03*
X189500000Y-103800000D03*
%TO.N,/RS485_DE*%
X183100000Y-108000000D03*
X166700000Y-110268904D03*
X167024981Y-108700000D03*
X182066928Y-106913812D03*
%TO.N,/CURR1*%
X181402111Y-107597889D03*
X180462780Y-105137220D03*
%TO.N,/CURR2*%
X182612780Y-108512780D03*
X180825121Y-104641338D03*
%TO.N,/CAN_RX*%
X181200000Y-97500000D03*
X186100000Y-114000000D03*
%TO.N,/CAN_TX*%
X186900000Y-114000000D03*
X181600598Y-100700716D03*
%TO.N,/MOTOR_1*%
X160211000Y-110800000D03*
D18*
X158100000Y-118177200D03*
D16*
%TO.N,/MOTOR_2*%
X160200000Y-116400000D03*
D18*
X161100000Y-118177200D03*
D16*
%TO.N,/SEC_IN*%
X185500000Y-110500000D03*
X179000000Y-92700000D03*
%TO.N,/SEC_OUT*%
X185994380Y-110005620D03*
X180000000Y-93900000D03*
D17*
%TO.N,+3V3*%
X150500000Y-102800000D03*
X165518759Y-106018759D03*
X184900000Y-103400000D03*
X188000000Y-104800000D03*
X178142150Y-116974902D03*
X180500000Y-117300000D03*
X167000000Y-121718069D03*
X153800000Y-106200000D03*
X168842991Y-113723100D03*
X153800000Y-111600000D03*
X168900000Y-108900000D03*
D16*
%TO.N,GNDPWR*%
X152400000Y-110400000D03*
X149400000Y-115600000D03*
D18*
X155100000Y-118200000D03*
D16*
X152400000Y-111000000D03*
X150400000Y-107200000D03*
X151100000Y-106600000D03*
X152400000Y-106600000D03*
X149400000Y-116200000D03*
X152400000Y-111700000D03*
X150400000Y-106600000D03*
X149400000Y-115000000D03*
X151100000Y-107200000D03*
X152400000Y-107200000D03*
%TO.N,Net-(R11-Pad2)*%
X168800000Y-114600000D03*
X166441900Y-114900000D03*
%TO.N,/SEC*%
X174800000Y-95900000D03*
D18*
X185100000Y-118177200D03*
D16*
%TO.N,/UART_TX*%
X184600000Y-113900000D03*
D18*
X188100000Y-118178000D03*
D16*
%TO.N,/UART_RX*%
X185400000Y-113900000D03*
D18*
X191100000Y-118177200D03*
%TO.N,+12V*%
X182100000Y-118177200D03*
D16*
X170100000Y-99700000D03*
%TD*%
D19*
%TO.N,GND*%
X151221700Y-108478300D02*
X151200000Y-108500000D01*
X152576900Y-108478300D02*
X151221700Y-108478300D01*
D20*
%TO.N,Net-(Q1-Pad1)*%
X166358831Y-121041169D02*
X164800000Y-122600000D01*
X149823080Y-116502454D02*
X150000000Y-116325534D01*
X150000000Y-116325534D02*
X150000000Y-115054876D01*
X176458831Y-121041169D02*
X166358831Y-121041169D01*
X149823080Y-121123080D02*
X149823080Y-116502454D01*
X177465239Y-120034761D02*
X176458831Y-121041169D01*
X177465239Y-111165239D02*
X177465239Y-120034761D01*
X151300000Y-122600000D02*
X149823080Y-121123080D01*
X150000000Y-115054876D02*
X150088719Y-114966157D01*
X177300000Y-111000000D02*
X177465239Y-111165239D01*
X164800000Y-122600000D02*
X151300000Y-122600000D01*
D21*
%TO.N,Net-(Q1-Pad3)*%
X151150000Y-116350000D02*
X151200000Y-116350000D01*
X150300000Y-117200000D02*
X151150000Y-116350000D01*
D22*
%TO.N,/CAN+*%
X174823800Y-108080520D02*
X175862779Y-108080520D01*
X175351920Y-109136760D02*
X174693490Y-109136760D01*
X175862779Y-109136760D02*
X175351920Y-109136760D01*
X173823744Y-99994455D02*
X175351920Y-101522631D01*
X175000000Y-109489160D02*
X175862779Y-109489160D01*
X175351920Y-117429120D02*
X176100000Y-118177200D01*
X174562941Y-109267309D02*
X174562941Y-109358611D01*
X174693490Y-109489160D02*
X175000000Y-109489160D01*
X174489141Y-108080520D02*
X174823800Y-108080520D01*
X175351920Y-111547035D02*
X175351920Y-117429120D01*
X175351920Y-101522631D02*
X175351920Y-107200000D01*
X175862779Y-110545400D02*
X175528120Y-110545400D01*
X173894455Y-99994455D02*
X173823744Y-99994455D01*
X174823800Y-107728120D02*
X174489141Y-107728120D01*
X175351920Y-110721600D02*
X175351920Y-111547035D01*
X175351920Y-110721600D02*
G75*
G02*
X175528120Y-110545400I176201J-1D01*
G01*
X174312941Y-107904320D02*
G75*
G02*
X174489141Y-107728120I176201J-1D01*
G01*
X174562941Y-109267309D02*
G75*
G02*
X174693490Y-109136760I130549J0D01*
G01*
X174489141Y-108080520D02*
G75*
G02*
X174312941Y-107904320I1J176201D01*
G01*
X175862779Y-110545400D02*
G75*
G03*
X176390899Y-110017280I-1J528121D01*
G01*
X174823800Y-107728120D02*
G75*
G03*
X175351920Y-107200000I-1J528121D01*
G01*
X175862779Y-109136760D02*
G75*
G03*
X176390899Y-108608640I-1J528121D01*
G01*
X174693490Y-109489160D02*
G75*
G02*
X174562941Y-109358611I0J130549D01*
G01*
X176390899Y-110017280D02*
G75*
G03*
X175862779Y-109489160I-528121J-1D01*
G01*
X176390899Y-108608640D02*
G75*
G03*
X175862779Y-108080520I-528121J-1D01*
G01*
%TO.N,/CAN-*%
X174823800Y-107376200D02*
X174489141Y-107376200D01*
X175862779Y-110193480D02*
X175528120Y-110193480D01*
X174211021Y-109267309D02*
X174211021Y-109358611D01*
X173400000Y-100140225D02*
X173400000Y-99600000D01*
X174489141Y-108432440D02*
X175862779Y-108432440D01*
X174693490Y-109841080D02*
X175862779Y-109841080D01*
X175000000Y-101668401D02*
X175000000Y-107200000D01*
X174865800Y-101534201D02*
X175000000Y-101668401D01*
X173122800Y-118177200D02*
X173100000Y-118177200D01*
X173400000Y-100140225D02*
X174793976Y-101534201D01*
X174793976Y-101534201D02*
X174865800Y-101534201D01*
X175000000Y-110721600D02*
X175000000Y-116300000D01*
X175862779Y-108784840D02*
X174693490Y-108784840D01*
X175000000Y-116300000D02*
X173122800Y-118177200D01*
X174693490Y-109841080D02*
G75*
G02*
X174211021Y-109358611I0J482469D01*
G01*
X175000000Y-110721600D02*
G75*
G02*
X175528120Y-110193480I528121J-1D01*
G01*
X175862779Y-110193480D02*
G75*
G03*
X176038979Y-110017280I-1J176201D01*
G01*
X175862779Y-108784840D02*
G75*
G03*
X176038979Y-108608640I-1J176201D01*
G01*
X174489141Y-108432440D02*
G75*
G02*
X173961021Y-107904320I1J528121D01*
G01*
X174211021Y-109267309D02*
G75*
G02*
X174693490Y-108784840I482469J0D01*
G01*
X174823800Y-107376200D02*
G75*
G03*
X175000000Y-107200000I-1J176201D01*
G01*
X176038979Y-110017280D02*
G75*
G03*
X175862779Y-109841080I-176201J-1D01*
G01*
X173961021Y-107904320D02*
G75*
G02*
X174489141Y-107376200I528121J-1D01*
G01*
X176038979Y-108608640D02*
G75*
G03*
X175862779Y-108432440I-176201J-1D01*
G01*
D20*
%TO.N,/CS1*%
X182400000Y-104600000D02*
X187301920Y-109501920D01*
X187301920Y-111525020D02*
X187376900Y-111600000D01*
X182400000Y-104500000D02*
X182400000Y-104600000D01*
X187301920Y-109501920D02*
X187301920Y-111525020D01*
%TO.N,/SPI_CLK*%
X188657287Y-104123089D02*
X188360313Y-104123089D01*
X188734198Y-104200000D02*
X188657287Y-104123089D01*
X185390378Y-102933080D02*
X185180387Y-102723089D01*
X189000000Y-104200000D02*
X188734198Y-104200000D01*
X184609967Y-102723089D02*
X184086366Y-103246690D01*
X188360313Y-104123089D02*
X187170305Y-102933081D01*
X188826900Y-105307298D02*
X188826900Y-112573100D01*
X188826900Y-112573100D02*
X188800000Y-112600000D01*
X189000000Y-105134198D02*
X188826900Y-105307298D01*
X184086366Y-103246690D02*
X184086366Y-103352730D01*
X187170305Y-102933081D02*
X185390378Y-102933080D01*
X189000000Y-104200000D02*
X189000000Y-105134198D01*
X185180387Y-102723089D02*
X184609967Y-102723089D01*
%TO.N,/SPI_MISO*%
X185723338Y-102129240D02*
X187503267Y-102129243D01*
X185513347Y-101919249D02*
X185723338Y-102129240D01*
X186501864Y-107905608D02*
X182396256Y-103800000D01*
X188274024Y-102900000D02*
X188900000Y-102900000D01*
X182500000Y-103800000D02*
X182396256Y-103800000D01*
X186501864Y-108000000D02*
X186501864Y-107905608D01*
X182396256Y-103800000D02*
X184277007Y-101919249D01*
X184277007Y-101919249D02*
X185513347Y-101919249D01*
X187503267Y-102129243D02*
X188274024Y-102900000D01*
%TO.N,/SPI_MOSI*%
X188526793Y-103721169D02*
X187336786Y-102531162D01*
X189421169Y-103721169D02*
X188526793Y-103721169D01*
X183200000Y-103564656D02*
X183200000Y-103800000D01*
X185556858Y-102531160D02*
X185346867Y-102321169D01*
X187100000Y-107700000D02*
X183200000Y-103800000D01*
X184443487Y-102321169D02*
X183200000Y-103564656D01*
X187336786Y-102531162D02*
X185556858Y-102531160D01*
X187100000Y-108000000D02*
X187100000Y-107700000D01*
X189500000Y-103800000D02*
X189421169Y-103721169D01*
X185346867Y-102321169D02*
X184443487Y-102321169D01*
%TO.N,/RS485_DE*%
X167024981Y-109943923D02*
X167024981Y-108700000D01*
X182066928Y-106913812D02*
X182066928Y-106949172D01*
X183100000Y-107982244D02*
X183100000Y-108000000D01*
X166700000Y-110268904D02*
X167024981Y-109943923D01*
X182066928Y-106949172D02*
X183100000Y-107982244D01*
%TO.N,/CURR1*%
X181402111Y-107597889D02*
X180462780Y-106658558D01*
X180462780Y-106658558D02*
X180462780Y-105137220D01*
%TO.N,/CURR2*%
X180939691Y-106461030D02*
X182612780Y-108134119D01*
X182612780Y-108134119D02*
X182612780Y-108512780D01*
X180939691Y-104755908D02*
X180939691Y-106461030D01*
X180825121Y-104641338D02*
X180939691Y-104755908D01*
%TO.N,/CAN_RX*%
X181123687Y-100898260D02*
X181403054Y-101177627D01*
X186498080Y-109834880D02*
X186498080Y-113601920D01*
X181400000Y-101180681D02*
X181400000Y-104772144D01*
X181400000Y-104772144D02*
X181956686Y-105328830D01*
X181403054Y-101177627D02*
X181400000Y-101180681D01*
X186498080Y-113601920D02*
X186100000Y-114000000D01*
X181200000Y-97500000D02*
X181123687Y-97576313D01*
X181992031Y-105328831D02*
X186498080Y-109834880D01*
X181956686Y-105328830D02*
X181992031Y-105328831D01*
X181123687Y-97576313D02*
X181123687Y-100898260D01*
%TO.N,/CAN_TX*%
X181873089Y-103623167D02*
X181900000Y-103596256D01*
X181873089Y-104676833D02*
X181873089Y-103623167D01*
X186900000Y-109668400D02*
X182158511Y-104926911D01*
X182123167Y-104926911D02*
X181873089Y-104676833D01*
X186900000Y-114000000D02*
X186900000Y-109668400D01*
X181900000Y-103596256D02*
X181900000Y-101000118D01*
X181900000Y-101000118D02*
X181600598Y-100700716D01*
X182158511Y-104926911D02*
X182123167Y-104926911D01*
%TO.N,/SEC_IN*%
X185500000Y-110500000D02*
X185101919Y-110101919D01*
X178498081Y-93201919D02*
X179000000Y-92700000D01*
X184676833Y-110126911D02*
X182579944Y-110126911D01*
X184701825Y-110101919D02*
X184676833Y-110126911D01*
X185101919Y-110101919D02*
X184701825Y-110101919D01*
X178498081Y-106045048D02*
X178498081Y-93201919D01*
X182579944Y-110126911D02*
X178498081Y-106045048D01*
%TO.N,/SEC_OUT*%
X182011124Y-108989691D02*
X178900000Y-105878567D01*
X184737224Y-108710324D02*
X183089691Y-108710324D01*
X178900000Y-105878567D02*
X178900000Y-95000000D01*
X178900000Y-95000000D02*
X180000000Y-93900000D01*
X185994380Y-110005620D02*
X185994380Y-109967480D01*
X185994380Y-109967480D02*
X184737224Y-108710324D01*
X183089691Y-108710324D02*
X182810324Y-108989691D01*
X182810324Y-108989691D02*
X182011124Y-108989691D01*
D19*
%TO.N,+3V3*%
X188000000Y-104800000D02*
X186600000Y-103400000D01*
X168842991Y-113723100D02*
X168000000Y-112880109D01*
X153800000Y-106200000D02*
X153800000Y-111600000D01*
X186600000Y-103400000D02*
X184900000Y-103400000D01*
X168000000Y-109800000D02*
X168900000Y-108900000D01*
X150700000Y-103000000D02*
X150500000Y-102800000D01*
X153000000Y-106200000D02*
X150700000Y-103900000D01*
X168000000Y-112880109D02*
X168000000Y-109800000D01*
X167209980Y-121508089D02*
X177694186Y-121508089D01*
X168400000Y-108900000D02*
X165518759Y-106018759D01*
X153800000Y-106200000D02*
X153000000Y-106200000D01*
X167000000Y-121718069D02*
X167209980Y-121508089D01*
X180500000Y-118702275D02*
X180500000Y-117300000D01*
X177694186Y-121508089D02*
X180500000Y-118702275D01*
X168900000Y-108900000D02*
X168400000Y-108900000D01*
X180054889Y-116854889D02*
X178262163Y-116854889D01*
X180500000Y-117300000D02*
X180054889Y-116854889D01*
X178262163Y-116854889D02*
X178142150Y-116974902D01*
X150700000Y-103900000D02*
X150700000Y-103000000D01*
D20*
%TO.N,Net-(R11-Pad2)*%
X168800000Y-114600000D02*
X166741900Y-114600000D01*
X166741900Y-114600000D02*
X166441900Y-114900000D01*
D21*
%TO.N,/SEC*%
X184000000Y-112221433D02*
X178021160Y-106242593D01*
X185077200Y-118177200D02*
X184000000Y-117100000D01*
X174800000Y-99009810D02*
X174800000Y-95900000D01*
X178021160Y-102230970D02*
X174800000Y-99009810D01*
X178021160Y-106242593D02*
X178021160Y-102230970D01*
X185100000Y-118177200D02*
X185077200Y-118177200D01*
X184000000Y-117100000D02*
X184000000Y-112221433D01*
D20*
%TO.N,/UART_TX*%
X185123167Y-114426911D02*
X185126911Y-114426911D01*
X188100000Y-117400000D02*
X188100000Y-118178000D01*
X184600000Y-113900000D02*
X184600000Y-113903744D01*
X184600000Y-113903744D02*
X185123167Y-114426911D01*
X185126911Y-114426911D02*
X188100000Y-117400000D01*
%TO.N,/UART_RX*%
X185400000Y-114100000D02*
X188197889Y-116897889D01*
X189820689Y-116897889D02*
X191100000Y-118177200D01*
X185400000Y-113900000D02*
X185400000Y-114100000D01*
X188197889Y-116897889D02*
X189820689Y-116897889D01*
D19*
%TO.N,+12V*%
X170100000Y-99700000D02*
X170900000Y-98900000D01*
X173900000Y-98900000D02*
X175800000Y-100800000D01*
X170900000Y-98900000D02*
X173900000Y-98900000D01*
X175800000Y-100800000D02*
X175800000Y-107000000D01*
X175800000Y-107000000D02*
X182100000Y-113300000D01*
X182100000Y-113300000D02*
X182100000Y-118177200D01*
%TD*%
%TA.AperFunction,Conductor*%
%TO.N,GNDPWR*%
G36*
X165043632Y-106320002D02*
G01*
X165075474Y-106349296D01*
X165124426Y-106413092D01*
X165239445Y-106501349D01*
X165239923Y-106501716D01*
X165239866Y-106501791D01*
X165285992Y-106550163D01*
X165300000Y-106607903D01*
X165300000Y-121654800D01*
X165279998Y-121722921D01*
X165263095Y-121743895D01*
X164721795Y-122285195D01*
X164659483Y-122319221D01*
X164632700Y-122322100D01*
X151467300Y-122322100D01*
X151399179Y-122302098D01*
X151378205Y-122285195D01*
X150137885Y-121044875D01*
X150103859Y-120982563D01*
X150100980Y-120955780D01*
X150100980Y-119838655D01*
X150120982Y-119770534D01*
X150174638Y-119724041D01*
X150244912Y-119713937D01*
X150309492Y-119743431D01*
X150322205Y-119756143D01*
X150342703Y-119779799D01*
X150350280Y-119784669D01*
X150350283Y-119784671D01*
X150385523Y-119807318D01*
X150414943Y-119826225D01*
X150423587Y-119828763D01*
X150423589Y-119828764D01*
X150478741Y-119844958D01*
X150478745Y-119844959D01*
X150483064Y-119846227D01*
X150487512Y-119846867D01*
X150487519Y-119846868D01*
X150521552Y-119851761D01*
X150521559Y-119851761D01*
X150526000Y-119852400D01*
X153274000Y-119852400D01*
X153306394Y-119848917D01*
X153358736Y-119837531D01*
X153426143Y-119803790D01*
X153479799Y-119757297D01*
X153484669Y-119749720D01*
X153484671Y-119749717D01*
X153521354Y-119692636D01*
X153526225Y-119685057D01*
X153531884Y-119665785D01*
X153544958Y-119621259D01*
X153544959Y-119621255D01*
X153546227Y-119616936D01*
X153547743Y-119606394D01*
X153551761Y-119578448D01*
X153551761Y-119578441D01*
X153552400Y-119574000D01*
X153552400Y-116972852D01*
X153572402Y-116904731D01*
X153626058Y-116858238D01*
X153696333Y-116848135D01*
X153721543Y-116851760D01*
X153721554Y-116851761D01*
X153726000Y-116852400D01*
X156259151Y-116852400D01*
X156278861Y-116853951D01*
X156300000Y-116857299D01*
X156321139Y-116853951D01*
X156340849Y-116852400D01*
X156374000Y-116852400D01*
X156406394Y-116848917D01*
X156458736Y-116837531D01*
X156465786Y-116834002D01*
X156473216Y-116831381D01*
X156473703Y-116832761D01*
X156535071Y-116821690D01*
X156600663Y-116848861D01*
X156641153Y-116907179D01*
X156647600Y-116946968D01*
X156647600Y-119574000D01*
X156651083Y-119606394D01*
X156662469Y-119658736D01*
X156696210Y-119726143D01*
X156742703Y-119779799D01*
X156750280Y-119784669D01*
X156750283Y-119784671D01*
X156785523Y-119807318D01*
X156814943Y-119826225D01*
X156823587Y-119828763D01*
X156823589Y-119828764D01*
X156878741Y-119844958D01*
X156878745Y-119844959D01*
X156883064Y-119846227D01*
X156887512Y-119846867D01*
X156887519Y-119846868D01*
X156921552Y-119851761D01*
X156921559Y-119851761D01*
X156926000Y-119852400D01*
X159474000Y-119852400D01*
X159506394Y-119848917D01*
X159558736Y-119837531D01*
X159626143Y-119803790D01*
X159632057Y-119798665D01*
X159699786Y-119777459D01*
X159770156Y-119797442D01*
X159814943Y-119826225D01*
X159823587Y-119828763D01*
X159823589Y-119828764D01*
X159878741Y-119844958D01*
X159878745Y-119844959D01*
X159883064Y-119846227D01*
X159887512Y-119846867D01*
X159887519Y-119846868D01*
X159921552Y-119851761D01*
X159921559Y-119851761D01*
X159926000Y-119852400D01*
X162374000Y-119852400D01*
X162406394Y-119848917D01*
X162458736Y-119837531D01*
X162526143Y-119803790D01*
X162579799Y-119757297D01*
X162584669Y-119749720D01*
X162584671Y-119749717D01*
X162621354Y-119692636D01*
X162626225Y-119685057D01*
X162631884Y-119665785D01*
X162644958Y-119621259D01*
X162644959Y-119621255D01*
X162646227Y-119616936D01*
X162647743Y-119606394D01*
X162651761Y-119578448D01*
X162651761Y-119578441D01*
X162652400Y-119574000D01*
X162652400Y-112426000D01*
X162648917Y-112393606D01*
X162637531Y-112341264D01*
X162603790Y-112273857D01*
X162598665Y-112267943D01*
X162577459Y-112200214D01*
X162597442Y-112129844D01*
X162621353Y-112092638D01*
X162626225Y-112085057D01*
X162629435Y-112074126D01*
X162644958Y-112021259D01*
X162644959Y-112021255D01*
X162646227Y-112016936D01*
X162652400Y-111974000D01*
X162652400Y-106426000D01*
X162672402Y-106357879D01*
X162726058Y-106311386D01*
X162778400Y-106300000D01*
X164975511Y-106300000D01*
X165043632Y-106320002D01*
G37*
%TD.AperFunction*%
%TA.AperFunction,Conductor*%
G36*
X152630998Y-106320002D02*
G01*
X152651972Y-106336905D01*
X152743046Y-106427979D01*
X152750473Y-106436083D01*
X152776188Y-106466729D01*
X152785734Y-106472241D01*
X152785736Y-106472242D01*
X152810822Y-106486725D01*
X152820090Y-106492629D01*
X152852848Y-106515567D01*
X152863499Y-106518421D01*
X152867356Y-106520220D01*
X152871360Y-106521677D01*
X152880912Y-106527192D01*
X152918926Y-106533895D01*
X152920294Y-106534136D01*
X152931025Y-106536515D01*
X152959003Y-106544012D01*
X152959007Y-106544012D01*
X152969653Y-106546865D01*
X152980637Y-106545904D01*
X153009484Y-106543380D01*
X153020466Y-106542900D01*
X153304065Y-106542900D01*
X153372186Y-106562902D01*
X153393882Y-106582860D01*
X153394800Y-106581942D01*
X153400641Y-106587783D01*
X153405667Y-106594333D01*
X153412217Y-106599359D01*
X153418058Y-106605200D01*
X153416027Y-106607231D01*
X153449674Y-106653318D01*
X153457100Y-106695935D01*
X153457100Y-111104065D01*
X153437098Y-111172186D01*
X153417138Y-111193883D01*
X153418057Y-111194802D01*
X153412220Y-111200639D01*
X153405667Y-111205667D01*
X153317043Y-111321165D01*
X153313884Y-111328791D01*
X153313883Y-111328793D01*
X153303291Y-111354365D01*
X153261331Y-111455664D01*
X153242329Y-111600000D01*
X153261331Y-111744336D01*
X153264490Y-111751962D01*
X153304468Y-111848476D01*
X153317043Y-111878835D01*
X153405667Y-111994333D01*
X153430722Y-112013558D01*
X153434931Y-112016788D01*
X153476798Y-112074126D01*
X153481020Y-112144997D01*
X153475488Y-112161293D01*
X153473775Y-112163959D01*
X153471235Y-112172608D01*
X153471235Y-112172609D01*
X153456520Y-112222726D01*
X153453773Y-112232080D01*
X153453133Y-112236532D01*
X153453131Y-112236541D01*
X153452702Y-112239527D01*
X153452281Y-112240449D01*
X153452175Y-112240936D01*
X153452069Y-112240913D01*
X153423212Y-112304109D01*
X153363487Y-112342495D01*
X153327984Y-112347600D01*
X150526000Y-112347600D01*
X150493606Y-112351083D01*
X150441264Y-112362469D01*
X150373857Y-112396210D01*
X150320201Y-112442703D01*
X150315331Y-112450280D01*
X150315329Y-112450283D01*
X150295857Y-112480583D01*
X150273775Y-112514943D01*
X150271237Y-112523587D01*
X150271236Y-112523589D01*
X150267220Y-112537269D01*
X150253773Y-112583064D01*
X150247600Y-112626000D01*
X150247600Y-114486495D01*
X150227598Y-114554616D01*
X150173942Y-114601109D01*
X150108429Y-114610051D01*
X150108429Y-114610409D01*
X150105809Y-114610409D01*
X150101890Y-114610944D01*
X150098512Y-114610409D01*
X150088719Y-114608858D01*
X149978308Y-114626345D01*
X149878704Y-114677096D01*
X149799658Y-114756142D01*
X149761894Y-114830258D01*
X149758321Y-114837271D01*
X149748907Y-114855746D01*
X149731420Y-114966157D01*
X149729901Y-114965916D01*
X149726672Y-114982721D01*
X149728068Y-114983061D01*
X149725965Y-114991703D01*
X149722670Y-114999963D01*
X149722100Y-115005777D01*
X149722100Y-115008863D01*
X149721950Y-115011929D01*
X149721578Y-115011911D01*
X149720851Y-115018125D01*
X149720878Y-115018126D01*
X149720310Y-115029744D01*
X149717623Y-115041065D01*
X149719192Y-115052594D01*
X149719192Y-115052595D01*
X149720949Y-115065504D01*
X149722100Y-115082495D01*
X149722100Y-116158234D01*
X149702098Y-116226355D01*
X149685195Y-116247329D01*
X149660543Y-116271981D01*
X149659047Y-116273273D01*
X149654519Y-116275486D01*
X149646624Y-116283996D01*
X149646625Y-116283996D01*
X149623834Y-116308565D01*
X149620554Y-116311970D01*
X149608298Y-116324226D01*
X149605715Y-116327991D01*
X149603975Y-116329973D01*
X149584113Y-116351385D01*
X149579802Y-116362190D01*
X149575912Y-116368344D01*
X149574142Y-116371658D01*
X149571189Y-116378322D01*
X149564608Y-116387915D01*
X149561921Y-116399236D01*
X149561921Y-116399237D01*
X149559506Y-116409414D01*
X149553942Y-116427008D01*
X149545750Y-116447541D01*
X149545180Y-116453355D01*
X149545180Y-116456444D01*
X149545030Y-116459507D01*
X149544658Y-116459489D01*
X149543931Y-116465703D01*
X149543958Y-116465704D01*
X149543390Y-116477322D01*
X149540703Y-116488643D01*
X149542272Y-116500172D01*
X149542272Y-116500173D01*
X149544029Y-116513082D01*
X149545180Y-116530073D01*
X149545180Y-121075048D01*
X149545036Y-121077014D01*
X149543399Y-121081780D01*
X149543834Y-121093369D01*
X149543834Y-121093370D01*
X149545091Y-121126847D01*
X149545180Y-121131574D01*
X149545180Y-121148928D01*
X149546015Y-121153409D01*
X149546189Y-121156093D01*
X149547283Y-121185233D01*
X149548394Y-121187818D01*
X149544221Y-121252952D01*
X149502098Y-121310102D01*
X149435764Y-121335406D01*
X149366279Y-121320830D01*
X149336747Y-121298892D01*
X149160805Y-121122950D01*
X149126779Y-121060638D01*
X149123900Y-121033855D01*
X149123900Y-112711865D01*
X149140784Y-112648859D01*
X150364140Y-110530199D01*
X150364141Y-110530197D01*
X150372734Y-110515315D01*
X150378038Y-110508402D01*
X150377116Y-110501400D01*
X150378038Y-110494398D01*
X150372734Y-110487485D01*
X150371447Y-110485255D01*
X150371387Y-110484873D01*
X150370414Y-110483276D01*
X150370524Y-110483209D01*
X150368610Y-110480342D01*
X149225121Y-108500000D01*
X150642329Y-108500000D01*
X150643407Y-108508188D01*
X150657385Y-108614360D01*
X150661331Y-108644336D01*
X150664490Y-108651962D01*
X150706279Y-108752848D01*
X150717043Y-108778835D01*
X150805667Y-108894333D01*
X150921164Y-108982957D01*
X151055664Y-109038669D01*
X151200000Y-109057671D01*
X151208188Y-109056593D01*
X151336148Y-109039747D01*
X151344336Y-109038669D01*
X151478836Y-108982957D01*
X151583707Y-108902487D01*
X151587782Y-108899360D01*
X151587783Y-108899359D01*
X151594333Y-108894333D01*
X151612624Y-108870495D01*
X151669961Y-108828629D01*
X151712586Y-108821200D01*
X152080965Y-108821200D01*
X152149086Y-108841202D01*
X152170783Y-108861162D01*
X152171702Y-108860243D01*
X152177539Y-108866080D01*
X152182567Y-108872633D01*
X152298064Y-108961257D01*
X152432564Y-109016969D01*
X152576900Y-109035971D01*
X152585088Y-109034893D01*
X152713048Y-109018047D01*
X152721236Y-109016969D01*
X152855736Y-108961257D01*
X152971233Y-108872633D01*
X153059857Y-108757135D01*
X153064688Y-108745474D01*
X153112410Y-108630262D01*
X153115569Y-108622636D01*
X153117353Y-108609090D01*
X153133493Y-108486488D01*
X153134571Y-108478300D01*
X153127401Y-108423836D01*
X153116647Y-108342150D01*
X153116646Y-108342148D01*
X153115569Y-108333964D01*
X153071882Y-108228495D01*
X153063017Y-108207093D01*
X153063016Y-108207091D01*
X153059857Y-108199465D01*
X152971233Y-108083967D01*
X152855736Y-107995343D01*
X152721236Y-107939631D01*
X152703303Y-107937270D01*
X152627701Y-107927317D01*
X152576900Y-107920629D01*
X152568712Y-107921707D01*
X152440750Y-107938553D01*
X152440748Y-107938554D01*
X152432564Y-107939631D01*
X152423448Y-107943407D01*
X152305693Y-107992183D01*
X152305691Y-107992184D01*
X152298065Y-107995343D01*
X152182567Y-108083967D01*
X152177539Y-108090520D01*
X152171702Y-108096357D01*
X152169670Y-108094325D01*
X152123582Y-108127974D01*
X152080965Y-108135400D01*
X151674733Y-108135400D01*
X151606612Y-108115398D01*
X151594411Y-108105565D01*
X151594333Y-108105667D01*
X151562001Y-108080858D01*
X151478836Y-108017043D01*
X151344336Y-107961331D01*
X151200000Y-107942329D01*
X151191812Y-107943407D01*
X151063850Y-107960253D01*
X151063848Y-107960254D01*
X151055664Y-107961331D01*
X151017445Y-107977162D01*
X150928793Y-108013883D01*
X150928791Y-108013884D01*
X150921165Y-108017043D01*
X150805667Y-108105667D01*
X150717043Y-108221165D01*
X150713884Y-108228791D01*
X150713883Y-108228793D01*
X150691149Y-108283678D01*
X150661331Y-108355664D01*
X150660254Y-108363848D01*
X150660253Y-108363850D01*
X150658420Y-108377774D01*
X150642329Y-108500000D01*
X149225121Y-108500000D01*
X149140784Y-108353941D01*
X149123900Y-108290935D01*
X149123900Y-106426000D01*
X149143902Y-106357879D01*
X149197558Y-106311386D01*
X149249900Y-106300000D01*
X152562877Y-106300000D01*
X152630998Y-106320002D01*
G37*
%TD.AperFunction*%
%TD*%
%TA.AperFunction,Conductor*%
%TO.N,GND*%
G36*
X181105735Y-84138993D02*
G01*
X181110571Y-84143426D01*
X182551874Y-85584729D01*
X182573614Y-85631349D01*
X182573900Y-85637903D01*
X182573900Y-96246448D01*
X182571840Y-96251445D01*
X182575800Y-96260960D01*
X182579766Y-96270534D01*
X182584759Y-96272602D01*
X182765454Y-96452695D01*
X184063486Y-97746400D01*
X184077715Y-97760582D01*
X184079766Y-97765534D01*
X184084758Y-97767602D01*
X184084774Y-97767618D01*
X184089560Y-97769591D01*
X184093927Y-97771400D01*
X184093948Y-97771400D01*
X184098945Y-97773460D01*
X184103895Y-97771400D01*
X193999792Y-97771400D01*
X194048130Y-97788993D01*
X194073850Y-97833542D01*
X194074992Y-97846606D01*
X194073902Y-112074085D01*
X194073901Y-112091425D01*
X194071840Y-112096400D01*
X194075627Y-112105542D01*
X194079765Y-112115533D01*
X194084739Y-112117594D01*
X195051874Y-113084729D01*
X195073614Y-113131349D01*
X195073900Y-113137903D01*
X195073900Y-121054897D01*
X195056307Y-121103235D01*
X195051874Y-121108071D01*
X193110571Y-123049374D01*
X193063951Y-123071114D01*
X193057397Y-123071400D01*
X165675201Y-123071400D01*
X165626863Y-123053807D01*
X165601143Y-123009258D01*
X165600001Y-122996201D01*
X165599988Y-122224171D01*
X165617581Y-122175833D01*
X165622014Y-122170996D01*
X166365164Y-121427846D01*
X166411784Y-121406106D01*
X166461471Y-121419420D01*
X166490976Y-121461557D01*
X166487814Y-121509798D01*
X166461331Y-121573733D01*
X166442329Y-121718069D01*
X166461331Y-121862405D01*
X166517043Y-121996904D01*
X166520039Y-122000808D01*
X166520041Y-122000812D01*
X166540137Y-122027001D01*
X166605667Y-122112402D01*
X166721164Y-122201026D01*
X166756875Y-122215818D01*
X166851110Y-122254852D01*
X166851112Y-122254853D01*
X166855664Y-122256738D01*
X167000000Y-122275740D01*
X167144336Y-122256738D01*
X167148888Y-122254853D01*
X167148890Y-122254852D01*
X167243125Y-122215818D01*
X167278836Y-122201026D01*
X167394333Y-122112402D01*
X167459863Y-122027001D01*
X167479959Y-122000812D01*
X167479961Y-122000808D01*
X167482957Y-121996904D01*
X167524169Y-121897411D01*
X167558922Y-121859486D01*
X167593645Y-121850989D01*
X177675930Y-121850989D01*
X177682485Y-121851275D01*
X177717980Y-121854381D01*
X177717982Y-121854381D01*
X177724533Y-121854954D01*
X177730884Y-121853252D01*
X177730887Y-121853252D01*
X177765302Y-121844030D01*
X177771707Y-121842610D01*
X177806797Y-121836423D01*
X177813274Y-121835281D01*
X177818972Y-121831991D01*
X177822244Y-121830800D01*
X177831831Y-121826829D01*
X177834980Y-121825360D01*
X177841338Y-121823657D01*
X177875933Y-121799433D01*
X177881444Y-121795922D01*
X177917998Y-121774818D01*
X177922226Y-121769780D01*
X177922230Y-121769776D01*
X177945136Y-121742477D01*
X177949569Y-121737640D01*
X178401279Y-121285930D01*
X180772345Y-121285930D01*
X180772653Y-121289598D01*
X180772653Y-121289601D01*
X180787093Y-121461557D01*
X180788803Y-121481919D01*
X180843015Y-121670979D01*
X180932916Y-121845908D01*
X181055083Y-122000044D01*
X181057877Y-122002422D01*
X181057878Y-122002423D01*
X181092691Y-122032051D01*
X181204862Y-122127516D01*
X181208063Y-122129305D01*
X181208066Y-122129307D01*
X181246656Y-122150874D01*
X181376547Y-122223467D01*
X181380044Y-122224603D01*
X181380048Y-122224605D01*
X181470755Y-122254077D01*
X181563600Y-122284244D01*
X181670984Y-122297049D01*
X181755237Y-122307096D01*
X181755239Y-122307096D01*
X181758895Y-122307532D01*
X181954994Y-122292443D01*
X182089630Y-122254852D01*
X182140883Y-122240542D01*
X182140885Y-122240541D01*
X182144428Y-122239552D01*
X182226632Y-122198028D01*
X182316697Y-122152533D01*
X182316698Y-122152532D01*
X182319981Y-122150874D01*
X182474966Y-122029786D01*
X182603480Y-121880901D01*
X182618220Y-121854954D01*
X182698810Y-121713091D01*
X182698812Y-121713088D01*
X182700628Y-121709890D01*
X182762710Y-121523266D01*
X182787360Y-121328138D01*
X182787753Y-121300000D01*
X182787408Y-121296481D01*
X182786374Y-121285930D01*
X185852345Y-121285930D01*
X185852653Y-121289598D01*
X185852653Y-121289601D01*
X185867093Y-121461557D01*
X185868803Y-121481919D01*
X185923015Y-121670979D01*
X186012916Y-121845908D01*
X186135083Y-122000044D01*
X186137877Y-122002422D01*
X186137878Y-122002423D01*
X186172691Y-122032051D01*
X186284862Y-122127516D01*
X186288063Y-122129305D01*
X186288066Y-122129307D01*
X186326656Y-122150874D01*
X186456547Y-122223467D01*
X186460044Y-122224603D01*
X186460048Y-122224605D01*
X186550755Y-122254077D01*
X186643600Y-122284244D01*
X186750984Y-122297049D01*
X186835237Y-122307096D01*
X186835239Y-122307096D01*
X186838895Y-122307532D01*
X187034994Y-122292443D01*
X187169630Y-122254852D01*
X187220883Y-122240542D01*
X187220885Y-122240541D01*
X187224428Y-122239552D01*
X187306632Y-122198028D01*
X187396697Y-122152533D01*
X187396698Y-122152532D01*
X187399981Y-122150874D01*
X187554966Y-122029786D01*
X187683480Y-121880901D01*
X187698220Y-121854954D01*
X187778810Y-121713091D01*
X187778812Y-121713088D01*
X187780628Y-121709890D01*
X187842710Y-121523266D01*
X187867360Y-121328138D01*
X187867753Y-121300000D01*
X187867408Y-121296481D01*
X187848921Y-121107927D01*
X187848920Y-121107922D01*
X187848561Y-121104260D01*
X187791714Y-120915975D01*
X187699379Y-120742318D01*
X187575072Y-120589903D01*
X187423528Y-120464535D01*
X187368799Y-120434943D01*
X188397100Y-120434943D01*
X188397101Y-122165056D01*
X188405972Y-122209658D01*
X188439766Y-122260234D01*
X188445923Y-122264348D01*
X188484183Y-122289913D01*
X188484184Y-122289914D01*
X188490342Y-122294028D01*
X188534943Y-122302900D01*
X189399882Y-122302900D01*
X190265056Y-122302899D01*
X190309658Y-122294028D01*
X190360234Y-122260234D01*
X190384801Y-122223467D01*
X190389913Y-122215817D01*
X190389914Y-122215816D01*
X190394028Y-122209658D01*
X190396341Y-122198028D01*
X190402179Y-122168682D01*
X190402179Y-122168681D01*
X190402900Y-122165057D01*
X190402899Y-120434944D01*
X190394028Y-120390342D01*
X190360234Y-120339766D01*
X190354077Y-120335652D01*
X190315817Y-120310087D01*
X190315816Y-120310086D01*
X190309658Y-120305972D01*
X190265057Y-120297100D01*
X189400118Y-120297100D01*
X188534944Y-120297101D01*
X188490342Y-120305972D01*
X188439766Y-120339766D01*
X188435652Y-120345923D01*
X188417735Y-120372738D01*
X188405972Y-120390342D01*
X188397100Y-120434943D01*
X187368799Y-120434943D01*
X187250520Y-120370990D01*
X187062637Y-120312830D01*
X186919832Y-120297821D01*
X186870690Y-120292656D01*
X186870689Y-120292656D01*
X186867035Y-120292272D01*
X186769101Y-120301184D01*
X186674824Y-120309764D01*
X186674823Y-120309764D01*
X186671166Y-120310097D01*
X186667641Y-120311134D01*
X186667638Y-120311135D01*
X186549440Y-120345923D01*
X186482489Y-120365628D01*
X186308192Y-120456748D01*
X186154912Y-120579988D01*
X186028489Y-120730653D01*
X186026718Y-120733875D01*
X186026717Y-120733876D01*
X185956412Y-120861762D01*
X185933739Y-120903004D01*
X185874269Y-121090476D01*
X185852345Y-121285930D01*
X182786374Y-121285930D01*
X182768921Y-121107927D01*
X182768920Y-121107922D01*
X182768561Y-121104260D01*
X182711714Y-120915975D01*
X182619379Y-120742318D01*
X182495072Y-120589903D01*
X182343528Y-120464535D01*
X182170520Y-120370990D01*
X181982637Y-120312830D01*
X181839832Y-120297821D01*
X181790690Y-120292656D01*
X181790689Y-120292656D01*
X181787035Y-120292272D01*
X181689101Y-120301184D01*
X181594824Y-120309764D01*
X181594823Y-120309764D01*
X181591166Y-120310097D01*
X181587641Y-120311134D01*
X181587638Y-120311135D01*
X181469440Y-120345923D01*
X181402489Y-120365628D01*
X181228192Y-120456748D01*
X181074912Y-120579988D01*
X180948489Y-120730653D01*
X180946718Y-120733875D01*
X180946717Y-120733876D01*
X180876412Y-120861762D01*
X180853739Y-120903004D01*
X180794269Y-121090476D01*
X180772345Y-121285930D01*
X178401279Y-121285930D01*
X180729550Y-118957658D01*
X180734387Y-118953225D01*
X180761689Y-118930316D01*
X180766729Y-118926087D01*
X180787832Y-118889535D01*
X180791356Y-118884003D01*
X180811795Y-118854814D01*
X180815567Y-118849427D01*
X180817270Y-118843073D01*
X180818738Y-118839924D01*
X180822721Y-118830308D01*
X180823904Y-118827059D01*
X180827192Y-118821363D01*
X180834522Y-118779792D01*
X180835942Y-118773387D01*
X180845163Y-118738976D01*
X180845163Y-118738973D01*
X180846865Y-118732622D01*
X180843186Y-118690574D01*
X180842900Y-118684019D01*
X180842900Y-118525960D01*
X180860493Y-118477622D01*
X180905042Y-118451902D01*
X180955700Y-118460835D01*
X180988765Y-118500240D01*
X180990986Y-118507448D01*
X181005543Y-118564767D01*
X181094499Y-118757726D01*
X181217128Y-118931244D01*
X181219591Y-118933643D01*
X181219595Y-118933648D01*
X181309253Y-119020988D01*
X181369326Y-119079508D01*
X181545993Y-119197553D01*
X181549155Y-119198912D01*
X181549156Y-119198912D01*
X181738049Y-119280067D01*
X181738051Y-119280068D01*
X181741215Y-119281427D01*
X181948452Y-119328320D01*
X182070654Y-119333121D01*
X182157321Y-119336527D01*
X182157324Y-119336527D01*
X182160765Y-119336662D01*
X182164170Y-119336168D01*
X182164175Y-119336168D01*
X182313548Y-119314509D01*
X182371042Y-119306173D01*
X182376775Y-119304227D01*
X182568980Y-119238983D01*
X182568983Y-119238981D01*
X182572243Y-119237875D01*
X182757628Y-119134054D01*
X182920988Y-118998188D01*
X183056854Y-118834828D01*
X183160675Y-118649443D01*
X183189419Y-118564767D01*
X183227863Y-118451512D01*
X183228973Y-118448242D01*
X183259462Y-118237965D01*
X183261053Y-118177200D01*
X183260356Y-118169607D01*
X183241926Y-117969048D01*
X183241611Y-117965615D01*
X183183936Y-117761116D01*
X183181258Y-117755684D01*
X183116290Y-117623944D01*
X183089960Y-117570551D01*
X182962831Y-117400304D01*
X182806804Y-117256075D01*
X182803099Y-117253737D01*
X182630019Y-117144531D01*
X182630016Y-117144530D01*
X182627107Y-117142694D01*
X182544136Y-117109592D01*
X182490234Y-117088087D01*
X182451857Y-117053835D01*
X182442900Y-117018241D01*
X182442900Y-113318256D01*
X182443186Y-113311701D01*
X182446292Y-113276206D01*
X182446292Y-113276204D01*
X182446865Y-113269653D01*
X182445163Y-113263302D01*
X182445163Y-113263299D01*
X182435942Y-113228888D01*
X182434522Y-113222483D01*
X182428334Y-113187388D01*
X182428334Y-113187387D01*
X182427192Y-113180912D01*
X182423904Y-113175216D01*
X182422721Y-113171967D01*
X182418738Y-113162351D01*
X182417270Y-113159202D01*
X182415567Y-113152848D01*
X182411794Y-113147460D01*
X182411793Y-113147457D01*
X182391360Y-113118274D01*
X182387837Y-113112745D01*
X182370021Y-113081888D01*
X182370018Y-113081884D01*
X182366729Y-113076188D01*
X182361691Y-113071960D01*
X182361687Y-113071956D01*
X182334388Y-113049050D01*
X182329551Y-113044617D01*
X176164926Y-106879992D01*
X176143186Y-106833372D01*
X176142900Y-106826818D01*
X176142900Y-101033334D01*
X176160493Y-100984996D01*
X176205042Y-100959276D01*
X176255700Y-100968209D01*
X176271274Y-100980160D01*
X177646234Y-102355120D01*
X177667974Y-102401740D01*
X177668260Y-102408294D01*
X177668260Y-106196915D01*
X177666576Y-106212741D01*
X177663778Y-106225739D01*
X177665786Y-106242703D01*
X177667739Y-106259208D01*
X177668260Y-106268046D01*
X177668260Y-106271911D01*
X177668769Y-106274968D01*
X177668769Y-106274970D01*
X177671367Y-106290575D01*
X177671866Y-106294080D01*
X177677586Y-106342410D01*
X177680278Y-106348015D01*
X177680562Y-106348994D01*
X177680755Y-106349840D01*
X177680989Y-106350581D01*
X177681319Y-106351387D01*
X177681649Y-106352351D01*
X177682670Y-106358484D01*
X177699667Y-106389985D01*
X177705782Y-106401318D01*
X177707384Y-106404464D01*
X177728443Y-106448318D01*
X177731783Y-106452292D01*
X177732762Y-106453271D01*
X177735676Y-106456722D01*
X177738458Y-106461879D01*
X177775907Y-106496496D01*
X177778011Y-106498520D01*
X183625074Y-112345583D01*
X183646814Y-112392203D01*
X183647100Y-112398757D01*
X183647100Y-117054322D01*
X183645416Y-117070148D01*
X183642618Y-117083146D01*
X183643349Y-117089320D01*
X183646579Y-117116615D01*
X183647100Y-117125453D01*
X183647100Y-117129318D01*
X183649835Y-117145745D01*
X183650207Y-117147982D01*
X183650706Y-117151487D01*
X183656426Y-117199817D01*
X183659118Y-117205422D01*
X183659402Y-117206401D01*
X183659595Y-117207247D01*
X183659829Y-117207988D01*
X183660159Y-117208794D01*
X183660489Y-117209758D01*
X183661510Y-117215891D01*
X183684622Y-117258725D01*
X183686224Y-117261871D01*
X183707283Y-117305725D01*
X183710623Y-117309699D01*
X183711602Y-117310678D01*
X183714516Y-117314129D01*
X183717298Y-117319286D01*
X183754747Y-117353903D01*
X183756851Y-117355927D01*
X184024868Y-117623944D01*
X184046608Y-117670564D01*
X184038245Y-117712132D01*
X184028930Y-117729836D01*
X184028930Y-117729837D01*
X184027327Y-117732884D01*
X183964319Y-117935804D01*
X183939345Y-118146807D01*
X183939570Y-118150241D01*
X183939570Y-118150244D01*
X183941245Y-118175797D01*
X183953241Y-118358829D01*
X184005543Y-118564767D01*
X184094499Y-118757726D01*
X184217128Y-118931244D01*
X184219591Y-118933643D01*
X184219595Y-118933648D01*
X184309253Y-119020988D01*
X184369326Y-119079508D01*
X184545993Y-119197553D01*
X184549155Y-119198912D01*
X184549156Y-119198912D01*
X184738049Y-119280067D01*
X184738051Y-119280068D01*
X184741215Y-119281427D01*
X184948452Y-119328320D01*
X185070654Y-119333121D01*
X185157321Y-119336527D01*
X185157324Y-119336527D01*
X185160765Y-119336662D01*
X185164170Y-119336168D01*
X185164175Y-119336168D01*
X185313548Y-119314509D01*
X185371042Y-119306173D01*
X185376775Y-119304227D01*
X185568980Y-119238983D01*
X185568983Y-119238981D01*
X185572243Y-119237875D01*
X185757628Y-119134054D01*
X185920988Y-118998188D01*
X186056854Y-118834828D01*
X186160675Y-118649443D01*
X186189419Y-118564767D01*
X186227863Y-118451512D01*
X186228973Y-118448242D01*
X186259462Y-118237965D01*
X186261053Y-118177200D01*
X186260356Y-118169607D01*
X186241926Y-117969048D01*
X186241611Y-117965615D01*
X186183936Y-117761116D01*
X186181258Y-117755684D01*
X186116290Y-117623944D01*
X186089960Y-117570551D01*
X185962831Y-117400304D01*
X185806804Y-117256075D01*
X185803099Y-117253737D01*
X185630019Y-117144531D01*
X185630016Y-117144530D01*
X185627107Y-117142694D01*
X185490234Y-117088087D01*
X185432966Y-117065239D01*
X185432963Y-117065238D01*
X185429757Y-117063959D01*
X185426376Y-117063286D01*
X185426371Y-117063285D01*
X185224746Y-117023180D01*
X185224747Y-117023180D01*
X185221363Y-117022507D01*
X185092012Y-117020814D01*
X185012348Y-117019771D01*
X185012347Y-117019771D01*
X185008905Y-117019726D01*
X185005514Y-117020309D01*
X185005510Y-117020309D01*
X184802889Y-117055126D01*
X184802887Y-117055126D01*
X184799497Y-117055709D01*
X184600154Y-117129251D01*
X184599124Y-117129864D01*
X184548520Y-117134732D01*
X184514179Y-117115103D01*
X184374926Y-116975850D01*
X184353186Y-116929230D01*
X184352900Y-116922676D01*
X184352900Y-114292881D01*
X184370493Y-114244543D01*
X184415042Y-114218823D01*
X184462240Y-114225877D01*
X184489589Y-114239812D01*
X184495436Y-114240738D01*
X184528988Y-114246052D01*
X184570398Y-114267152D01*
X184891174Y-114587928D01*
X184894257Y-114591499D01*
X184896199Y-114595472D01*
X184901287Y-114600192D01*
X184901288Y-114600193D01*
X184929983Y-114626811D01*
X184932015Y-114628769D01*
X184944939Y-114641693D01*
X184947800Y-114643656D01*
X184949510Y-114645077D01*
X184952589Y-114647781D01*
X184972099Y-114665879D01*
X184972091Y-114665888D01*
X184976023Y-114669033D01*
X187429728Y-117122738D01*
X187451468Y-117169358D01*
X187438154Y-117219045D01*
X187420752Y-117236753D01*
X187420524Y-117236919D01*
X187417550Y-117238688D01*
X187414955Y-117240964D01*
X187414952Y-117240966D01*
X187268690Y-117369235D01*
X187257802Y-117378784D01*
X187255668Y-117381491D01*
X187255666Y-117381493D01*
X187134368Y-117535359D01*
X187126259Y-117545645D01*
X187124656Y-117548692D01*
X187124654Y-117548695D01*
X187029351Y-117729837D01*
X187027327Y-117733684D01*
X187026307Y-117736969D01*
X186965589Y-117932515D01*
X186964319Y-117936604D01*
X186939345Y-118147607D01*
X186939570Y-118151041D01*
X186939570Y-118151044D01*
X186941337Y-118178000D01*
X186953241Y-118359629D01*
X187005543Y-118565567D01*
X187094499Y-118758526D01*
X187217128Y-118932044D01*
X187219591Y-118934443D01*
X187219595Y-118934448D01*
X187308432Y-119020988D01*
X187369326Y-119080308D01*
X187545993Y-119198353D01*
X187549155Y-119199712D01*
X187549156Y-119199712D01*
X187738049Y-119280867D01*
X187738051Y-119280868D01*
X187741215Y-119282227D01*
X187948452Y-119329120D01*
X188070654Y-119333921D01*
X188157321Y-119337327D01*
X188157324Y-119337327D01*
X188160765Y-119337462D01*
X188164170Y-119336968D01*
X188164175Y-119336968D01*
X188313548Y-119315309D01*
X188371042Y-119306973D01*
X188446299Y-119281427D01*
X188568980Y-119239783D01*
X188568983Y-119239781D01*
X188572243Y-119238675D01*
X188757628Y-119134854D01*
X188920988Y-118998988D01*
X189056854Y-118835628D01*
X189160675Y-118650243D01*
X189162055Y-118646180D01*
X189227863Y-118452312D01*
X189228973Y-118449042D01*
X189259462Y-118238765D01*
X189261053Y-118178000D01*
X189258261Y-118147607D01*
X189251621Y-118075349D01*
X189241611Y-117966415D01*
X189183936Y-117761916D01*
X189168117Y-117729837D01*
X189094136Y-117579820D01*
X189089960Y-117571351D01*
X188962831Y-117401104D01*
X188860175Y-117306210D01*
X188836622Y-117260479D01*
X188847975Y-117210308D01*
X188888921Y-117179172D01*
X188911221Y-117175789D01*
X189674431Y-117175789D01*
X189722769Y-117193382D01*
X189727605Y-117197815D01*
X190069294Y-117539504D01*
X190091034Y-117586124D01*
X190082671Y-117627692D01*
X190027327Y-117732884D01*
X189964319Y-117935804D01*
X189939345Y-118146807D01*
X189939570Y-118150241D01*
X189939570Y-118150244D01*
X189941245Y-118175797D01*
X189953241Y-118358829D01*
X190005543Y-118564767D01*
X190094499Y-118757726D01*
X190217128Y-118931244D01*
X190219591Y-118933643D01*
X190219595Y-118933648D01*
X190309253Y-119020988D01*
X190369326Y-119079508D01*
X190545993Y-119197553D01*
X190549155Y-119198912D01*
X190549156Y-119198912D01*
X190738049Y-119280067D01*
X190738051Y-119280068D01*
X190741215Y-119281427D01*
X190948452Y-119328320D01*
X191070654Y-119333121D01*
X191157321Y-119336527D01*
X191157324Y-119336527D01*
X191160765Y-119336662D01*
X191164170Y-119336168D01*
X191164175Y-119336168D01*
X191313548Y-119314509D01*
X191371042Y-119306173D01*
X191376775Y-119304227D01*
X191568980Y-119238983D01*
X191568983Y-119238981D01*
X191572243Y-119237875D01*
X191757628Y-119134054D01*
X191920988Y-118998188D01*
X192056854Y-118834828D01*
X192160675Y-118649443D01*
X192189419Y-118564767D01*
X192227863Y-118451512D01*
X192228973Y-118448242D01*
X192259462Y-118237965D01*
X192261053Y-118177200D01*
X192260356Y-118169607D01*
X192241926Y-117969048D01*
X192241611Y-117965615D01*
X192183936Y-117761116D01*
X192181258Y-117755684D01*
X192116290Y-117623944D01*
X192089960Y-117570551D01*
X191962831Y-117400304D01*
X191806804Y-117256075D01*
X191803099Y-117253737D01*
X191630019Y-117144531D01*
X191630016Y-117144530D01*
X191627107Y-117142694D01*
X191490234Y-117088087D01*
X191432966Y-117065239D01*
X191432963Y-117065238D01*
X191429757Y-117063959D01*
X191426376Y-117063286D01*
X191426371Y-117063285D01*
X191224746Y-117023180D01*
X191224747Y-117023180D01*
X191221363Y-117022507D01*
X191092012Y-117020814D01*
X191012348Y-117019771D01*
X191012347Y-117019771D01*
X191008905Y-117019726D01*
X191005514Y-117020309D01*
X191005510Y-117020309D01*
X190802889Y-117055126D01*
X190802887Y-117055126D01*
X190799497Y-117055709D01*
X190600154Y-117129251D01*
X190574462Y-117144536D01*
X190553177Y-117157199D01*
X190502640Y-117166793D01*
X190461555Y-117145745D01*
X190052682Y-116736872D01*
X190049599Y-116733301D01*
X190047657Y-116729328D01*
X190038377Y-116720719D01*
X190013873Y-116697989D01*
X190011841Y-116696031D01*
X189998917Y-116683107D01*
X189996056Y-116681144D01*
X189994346Y-116679723D01*
X189991267Y-116677019D01*
X189976846Y-116663641D01*
X189976844Y-116663640D01*
X189971758Y-116658922D01*
X189965314Y-116656351D01*
X189965312Y-116656350D01*
X189960180Y-116654303D01*
X189945505Y-116646467D01*
X189940953Y-116643344D01*
X189940951Y-116643343D01*
X189935228Y-116639417D01*
X189928475Y-116637814D01*
X189928474Y-116637814D01*
X189910097Y-116633453D01*
X189899593Y-116630131D01*
X189875602Y-116620559D01*
X189869788Y-116619989D01*
X189862167Y-116619989D01*
X189844804Y-116617957D01*
X189841255Y-116617115D01*
X189834500Y-116615512D01*
X189827622Y-116616448D01*
X189827621Y-116616448D01*
X189806652Y-116619302D01*
X189796511Y-116619989D01*
X188344147Y-116619989D01*
X188295809Y-116602396D01*
X188290973Y-116597963D01*
X186161464Y-114468454D01*
X186139724Y-114421834D01*
X186153038Y-114372147D01*
X186195175Y-114342642D01*
X186202872Y-114341006D01*
X186204565Y-114340738D01*
X186204566Y-114340738D01*
X186210411Y-114339812D01*
X186310015Y-114289061D01*
X186389061Y-114210015D01*
X186400666Y-114187240D01*
X186432996Y-114123788D01*
X186470617Y-114088706D01*
X186521986Y-114086014D01*
X186563068Y-114116971D01*
X186567004Y-114123788D01*
X186599335Y-114187240D01*
X186610939Y-114210015D01*
X186689985Y-114289061D01*
X186789589Y-114339812D01*
X186840959Y-114347948D01*
X186884664Y-114354870D01*
X186900000Y-114357299D01*
X186915337Y-114354870D01*
X186959041Y-114347948D01*
X187010411Y-114339812D01*
X187110015Y-114289061D01*
X187189061Y-114210015D01*
X187200666Y-114187240D01*
X187232996Y-114123788D01*
X187239812Y-114110411D01*
X187255789Y-114009535D01*
X187256373Y-114005847D01*
X187257299Y-114000000D01*
X187239812Y-113889589D01*
X187189061Y-113789985D01*
X187190140Y-113789435D01*
X187177900Y-113751764D01*
X187177900Y-112013558D01*
X187195493Y-111965220D01*
X187240042Y-111939500D01*
X187266248Y-111941333D01*
X187266489Y-111939812D01*
X187376900Y-111957299D01*
X187487311Y-111939812D01*
X187586915Y-111889061D01*
X187665961Y-111810015D01*
X187716712Y-111710411D01*
X187734199Y-111600000D01*
X187716712Y-111489589D01*
X187665961Y-111389985D01*
X187601846Y-111325870D01*
X187580106Y-111279250D01*
X187579820Y-111272696D01*
X187579820Y-109552100D01*
X187580165Y-109547402D01*
X187581601Y-109543220D01*
X187579873Y-109497193D01*
X187579820Y-109494373D01*
X187579820Y-109476072D01*
X187579186Y-109472666D01*
X187578981Y-109470452D01*
X187578715Y-109466356D01*
X187578564Y-109462344D01*
X187577717Y-109439767D01*
X187572796Y-109428314D01*
X187567962Y-109412402D01*
X187566950Y-109406966D01*
X187566949Y-109406964D01*
X187565679Y-109400144D01*
X187555085Y-109382957D01*
X187552127Y-109378159D01*
X187547049Y-109368383D01*
X187538948Y-109349526D01*
X187538943Y-109349518D01*
X187536851Y-109344648D01*
X187533143Y-109340133D01*
X187527755Y-109334745D01*
X187516914Y-109321031D01*
X187515001Y-109317927D01*
X187514998Y-109317924D01*
X187511356Y-109312015D01*
X187495063Y-109299625D01*
X187488983Y-109295002D01*
X187481327Y-109288317D01*
X186632829Y-108439819D01*
X186611089Y-108393199D01*
X186624403Y-108343512D01*
X186651863Y-108319641D01*
X186706602Y-108291750D01*
X186706603Y-108291749D01*
X186711879Y-108289061D01*
X186747758Y-108253182D01*
X186794378Y-108231442D01*
X186844065Y-108244756D01*
X186854106Y-108253182D01*
X186889985Y-108289061D01*
X186895261Y-108291749D01*
X186895262Y-108291750D01*
X186916880Y-108302765D01*
X186989589Y-108339812D01*
X187044795Y-108348556D01*
X187057287Y-108350534D01*
X187100000Y-108357299D01*
X187142714Y-108350534D01*
X187155205Y-108348556D01*
X187210411Y-108339812D01*
X187283120Y-108302765D01*
X187304738Y-108291750D01*
X187304739Y-108291749D01*
X187310015Y-108289061D01*
X187389061Y-108210015D01*
X187439812Y-108110411D01*
X187457299Y-108000000D01*
X187439812Y-107889589D01*
X187389061Y-107789985D01*
X187390140Y-107789435D01*
X187377900Y-107751764D01*
X187377900Y-107750180D01*
X187378245Y-107745482D01*
X187379681Y-107741300D01*
X187379294Y-107730974D01*
X187377953Y-107695274D01*
X187377900Y-107692453D01*
X187377900Y-107674152D01*
X187377266Y-107670746D01*
X187377061Y-107668532D01*
X187376795Y-107664436D01*
X187376736Y-107662874D01*
X187375797Y-107637847D01*
X187370876Y-107626394D01*
X187366042Y-107610482D01*
X187365030Y-107605046D01*
X187365029Y-107605044D01*
X187363759Y-107598224D01*
X187350207Y-107576239D01*
X187345129Y-107566463D01*
X187337028Y-107547606D01*
X187337023Y-107547598D01*
X187334931Y-107542728D01*
X187331223Y-107538213D01*
X187325835Y-107532825D01*
X187314994Y-107519111D01*
X187313081Y-107516007D01*
X187313078Y-107516004D01*
X187309436Y-107510095D01*
X187291949Y-107496797D01*
X187287063Y-107493082D01*
X187279407Y-107486397D01*
X183567857Y-103774847D01*
X183546757Y-103733437D01*
X183540739Y-103695440D01*
X183540738Y-103695436D01*
X183539812Y-103689589D01*
X183537122Y-103684310D01*
X183535725Y-103680011D01*
X183537519Y-103628602D01*
X183554070Y-103603596D01*
X183655804Y-103501862D01*
X183702424Y-103480122D01*
X183752111Y-103493436D01*
X183775981Y-103520895D01*
X183797305Y-103562745D01*
X183876351Y-103641791D01*
X183881625Y-103644478D01*
X183881628Y-103644480D01*
X183922638Y-103665375D01*
X183975955Y-103692542D01*
X184086366Y-103710029D01*
X184196777Y-103692542D01*
X184246579Y-103667167D01*
X184291108Y-103644478D01*
X184291109Y-103644477D01*
X184296381Y-103641791D01*
X184300092Y-103638080D01*
X184349242Y-103623984D01*
X184396236Y-103644904D01*
X184413476Y-103670225D01*
X184415156Y-103674282D01*
X184415160Y-103674289D01*
X184417043Y-103678835D01*
X184420039Y-103682739D01*
X184420041Y-103682743D01*
X184490715Y-103774847D01*
X184505667Y-103794333D01*
X184621164Y-103882957D01*
X184626169Y-103885030D01*
X184751110Y-103936783D01*
X184751112Y-103936784D01*
X184755664Y-103938669D01*
X184900000Y-103957671D01*
X185044336Y-103938669D01*
X185048888Y-103936784D01*
X185048890Y-103936783D01*
X185173831Y-103885030D01*
X185178836Y-103882957D01*
X185294333Y-103794333D01*
X185311223Y-103772321D01*
X185354606Y-103744683D01*
X185370883Y-103742900D01*
X186426818Y-103742900D01*
X186475156Y-103760493D01*
X186479992Y-103764926D01*
X187424568Y-104709502D01*
X187446308Y-104756122D01*
X187445950Y-104772493D01*
X187442972Y-104795110D01*
X187442972Y-104795116D01*
X187442329Y-104800000D01*
X187461331Y-104944336D01*
X187463216Y-104948888D01*
X187463217Y-104948890D01*
X187492106Y-105018632D01*
X187517043Y-105078835D01*
X187520039Y-105082739D01*
X187520041Y-105082743D01*
X187584594Y-105166870D01*
X187605667Y-105194333D01*
X187721164Y-105282957D01*
X187746586Y-105293487D01*
X187851110Y-105336783D01*
X187851112Y-105336784D01*
X187855664Y-105338669D01*
X188000000Y-105357671D01*
X188144336Y-105338669D01*
X188148888Y-105336784D01*
X188148890Y-105336783D01*
X188253414Y-105293487D01*
X188278836Y-105282957D01*
X188394333Y-105194333D01*
X188415406Y-105166870D01*
X188431843Y-105145449D01*
X188475227Y-105117811D01*
X188525936Y-105124487D01*
X188497619Y-105084046D01*
X188500781Y-105035805D01*
X188536783Y-104948890D01*
X188536784Y-104948888D01*
X188538669Y-104944336D01*
X188557671Y-104800000D01*
X188538669Y-104655664D01*
X188535157Y-104647184D01*
X188497179Y-104555499D01*
X188490548Y-104539491D01*
X188488304Y-104488101D01*
X188519619Y-104447291D01*
X188569839Y-104436157D01*
X188587884Y-104440865D01*
X188594701Y-104443584D01*
X188609376Y-104451419D01*
X188619659Y-104458473D01*
X188626412Y-104460076D01*
X188626413Y-104460076D01*
X188644798Y-104464439D01*
X188655293Y-104467758D01*
X188674766Y-104475527D01*
X188713143Y-104509779D01*
X188722100Y-104545373D01*
X188722100Y-104987940D01*
X188704507Y-105036278D01*
X188700074Y-105041114D01*
X188665883Y-105075305D01*
X188662312Y-105078388D01*
X188658339Y-105080330D01*
X188653619Y-105085418D01*
X188653618Y-105085419D01*
X188627000Y-105114114D01*
X188625042Y-105116146D01*
X188623431Y-105117757D01*
X188576811Y-105139497D01*
X188527948Y-105126404D01*
X188560979Y-105162450D01*
X188564671Y-105208591D01*
X188563601Y-105213101D01*
X188562464Y-105217892D01*
X188559143Y-105228392D01*
X188549570Y-105252385D01*
X188549000Y-105258199D01*
X188549000Y-105265820D01*
X188546968Y-105283183D01*
X188544523Y-105293487D01*
X188545459Y-105300365D01*
X188545459Y-105300366D01*
X188548313Y-105321335D01*
X188549000Y-105331476D01*
X188549000Y-112320776D01*
X188531407Y-112369114D01*
X188526974Y-112373950D01*
X188510939Y-112389985D01*
X188508251Y-112395261D01*
X188508250Y-112395262D01*
X188504399Y-112402820D01*
X188460188Y-112489589D01*
X188442701Y-112600000D01*
X188460188Y-112710411D01*
X188510939Y-112810015D01*
X188589985Y-112889061D01*
X188689589Y-112939812D01*
X188800000Y-112957299D01*
X188910411Y-112939812D01*
X189010015Y-112889061D01*
X189089061Y-112810015D01*
X189139812Y-112710411D01*
X189157299Y-112600000D01*
X189139812Y-112489589D01*
X189112996Y-112436959D01*
X189104800Y-112402820D01*
X189104800Y-105453556D01*
X189122393Y-105405218D01*
X189126826Y-105400382D01*
X189161017Y-105366191D01*
X189164588Y-105363108D01*
X189168561Y-105361166D01*
X189188834Y-105339312D01*
X189199900Y-105327382D01*
X189201858Y-105325350D01*
X189214782Y-105312426D01*
X189216746Y-105309563D01*
X189218165Y-105307855D01*
X189220872Y-105304773D01*
X189231342Y-105293487D01*
X189238967Y-105285267D01*
X189243587Y-105273688D01*
X189251421Y-105259018D01*
X189254543Y-105254467D01*
X189254545Y-105254463D01*
X189258472Y-105248738D01*
X189264437Y-105223603D01*
X189267755Y-105213112D01*
X189277330Y-105189111D01*
X189277900Y-105183297D01*
X189277900Y-105175672D01*
X189279932Y-105158309D01*
X189280773Y-105154764D01*
X189282376Y-105148009D01*
X189278587Y-105120166D01*
X189277900Y-105110026D01*
X189277900Y-104448236D01*
X189290140Y-104410565D01*
X189289061Y-104410015D01*
X189337125Y-104315684D01*
X189339812Y-104310411D01*
X189350595Y-104242329D01*
X189355625Y-104210570D01*
X189380563Y-104165580D01*
X189428586Y-104147145D01*
X189441662Y-104148060D01*
X189494152Y-104156373D01*
X189494153Y-104156373D01*
X189500000Y-104157299D01*
X189512098Y-104155383D01*
X189604564Y-104140738D01*
X189610411Y-104139812D01*
X189710015Y-104089061D01*
X189789061Y-104010015D01*
X189839812Y-103910411D01*
X189857299Y-103800000D01*
X189839812Y-103689589D01*
X189789061Y-103589985D01*
X189710015Y-103510939D01*
X189699141Y-103505398D01*
X189663728Y-103487355D01*
X189610411Y-103460188D01*
X189519163Y-103445736D01*
X189505847Y-103443627D01*
X189500000Y-103442701D01*
X189494153Y-103443627D01*
X189488237Y-103443627D01*
X189488237Y-103443088D01*
X189476203Y-103442600D01*
X189476082Y-103443839D01*
X189472097Y-103443448D01*
X189472091Y-103443448D01*
X189470268Y-103443269D01*
X189462647Y-103443269D01*
X189445284Y-103441237D01*
X189441735Y-103440395D01*
X189434980Y-103438792D01*
X189428102Y-103439728D01*
X189428101Y-103439728D01*
X189407132Y-103442582D01*
X189396991Y-103443269D01*
X188673051Y-103443269D01*
X188624713Y-103425676D01*
X188619877Y-103421243D01*
X188504908Y-103306274D01*
X188483168Y-103259654D01*
X188496482Y-103209967D01*
X188538619Y-103180462D01*
X188558082Y-103177900D01*
X188651764Y-103177900D01*
X188689435Y-103190140D01*
X188689985Y-103189061D01*
X188789589Y-103239812D01*
X188900000Y-103257299D01*
X189010411Y-103239812D01*
X189068985Y-103209967D01*
X189104738Y-103191750D01*
X189104739Y-103191749D01*
X189110015Y-103189061D01*
X189189061Y-103110015D01*
X189239812Y-103010411D01*
X189257299Y-102900000D01*
X189239812Y-102789589D01*
X189189061Y-102689985D01*
X189110015Y-102610939D01*
X189088692Y-102600074D01*
X189063728Y-102587355D01*
X189010411Y-102560188D01*
X188900000Y-102542701D01*
X188789589Y-102560188D01*
X188689985Y-102610939D01*
X188689435Y-102609860D01*
X188651764Y-102622100D01*
X188420282Y-102622100D01*
X188371944Y-102604507D01*
X188367108Y-102600074D01*
X187735260Y-101968226D01*
X187732177Y-101964655D01*
X187730235Y-101960682D01*
X187696451Y-101929343D01*
X187694419Y-101927385D01*
X187681495Y-101914461D01*
X187678634Y-101912498D01*
X187676924Y-101911077D01*
X187673845Y-101908373D01*
X187659424Y-101894995D01*
X187659422Y-101894994D01*
X187654336Y-101890276D01*
X187647892Y-101887705D01*
X187647890Y-101887704D01*
X187642758Y-101885657D01*
X187628083Y-101877821D01*
X187623531Y-101874698D01*
X187623529Y-101874697D01*
X187617806Y-101870771D01*
X187611053Y-101869168D01*
X187611052Y-101869168D01*
X187592675Y-101864807D01*
X187582171Y-101861485D01*
X187558180Y-101851913D01*
X187552366Y-101851343D01*
X187544745Y-101851343D01*
X187527382Y-101849311D01*
X187523833Y-101848469D01*
X187517078Y-101846866D01*
X187510201Y-101847802D01*
X187510200Y-101847802D01*
X187489231Y-101850656D01*
X187479090Y-101851343D01*
X187252906Y-101851343D01*
X185869596Y-101851340D01*
X185821258Y-101833746D01*
X185816422Y-101829314D01*
X185745340Y-101758232D01*
X185742257Y-101754661D01*
X185740315Y-101750688D01*
X185720370Y-101732186D01*
X185706531Y-101719349D01*
X185704499Y-101717391D01*
X185691575Y-101704467D01*
X185688714Y-101702504D01*
X185687004Y-101701083D01*
X185683925Y-101698379D01*
X185669504Y-101685001D01*
X185669502Y-101685000D01*
X185664416Y-101680282D01*
X185657972Y-101677711D01*
X185657970Y-101677710D01*
X185652838Y-101675663D01*
X185638163Y-101667827D01*
X185633611Y-101664704D01*
X185633609Y-101664703D01*
X185627886Y-101660777D01*
X185621133Y-101659174D01*
X185621132Y-101659174D01*
X185602755Y-101654813D01*
X185592251Y-101651491D01*
X185584431Y-101648371D01*
X185568260Y-101641919D01*
X185562446Y-101641349D01*
X185554825Y-101641349D01*
X185537462Y-101639317D01*
X185533913Y-101638475D01*
X185527158Y-101636872D01*
X185520280Y-101637808D01*
X185520279Y-101637808D01*
X185499310Y-101640662D01*
X185489169Y-101641349D01*
X184327193Y-101641349D01*
X184322491Y-101641004D01*
X184318307Y-101639567D01*
X184273328Y-101641256D01*
X184272265Y-101641296D01*
X184269443Y-101641349D01*
X184251159Y-101641349D01*
X184247759Y-101641982D01*
X184245526Y-101642188D01*
X184241442Y-101642453D01*
X184221789Y-101643191D01*
X184221786Y-101643192D01*
X184214854Y-101643452D01*
X184208477Y-101646192D01*
X184208475Y-101646192D01*
X184203403Y-101648371D01*
X184187488Y-101653207D01*
X184182054Y-101654219D01*
X184182053Y-101654219D01*
X184175231Y-101655490D01*
X184153237Y-101669047D01*
X184143471Y-101674119D01*
X184135113Y-101677710D01*
X184119735Y-101684317D01*
X184115221Y-101688025D01*
X184109832Y-101693414D01*
X184096118Y-101704255D01*
X184093014Y-101706168D01*
X184093011Y-101706171D01*
X184087102Y-101709813D01*
X184082899Y-101715340D01*
X184082898Y-101715341D01*
X184070089Y-101732186D01*
X184063404Y-101739842D01*
X182306274Y-103496972D01*
X182259654Y-103518712D01*
X182209967Y-103505398D01*
X182180462Y-103463261D01*
X182177900Y-103443798D01*
X182177900Y-101050298D01*
X182178245Y-101045600D01*
X182179681Y-101041418D01*
X182179130Y-101026726D01*
X182177953Y-100995391D01*
X182177900Y-100992570D01*
X182177900Y-100974270D01*
X182177266Y-100970864D01*
X182177061Y-100968650D01*
X182176795Y-100964553D01*
X182176057Y-100944901D01*
X182175797Y-100937964D01*
X182173058Y-100931589D01*
X182173057Y-100931585D01*
X182170877Y-100926512D01*
X182166040Y-100910591D01*
X182165149Y-100905807D01*
X182163759Y-100898342D01*
X182150205Y-100876352D01*
X182145128Y-100866579D01*
X182137024Y-100847717D01*
X182134931Y-100842845D01*
X182131223Y-100838331D01*
X182125835Y-100832943D01*
X182114994Y-100819229D01*
X182113081Y-100816125D01*
X182113078Y-100816122D01*
X182109436Y-100810213D01*
X182087063Y-100793200D01*
X182079407Y-100786515D01*
X181968455Y-100675563D01*
X181947355Y-100634153D01*
X181941336Y-100596152D01*
X181940410Y-100590305D01*
X181889659Y-100490701D01*
X181810613Y-100411655D01*
X181711009Y-100360904D01*
X181600598Y-100343417D01*
X181490187Y-100360904D01*
X181489778Y-100358320D01*
X181448633Y-100356893D01*
X181410398Y-100322482D01*
X181401587Y-100287162D01*
X181401587Y-97828637D01*
X181419180Y-97780299D01*
X181423613Y-97775463D01*
X181489061Y-97710015D01*
X181539812Y-97610411D01*
X181557299Y-97500000D01*
X181539812Y-97389589D01*
X181489061Y-97289985D01*
X181410015Y-97210939D01*
X181310411Y-97160188D01*
X181200000Y-97142701D01*
X181089589Y-97160188D01*
X180989985Y-97210939D01*
X180910939Y-97289985D01*
X180860188Y-97389589D01*
X180842701Y-97500000D01*
X180844929Y-97514069D01*
X180845640Y-97527214D01*
X180845787Y-97527214D01*
X180845787Y-97534835D01*
X180843755Y-97552198D01*
X180841310Y-97562502D01*
X180842246Y-97569380D01*
X180842246Y-97569381D01*
X180845100Y-97590350D01*
X180845787Y-97600491D01*
X180845787Y-100848080D01*
X180845442Y-100852778D01*
X180844006Y-100856960D01*
X180844266Y-100863895D01*
X180844266Y-100863898D01*
X180845734Y-100902986D01*
X180845787Y-100905807D01*
X180845787Y-100924108D01*
X180846421Y-100927514D01*
X180846626Y-100929728D01*
X180846892Y-100933821D01*
X180847890Y-100960413D01*
X180850632Y-100966795D01*
X180850632Y-100966796D01*
X180852809Y-100971864D01*
X180857645Y-100987779D01*
X180859928Y-101000036D01*
X180863570Y-101005944D01*
X180873480Y-101022021D01*
X180878557Y-101031796D01*
X180886657Y-101050651D01*
X180886662Y-101050660D01*
X180888756Y-101055533D01*
X180892464Y-101060047D01*
X180897852Y-101065435D01*
X180908693Y-101079149D01*
X180910606Y-101082253D01*
X180910609Y-101082256D01*
X180914251Y-101088165D01*
X180919778Y-101092368D01*
X180919779Y-101092369D01*
X180936624Y-101105178D01*
X180944280Y-101111863D01*
X181100074Y-101267657D01*
X181121814Y-101314277D01*
X181122100Y-101320831D01*
X181122100Y-104273872D01*
X181104507Y-104322210D01*
X181059958Y-104347930D01*
X181012760Y-104340876D01*
X180976126Y-104322210D01*
X180935532Y-104301526D01*
X180825121Y-104284039D01*
X180714710Y-104301526D01*
X180674116Y-104322210D01*
X180637482Y-104340876D01*
X180615106Y-104352277D01*
X180536060Y-104431323D01*
X180533372Y-104436599D01*
X180533371Y-104436600D01*
X180519186Y-104464439D01*
X180485309Y-104530927D01*
X180467822Y-104641338D01*
X180468748Y-104647184D01*
X180477347Y-104701476D01*
X180467532Y-104751971D01*
X180427556Y-104784343D01*
X180414837Y-104787514D01*
X180367926Y-104794944D01*
X180352369Y-104797408D01*
X180252765Y-104848159D01*
X180173719Y-104927205D01*
X180122968Y-105026809D01*
X180105481Y-105137220D01*
X180122968Y-105247631D01*
X180153654Y-105307855D01*
X180173719Y-105347235D01*
X180172640Y-105347785D01*
X180184880Y-105385456D01*
X180184880Y-106588889D01*
X180167287Y-106637227D01*
X180122738Y-106662947D01*
X180072080Y-106654014D01*
X180056506Y-106642063D01*
X179199926Y-105785483D01*
X179178186Y-105738863D01*
X179177900Y-105732309D01*
X179177900Y-95146258D01*
X179195493Y-95097920D01*
X179199926Y-95093084D01*
X180025153Y-94267857D01*
X180066563Y-94246757D01*
X180104564Y-94240738D01*
X180110411Y-94239812D01*
X180210015Y-94189061D01*
X180289061Y-94110015D01*
X180339812Y-94010411D01*
X180357299Y-93900000D01*
X180339812Y-93789589D01*
X180289061Y-93689985D01*
X180210015Y-93610939D01*
X180110411Y-93560188D01*
X180000000Y-93542701D01*
X179889589Y-93560188D01*
X179789985Y-93610939D01*
X179710939Y-93689985D01*
X179660188Y-93789589D01*
X179659262Y-93795436D01*
X179653243Y-93833437D01*
X179632143Y-93874847D01*
X178904355Y-94602635D01*
X178857735Y-94624375D01*
X178808048Y-94611061D01*
X178778543Y-94568924D01*
X178775981Y-94549461D01*
X178775981Y-93348177D01*
X178793574Y-93299839D01*
X178798007Y-93295003D01*
X179025153Y-93067857D01*
X179066563Y-93046757D01*
X179104564Y-93040738D01*
X179110411Y-93039812D01*
X179210015Y-92989061D01*
X179289061Y-92910015D01*
X179339812Y-92810411D01*
X179357299Y-92700000D01*
X179339812Y-92589589D01*
X179289061Y-92489985D01*
X179210015Y-92410939D01*
X179110411Y-92360188D01*
X179000000Y-92342701D01*
X178889589Y-92360188D01*
X178789985Y-92410939D01*
X178710939Y-92489985D01*
X178660188Y-92589589D01*
X178659262Y-92595436D01*
X178653243Y-92633437D01*
X178632143Y-92674847D01*
X178337064Y-92969926D01*
X178333493Y-92973009D01*
X178329520Y-92974951D01*
X178324800Y-92980039D01*
X178324799Y-92980040D01*
X178298181Y-93008735D01*
X178296223Y-93010767D01*
X178283299Y-93023691D01*
X178281336Y-93026552D01*
X178279915Y-93028262D01*
X178277211Y-93031341D01*
X178263833Y-93045762D01*
X178263832Y-93045764D01*
X178259114Y-93050850D01*
X178256543Y-93057294D01*
X178256542Y-93057296D01*
X178254495Y-93062428D01*
X178246659Y-93077103D01*
X178239609Y-93087380D01*
X178238006Y-93094133D01*
X178238006Y-93094134D01*
X178233645Y-93112511D01*
X178230324Y-93123013D01*
X178220751Y-93147006D01*
X178220181Y-93152820D01*
X178220181Y-93160441D01*
X178218149Y-93177804D01*
X178215704Y-93188108D01*
X178216640Y-93194986D01*
X178216640Y-93194987D01*
X178219494Y-93215956D01*
X178220181Y-93226097D01*
X178220181Y-101749367D01*
X178202588Y-101797705D01*
X178158039Y-101823425D01*
X178107381Y-101814492D01*
X178091807Y-101802541D01*
X175174926Y-98885660D01*
X175153186Y-98839040D01*
X175152900Y-98832486D01*
X175152900Y-95933692D01*
X175153826Y-95921928D01*
X175156373Y-95905847D01*
X175157299Y-95900000D01*
X175155927Y-95891335D01*
X175153071Y-95873300D01*
X175152900Y-95871880D01*
X175152900Y-95870682D01*
X175152392Y-95867629D01*
X175152391Y-95867619D01*
X175147893Y-95840595D01*
X175147798Y-95840012D01*
X175147557Y-95838487D01*
X175139812Y-95789589D01*
X175139203Y-95788394D01*
X175138490Y-95784109D01*
X175112500Y-95735941D01*
X175111678Y-95734373D01*
X175091748Y-95695258D01*
X175091747Y-95695257D01*
X175089061Y-95689985D01*
X175086745Y-95687669D01*
X175086489Y-95687262D01*
X175085654Y-95686186D01*
X175082702Y-95680714D01*
X175045253Y-95646097D01*
X175043149Y-95644073D01*
X175010015Y-95610939D01*
X175005218Y-95608495D01*
X175001956Y-95605817D01*
X175000995Y-95605186D01*
X174996429Y-95600965D01*
X174953042Y-95581784D01*
X174949337Y-95580022D01*
X174915684Y-95562874D01*
X174915680Y-95562873D01*
X174910411Y-95560188D01*
X174904567Y-95559263D01*
X174898938Y-95557434D01*
X174899020Y-95557183D01*
X174897972Y-95556823D01*
X174894658Y-95555972D01*
X174888976Y-95553460D01*
X174882788Y-95552924D01*
X174882780Y-95552922D01*
X174845175Y-95549665D01*
X174839901Y-95549020D01*
X174805847Y-95543627D01*
X174800000Y-95542701D01*
X174794154Y-95543627D01*
X174788235Y-95543627D01*
X174788235Y-95543532D01*
X174778370Y-95543881D01*
X174771929Y-95543323D01*
X174765900Y-95544821D01*
X174765896Y-95544821D01*
X174732600Y-95553092D01*
X174726235Y-95554384D01*
X174699275Y-95558654D01*
X174689589Y-95560188D01*
X174683510Y-95563286D01*
X174667501Y-95569263D01*
X174665380Y-95569790D01*
X174657908Y-95571646D01*
X174652689Y-95575016D01*
X174626736Y-95591774D01*
X174620084Y-95595603D01*
X174595262Y-95608250D01*
X174595261Y-95608251D01*
X174589985Y-95610939D01*
X174582761Y-95618163D01*
X174570378Y-95628164D01*
X174559210Y-95635375D01*
X174555361Y-95640257D01*
X174555357Y-95640261D01*
X174538339Y-95661848D01*
X174532458Y-95668466D01*
X174510939Y-95689985D01*
X174508254Y-95695254D01*
X174508249Y-95695261D01*
X174504761Y-95702107D01*
X174496816Y-95714520D01*
X174486475Y-95727638D01*
X174484415Y-95733504D01*
X174476435Y-95756228D01*
X174472488Y-95765449D01*
X174460188Y-95789589D01*
X174459262Y-95795433D01*
X174459262Y-95795434D01*
X174457530Y-95806370D01*
X174454210Y-95819514D01*
X174447548Y-95838487D01*
X174447100Y-95843659D01*
X174447100Y-95866308D01*
X174446174Y-95878071D01*
X174442701Y-95900000D01*
X174443627Y-95905847D01*
X174446174Y-95921928D01*
X174447100Y-95933692D01*
X174447100Y-98780618D01*
X174429507Y-98828956D01*
X174384958Y-98854676D01*
X174334300Y-98845743D01*
X174318726Y-98833792D01*
X174155383Y-98670449D01*
X174150950Y-98665612D01*
X174128044Y-98638313D01*
X174128040Y-98638309D01*
X174123812Y-98633271D01*
X174087258Y-98612167D01*
X174081747Y-98608656D01*
X174047152Y-98584432D01*
X174040794Y-98582729D01*
X174037645Y-98581260D01*
X174028058Y-98577289D01*
X174024786Y-98576098D01*
X174019088Y-98572808D01*
X173977522Y-98565479D01*
X173971116Y-98564059D01*
X173936701Y-98554837D01*
X173936698Y-98554837D01*
X173930347Y-98553135D01*
X173923796Y-98553708D01*
X173923794Y-98553708D01*
X173888299Y-98556814D01*
X173881744Y-98557100D01*
X170918260Y-98557100D01*
X170911706Y-98556814D01*
X170876207Y-98553708D01*
X170876205Y-98553708D01*
X170869653Y-98553135D01*
X170833094Y-98562931D01*
X170828884Y-98564059D01*
X170822478Y-98565479D01*
X170780912Y-98572808D01*
X170775214Y-98576098D01*
X170771942Y-98577289D01*
X170762355Y-98581260D01*
X170759206Y-98582729D01*
X170752848Y-98584432D01*
X170718253Y-98608656D01*
X170712742Y-98612167D01*
X170676188Y-98633271D01*
X170671960Y-98638309D01*
X170671956Y-98638313D01*
X170649050Y-98665612D01*
X170644617Y-98670449D01*
X169927242Y-99387824D01*
X169908208Y-99401654D01*
X169895262Y-99408250D01*
X169895261Y-99408251D01*
X169889985Y-99410939D01*
X169810939Y-99489985D01*
X169808251Y-99495261D01*
X169808250Y-99495262D01*
X169794620Y-99522012D01*
X169760188Y-99589589D01*
X169742701Y-99700000D01*
X169760188Y-99810411D01*
X169778411Y-99846176D01*
X169791956Y-99872758D01*
X169810939Y-99910015D01*
X169889985Y-99989061D01*
X169895261Y-99991749D01*
X169895262Y-99991750D01*
X169936272Y-100012645D01*
X169989589Y-100039812D01*
X170100000Y-100057299D01*
X170210411Y-100039812D01*
X170263728Y-100012645D01*
X170304738Y-99991750D01*
X170304739Y-99991749D01*
X170310015Y-99989061D01*
X170389061Y-99910015D01*
X170398346Y-99891792D01*
X170412176Y-99872758D01*
X171020008Y-99264926D01*
X171066628Y-99243186D01*
X171073182Y-99242900D01*
X173076476Y-99242900D01*
X173124814Y-99260493D01*
X173150534Y-99305042D01*
X173141601Y-99355700D01*
X173129650Y-99371274D01*
X173110939Y-99389985D01*
X173060188Y-99489589D01*
X173059262Y-99495436D01*
X173045368Y-99583164D01*
X173042701Y-99600000D01*
X173060188Y-99710411D01*
X173062875Y-99715684D01*
X173108162Y-99804564D01*
X173110939Y-99810015D01*
X173125074Y-99824150D01*
X173146814Y-99870770D01*
X173147100Y-99877324D01*
X173147100Y-100107909D01*
X173145655Y-100122577D01*
X173142145Y-100140225D01*
X173147100Y-100165136D01*
X173161773Y-100238902D01*
X173217669Y-100322556D01*
X173223826Y-100326670D01*
X173232629Y-100332552D01*
X173244024Y-100341904D01*
X174592295Y-101690174D01*
X174601647Y-101701569D01*
X174611645Y-101716532D01*
X174662763Y-101750688D01*
X174695299Y-101772428D01*
X174701245Y-101773611D01*
X174738604Y-101807847D01*
X174747100Y-101842568D01*
X174747100Y-107048100D01*
X174729507Y-107096438D01*
X174684958Y-107122158D01*
X174671900Y-107123300D01*
X174521457Y-107123300D01*
X174506789Y-107121855D01*
X174489141Y-107118345D01*
X174481880Y-107119789D01*
X174481876Y-107119789D01*
X174481047Y-107119954D01*
X174473752Y-107121036D01*
X174339707Y-107134239D01*
X174339705Y-107134239D01*
X174336034Y-107134601D01*
X174332504Y-107135672D01*
X174332503Y-107135672D01*
X174192341Y-107178190D01*
X174192339Y-107178191D01*
X174188811Y-107179261D01*
X174053130Y-107251784D01*
X174050275Y-107254127D01*
X174050272Y-107254129D01*
X174012477Y-107285147D01*
X173934205Y-107349384D01*
X173931866Y-107352234D01*
X173838950Y-107465451D01*
X173838948Y-107465454D01*
X173836605Y-107468309D01*
X173764082Y-107603990D01*
X173763012Y-107607518D01*
X173763011Y-107607520D01*
X173731639Y-107710939D01*
X173719422Y-107751213D01*
X173706053Y-107886950D01*
X173705857Y-107888938D01*
X173704775Y-107896227D01*
X173704385Y-107898190D01*
X173703166Y-107904320D01*
X173704610Y-107911581D01*
X173704610Y-107911584D01*
X173704775Y-107912414D01*
X173705857Y-107919709D01*
X173715386Y-108016449D01*
X173719422Y-108057427D01*
X173764082Y-108204650D01*
X173836605Y-108340331D01*
X173838948Y-108343186D01*
X173838950Y-108343189D01*
X173899552Y-108417032D01*
X173934205Y-108459256D01*
X173937055Y-108461595D01*
X174050272Y-108554511D01*
X174050275Y-108554513D01*
X174053130Y-108556856D01*
X174163942Y-108616086D01*
X174198276Y-108654387D01*
X174199960Y-108705799D01*
X174176197Y-108740535D01*
X174170990Y-108744809D01*
X174168647Y-108747664D01*
X174168643Y-108747668D01*
X174157089Y-108761747D01*
X174079095Y-108856783D01*
X174010810Y-108984534D01*
X174009737Y-108988072D01*
X173976747Y-109096826D01*
X173968761Y-109123151D01*
X173958561Y-109226721D01*
X173956295Y-109249725D01*
X173955214Y-109257013D01*
X173953166Y-109267309D01*
X173954611Y-109274573D01*
X173956676Y-109284954D01*
X173958121Y-109299625D01*
X173958121Y-109326294D01*
X173956677Y-109340958D01*
X173955680Y-109345970D01*
X173928998Y-109389947D01*
X173880290Y-109406485D01*
X173828751Y-109384477D01*
X173496925Y-109052651D01*
X173082055Y-108762155D01*
X172873158Y-108664745D01*
X172626023Y-108549504D01*
X172626017Y-108549502D01*
X172623043Y-108548115D01*
X172133836Y-108417032D01*
X171629300Y-108372891D01*
X171124764Y-108417032D01*
X170635557Y-108548115D01*
X170632583Y-108549502D01*
X170632577Y-108549504D01*
X170385442Y-108664745D01*
X170176545Y-108762155D01*
X169761675Y-109052651D01*
X169403551Y-109410775D01*
X169113055Y-109825646D01*
X169066798Y-109924844D01*
X168900404Y-110281677D01*
X168900402Y-110281683D01*
X168899015Y-110284657D01*
X168898165Y-110287828D01*
X168898165Y-110287829D01*
X168885400Y-110335467D01*
X168767932Y-110773864D01*
X168723791Y-111278400D01*
X168767932Y-111782936D01*
X168899015Y-112272143D01*
X168900402Y-112275117D01*
X168900404Y-112275123D01*
X169003138Y-112495436D01*
X169113055Y-112731154D01*
X169403551Y-113146025D01*
X169761675Y-113504149D01*
X170176545Y-113794645D01*
X170179522Y-113796033D01*
X170632577Y-114007296D01*
X170632583Y-114007298D01*
X170635557Y-114008685D01*
X170638728Y-114009535D01*
X170638729Y-114009535D01*
X170715699Y-114030159D01*
X171124764Y-114139768D01*
X171629300Y-114183909D01*
X172133836Y-114139768D01*
X172542901Y-114030159D01*
X172619871Y-114009535D01*
X172619872Y-114009535D01*
X172623043Y-114008685D01*
X172626017Y-114007298D01*
X172626023Y-114007296D01*
X172966902Y-113848341D01*
X173082054Y-113794645D01*
X173496925Y-113504149D01*
X173855049Y-113146025D01*
X174145545Y-112731154D01*
X174255462Y-112495436D01*
X174358196Y-112275123D01*
X174358198Y-112275117D01*
X174359585Y-112272143D01*
X174490668Y-111782936D01*
X174534809Y-111278400D01*
X174490668Y-110773864D01*
X174373200Y-110335467D01*
X174360435Y-110287829D01*
X174360435Y-110287828D01*
X174359585Y-110284657D01*
X174358198Y-110281683D01*
X174358196Y-110281677D01*
X174286779Y-110128524D01*
X174282295Y-110077280D01*
X174311800Y-110035143D01*
X174361487Y-110021829D01*
X174390380Y-110030422D01*
X174410715Y-110041291D01*
X174454915Y-110054699D01*
X174545797Y-110082268D01*
X174545800Y-110082269D01*
X174549332Y-110083340D01*
X174553007Y-110083702D01*
X174573702Y-110085740D01*
X174675911Y-110095807D01*
X174683194Y-110096887D01*
X174693490Y-110098935D01*
X174711138Y-110095425D01*
X174725806Y-110093980D01*
X174873837Y-110093980D01*
X174922175Y-110111573D01*
X174947895Y-110156122D01*
X174938962Y-110206780D01*
X174931967Y-110216887D01*
X174877929Y-110282731D01*
X174877927Y-110282734D01*
X174875584Y-110285589D01*
X174803061Y-110421270D01*
X174801991Y-110424798D01*
X174801990Y-110424800D01*
X174771548Y-110525153D01*
X174758401Y-110568493D01*
X174758039Y-110572164D01*
X174758039Y-110572166D01*
X174744836Y-110706211D01*
X174743754Y-110713506D01*
X174743589Y-110714335D01*
X174743589Y-110714339D01*
X174742145Y-110721600D01*
X174745655Y-110739245D01*
X174747100Y-110753916D01*
X174747100Y-116164098D01*
X174729507Y-116212436D01*
X174725074Y-116217272D01*
X173775387Y-117166958D01*
X173728767Y-117188698D01*
X173682085Y-117177382D01*
X173630027Y-117144536D01*
X173630024Y-117144534D01*
X173627107Y-117142694D01*
X173490234Y-117088087D01*
X173432966Y-117065239D01*
X173432963Y-117065238D01*
X173429757Y-117063959D01*
X173426376Y-117063286D01*
X173426371Y-117063285D01*
X173224746Y-117023180D01*
X173224747Y-117023180D01*
X173221363Y-117022507D01*
X173092012Y-117020814D01*
X173012348Y-117019771D01*
X173012347Y-117019771D01*
X173008905Y-117019726D01*
X173005514Y-117020309D01*
X173005510Y-117020309D01*
X172802889Y-117055126D01*
X172802887Y-117055126D01*
X172799497Y-117055709D01*
X172600154Y-117129251D01*
X172417550Y-117237888D01*
X172414961Y-117240159D01*
X172414959Y-117240160D01*
X172260397Y-117375708D01*
X172257802Y-117377984D01*
X172255668Y-117380691D01*
X172255666Y-117380693D01*
X172130227Y-117539812D01*
X172126259Y-117544845D01*
X172124656Y-117547892D01*
X172124654Y-117547895D01*
X172028931Y-117729836D01*
X172027327Y-117732884D01*
X171964319Y-117935804D01*
X171939345Y-118146807D01*
X171939570Y-118150241D01*
X171939570Y-118150244D01*
X171941245Y-118175797D01*
X171953241Y-118358829D01*
X172005543Y-118564767D01*
X172094499Y-118757726D01*
X172217128Y-118931244D01*
X172219591Y-118933643D01*
X172219595Y-118933648D01*
X172309253Y-119020988D01*
X172369326Y-119079508D01*
X172545993Y-119197553D01*
X172549155Y-119198912D01*
X172549156Y-119198912D01*
X172738049Y-119280067D01*
X172738051Y-119280068D01*
X172741215Y-119281427D01*
X172948452Y-119328320D01*
X173070654Y-119333121D01*
X173157321Y-119336527D01*
X173157324Y-119336527D01*
X173160765Y-119336662D01*
X173164170Y-119336168D01*
X173164175Y-119336168D01*
X173313548Y-119314509D01*
X173371042Y-119306173D01*
X173376775Y-119304227D01*
X173568980Y-119238983D01*
X173568983Y-119238981D01*
X173572243Y-119237875D01*
X173757628Y-119134054D01*
X173920988Y-118998188D01*
X174056854Y-118834828D01*
X174160675Y-118649443D01*
X174189419Y-118564767D01*
X174227863Y-118451512D01*
X174228973Y-118448242D01*
X174259462Y-118237965D01*
X174261053Y-118177200D01*
X174260356Y-118169607D01*
X174241926Y-117969048D01*
X174241611Y-117965615D01*
X174183936Y-117761116D01*
X174181258Y-117755684D01*
X174116290Y-117623944D01*
X174112850Y-117616967D01*
X174107250Y-117565834D01*
X174127121Y-117530534D01*
X174542552Y-117115103D01*
X174970646Y-116687008D01*
X175017266Y-116665268D01*
X175066953Y-116678582D01*
X175096458Y-116720719D01*
X175099020Y-116740182D01*
X175099020Y-117396804D01*
X175097575Y-117411472D01*
X175094065Y-117429120D01*
X175095510Y-117436385D01*
X175099020Y-117454031D01*
X175105988Y-117489061D01*
X175113693Y-117527797D01*
X175111076Y-117528317D01*
X175112803Y-117567842D01*
X175107634Y-117580245D01*
X175032767Y-117722545D01*
X175027327Y-117732884D01*
X174964319Y-117935804D01*
X174939345Y-118146807D01*
X174939570Y-118150241D01*
X174939570Y-118150244D01*
X174941245Y-118175797D01*
X174953241Y-118358829D01*
X175005543Y-118564767D01*
X175094499Y-118757726D01*
X175217128Y-118931244D01*
X175219591Y-118933643D01*
X175219595Y-118933648D01*
X175309253Y-119020988D01*
X175369326Y-119079508D01*
X175545993Y-119197553D01*
X175549155Y-119198912D01*
X175549156Y-119198912D01*
X175738049Y-119280067D01*
X175738051Y-119280068D01*
X175741215Y-119281427D01*
X175948452Y-119328320D01*
X176070654Y-119333121D01*
X176157321Y-119336527D01*
X176157324Y-119336527D01*
X176160765Y-119336662D01*
X176164170Y-119336168D01*
X176164175Y-119336168D01*
X176313548Y-119314509D01*
X176371042Y-119306173D01*
X176376775Y-119304227D01*
X176568980Y-119238983D01*
X176568983Y-119238981D01*
X176572243Y-119237875D01*
X176757628Y-119134054D01*
X176920988Y-118998188D01*
X177054323Y-118837872D01*
X177098758Y-118811958D01*
X177149455Y-118820670D01*
X177182691Y-118859930D01*
X177187339Y-118885958D01*
X177187339Y-119888503D01*
X177169746Y-119936841D01*
X177165313Y-119941677D01*
X176365747Y-120741243D01*
X176319127Y-120762983D01*
X176312573Y-120763269D01*
X166409011Y-120763269D01*
X166404313Y-120762924D01*
X166400131Y-120761488D01*
X166393196Y-120761748D01*
X166393193Y-120761748D01*
X166354105Y-120763216D01*
X166351284Y-120763269D01*
X166332983Y-120763269D01*
X166329577Y-120763903D01*
X166327363Y-120764108D01*
X166323270Y-120764374D01*
X166296678Y-120765372D01*
X166290296Y-120768114D01*
X166290295Y-120768114D01*
X166285227Y-120770291D01*
X166269312Y-120775127D01*
X166263878Y-120776139D01*
X166263877Y-120776139D01*
X166257055Y-120777410D01*
X166251146Y-120781052D01*
X166251147Y-120781052D01*
X166235070Y-120790962D01*
X166225295Y-120796039D01*
X166206440Y-120804139D01*
X166206431Y-120804144D01*
X166201558Y-120806238D01*
X166197044Y-120809946D01*
X166191656Y-120815334D01*
X166177942Y-120826175D01*
X166174838Y-120828088D01*
X166174835Y-120828091D01*
X166168926Y-120831733D01*
X166164723Y-120837260D01*
X166164722Y-120837261D01*
X166151913Y-120854106D01*
X166145228Y-120861762D01*
X165728346Y-121278644D01*
X165681726Y-121300384D01*
X165632039Y-121287070D01*
X165602534Y-121244933D01*
X165599972Y-121225471D01*
X165599922Y-118146807D01*
X165939345Y-118146807D01*
X165939570Y-118150241D01*
X165939570Y-118150244D01*
X165941245Y-118175797D01*
X165953241Y-118358829D01*
X166005543Y-118564767D01*
X166094499Y-118757726D01*
X166217128Y-118931244D01*
X166219591Y-118933643D01*
X166219595Y-118933648D01*
X166309253Y-119020988D01*
X166369326Y-119079508D01*
X166545993Y-119197553D01*
X166549155Y-119198912D01*
X166549156Y-119198912D01*
X166738049Y-119280067D01*
X166738051Y-119280068D01*
X166741215Y-119281427D01*
X166948452Y-119328320D01*
X167070654Y-119333121D01*
X167157321Y-119336527D01*
X167157324Y-119336527D01*
X167160765Y-119336662D01*
X167164170Y-119336168D01*
X167164175Y-119336168D01*
X167313548Y-119314509D01*
X167371042Y-119306173D01*
X167376775Y-119304227D01*
X167568980Y-119238983D01*
X167568983Y-119238981D01*
X167572243Y-119237875D01*
X167757628Y-119134054D01*
X167920988Y-118998188D01*
X168056854Y-118834828D01*
X168160675Y-118649443D01*
X168189419Y-118564767D01*
X168227863Y-118451512D01*
X168228973Y-118448242D01*
X168259462Y-118237965D01*
X168261053Y-118177200D01*
X168260356Y-118169607D01*
X168258261Y-118146807D01*
X168939345Y-118146807D01*
X168939570Y-118150241D01*
X168939570Y-118150244D01*
X168941245Y-118175797D01*
X168953241Y-118358829D01*
X169005543Y-118564767D01*
X169094499Y-118757726D01*
X169217128Y-118931244D01*
X169219591Y-118933643D01*
X169219595Y-118933648D01*
X169309253Y-119020988D01*
X169369326Y-119079508D01*
X169545993Y-119197553D01*
X169549155Y-119198912D01*
X169549156Y-119198912D01*
X169738049Y-119280067D01*
X169738051Y-119280068D01*
X169741215Y-119281427D01*
X169948452Y-119328320D01*
X170070654Y-119333121D01*
X170157321Y-119336527D01*
X170157324Y-119336527D01*
X170160765Y-119336662D01*
X170164170Y-119336168D01*
X170164175Y-119336168D01*
X170313548Y-119314509D01*
X170371042Y-119306173D01*
X170376775Y-119304227D01*
X170568980Y-119238983D01*
X170568983Y-119238981D01*
X170572243Y-119237875D01*
X170757628Y-119134054D01*
X170920988Y-118998188D01*
X171056854Y-118834828D01*
X171160675Y-118649443D01*
X171189419Y-118564767D01*
X171227863Y-118451512D01*
X171228973Y-118448242D01*
X171259462Y-118237965D01*
X171261053Y-118177200D01*
X171260356Y-118169607D01*
X171241926Y-117969048D01*
X171241611Y-117965615D01*
X171183936Y-117761116D01*
X171181258Y-117755684D01*
X171116290Y-117623944D01*
X171089960Y-117570551D01*
X170962831Y-117400304D01*
X170806804Y-117256075D01*
X170803099Y-117253737D01*
X170630019Y-117144531D01*
X170630016Y-117144530D01*
X170627107Y-117142694D01*
X170490234Y-117088087D01*
X170432966Y-117065239D01*
X170432963Y-117065238D01*
X170429757Y-117063959D01*
X170426376Y-117063286D01*
X170426371Y-117063285D01*
X170224746Y-117023180D01*
X170224747Y-117023180D01*
X170221363Y-117022507D01*
X170092012Y-117020814D01*
X170012348Y-117019771D01*
X170012347Y-117019771D01*
X170008905Y-117019726D01*
X170005514Y-117020309D01*
X170005510Y-117020309D01*
X169802889Y-117055126D01*
X169802887Y-117055126D01*
X169799497Y-117055709D01*
X169600154Y-117129251D01*
X169417550Y-117237888D01*
X169414961Y-117240159D01*
X169414959Y-117240160D01*
X169260397Y-117375708D01*
X169257802Y-117377984D01*
X169255668Y-117380691D01*
X169255666Y-117380693D01*
X169130227Y-117539812D01*
X169126259Y-117544845D01*
X169124656Y-117547892D01*
X169124654Y-117547895D01*
X169028931Y-117729836D01*
X169027327Y-117732884D01*
X168964319Y-117935804D01*
X168939345Y-118146807D01*
X168258261Y-118146807D01*
X168241926Y-117969048D01*
X168241611Y-117965615D01*
X168183936Y-117761116D01*
X168181258Y-117755684D01*
X168116290Y-117623944D01*
X168089960Y-117570551D01*
X167962831Y-117400304D01*
X167806804Y-117256075D01*
X167803099Y-117253737D01*
X167630019Y-117144531D01*
X167630016Y-117144530D01*
X167627107Y-117142694D01*
X167490234Y-117088087D01*
X167432966Y-117065239D01*
X167432963Y-117065238D01*
X167429757Y-117063959D01*
X167426376Y-117063286D01*
X167426371Y-117063285D01*
X167224746Y-117023180D01*
X167224747Y-117023180D01*
X167221363Y-117022507D01*
X167092012Y-117020814D01*
X167012348Y-117019771D01*
X167012347Y-117019771D01*
X167008905Y-117019726D01*
X167005514Y-117020309D01*
X167005510Y-117020309D01*
X166802889Y-117055126D01*
X166802887Y-117055126D01*
X166799497Y-117055709D01*
X166600154Y-117129251D01*
X166417550Y-117237888D01*
X166414961Y-117240159D01*
X166414959Y-117240160D01*
X166260397Y-117375708D01*
X166257802Y-117377984D01*
X166255668Y-117380691D01*
X166255666Y-117380693D01*
X166130227Y-117539812D01*
X166126259Y-117544845D01*
X166124656Y-117547892D01*
X166124654Y-117547895D01*
X166028931Y-117729836D01*
X166027327Y-117732884D01*
X165964319Y-117935804D01*
X165939345Y-118146807D01*
X165599922Y-118146807D01*
X165599870Y-114894153D01*
X165599738Y-106766220D01*
X165617331Y-106717883D01*
X165661878Y-106692163D01*
X165712537Y-106701094D01*
X165728112Y-106713046D01*
X166853988Y-107838921D01*
X167288705Y-108273638D01*
X167310445Y-108320258D01*
X167297131Y-108369945D01*
X167254994Y-108399450D01*
X167201391Y-108393816D01*
X167160323Y-108372891D01*
X167135392Y-108360188D01*
X167024981Y-108342701D01*
X166914570Y-108360188D01*
X166889639Y-108372891D01*
X166848572Y-108393816D01*
X166814966Y-108410939D01*
X166735920Y-108489985D01*
X166733232Y-108495261D01*
X166733231Y-108495262D01*
X166725939Y-108509574D01*
X166685169Y-108589589D01*
X166667682Y-108700000D01*
X166685169Y-108810411D01*
X166728329Y-108895116D01*
X166735920Y-108910015D01*
X166734841Y-108910565D01*
X166747081Y-108948236D01*
X166747081Y-109797665D01*
X166729488Y-109846003D01*
X166725055Y-109850839D01*
X166674847Y-109901047D01*
X166633437Y-109922147D01*
X166608661Y-109926071D01*
X166589589Y-109929092D01*
X166582773Y-109932565D01*
X166496352Y-109976599D01*
X166489985Y-109979843D01*
X166410939Y-110058889D01*
X166408251Y-110064165D01*
X166408250Y-110064166D01*
X166392323Y-110095425D01*
X166360188Y-110158493D01*
X166359262Y-110164340D01*
X166350940Y-110216887D01*
X166342701Y-110268904D01*
X166343627Y-110274751D01*
X166344724Y-110281677D01*
X166360188Y-110379315D01*
X166410939Y-110478919D01*
X166489985Y-110557965D01*
X166495261Y-110560653D01*
X166495262Y-110560654D01*
X166536272Y-110581549D01*
X166589589Y-110608716D01*
X166700000Y-110626203D01*
X166810411Y-110608716D01*
X166863728Y-110581549D01*
X166904738Y-110560654D01*
X166904739Y-110560653D01*
X166910015Y-110557965D01*
X166989061Y-110478919D01*
X167039812Y-110379315D01*
X167045667Y-110342350D01*
X167046757Y-110335467D01*
X167067857Y-110294057D01*
X167185998Y-110175916D01*
X167189569Y-110172833D01*
X167193542Y-110170891D01*
X167203471Y-110160188D01*
X167224881Y-110137107D01*
X167226839Y-110135075D01*
X167239764Y-110122150D01*
X167241725Y-110119292D01*
X167243146Y-110117581D01*
X167245853Y-110114498D01*
X167248567Y-110111573D01*
X167263948Y-110094992D01*
X167268567Y-110083415D01*
X167276400Y-110068745D01*
X167283454Y-110058462D01*
X167289420Y-110033323D01*
X167292738Y-110022832D01*
X167302311Y-109998836D01*
X167302881Y-109993022D01*
X167302881Y-109985399D01*
X167304913Y-109968036D01*
X167305755Y-109964487D01*
X167307358Y-109957733D01*
X167303568Y-109929883D01*
X167302881Y-109919743D01*
X167302881Y-108948236D01*
X167315121Y-108910565D01*
X167314042Y-108910015D01*
X167321633Y-108895116D01*
X167364793Y-108810411D01*
X167382280Y-108700000D01*
X167364793Y-108589589D01*
X167331165Y-108523590D01*
X167324896Y-108472534D01*
X167352913Y-108429393D01*
X167402105Y-108414353D01*
X167451343Y-108436276D01*
X168111892Y-109096826D01*
X168133632Y-109143446D01*
X168120318Y-109193133D01*
X168111892Y-109203174D01*
X167770449Y-109544617D01*
X167765612Y-109549050D01*
X167738313Y-109571956D01*
X167738309Y-109571960D01*
X167733271Y-109576188D01*
X167728454Y-109584532D01*
X167712172Y-109612734D01*
X167708656Y-109618253D01*
X167684432Y-109652848D01*
X167682729Y-109659206D01*
X167681260Y-109662355D01*
X167677289Y-109671942D01*
X167676098Y-109675214D01*
X167672808Y-109680912D01*
X167671666Y-109687389D01*
X167665479Y-109722479D01*
X167664059Y-109728884D01*
X167654837Y-109763299D01*
X167654837Y-109763302D01*
X167653135Y-109769653D01*
X167653708Y-109776204D01*
X167653708Y-109776206D01*
X167656814Y-109811701D01*
X167657100Y-109818256D01*
X167657100Y-112861853D01*
X167656814Y-112868408D01*
X167654772Y-112891750D01*
X167653135Y-112910456D01*
X167654837Y-112916807D01*
X167654837Y-112916810D01*
X167664059Y-112951225D01*
X167665479Y-112957630D01*
X167672808Y-112999197D01*
X167676098Y-113004895D01*
X167677289Y-113008167D01*
X167681260Y-113017754D01*
X167682729Y-113020903D01*
X167684432Y-113027261D01*
X167708656Y-113061856D01*
X167712167Y-113067367D01*
X167733271Y-113103921D01*
X167738309Y-113108149D01*
X167738313Y-113108153D01*
X167765612Y-113131059D01*
X167770449Y-113135492D01*
X168267559Y-113632602D01*
X168289299Y-113679222D01*
X168288941Y-113695593D01*
X168285963Y-113718210D01*
X168285963Y-113718216D01*
X168285320Y-113723100D01*
X168304322Y-113867436D01*
X168306207Y-113871988D01*
X168306208Y-113871990D01*
X168333531Y-113937953D01*
X168360034Y-114001935D01*
X168363030Y-114005839D01*
X168363032Y-114005843D01*
X168426615Y-114088706D01*
X168448658Y-114117433D01*
X168452565Y-114120431D01*
X168539632Y-114187240D01*
X168567270Y-114230624D01*
X168560556Y-114281624D01*
X168522631Y-114316376D01*
X168493853Y-114322100D01*
X166792080Y-114322100D01*
X166787382Y-114321755D01*
X166783200Y-114320319D01*
X166776265Y-114320579D01*
X166776262Y-114320579D01*
X166737174Y-114322047D01*
X166734353Y-114322100D01*
X166716052Y-114322100D01*
X166712646Y-114322734D01*
X166710432Y-114322939D01*
X166706339Y-114323205D01*
X166679747Y-114324203D01*
X166673365Y-114326945D01*
X166673364Y-114326945D01*
X166668296Y-114329122D01*
X166652381Y-114333958D01*
X166646947Y-114334970D01*
X166646946Y-114334970D01*
X166640124Y-114336241D01*
X166618139Y-114349793D01*
X166608364Y-114354870D01*
X166589509Y-114362970D01*
X166589500Y-114362975D01*
X166584627Y-114365069D01*
X166580113Y-114368777D01*
X166574725Y-114374165D01*
X166561011Y-114385006D01*
X166557907Y-114386919D01*
X166557904Y-114386922D01*
X166551995Y-114390564D01*
X166547792Y-114396091D01*
X166547791Y-114396092D01*
X166534982Y-114412937D01*
X166528297Y-114420593D01*
X166416747Y-114532143D01*
X166375337Y-114553243D01*
X166350561Y-114557167D01*
X166331489Y-114560188D01*
X166278172Y-114587355D01*
X166241879Y-114605847D01*
X166231885Y-114610939D01*
X166152839Y-114689985D01*
X166150151Y-114695261D01*
X166150150Y-114695262D01*
X166142431Y-114710411D01*
X166102088Y-114789589D01*
X166101162Y-114795436D01*
X166086334Y-114889061D01*
X166084601Y-114900000D01*
X166102088Y-115010411D01*
X166152839Y-115110015D01*
X166231885Y-115189061D01*
X166331489Y-115239812D01*
X166441900Y-115257299D01*
X166552311Y-115239812D01*
X166651915Y-115189061D01*
X166730961Y-115110015D01*
X166781712Y-115010411D01*
X166788657Y-114966563D01*
X166809757Y-114925153D01*
X166834984Y-114899926D01*
X166881604Y-114878186D01*
X166888158Y-114877900D01*
X168551764Y-114877900D01*
X168589435Y-114890140D01*
X168589985Y-114889061D01*
X168689589Y-114939812D01*
X168800000Y-114957299D01*
X168910411Y-114939812D01*
X168988546Y-114900000D01*
X169004738Y-114891750D01*
X169004739Y-114891749D01*
X169010015Y-114889061D01*
X169089061Y-114810015D01*
X169096490Y-114795436D01*
X169137125Y-114715684D01*
X169139812Y-114710411D01*
X169154903Y-114615129D01*
X169156373Y-114605847D01*
X169157299Y-114600000D01*
X169139812Y-114489589D01*
X169089061Y-114389985D01*
X169048182Y-114349106D01*
X169026442Y-114302486D01*
X169039756Y-114252799D01*
X169072578Y-114226457D01*
X169121827Y-114206057D01*
X169207844Y-114140054D01*
X169233417Y-114120431D01*
X169237324Y-114117433D01*
X169259367Y-114088706D01*
X169322950Y-114005843D01*
X169322952Y-114005839D01*
X169325948Y-114001935D01*
X169352451Y-113937953D01*
X169379774Y-113871990D01*
X169379775Y-113871988D01*
X169381660Y-113867436D01*
X169400662Y-113723100D01*
X169381660Y-113578764D01*
X169375079Y-113562875D01*
X169327832Y-113448814D01*
X169325948Y-113444265D01*
X169322952Y-113440361D01*
X169322950Y-113440357D01*
X169240322Y-113332674D01*
X169237324Y-113328767D01*
X169121827Y-113240143D01*
X169061949Y-113215341D01*
X168991881Y-113186317D01*
X168991879Y-113186316D01*
X168987327Y-113184431D01*
X168842991Y-113165429D01*
X168838107Y-113166072D01*
X168838101Y-113166072D01*
X168815484Y-113169050D01*
X168765263Y-113157918D01*
X168752493Y-113147668D01*
X168364926Y-112760101D01*
X168343186Y-112713481D01*
X168342900Y-112706927D01*
X168342900Y-109973182D01*
X168360493Y-109924844D01*
X168364926Y-109920008D01*
X168809501Y-109475432D01*
X168856121Y-109453692D01*
X168872487Y-109454049D01*
X168900000Y-109457671D01*
X169044336Y-109438669D01*
X169048888Y-109436784D01*
X169048890Y-109436783D01*
X169151606Y-109394236D01*
X169178836Y-109382957D01*
X169294333Y-109294333D01*
X169313686Y-109269112D01*
X169379959Y-109182743D01*
X169379961Y-109182739D01*
X169382957Y-109178835D01*
X169416927Y-109096826D01*
X169436783Y-109048890D01*
X169436784Y-109048888D01*
X169438669Y-109044336D01*
X169457671Y-108900000D01*
X169438669Y-108755664D01*
X169431792Y-108739060D01*
X169384841Y-108625714D01*
X169382957Y-108621165D01*
X169379961Y-108617261D01*
X169379959Y-108617257D01*
X169297331Y-108509574D01*
X169294333Y-108505667D01*
X169178836Y-108417043D01*
X169072935Y-108373177D01*
X169048890Y-108363217D01*
X169048888Y-108363216D01*
X169044336Y-108361331D01*
X168900000Y-108342329D01*
X168755664Y-108361331D01*
X168751112Y-108363216D01*
X168751110Y-108363217D01*
X168681368Y-108392106D01*
X168621165Y-108417043D01*
X168617261Y-108420039D01*
X168617257Y-108420041D01*
X168549462Y-108472062D01*
X168500402Y-108487530D01*
X168450509Y-108465576D01*
X166094191Y-106109257D01*
X166072451Y-106062637D01*
X166072809Y-106046266D01*
X166075787Y-106023649D01*
X166075787Y-106023643D01*
X166076430Y-106018759D01*
X166057428Y-105874423D01*
X166050253Y-105857100D01*
X166003600Y-105744473D01*
X166001716Y-105739924D01*
X165998720Y-105736020D01*
X165998718Y-105736016D01*
X165916090Y-105628333D01*
X165913092Y-105624426D01*
X165797595Y-105535802D01*
X165692959Y-105492460D01*
X165667649Y-105481976D01*
X165667647Y-105481975D01*
X165663095Y-105480090D01*
X165518759Y-105461088D01*
X165374423Y-105480090D01*
X165369871Y-105481975D01*
X165369869Y-105481976D01*
X165300127Y-105510865D01*
X165239924Y-105535802D01*
X165236020Y-105538798D01*
X165236016Y-105538800D01*
X165172807Y-105587302D01*
X165124426Y-105624426D01*
X165121428Y-105628333D01*
X165038800Y-105736016D01*
X165038798Y-105736020D01*
X165035802Y-105739924D01*
X165033918Y-105744473D01*
X164987266Y-105857100D01*
X164980090Y-105874423D01*
X164972187Y-105934455D01*
X164948435Y-105980083D01*
X164897631Y-105999840D01*
X154365824Y-105999915D01*
X154317487Y-105982322D01*
X154296348Y-105953493D01*
X154284841Y-105925714D01*
X154282957Y-105921165D01*
X154279961Y-105917261D01*
X154279959Y-105917257D01*
X154197331Y-105809574D01*
X154197329Y-105809572D01*
X154194333Y-105805667D01*
X154078836Y-105717043D01*
X154018958Y-105692241D01*
X153948890Y-105663217D01*
X153948888Y-105663216D01*
X153944336Y-105661331D01*
X153800000Y-105642329D01*
X153655664Y-105661331D01*
X153651112Y-105663216D01*
X153651110Y-105663217D01*
X153581368Y-105692106D01*
X153521165Y-105717043D01*
X153517261Y-105720039D01*
X153517257Y-105720041D01*
X153409574Y-105802669D01*
X153405667Y-105805667D01*
X153388777Y-105827679D01*
X153345394Y-105855317D01*
X153329117Y-105857100D01*
X153173181Y-105857100D01*
X153124843Y-105839507D01*
X153120007Y-105835074D01*
X151064926Y-103779992D01*
X151043186Y-103733372D01*
X151042900Y-103726818D01*
X151042900Y-103018260D01*
X151043186Y-103011706D01*
X151046292Y-102976207D01*
X151046292Y-102976205D01*
X151046865Y-102969653D01*
X151045162Y-102963299D01*
X151045162Y-102963295D01*
X151043006Y-102955247D01*
X151041087Y-102925971D01*
X151057028Y-102804885D01*
X151057028Y-102804884D01*
X151057671Y-102800000D01*
X151038669Y-102655664D01*
X150982957Y-102521165D01*
X150979961Y-102517261D01*
X150979959Y-102517257D01*
X150897331Y-102409574D01*
X150894333Y-102405667D01*
X150778836Y-102317043D01*
X150718958Y-102292241D01*
X150648890Y-102263217D01*
X150648888Y-102263216D01*
X150644336Y-102261331D01*
X150500000Y-102242329D01*
X150355664Y-102261331D01*
X150351112Y-102263216D01*
X150351110Y-102263217D01*
X150281368Y-102292106D01*
X150221165Y-102317043D01*
X150217261Y-102320039D01*
X150217257Y-102320041D01*
X150110785Y-102401740D01*
X150105667Y-102405667D01*
X150102669Y-102409574D01*
X150020041Y-102517257D01*
X150020039Y-102517261D01*
X150017043Y-102521165D01*
X149961331Y-102655664D01*
X149942329Y-102800000D01*
X149961331Y-102944336D01*
X149963216Y-102948888D01*
X149963217Y-102948890D01*
X149989237Y-103011706D01*
X150017043Y-103078835D01*
X150020039Y-103082739D01*
X150020041Y-103082743D01*
X150095023Y-103180462D01*
X150105667Y-103194333D01*
X150221164Y-103282957D01*
X150277456Y-103306274D01*
X150310678Y-103320035D01*
X150348603Y-103354788D01*
X150357100Y-103389511D01*
X150357100Y-103881744D01*
X150356814Y-103888299D01*
X150353135Y-103930347D01*
X150354837Y-103936698D01*
X150354837Y-103936701D01*
X150364059Y-103971116D01*
X150365479Y-103977521D01*
X150372808Y-104019088D01*
X150376098Y-104024786D01*
X150377289Y-104028058D01*
X150381260Y-104037645D01*
X150382729Y-104040794D01*
X150384432Y-104047152D01*
X150408656Y-104081747D01*
X150412167Y-104087258D01*
X150433271Y-104123812D01*
X150438309Y-104128040D01*
X150438313Y-104128044D01*
X150465612Y-104150950D01*
X150470449Y-104155383D01*
X151605424Y-105290357D01*
X152186623Y-105871556D01*
X152208363Y-105918176D01*
X152195049Y-105967863D01*
X152152912Y-105997368D01*
X152133450Y-105999930D01*
X149199101Y-105999951D01*
X149150763Y-105982358D01*
X149125043Y-105937810D01*
X149123900Y-105924751D01*
X149123900Y-98126236D01*
X149133968Y-98088649D01*
X150325139Y-96024547D01*
X150325140Y-96024545D01*
X150328736Y-96018313D01*
X150334038Y-96011403D01*
X150333116Y-96004397D01*
X150334036Y-95997392D01*
X150328733Y-95990484D01*
X150327309Y-95988017D01*
X150327227Y-95987649D01*
X150326266Y-95986211D01*
X149902706Y-95252600D01*
X168939144Y-95252600D01*
X168980014Y-95719741D01*
X169101380Y-96172688D01*
X169102769Y-96175666D01*
X169102769Y-96175667D01*
X169147971Y-96272602D01*
X169299557Y-96597678D01*
X169568521Y-96981799D01*
X169900101Y-97313379D01*
X170284222Y-97582343D01*
X170538099Y-97700728D01*
X170685166Y-97769307D01*
X170709212Y-97780520D01*
X170712383Y-97781370D01*
X170712384Y-97781370D01*
X170757113Y-97793355D01*
X171162159Y-97901886D01*
X171629300Y-97942756D01*
X172096441Y-97901886D01*
X172501487Y-97793355D01*
X172546216Y-97781370D01*
X172546217Y-97781370D01*
X172549388Y-97780520D01*
X172573435Y-97769307D01*
X172720501Y-97700728D01*
X172974378Y-97582343D01*
X173358499Y-97313379D01*
X173690079Y-96981799D01*
X173959043Y-96597678D01*
X174110629Y-96272602D01*
X174155831Y-96175667D01*
X174155831Y-96175666D01*
X174157220Y-96172688D01*
X174278586Y-95719741D01*
X174319456Y-95252600D01*
X174278586Y-94785459D01*
X174157220Y-94332512D01*
X174148120Y-94312996D01*
X174051007Y-94104738D01*
X173959043Y-93907522D01*
X173690079Y-93523401D01*
X173358499Y-93191821D01*
X172974378Y-92922857D01*
X172549388Y-92724680D01*
X172096441Y-92603314D01*
X171629300Y-92562444D01*
X171162159Y-92603314D01*
X170709212Y-92724680D01*
X170284222Y-92922857D01*
X169900101Y-93191821D01*
X169568521Y-93523401D01*
X169299557Y-93907522D01*
X169207593Y-94104738D01*
X169110481Y-94312996D01*
X169101380Y-94332512D01*
X168980014Y-94785459D01*
X168939144Y-95252600D01*
X149902706Y-95252600D01*
X149133975Y-93921151D01*
X149123900Y-93883550D01*
X149123900Y-86137903D01*
X149141493Y-86089565D01*
X149145926Y-86084729D01*
X151087229Y-84143426D01*
X151133849Y-84121686D01*
X151140403Y-84121400D01*
X181057397Y-84121400D01*
X181105735Y-84138993D01*
G37*
%TD.AperFunction*%
%TA.AperFunction,Conductor*%
G36*
X179918374Y-117215382D02*
G01*
X179944094Y-117259931D01*
X179944593Y-117282804D01*
X179942329Y-117300000D01*
X179961331Y-117444336D01*
X179963216Y-117448888D01*
X179963217Y-117448890D01*
X179977599Y-117483610D01*
X180017043Y-117578835D01*
X180020039Y-117582739D01*
X180020041Y-117582743D01*
X180102044Y-117689611D01*
X180105667Y-117694333D01*
X180127679Y-117711223D01*
X180155317Y-117754606D01*
X180157100Y-117770883D01*
X180157100Y-118529094D01*
X180139507Y-118577432D01*
X180135074Y-118582268D01*
X177574178Y-121143163D01*
X177527558Y-121164903D01*
X177521004Y-121165189D01*
X176909369Y-121165189D01*
X176861031Y-121147596D01*
X176835311Y-121103047D01*
X176844244Y-121052389D01*
X176856195Y-121036815D01*
X177626256Y-120266754D01*
X177629827Y-120263671D01*
X177633800Y-120261729D01*
X177665139Y-120227945D01*
X177667097Y-120225913D01*
X177680021Y-120212989D01*
X177681984Y-120210128D01*
X177683405Y-120208418D01*
X177686109Y-120205339D01*
X177699487Y-120190918D01*
X177699488Y-120190916D01*
X177704206Y-120185830D01*
X177708825Y-120174252D01*
X177716661Y-120159577D01*
X177719784Y-120155025D01*
X177719785Y-120155023D01*
X177723711Y-120149300D01*
X177729676Y-120124164D01*
X177732994Y-120113675D01*
X177742569Y-120089674D01*
X177743139Y-120083860D01*
X177743139Y-120076238D01*
X177745171Y-120058875D01*
X177746013Y-120055326D01*
X177747616Y-120048571D01*
X177743826Y-120020724D01*
X177743139Y-120010583D01*
X177743139Y-117517983D01*
X177760732Y-117469645D01*
X177805281Y-117443925D01*
X177855941Y-117452859D01*
X177859403Y-117454858D01*
X177863314Y-117457859D01*
X177867867Y-117459745D01*
X177993260Y-117511685D01*
X177993262Y-117511686D01*
X177997814Y-117513571D01*
X178142150Y-117532573D01*
X178286486Y-117513571D01*
X178291038Y-117511686D01*
X178291040Y-117511685D01*
X178403939Y-117464920D01*
X178420986Y-117457859D01*
X178536483Y-117369235D01*
X178577926Y-117315225D01*
X178622107Y-117257647D01*
X178622108Y-117257646D01*
X178625107Y-117253737D01*
X178629054Y-117244209D01*
X178663806Y-117206285D01*
X178698528Y-117197789D01*
X179870036Y-117197789D01*
X179918374Y-117215382D01*
G37*
%TD.AperFunction*%
%TA.AperFunction,Conductor*%
G36*
X176743885Y-108435634D02*
G01*
X176766023Y-108450957D01*
X181735074Y-113420008D01*
X181756814Y-113466628D01*
X181757100Y-113473182D01*
X181757100Y-117018939D01*
X181739507Y-117067277D01*
X181707929Y-117089490D01*
X181600154Y-117129251D01*
X181417550Y-117237888D01*
X181414961Y-117240159D01*
X181414959Y-117240160D01*
X181260397Y-117375708D01*
X181257802Y-117377984D01*
X181255668Y-117380691D01*
X181255666Y-117380693D01*
X181174533Y-117483610D01*
X181130791Y-117510678D01*
X181079883Y-117503297D01*
X181045630Y-117464920D01*
X181040920Y-117427239D01*
X181057028Y-117304884D01*
X181057671Y-117300000D01*
X181038669Y-117155664D01*
X181034561Y-117145745D01*
X180998015Y-117057517D01*
X180982957Y-117021165D01*
X180979961Y-117017261D01*
X180979959Y-117017257D01*
X180897331Y-116909574D01*
X180894333Y-116905667D01*
X180778836Y-116817043D01*
X180703967Y-116786031D01*
X180648890Y-116763217D01*
X180648888Y-116763216D01*
X180644336Y-116761331D01*
X180500000Y-116742329D01*
X180495116Y-116742972D01*
X180495110Y-116742972D01*
X180472493Y-116745950D01*
X180422272Y-116734818D01*
X180409502Y-116724568D01*
X180310272Y-116625338D01*
X180305839Y-116620501D01*
X180282933Y-116593202D01*
X180282929Y-116593198D01*
X180278701Y-116588160D01*
X180242147Y-116567056D01*
X180236636Y-116563545D01*
X180202041Y-116539321D01*
X180195683Y-116537618D01*
X180192534Y-116536149D01*
X180182947Y-116532178D01*
X180179675Y-116530987D01*
X180173977Y-116527697D01*
X180132411Y-116520368D01*
X180126005Y-116518948D01*
X180091590Y-116509726D01*
X180091587Y-116509726D01*
X180085236Y-116508024D01*
X180078685Y-116508597D01*
X180078683Y-116508597D01*
X180043188Y-116511703D01*
X180036633Y-116511989D01*
X178472635Y-116511989D01*
X178429249Y-116497262D01*
X178429164Y-116497409D01*
X178428425Y-116496982D01*
X178426857Y-116496450D01*
X178424893Y-116494943D01*
X178420986Y-116491945D01*
X178361108Y-116467143D01*
X178291040Y-116438119D01*
X178291038Y-116438118D01*
X178286486Y-116436233D01*
X178142150Y-116417231D01*
X177997814Y-116436233D01*
X177993262Y-116438118D01*
X177993260Y-116438119D01*
X177947063Y-116457255D01*
X177863315Y-116491945D01*
X177859408Y-116494943D01*
X177855939Y-116496946D01*
X177805281Y-116505879D01*
X177760733Y-116480159D01*
X177743139Y-116431821D01*
X177743139Y-111215419D01*
X177743484Y-111210721D01*
X177744920Y-111206539D01*
X177743192Y-111160512D01*
X177743139Y-111157692D01*
X177743139Y-111139391D01*
X177742505Y-111135985D01*
X177742300Y-111133771D01*
X177742034Y-111129675D01*
X177741509Y-111115684D01*
X177741036Y-111103086D01*
X177736117Y-111091635D01*
X177731281Y-111075720D01*
X177730269Y-111070286D01*
X177730269Y-111070285D01*
X177728998Y-111063463D01*
X177715445Y-111041476D01*
X177710369Y-111031703D01*
X177702269Y-111012848D01*
X177702264Y-111012839D01*
X177700170Y-111007966D01*
X177696462Y-111003452D01*
X177691074Y-110998064D01*
X177680233Y-110984350D01*
X177678320Y-110981246D01*
X177678317Y-110981243D01*
X177674675Y-110975334D01*
X177669148Y-110971131D01*
X177664485Y-110965989D01*
X177667394Y-110963351D01*
X177645755Y-110927113D01*
X177640738Y-110895435D01*
X177640738Y-110895434D01*
X177639812Y-110889589D01*
X177623360Y-110857299D01*
X177591750Y-110795262D01*
X177591749Y-110795261D01*
X177589061Y-110789985D01*
X177510015Y-110710939D01*
X177410411Y-110660188D01*
X177300000Y-110642701D01*
X177189589Y-110660188D01*
X177089985Y-110710939D01*
X177010939Y-110789985D01*
X177008251Y-110795261D01*
X177008250Y-110795262D01*
X177001174Y-110809149D01*
X176960188Y-110889589D01*
X176959262Y-110895435D01*
X176959262Y-110895436D01*
X176948506Y-110963351D01*
X176942701Y-111000000D01*
X176960188Y-111110411D01*
X177010939Y-111210015D01*
X177089985Y-111289061D01*
X177095259Y-111291748D01*
X177095264Y-111291752D01*
X177146280Y-111317746D01*
X177181361Y-111355367D01*
X177187339Y-111384749D01*
X177187339Y-117474568D01*
X177169746Y-117522906D01*
X177125197Y-117548626D01*
X177074539Y-117539693D01*
X177051885Y-117519562D01*
X176964895Y-117403068D01*
X176962831Y-117400304D01*
X176806804Y-117256075D01*
X176803099Y-117253737D01*
X176630019Y-117144531D01*
X176630016Y-117144530D01*
X176627107Y-117142694D01*
X176490234Y-117088087D01*
X176432966Y-117065239D01*
X176432963Y-117065238D01*
X176429757Y-117063959D01*
X176426376Y-117063286D01*
X176426371Y-117063285D01*
X176224746Y-117023180D01*
X176224747Y-117023180D01*
X176221363Y-117022507D01*
X176092012Y-117020814D01*
X176012348Y-117019771D01*
X176012347Y-117019771D01*
X176008905Y-117019726D01*
X176005514Y-117020309D01*
X176005510Y-117020309D01*
X175802889Y-117055126D01*
X175802887Y-117055126D01*
X175799497Y-117055709D01*
X175706047Y-117090185D01*
X175654609Y-117090410D01*
X175615060Y-117057517D01*
X175604820Y-117019633D01*
X175604820Y-110873500D01*
X175622413Y-110825162D01*
X175666962Y-110799442D01*
X175680020Y-110798300D01*
X175830463Y-110798300D01*
X175845131Y-110799745D01*
X175862779Y-110803255D01*
X175870040Y-110801811D01*
X175870044Y-110801811D01*
X175870873Y-110801646D01*
X175878168Y-110800564D01*
X176012213Y-110787361D01*
X176012215Y-110787361D01*
X176015886Y-110786999D01*
X176059186Y-110773864D01*
X176159579Y-110743410D01*
X176159581Y-110743409D01*
X176163109Y-110742339D01*
X176298790Y-110669816D01*
X176301645Y-110667473D01*
X176301648Y-110667471D01*
X176414865Y-110574555D01*
X176417715Y-110572216D01*
X176464413Y-110515315D01*
X176512970Y-110456149D01*
X176512972Y-110456146D01*
X176515315Y-110453291D01*
X176587838Y-110317610D01*
X176594794Y-110294681D01*
X176631427Y-110173918D01*
X176631427Y-110173917D01*
X176632498Y-110170387D01*
X176635976Y-110135075D01*
X176646063Y-110032669D01*
X176647145Y-110025374D01*
X176647310Y-110024544D01*
X176647310Y-110024541D01*
X176648754Y-110017280D01*
X176647535Y-110011150D01*
X176647145Y-110009187D01*
X176646063Y-110001898D01*
X176645762Y-109998836D01*
X176632498Y-109864173D01*
X176631427Y-109860642D01*
X176588909Y-109720480D01*
X176588908Y-109720478D01*
X176587838Y-109716950D01*
X176515315Y-109581269D01*
X176512972Y-109578414D01*
X176512970Y-109578411D01*
X176420054Y-109465194D01*
X176417715Y-109462344D01*
X176412021Y-109457671D01*
X176306523Y-109371090D01*
X176280319Y-109326825D01*
X176288699Y-109276072D01*
X176306523Y-109254830D01*
X176414865Y-109165915D01*
X176417715Y-109163576D01*
X176427556Y-109151585D01*
X176512970Y-109047509D01*
X176512972Y-109047506D01*
X176515315Y-109044651D01*
X176587838Y-108908970D01*
X176589078Y-108904884D01*
X176631427Y-108765278D01*
X176631427Y-108765277D01*
X176632498Y-108761747D01*
X176633885Y-108747668D01*
X176646063Y-108624029D01*
X176647145Y-108616734D01*
X176647310Y-108615904D01*
X176647310Y-108615901D01*
X176648754Y-108608640D01*
X176647535Y-108602510D01*
X176647145Y-108600547D01*
X176646063Y-108593258D01*
X176645183Y-108584316D01*
X176641046Y-108542313D01*
X176638011Y-108511502D01*
X176650782Y-108461672D01*
X176692595Y-108431710D01*
X176743885Y-108435634D01*
G37*
%TD.AperFunction*%
%TA.AperFunction,Conductor*%
G36*
X186205038Y-110364098D02*
G01*
X186220180Y-110409354D01*
X186220180Y-113455662D01*
X186202587Y-113504000D01*
X186198154Y-113508836D01*
X186074847Y-113632143D01*
X186033437Y-113653243D01*
X186008661Y-113657167D01*
X185989589Y-113660188D01*
X185889985Y-113710939D01*
X185837142Y-113763782D01*
X185790522Y-113785522D01*
X185740835Y-113772208D01*
X185716964Y-113744748D01*
X185708423Y-113727984D01*
X185698368Y-113708250D01*
X185691750Y-113695262D01*
X185691749Y-113695261D01*
X185689061Y-113689985D01*
X185610015Y-113610939D01*
X185510411Y-113560188D01*
X185400000Y-113542701D01*
X185289589Y-113560188D01*
X185189985Y-113610939D01*
X185110939Y-113689985D01*
X185108251Y-113695261D01*
X185108250Y-113695262D01*
X185067004Y-113776212D01*
X185029383Y-113811294D01*
X184978014Y-113813986D01*
X184936932Y-113783029D01*
X184932996Y-113776212D01*
X184891750Y-113695262D01*
X184891749Y-113695261D01*
X184889061Y-113689985D01*
X184810015Y-113610939D01*
X184710411Y-113560188D01*
X184600000Y-113542701D01*
X184489589Y-113560188D01*
X184467121Y-113571636D01*
X184462240Y-113574123D01*
X184411184Y-113580392D01*
X184368043Y-113552375D01*
X184352900Y-113507119D01*
X184352900Y-112267115D01*
X184354584Y-112251288D01*
X184356075Y-112244364D01*
X184356075Y-112244362D01*
X184357383Y-112238287D01*
X184353421Y-112204813D01*
X184352900Y-112195974D01*
X184352900Y-112192115D01*
X184352391Y-112189056D01*
X184352390Y-112189045D01*
X184349793Y-112173444D01*
X184349293Y-112169936D01*
X184344305Y-112127789D01*
X184344304Y-112127787D01*
X184343574Y-112121616D01*
X184340883Y-112116012D01*
X184340596Y-112115023D01*
X184340402Y-112114173D01*
X184340172Y-112113444D01*
X184339842Y-112112639D01*
X184339510Y-112111670D01*
X184338490Y-112105542D01*
X184315376Y-112062704D01*
X184313779Y-112059569D01*
X184303814Y-112038815D01*
X184292718Y-112015708D01*
X184289377Y-112011734D01*
X184288395Y-112010752D01*
X184285484Y-112007303D01*
X184282702Y-112002147D01*
X184245253Y-111967530D01*
X184243149Y-111965506D01*
X182810828Y-110533185D01*
X182789088Y-110486565D01*
X182802402Y-110436878D01*
X182844539Y-110407373D01*
X182864002Y-110404811D01*
X184626653Y-110404811D01*
X184631351Y-110405156D01*
X184635533Y-110406592D01*
X184642468Y-110406332D01*
X184642471Y-110406332D01*
X184681559Y-110404864D01*
X184684380Y-110404811D01*
X184702681Y-110404811D01*
X184706087Y-110404177D01*
X184708301Y-110403972D01*
X184712394Y-110403706D01*
X184738986Y-110402708D01*
X184745369Y-110399966D01*
X184750437Y-110397789D01*
X184766352Y-110392953D01*
X184778609Y-110390670D01*
X184784520Y-110387027D01*
X184790132Y-110384861D01*
X184817205Y-110379819D01*
X184955661Y-110379819D01*
X185003999Y-110397412D01*
X185008835Y-110401845D01*
X185132143Y-110525153D01*
X185153243Y-110566563D01*
X185154138Y-110572216D01*
X185160188Y-110610411D01*
X185210939Y-110710015D01*
X185289985Y-110789061D01*
X185295261Y-110791749D01*
X185295262Y-110791750D01*
X185336272Y-110812645D01*
X185389589Y-110839812D01*
X185500000Y-110857299D01*
X185610411Y-110839812D01*
X185663728Y-110812645D01*
X185704738Y-110791750D01*
X185704739Y-110791749D01*
X185710015Y-110789061D01*
X185789061Y-110710015D01*
X185839812Y-110610411D01*
X185857299Y-110500000D01*
X185847693Y-110439350D01*
X185857508Y-110388856D01*
X185897484Y-110356484D01*
X185933730Y-110353313D01*
X185994380Y-110362919D01*
X186104791Y-110345432D01*
X186110064Y-110342745D01*
X186110068Y-110342744D01*
X186110841Y-110342350D01*
X186111547Y-110342263D01*
X186115694Y-110340916D01*
X186115956Y-110341722D01*
X186161897Y-110336082D01*
X186205038Y-110364098D01*
G37*
%TD.AperFunction*%
%TA.AperFunction,Conductor*%
G36*
X184639304Y-109005817D02*
G01*
X184644140Y-109010250D01*
X185619346Y-109985456D01*
X185640446Y-110026866D01*
X185644381Y-110051708D01*
X185645750Y-110060354D01*
X185635935Y-110110849D01*
X185595959Y-110143221D01*
X185544527Y-110142323D01*
X185518302Y-110125292D01*
X185333912Y-109940902D01*
X185330829Y-109937331D01*
X185328887Y-109933358D01*
X185316802Y-109922147D01*
X185295103Y-109902019D01*
X185293071Y-109900061D01*
X185280147Y-109887137D01*
X185277286Y-109885174D01*
X185275576Y-109883753D01*
X185272497Y-109881049D01*
X185258076Y-109867671D01*
X185258074Y-109867670D01*
X185252988Y-109862952D01*
X185246544Y-109860381D01*
X185246542Y-109860380D01*
X185241410Y-109858333D01*
X185226735Y-109850497D01*
X185222183Y-109847374D01*
X185222181Y-109847373D01*
X185216458Y-109843447D01*
X185209705Y-109841844D01*
X185209704Y-109841844D01*
X185191327Y-109837483D01*
X185180823Y-109834161D01*
X185173003Y-109831041D01*
X185156832Y-109824589D01*
X185151018Y-109824019D01*
X185143397Y-109824019D01*
X185126034Y-109821987D01*
X185122485Y-109821145D01*
X185115730Y-109819542D01*
X185108852Y-109820478D01*
X185108851Y-109820478D01*
X185087882Y-109823332D01*
X185077741Y-109824019D01*
X184752005Y-109824019D01*
X184747307Y-109823674D01*
X184743125Y-109822238D01*
X184736190Y-109822498D01*
X184736187Y-109822498D01*
X184697099Y-109823966D01*
X184694278Y-109824019D01*
X184675977Y-109824019D01*
X184672571Y-109824653D01*
X184670357Y-109824858D01*
X184666264Y-109825124D01*
X184639672Y-109826122D01*
X184633290Y-109828864D01*
X184633289Y-109828864D01*
X184628221Y-109831041D01*
X184612306Y-109835877D01*
X184600049Y-109838160D01*
X184594138Y-109841803D01*
X184588526Y-109843969D01*
X184561453Y-109849011D01*
X182726202Y-109849011D01*
X182677864Y-109831418D01*
X182673028Y-109826985D01*
X182242008Y-109395965D01*
X182220268Y-109349345D01*
X182233582Y-109299658D01*
X182275719Y-109270153D01*
X182295182Y-109267591D01*
X182760144Y-109267591D01*
X182764842Y-109267936D01*
X182769024Y-109269372D01*
X182775959Y-109269112D01*
X182775962Y-109269112D01*
X182815050Y-109267644D01*
X182817871Y-109267591D01*
X182836172Y-109267591D01*
X182839578Y-109266957D01*
X182841792Y-109266752D01*
X182845885Y-109266486D01*
X182872477Y-109265488D01*
X182878860Y-109262746D01*
X182883928Y-109260569D01*
X182899843Y-109255733D01*
X182905277Y-109254721D01*
X182905278Y-109254721D01*
X182912100Y-109253450D01*
X182934087Y-109239897D01*
X182943860Y-109234821D01*
X182962715Y-109226721D01*
X182962724Y-109226716D01*
X182967597Y-109224622D01*
X182972111Y-109220914D01*
X182977499Y-109215526D01*
X182991213Y-109204685D01*
X182994317Y-109202772D01*
X182994320Y-109202769D01*
X183000229Y-109199127D01*
X183017242Y-109176754D01*
X183023927Y-109169098D01*
X183182775Y-109010250D01*
X183229395Y-108988510D01*
X183235949Y-108988224D01*
X184590966Y-108988224D01*
X184639304Y-109005817D01*
G37*
%TD.AperFunction*%
%TD*%
%TA.AperFunction,Conductor*%
%TO.N,/MOTOR_1*%
G36*
X162442121Y-106320002D02*
G01*
X162488614Y-106373658D01*
X162500000Y-106426000D01*
X162500000Y-111974000D01*
X162479998Y-112042121D01*
X162426342Y-112088614D01*
X162374000Y-112100000D01*
X159600000Y-112100000D01*
X159600000Y-119574000D01*
X159579998Y-119642121D01*
X159526342Y-119688614D01*
X159474000Y-119700000D01*
X156926000Y-119700000D01*
X156857879Y-119679998D01*
X156811386Y-119626342D01*
X156800000Y-119574000D01*
X156800000Y-106426000D01*
X156820002Y-106357879D01*
X156873658Y-106311386D01*
X156926000Y-106300000D01*
X162374000Y-106300000D01*
X162442121Y-106320002D01*
G37*
%TD.AperFunction*%
%TD*%
%TA.AperFunction,Conductor*%
%TO.N,/MOTOR_2*%
G36*
X162442121Y-112320002D02*
G01*
X162488614Y-112373658D01*
X162500000Y-112426000D01*
X162500000Y-119574000D01*
X162479998Y-119642121D01*
X162426342Y-119688614D01*
X162374000Y-119700000D01*
X159926000Y-119700000D01*
X159857879Y-119679998D01*
X159811386Y-119626342D01*
X159800000Y-119574000D01*
X159800000Y-112426000D01*
X159820002Y-112357879D01*
X159873658Y-112311386D01*
X159926000Y-112300000D01*
X162374000Y-112300000D01*
X162442121Y-112320002D01*
G37*
%TD.AperFunction*%
%TD*%
%TA.AperFunction,Conductor*%
%TO.N,/24V*%
G36*
X153342121Y-115720002D02*
G01*
X153388614Y-115773658D01*
X153400000Y-115826000D01*
X153400000Y-119574000D01*
X153379998Y-119642121D01*
X153326342Y-119688614D01*
X153274000Y-119700000D01*
X150526000Y-119700000D01*
X150457879Y-119679998D01*
X150411386Y-119626342D01*
X150400000Y-119574000D01*
X150400000Y-117622756D01*
X150420002Y-117554635D01*
X150471456Y-117509174D01*
X150498575Y-117496151D01*
X150498578Y-117496149D01*
X150505725Y-117492717D01*
X150509699Y-117489377D01*
X150959271Y-117039805D01*
X151021583Y-117005779D01*
X151048366Y-117002900D01*
X151337323Y-117002899D01*
X151390056Y-117002899D01*
X151406710Y-116999587D01*
X151422483Y-116996450D01*
X151422485Y-116996449D01*
X151434658Y-116994028D01*
X151485234Y-116960234D01*
X151492127Y-116949918D01*
X151512135Y-116919975D01*
X151512136Y-116919972D01*
X151519028Y-116909658D01*
X151527900Y-116865057D01*
X151527900Y-116507750D01*
X151538659Y-116456804D01*
X151542329Y-116448503D01*
X151542330Y-116448499D01*
X151546540Y-116438976D01*
X151552320Y-116372243D01*
X151555778Y-116332307D01*
X151556677Y-116321929D01*
X151531615Y-116221035D01*
X151527899Y-116190661D01*
X151527899Y-115834944D01*
X151528271Y-115834944D01*
X151540853Y-115768598D01*
X151589693Y-115717069D01*
X151653018Y-115700000D01*
X153274000Y-115700000D01*
X153342121Y-115720002D01*
G37*
%TD.AperFunction*%
%TD*%
%TA.AperFunction,Conductor*%
%TO.N,/MOTOR_POWER*%
G36*
X156442121Y-106320002D02*
G01*
X156488614Y-106373658D01*
X156500000Y-106426000D01*
X156500000Y-116574000D01*
X156479998Y-116642121D01*
X156426342Y-116688614D01*
X156374000Y-116700000D01*
X153726000Y-116700000D01*
X153657879Y-116679998D01*
X153611386Y-116626342D01*
X153600000Y-116574000D01*
X153600000Y-115500000D01*
X150526000Y-115500000D01*
X150457879Y-115479998D01*
X150411386Y-115426342D01*
X150400000Y-115374000D01*
X150400000Y-115162814D01*
X150413733Y-115105612D01*
X150424029Y-115085405D01*
X150424030Y-115085401D01*
X150428531Y-115076568D01*
X150446018Y-114966157D01*
X150428531Y-114855746D01*
X150424030Y-114846913D01*
X150424029Y-114846909D01*
X150413733Y-114826702D01*
X150400000Y-114769500D01*
X150400000Y-112626000D01*
X150420002Y-112557879D01*
X150473658Y-112511386D01*
X150526000Y-112500000D01*
X153600000Y-112500000D01*
X153600000Y-112275016D01*
X153620002Y-112206895D01*
X153673658Y-112160402D01*
X153742446Y-112150094D01*
X153800000Y-112157671D01*
X153808188Y-112156593D01*
X153936148Y-112139747D01*
X153944336Y-112138669D01*
X154078836Y-112082957D01*
X154194333Y-111994333D01*
X154282957Y-111878835D01*
X154311300Y-111810411D01*
X154335510Y-111751962D01*
X154338669Y-111744336D01*
X154357671Y-111600000D01*
X154354615Y-111576787D01*
X154339747Y-111463850D01*
X154339746Y-111463848D01*
X154338669Y-111455664D01*
X154282957Y-111321165D01*
X154194333Y-111205667D01*
X154187780Y-111200639D01*
X154181943Y-111194802D01*
X154183975Y-111192770D01*
X154150326Y-111146682D01*
X154142900Y-111104065D01*
X154142900Y-106695935D01*
X154162902Y-106627814D01*
X154182862Y-106606117D01*
X154181943Y-106605198D01*
X154187780Y-106599361D01*
X154194333Y-106594333D01*
X154282957Y-106478835D01*
X154324815Y-106377782D01*
X154369363Y-106322501D01*
X154441224Y-106300000D01*
X156374000Y-106300000D01*
X156442121Y-106320002D01*
G37*
%TD.AperFunction*%
%TD*%
M02*
