M48
; DRILL file {KiCad (5.99.0-12980-gcf6acae791)} date Mon Jan 10 14:37:04 2022
; FORMAT={-:-/ absolute / inch / decimal}
; #@! TF.CreationDate,2022-01-10T14:37:04+01:00
; #@! TF.GenerationSoftware,Kicad,Pcbnew,(5.99.0-12980-gcf6acae791)
; #@! TF.FileFunction,Plated,1,2,PTH
FMAT,2
INCH
; #@! TA.AperFunction,Plated,PTH,ViaDrill
T1C0.0118
; #@! TA.AperFunction,Plated,PTH,ViaDrill
T2C0.0157
; #@! TA.AperFunction,Plated,PTH,ComponentDrill
T3C0.0394
; #@! TA.AperFunction,Plated,PTH,ViaDrill
T4C0.0630
%
G90
G05
T1
X5.8819Y-4.5276
X5.8819Y-4.5512
X5.8819Y-4.5748
X5.9016Y-3.9134
X5.9016Y-3.9409
X5.9055Y-3.6181
X5.9055Y-3.6457
X5.909Y-4.5262
X5.9173Y-4.6142
X5.9213Y-4.1969
X5.9213Y-4.2205
X5.9291Y-3.9134
X5.9291Y-3.9409
X5.9331Y-3.6181
X5.9331Y-3.6457
X5.9488Y-4.1969
X5.9488Y-4.2205
X6.0Y-4.1969
X6.0Y-4.2205
X6.0Y-4.3465
X6.0Y-4.3701
X6.0Y-4.3976
X6.1343Y-4.3622
X6.1535Y-4.5866
X6.1561Y-4.2165
X6.3071Y-4.5827
X6.3075Y-4.3622
X6.5528Y-4.5236
X6.563Y-4.3413
X6.5758Y-4.2795
X6.6457Y-4.5118
X6.6969Y-3.9252
X6.8031Y-3.3307
X6.8031Y-3.3583
X6.8268Y-3.9213
X6.8268Y-3.9213
X6.8307Y-3.3307
X6.8307Y-3.3583
X6.8462Y-3.9368
X6.8462Y-3.9368
X6.8583Y-3.3307
X6.8583Y-3.3583
X6.8819Y-3.7756
X6.9803Y-4.3701
X7.0472Y-3.6496
X7.0866Y-3.6969
X7.1048Y-4.1393
X7.1191Y-4.1197
X7.1339Y-3.8386
X7.1418Y-4.2361
X7.1496Y-3.9646
X7.168Y-4.2092
X7.1811Y-4.1142
X7.185Y-4.0866
X7.1895Y-4.2722
X7.2087Y-4.252
X7.2126Y-4.0866
X7.2475Y-4.069
X7.2677Y-4.4843
X7.2992Y-4.4843
X7.3031Y-4.3504
X7.3226Y-4.3309
X7.3268Y-4.4882
X7.3426Y-4.252
X7.3583Y-4.4882
X7.3661Y-4.252
X7.377Y-4.3937
X7.4331Y-4.4331
X7.437Y-4.0512
X7.4409Y-4.1024
X7.4606Y-4.0866
T2
X5.9252Y-4.0472
X5.9528Y-4.2717
X6.007Y-4.2708
X6.0551Y-4.1811
X6.0551Y-4.3937
X6.5165Y-4.174
X6.5315Y-4.5501
X6.5748Y-4.792
X6.6181Y-4.8268
X6.6474Y-4.4773
X6.6496Y-4.2874
X6.6614Y-4.8268
X6.689Y-4.5315
X6.8386Y-4.8268
X6.9293Y-4.4213
X6.9293Y-4.4843
X6.9843Y-3.8307
X6.9843Y-3.878
X6.9843Y-3.9252
X7.0039Y-4.2323
X7.0135Y-4.6053
X7.0512Y-4.2795
X7.1063Y-4.5118
X7.1063Y-4.5591
X7.1063Y-4.6181
X7.2047Y-4.4409
X7.2323Y-3.9843
X7.248Y-4.3071
X7.2717Y-3.9843
X7.2795Y-4.0709
X7.315Y-4.378
X7.315Y-4.4291
X7.3937Y-4.4567
X7.4016Y-4.126
X7.4961Y-4.1811
X7.4961Y-4.5472
X7.6102Y-4.4173
T3
X7.1567Y-4.7756
X7.2567Y-4.7756
X7.3567Y-4.7756
X7.4567Y-4.7756
T4
X5.9882Y-4.6526
X6.1063Y-4.6535
X6.2244Y-4.6526
X6.3425Y-4.6526
X6.5787Y-4.6526
X6.6969Y-4.6526
X6.815Y-4.6526
X6.9331Y-4.6526
X7.0512Y-4.6535
X7.1693Y-4.6526
X7.2874Y-4.6526
X7.4055Y-4.6527
X7.5236Y-4.6526
T0
M30
