%TF.GenerationSoftware,KiCad,Pcbnew,(5.99.0-12980-gcf6acae791)*%
%TF.CreationDate,2022-01-10T14:37:02+01:00*%
%TF.ProjectId,GRIPPER_TWO_ADVANCED_CONTROL_BOARD,47524950-5045-4525-9f54-574f5f414456,rev?*%
%TF.SameCoordinates,Original*%
%TF.FileFunction,Legend,Top*%
%TF.FilePolarity,Positive*%
%FSLAX46Y46*%
G04 Gerber Fmt 4.6, Leading zero omitted, Abs format (unit mm)*
G04 Created by KiCad (PCBNEW (5.99.0-12980-gcf6acae791)) date 2022-01-10 14:37:02*
%MOMM*%
%LPD*%
G01*
G04 APERTURE LIST*
%ADD10C,0.101600*%
%ADD11C,0.200000*%
%ADD12C,0.150000*%
%ADD13C,0.100000*%
%ADD14C,0.254000*%
%ADD15C,0.081280*%
%ADD16C,0.142240*%
%ADD17C,0.120000*%
%ADD18C,0.250000*%
%ADD19C,0.127000*%
%ADD20C,0.152400*%
G04 APERTURE END LIST*
D10*
X174098900Y-111246400D02*
G75*
G03*
X174098900Y-111246400I-2500000J0D01*
G01*
X174098900Y-95246400D02*
G75*
G03*
X174098900Y-95246400I-2500000J0D01*
G01*
D11*
X171928571Y-90655714D02*
X172928571Y-90298571D01*
X171928571Y-89941428D01*
X172928571Y-88584285D02*
X172928571Y-89441428D01*
X172928571Y-89012857D02*
X171428571Y-89012857D01*
X171642857Y-89155714D01*
X171785714Y-89298571D01*
X171857142Y-89441428D01*
X172785714Y-87941428D02*
X172857142Y-87870000D01*
X172928571Y-87941428D01*
X172857142Y-88012857D01*
X172785714Y-87941428D01*
X172928571Y-87941428D01*
X171571428Y-87298571D02*
X171500000Y-87227142D01*
X171428571Y-87084285D01*
X171428571Y-86727142D01*
X171500000Y-86584285D01*
X171571428Y-86512857D01*
X171714285Y-86441428D01*
X171857142Y-86441428D01*
X172071428Y-86512857D01*
X172928571Y-87370000D01*
X172928571Y-86441428D01*
D12*
%TO.C,L2*%
X156633333Y-93752380D02*
X156157142Y-93752380D01*
X156157142Y-92752380D01*
X156919047Y-92847619D02*
X156966666Y-92800000D01*
X157061904Y-92752380D01*
X157300000Y-92752380D01*
X157395238Y-92800000D01*
X157442857Y-92847619D01*
X157490476Y-92942857D01*
X157490476Y-93038095D01*
X157442857Y-93180952D01*
X156871428Y-93752380D01*
X157490476Y-93752380D01*
%TO.C,C9*%
X153667142Y-111066666D02*
X153714761Y-111114285D01*
X153762380Y-111257142D01*
X153762380Y-111352380D01*
X153714761Y-111495238D01*
X153619523Y-111590476D01*
X153524285Y-111638095D01*
X153333809Y-111685714D01*
X153190952Y-111685714D01*
X153000476Y-111638095D01*
X152905238Y-111590476D01*
X152810000Y-111495238D01*
X152762380Y-111352380D01*
X152762380Y-111257142D01*
X152810000Y-111114285D01*
X152857619Y-111066666D01*
X153762380Y-110590476D02*
X153762380Y-110400000D01*
X153714761Y-110304761D01*
X153667142Y-110257142D01*
X153524285Y-110161904D01*
X153333809Y-110114285D01*
X152952857Y-110114285D01*
X152857619Y-110161904D01*
X152810000Y-110209523D01*
X152762380Y-110304761D01*
X152762380Y-110495238D01*
X152810000Y-110590476D01*
X152857619Y-110638095D01*
X152952857Y-110685714D01*
X153190952Y-110685714D01*
X153286190Y-110638095D01*
X153333809Y-110590476D01*
X153381428Y-110495238D01*
X153381428Y-110304761D01*
X153333809Y-110209523D01*
X153286190Y-110161904D01*
X153190952Y-110114285D01*
%TO.C,R26*%
X155157142Y-85922380D02*
X154823809Y-85446190D01*
X154585714Y-85922380D02*
X154585714Y-84922380D01*
X154966666Y-84922380D01*
X155061904Y-84970000D01*
X155109523Y-85017619D01*
X155157142Y-85112857D01*
X155157142Y-85255714D01*
X155109523Y-85350952D01*
X155061904Y-85398571D01*
X154966666Y-85446190D01*
X154585714Y-85446190D01*
X155538095Y-85017619D02*
X155585714Y-84970000D01*
X155680952Y-84922380D01*
X155919047Y-84922380D01*
X156014285Y-84970000D01*
X156061904Y-85017619D01*
X156109523Y-85112857D01*
X156109523Y-85208095D01*
X156061904Y-85350952D01*
X155490476Y-85922380D01*
X156109523Y-85922380D01*
X156966666Y-84922380D02*
X156776190Y-84922380D01*
X156680952Y-84970000D01*
X156633333Y-85017619D01*
X156538095Y-85160476D01*
X156490476Y-85350952D01*
X156490476Y-85731904D01*
X156538095Y-85827142D01*
X156585714Y-85874761D01*
X156680952Y-85922380D01*
X156871428Y-85922380D01*
X156966666Y-85874761D01*
X157014285Y-85827142D01*
X157061904Y-85731904D01*
X157061904Y-85493809D01*
X157014285Y-85398571D01*
X156966666Y-85350952D01*
X156871428Y-85303333D01*
X156680952Y-85303333D01*
X156585714Y-85350952D01*
X156538095Y-85398571D01*
X156490476Y-85493809D01*
%TO.C,C6*%
X168433333Y-117157142D02*
X168385714Y-117204761D01*
X168242857Y-117252380D01*
X168147619Y-117252380D01*
X168004761Y-117204761D01*
X167909523Y-117109523D01*
X167861904Y-117014285D01*
X167814285Y-116823809D01*
X167814285Y-116680952D01*
X167861904Y-116490476D01*
X167909523Y-116395238D01*
X168004761Y-116300000D01*
X168147619Y-116252380D01*
X168242857Y-116252380D01*
X168385714Y-116300000D01*
X168433333Y-116347619D01*
X169290476Y-116252380D02*
X169100000Y-116252380D01*
X169004761Y-116300000D01*
X168957142Y-116347619D01*
X168861904Y-116490476D01*
X168814285Y-116680952D01*
X168814285Y-117061904D01*
X168861904Y-117157142D01*
X168909523Y-117204761D01*
X169004761Y-117252380D01*
X169195238Y-117252380D01*
X169290476Y-117204761D01*
X169338095Y-117157142D01*
X169385714Y-117061904D01*
X169385714Y-116823809D01*
X169338095Y-116728571D01*
X169290476Y-116680952D01*
X169195238Y-116633333D01*
X169004761Y-116633333D01*
X168909523Y-116680952D01*
X168861904Y-116728571D01*
X168814285Y-116823809D01*
%TO.C,C11*%
X163157142Y-114442857D02*
X163204761Y-114490476D01*
X163252380Y-114633333D01*
X163252380Y-114728571D01*
X163204761Y-114871428D01*
X163109523Y-114966666D01*
X163014285Y-115014285D01*
X162823809Y-115061904D01*
X162680952Y-115061904D01*
X162490476Y-115014285D01*
X162395238Y-114966666D01*
X162300000Y-114871428D01*
X162252380Y-114728571D01*
X162252380Y-114633333D01*
X162300000Y-114490476D01*
X162347619Y-114442857D01*
X163252380Y-113490476D02*
X163252380Y-114061904D01*
X163252380Y-113776190D02*
X162252380Y-113776190D01*
X162395238Y-113871428D01*
X162490476Y-113966666D01*
X162538095Y-114061904D01*
X163252380Y-112538095D02*
X163252380Y-113109523D01*
X163252380Y-112823809D02*
X162252380Y-112823809D01*
X162395238Y-112919047D01*
X162490476Y-113014285D01*
X162538095Y-113109523D01*
%TO.C,R25*%
X158657142Y-89352380D02*
X158323809Y-88876190D01*
X158085714Y-89352380D02*
X158085714Y-88352380D01*
X158466666Y-88352380D01*
X158561904Y-88400000D01*
X158609523Y-88447619D01*
X158657142Y-88542857D01*
X158657142Y-88685714D01*
X158609523Y-88780952D01*
X158561904Y-88828571D01*
X158466666Y-88876190D01*
X158085714Y-88876190D01*
X159038095Y-88447619D02*
X159085714Y-88400000D01*
X159180952Y-88352380D01*
X159419047Y-88352380D01*
X159514285Y-88400000D01*
X159561904Y-88447619D01*
X159609523Y-88542857D01*
X159609523Y-88638095D01*
X159561904Y-88780952D01*
X158990476Y-89352380D01*
X159609523Y-89352380D01*
X160514285Y-88352380D02*
X160038095Y-88352380D01*
X159990476Y-88828571D01*
X160038095Y-88780952D01*
X160133333Y-88733333D01*
X160371428Y-88733333D01*
X160466666Y-88780952D01*
X160514285Y-88828571D01*
X160561904Y-88923809D01*
X160561904Y-89161904D01*
X160514285Y-89257142D01*
X160466666Y-89304761D01*
X160371428Y-89352380D01*
X160133333Y-89352380D01*
X160038095Y-89304761D01*
X159990476Y-89257142D01*
%TO.C,R29*%
X164257142Y-102552380D02*
X163923809Y-102076190D01*
X163685714Y-102552380D02*
X163685714Y-101552380D01*
X164066666Y-101552380D01*
X164161904Y-101600000D01*
X164209523Y-101647619D01*
X164257142Y-101742857D01*
X164257142Y-101885714D01*
X164209523Y-101980952D01*
X164161904Y-102028571D01*
X164066666Y-102076190D01*
X163685714Y-102076190D01*
X164638095Y-101647619D02*
X164685714Y-101600000D01*
X164780952Y-101552380D01*
X165019047Y-101552380D01*
X165114285Y-101600000D01*
X165161904Y-101647619D01*
X165209523Y-101742857D01*
X165209523Y-101838095D01*
X165161904Y-101980952D01*
X164590476Y-102552380D01*
X165209523Y-102552380D01*
X165685714Y-102552380D02*
X165876190Y-102552380D01*
X165971428Y-102504761D01*
X166019047Y-102457142D01*
X166114285Y-102314285D01*
X166161904Y-102123809D01*
X166161904Y-101742857D01*
X166114285Y-101647619D01*
X166066666Y-101600000D01*
X165971428Y-101552380D01*
X165780952Y-101552380D01*
X165685714Y-101600000D01*
X165638095Y-101647619D01*
X165590476Y-101742857D01*
X165590476Y-101980952D01*
X165638095Y-102076190D01*
X165685714Y-102123809D01*
X165780952Y-102171428D01*
X165971428Y-102171428D01*
X166066666Y-102123809D01*
X166114285Y-102076190D01*
X166161904Y-101980952D01*
D13*
%TO.C,D4*%
X150961904Y-121990476D02*
X150161904Y-121990476D01*
X150161904Y-121800000D01*
X150200000Y-121685714D01*
X150276190Y-121609523D01*
X150352380Y-121571428D01*
X150504761Y-121533333D01*
X150619047Y-121533333D01*
X150771428Y-121571428D01*
X150847619Y-121609523D01*
X150923809Y-121685714D01*
X150961904Y-121800000D01*
X150961904Y-121990476D01*
X150428571Y-120847619D02*
X150961904Y-120847619D01*
X150123809Y-121038095D02*
X150695238Y-121228571D01*
X150695238Y-120733333D01*
D12*
%TO.C,R20*%
X182182380Y-89842857D02*
X181706190Y-90176190D01*
X182182380Y-90414285D02*
X181182380Y-90414285D01*
X181182380Y-90033333D01*
X181230000Y-89938095D01*
X181277619Y-89890476D01*
X181372857Y-89842857D01*
X181515714Y-89842857D01*
X181610952Y-89890476D01*
X181658571Y-89938095D01*
X181706190Y-90033333D01*
X181706190Y-90414285D01*
X181277619Y-89461904D02*
X181230000Y-89414285D01*
X181182380Y-89319047D01*
X181182380Y-89080952D01*
X181230000Y-88985714D01*
X181277619Y-88938095D01*
X181372857Y-88890476D01*
X181468095Y-88890476D01*
X181610952Y-88938095D01*
X182182380Y-89509523D01*
X182182380Y-88890476D01*
X181182380Y-88271428D02*
X181182380Y-88176190D01*
X181230000Y-88080952D01*
X181277619Y-88033333D01*
X181372857Y-87985714D01*
X181563333Y-87938095D01*
X181801428Y-87938095D01*
X181991904Y-87985714D01*
X182087142Y-88033333D01*
X182134761Y-88080952D01*
X182182380Y-88176190D01*
X182182380Y-88271428D01*
X182134761Y-88366666D01*
X182087142Y-88414285D01*
X181991904Y-88461904D01*
X181801428Y-88509523D01*
X181563333Y-88509523D01*
X181372857Y-88461904D01*
X181277619Y-88414285D01*
X181230000Y-88366666D01*
X181182380Y-88271428D01*
%TO.C,R9*%
X151752380Y-108166666D02*
X151276190Y-108500000D01*
X151752380Y-108738095D02*
X150752380Y-108738095D01*
X150752380Y-108357142D01*
X150800000Y-108261904D01*
X150847619Y-108214285D01*
X150942857Y-108166666D01*
X151085714Y-108166666D01*
X151180952Y-108214285D01*
X151228571Y-108261904D01*
X151276190Y-108357142D01*
X151276190Y-108738095D01*
X151752380Y-107690476D02*
X151752380Y-107500000D01*
X151704761Y-107404761D01*
X151657142Y-107357142D01*
X151514285Y-107261904D01*
X151323809Y-107214285D01*
X150942857Y-107214285D01*
X150847619Y-107261904D01*
X150800000Y-107309523D01*
X150752380Y-107404761D01*
X150752380Y-107595238D01*
X150800000Y-107690476D01*
X150847619Y-107738095D01*
X150942857Y-107785714D01*
X151180952Y-107785714D01*
X151276190Y-107738095D01*
X151323809Y-107690476D01*
X151371428Y-107595238D01*
X151371428Y-107404761D01*
X151323809Y-107309523D01*
X151276190Y-107261904D01*
X151180952Y-107214285D01*
D14*
%TO.C,U3*%
X157032380Y-113304523D02*
X157032380Y-114332619D01*
X157092857Y-114453571D01*
X157153333Y-114514047D01*
X157274285Y-114574523D01*
X157516190Y-114574523D01*
X157637142Y-114514047D01*
X157697619Y-114453571D01*
X157758095Y-114332619D01*
X157758095Y-113304523D01*
X158241904Y-113304523D02*
X159028095Y-113304523D01*
X158604761Y-113788333D01*
X158786190Y-113788333D01*
X158907142Y-113848809D01*
X158967619Y-113909285D01*
X159028095Y-114030238D01*
X159028095Y-114332619D01*
X158967619Y-114453571D01*
X158907142Y-114514047D01*
X158786190Y-114574523D01*
X158423333Y-114574523D01*
X158302380Y-114514047D01*
X158241904Y-114453571D01*
D12*
%TO.C,D2*%
X182252380Y-87138095D02*
X181252380Y-87138095D01*
X181252380Y-86900000D01*
X181300000Y-86757142D01*
X181395238Y-86661904D01*
X181490476Y-86614285D01*
X181680952Y-86566666D01*
X181823809Y-86566666D01*
X182014285Y-86614285D01*
X182109523Y-86661904D01*
X182204761Y-86757142D01*
X182252380Y-86900000D01*
X182252380Y-87138095D01*
X181347619Y-86185714D02*
X181300000Y-86138095D01*
X181252380Y-86042857D01*
X181252380Y-85804761D01*
X181300000Y-85709523D01*
X181347619Y-85661904D01*
X181442857Y-85614285D01*
X181538095Y-85614285D01*
X181680952Y-85661904D01*
X182252380Y-86233333D01*
X182252380Y-85614285D01*
%TO.C,D1*%
X176122380Y-86538095D02*
X175122380Y-86538095D01*
X175122380Y-86300000D01*
X175170000Y-86157142D01*
X175265238Y-86061904D01*
X175360476Y-86014285D01*
X175550952Y-85966666D01*
X175693809Y-85966666D01*
X175884285Y-86014285D01*
X175979523Y-86061904D01*
X176074761Y-86157142D01*
X176122380Y-86300000D01*
X176122380Y-86538095D01*
X176122380Y-85014285D02*
X176122380Y-85585714D01*
X176122380Y-85300000D02*
X175122380Y-85300000D01*
X175265238Y-85395238D01*
X175360476Y-85490476D01*
X175408095Y-85585714D01*
%TO.C,R24*%
X155157142Y-89352380D02*
X154823809Y-88876190D01*
X154585714Y-89352380D02*
X154585714Y-88352380D01*
X154966666Y-88352380D01*
X155061904Y-88400000D01*
X155109523Y-88447619D01*
X155157142Y-88542857D01*
X155157142Y-88685714D01*
X155109523Y-88780952D01*
X155061904Y-88828571D01*
X154966666Y-88876190D01*
X154585714Y-88876190D01*
X155538095Y-88447619D02*
X155585714Y-88400000D01*
X155680952Y-88352380D01*
X155919047Y-88352380D01*
X156014285Y-88400000D01*
X156061904Y-88447619D01*
X156109523Y-88542857D01*
X156109523Y-88638095D01*
X156061904Y-88780952D01*
X155490476Y-89352380D01*
X156109523Y-89352380D01*
X156966666Y-88685714D02*
X156966666Y-89352380D01*
X156728571Y-88304761D02*
X156490476Y-89019047D01*
X157109523Y-89019047D01*
D13*
%TO.C,C5*%
X175666666Y-116685714D02*
X175628571Y-116723809D01*
X175514285Y-116761904D01*
X175438095Y-116761904D01*
X175323809Y-116723809D01*
X175247619Y-116647619D01*
X175209523Y-116571428D01*
X175171428Y-116419047D01*
X175171428Y-116304761D01*
X175209523Y-116152380D01*
X175247619Y-116076190D01*
X175323809Y-116000000D01*
X175438095Y-115961904D01*
X175514285Y-115961904D01*
X175628571Y-116000000D01*
X175666666Y-116038095D01*
X176390476Y-115961904D02*
X176009523Y-115961904D01*
X175971428Y-116342857D01*
X176009523Y-116304761D01*
X176085714Y-116266666D01*
X176276190Y-116266666D01*
X176352380Y-116304761D01*
X176390476Y-116342857D01*
X176428571Y-116419047D01*
X176428571Y-116609523D01*
X176390476Y-116685714D01*
X176352380Y-116723809D01*
X176276190Y-116761904D01*
X176085714Y-116761904D01*
X176009523Y-116723809D01*
X175971428Y-116685714D01*
D12*
%TO.C,R5*%
X163252380Y-104866666D02*
X162776190Y-105200000D01*
X163252380Y-105438095D02*
X162252380Y-105438095D01*
X162252380Y-105057142D01*
X162300000Y-104961904D01*
X162347619Y-104914285D01*
X162442857Y-104866666D01*
X162585714Y-104866666D01*
X162680952Y-104914285D01*
X162728571Y-104961904D01*
X162776190Y-105057142D01*
X162776190Y-105438095D01*
X162252380Y-103961904D02*
X162252380Y-104438095D01*
X162728571Y-104485714D01*
X162680952Y-104438095D01*
X162633333Y-104342857D01*
X162633333Y-104104761D01*
X162680952Y-104009523D01*
X162728571Y-103961904D01*
X162823809Y-103914285D01*
X163061904Y-103914285D01*
X163157142Y-103961904D01*
X163204761Y-104009523D01*
X163252380Y-104104761D01*
X163252380Y-104342857D01*
X163204761Y-104438095D01*
X163157142Y-104485714D01*
%TO.C,R28*%
X167657142Y-102482380D02*
X167323809Y-102006190D01*
X167085714Y-102482380D02*
X167085714Y-101482380D01*
X167466666Y-101482380D01*
X167561904Y-101530000D01*
X167609523Y-101577619D01*
X167657142Y-101672857D01*
X167657142Y-101815714D01*
X167609523Y-101910952D01*
X167561904Y-101958571D01*
X167466666Y-102006190D01*
X167085714Y-102006190D01*
X168038095Y-101577619D02*
X168085714Y-101530000D01*
X168180952Y-101482380D01*
X168419047Y-101482380D01*
X168514285Y-101530000D01*
X168561904Y-101577619D01*
X168609523Y-101672857D01*
X168609523Y-101768095D01*
X168561904Y-101910952D01*
X167990476Y-102482380D01*
X168609523Y-102482380D01*
X169180952Y-101910952D02*
X169085714Y-101863333D01*
X169038095Y-101815714D01*
X168990476Y-101720476D01*
X168990476Y-101672857D01*
X169038095Y-101577619D01*
X169085714Y-101530000D01*
X169180952Y-101482380D01*
X169371428Y-101482380D01*
X169466666Y-101530000D01*
X169514285Y-101577619D01*
X169561904Y-101672857D01*
X169561904Y-101720476D01*
X169514285Y-101815714D01*
X169466666Y-101863333D01*
X169371428Y-101910952D01*
X169180952Y-101910952D01*
X169085714Y-101958571D01*
X169038095Y-102006190D01*
X168990476Y-102101428D01*
X168990476Y-102291904D01*
X169038095Y-102387142D01*
X169085714Y-102434761D01*
X169180952Y-102482380D01*
X169371428Y-102482380D01*
X169466666Y-102434761D01*
X169514285Y-102387142D01*
X169561904Y-102291904D01*
X169561904Y-102101428D01*
X169514285Y-102006190D01*
X169466666Y-101958571D01*
X169371428Y-101910952D01*
D14*
%TO.C,U2*%
X165432380Y-115204523D02*
X165432380Y-116232619D01*
X165492857Y-116353571D01*
X165553333Y-116414047D01*
X165674285Y-116474523D01*
X165916190Y-116474523D01*
X166037142Y-116414047D01*
X166097619Y-116353571D01*
X166158095Y-116232619D01*
X166158095Y-115204523D01*
X166702380Y-115325476D02*
X166762857Y-115265000D01*
X166883809Y-115204523D01*
X167186190Y-115204523D01*
X167307142Y-115265000D01*
X167367619Y-115325476D01*
X167428095Y-115446428D01*
X167428095Y-115567380D01*
X167367619Y-115748809D01*
X166641904Y-116474523D01*
X167428095Y-116474523D01*
D13*
%TO.C,R21*%
X182361904Y-95914285D02*
X181980952Y-96180952D01*
X182361904Y-96371428D02*
X181561904Y-96371428D01*
X181561904Y-96066666D01*
X181600000Y-95990476D01*
X181638095Y-95952380D01*
X181714285Y-95914285D01*
X181828571Y-95914285D01*
X181904761Y-95952380D01*
X181942857Y-95990476D01*
X181980952Y-96066666D01*
X181980952Y-96371428D01*
X181638095Y-95609523D02*
X181600000Y-95571428D01*
X181561904Y-95495238D01*
X181561904Y-95304761D01*
X181600000Y-95228571D01*
X181638095Y-95190476D01*
X181714285Y-95152380D01*
X181790476Y-95152380D01*
X181904761Y-95190476D01*
X182361904Y-95647619D01*
X182361904Y-95152380D01*
X182361904Y-94390476D02*
X182361904Y-94847619D01*
X182361904Y-94619047D02*
X181561904Y-94619047D01*
X181676190Y-94695238D01*
X181752380Y-94771428D01*
X181790476Y-94847619D01*
D12*
%TO.C,C12*%
X151357142Y-88942857D02*
X151404761Y-88990476D01*
X151452380Y-89133333D01*
X151452380Y-89228571D01*
X151404761Y-89371428D01*
X151309523Y-89466666D01*
X151214285Y-89514285D01*
X151023809Y-89561904D01*
X150880952Y-89561904D01*
X150690476Y-89514285D01*
X150595238Y-89466666D01*
X150500000Y-89371428D01*
X150452380Y-89228571D01*
X150452380Y-89133333D01*
X150500000Y-88990476D01*
X150547619Y-88942857D01*
X151452380Y-87990476D02*
X151452380Y-88561904D01*
X151452380Y-88276190D02*
X150452380Y-88276190D01*
X150595238Y-88371428D01*
X150690476Y-88466666D01*
X150738095Y-88561904D01*
X150547619Y-87609523D02*
X150500000Y-87561904D01*
X150452380Y-87466666D01*
X150452380Y-87228571D01*
X150500000Y-87133333D01*
X150547619Y-87085714D01*
X150642857Y-87038095D01*
X150738095Y-87038095D01*
X150880952Y-87085714D01*
X151452380Y-87657142D01*
X151452380Y-87038095D01*
%TO.C,R6*%
X164652380Y-113566666D02*
X164176190Y-113900000D01*
X164652380Y-114138095D02*
X163652380Y-114138095D01*
X163652380Y-113757142D01*
X163700000Y-113661904D01*
X163747619Y-113614285D01*
X163842857Y-113566666D01*
X163985714Y-113566666D01*
X164080952Y-113614285D01*
X164128571Y-113661904D01*
X164176190Y-113757142D01*
X164176190Y-114138095D01*
X163652380Y-112709523D02*
X163652380Y-112900000D01*
X163700000Y-112995238D01*
X163747619Y-113042857D01*
X163890476Y-113138095D01*
X164080952Y-113185714D01*
X164461904Y-113185714D01*
X164557142Y-113138095D01*
X164604761Y-113090476D01*
X164652380Y-112995238D01*
X164652380Y-112804761D01*
X164604761Y-112709523D01*
X164557142Y-112661904D01*
X164461904Y-112614285D01*
X164223809Y-112614285D01*
X164128571Y-112661904D01*
X164080952Y-112709523D01*
X164033333Y-112804761D01*
X164033333Y-112995238D01*
X164080952Y-113090476D01*
X164128571Y-113138095D01*
X164223809Y-113185714D01*
D13*
%TO.C,C1*%
X192185714Y-99733333D02*
X192223809Y-99771428D01*
X192261904Y-99885714D01*
X192261904Y-99961904D01*
X192223809Y-100076190D01*
X192147619Y-100152380D01*
X192071428Y-100190476D01*
X191919047Y-100228571D01*
X191804761Y-100228571D01*
X191652380Y-100190476D01*
X191576190Y-100152380D01*
X191500000Y-100076190D01*
X191461904Y-99961904D01*
X191461904Y-99885714D01*
X191500000Y-99771428D01*
X191538095Y-99733333D01*
X192261904Y-98971428D02*
X192261904Y-99428571D01*
X192261904Y-99200000D02*
X191461904Y-99200000D01*
X191576190Y-99276190D01*
X191652380Y-99352380D01*
X191690476Y-99428571D01*
%TO.C,R11*%
X173185714Y-114761904D02*
X172919047Y-114380952D01*
X172728571Y-114761904D02*
X172728571Y-113961904D01*
X173033333Y-113961904D01*
X173109523Y-114000000D01*
X173147619Y-114038095D01*
X173185714Y-114114285D01*
X173185714Y-114228571D01*
X173147619Y-114304761D01*
X173109523Y-114342857D01*
X173033333Y-114380952D01*
X172728571Y-114380952D01*
X173947619Y-114761904D02*
X173490476Y-114761904D01*
X173719047Y-114761904D02*
X173719047Y-113961904D01*
X173642857Y-114076190D01*
X173566666Y-114152380D01*
X173490476Y-114190476D01*
X174709523Y-114761904D02*
X174252380Y-114761904D01*
X174480952Y-114761904D02*
X174480952Y-113961904D01*
X174404761Y-114076190D01*
X174328571Y-114152380D01*
X174252380Y-114190476D01*
D12*
%TO.C,D3*%
X164752380Y-105438095D02*
X163752380Y-105438095D01*
X163752380Y-105200000D01*
X163800000Y-105057142D01*
X163895238Y-104961904D01*
X163990476Y-104914285D01*
X164180952Y-104866666D01*
X164323809Y-104866666D01*
X164514285Y-104914285D01*
X164609523Y-104961904D01*
X164704761Y-105057142D01*
X164752380Y-105200000D01*
X164752380Y-105438095D01*
X163752380Y-104533333D02*
X163752380Y-103914285D01*
X164133333Y-104247619D01*
X164133333Y-104104761D01*
X164180952Y-104009523D01*
X164228571Y-103961904D01*
X164323809Y-103914285D01*
X164561904Y-103914285D01*
X164657142Y-103961904D01*
X164704761Y-104009523D01*
X164752380Y-104104761D01*
X164752380Y-104390476D01*
X164704761Y-104485714D01*
X164657142Y-104533333D01*
D10*
%TO.C,Q2*%
X175247619Y-92529198D02*
X175200000Y-92624436D01*
X175104761Y-92719674D01*
X174961904Y-92862531D01*
X174914285Y-92957769D01*
X174914285Y-93053007D01*
X175152380Y-93005388D02*
X175104761Y-93100626D01*
X175009523Y-93195864D01*
X174819047Y-93243483D01*
X174485714Y-93243483D01*
X174295238Y-93195864D01*
X174200000Y-93100626D01*
X174152380Y-93005388D01*
X174152380Y-92814912D01*
X174200000Y-92719674D01*
X174295238Y-92624436D01*
X174485714Y-92576817D01*
X174819047Y-92576817D01*
X175009523Y-92624436D01*
X175104761Y-92719674D01*
X175152380Y-92814912D01*
X175152380Y-93005388D01*
X174247619Y-92195864D02*
X174200000Y-92148245D01*
X174152380Y-92053007D01*
X174152380Y-91814912D01*
X174200000Y-91719674D01*
X174247619Y-91672055D01*
X174342857Y-91624436D01*
X174438095Y-91624436D01*
X174580952Y-91672055D01*
X175152380Y-92243483D01*
X175152380Y-91624436D01*
D15*
%TO.C,J3*%
X192920769Y-100557552D02*
X193588426Y-100557552D01*
X193721958Y-100602063D01*
X193810979Y-100691084D01*
X193855489Y-100824615D01*
X193855489Y-100913636D01*
X192920769Y-100201468D02*
X192920769Y-99622832D01*
X193276853Y-99934406D01*
X193276853Y-99800874D01*
X193321363Y-99711853D01*
X193365874Y-99667343D01*
X193454895Y-99622832D01*
X193677447Y-99622832D01*
X193766468Y-99667343D01*
X193810979Y-99711853D01*
X193855489Y-99800874D01*
X193855489Y-100067937D01*
X193810979Y-100156958D01*
X193766468Y-100201468D01*
D12*
X207761273Y-112064523D02*
X207761273Y-112669285D01*
X208366035Y-112729761D01*
X208305559Y-112669285D01*
X208245083Y-112548333D01*
X208245083Y-112245952D01*
X208305559Y-112125000D01*
X208366035Y-112064523D01*
X208486988Y-112004047D01*
X208789369Y-112004047D01*
X208910321Y-112064523D01*
X208970797Y-112125000D01*
X209031273Y-112245952D01*
X209031273Y-112548333D01*
X208970797Y-112669285D01*
X208910321Y-112729761D01*
X209031273Y-111399285D02*
X209031273Y-111157380D01*
X208970797Y-111036428D01*
X208910321Y-110975952D01*
X208728892Y-110855000D01*
X208486988Y-110794523D01*
X208003178Y-110794523D01*
X207882226Y-110855000D01*
X207821750Y-110915476D01*
X207761273Y-111036428D01*
X207761273Y-111278333D01*
X207821750Y-111399285D01*
X207882226Y-111459761D01*
X208003178Y-111520238D01*
X208305559Y-111520238D01*
X208426511Y-111459761D01*
X208486988Y-111399285D01*
X208547464Y-111278333D01*
X208547464Y-111036428D01*
X208486988Y-110915476D01*
X208426511Y-110855000D01*
X208305559Y-110794523D01*
X208184607Y-109705952D02*
X209031273Y-109705952D01*
X207700797Y-110008333D02*
X208607940Y-110310714D01*
X208607940Y-109524523D01*
X207761273Y-108435952D02*
X207761273Y-109040714D01*
X208366035Y-109101190D01*
X208305559Y-109040714D01*
X208245083Y-108919761D01*
X208245083Y-108617380D01*
X208305559Y-108496428D01*
X208366035Y-108435952D01*
X208486988Y-108375476D01*
X208789369Y-108375476D01*
X208910321Y-108435952D01*
X208970797Y-108496428D01*
X209031273Y-108617380D01*
X209031273Y-108919761D01*
X208970797Y-109040714D01*
X208910321Y-109101190D01*
X207761273Y-107952142D02*
X207761273Y-107165952D01*
X208245083Y-107589285D01*
X208245083Y-107407857D01*
X208305559Y-107286904D01*
X208366035Y-107226428D01*
X208486988Y-107165952D01*
X208789369Y-107165952D01*
X208910321Y-107226428D01*
X208970797Y-107286904D01*
X209031273Y-107407857D01*
X209031273Y-107770714D01*
X208970797Y-107891666D01*
X208910321Y-107952142D01*
X208547464Y-106621666D02*
X208547464Y-105654047D01*
X207761273Y-104807380D02*
X207761273Y-104686428D01*
X207821750Y-104565476D01*
X207882226Y-104505000D01*
X208003178Y-104444523D01*
X208245083Y-104384047D01*
X208547464Y-104384047D01*
X208789369Y-104444523D01*
X208910321Y-104505000D01*
X208970797Y-104565476D01*
X209031273Y-104686428D01*
X209031273Y-104807380D01*
X208970797Y-104928333D01*
X208910321Y-104988809D01*
X208789369Y-105049285D01*
X208547464Y-105109761D01*
X208245083Y-105109761D01*
X208003178Y-105049285D01*
X207882226Y-104988809D01*
X207821750Y-104928333D01*
X207761273Y-104807380D01*
X207761273Y-103295476D02*
X207761273Y-103537380D01*
X207821750Y-103658333D01*
X207882226Y-103718809D01*
X208063654Y-103839761D01*
X208305559Y-103900238D01*
X208789369Y-103900238D01*
X208910321Y-103839761D01*
X208970797Y-103779285D01*
X209031273Y-103658333D01*
X209031273Y-103416428D01*
X208970797Y-103295476D01*
X208910321Y-103235000D01*
X208789369Y-103174523D01*
X208486988Y-103174523D01*
X208366035Y-103235000D01*
X208305559Y-103295476D01*
X208245083Y-103416428D01*
X208245083Y-103658333D01*
X208305559Y-103779285D01*
X208366035Y-103839761D01*
X208486988Y-103900238D01*
X209031273Y-101965000D02*
X209031273Y-102690714D01*
X209031273Y-102327857D02*
X207761273Y-102327857D01*
X207942702Y-102448809D01*
X208063654Y-102569761D01*
X208124130Y-102690714D01*
X209031273Y-100755476D02*
X209031273Y-101481190D01*
X209031273Y-101118333D02*
X207761273Y-101118333D01*
X207942702Y-101239285D01*
X208063654Y-101360238D01*
X208124130Y-101481190D01*
X209031273Y-99545952D02*
X209031273Y-100271666D01*
X209031273Y-99908809D02*
X207761273Y-99908809D01*
X207942702Y-100029761D01*
X208063654Y-100150714D01*
X208124130Y-100271666D01*
X207761273Y-98759761D02*
X207761273Y-98638809D01*
X207821750Y-98517857D01*
X207882226Y-98457380D01*
X208003178Y-98396904D01*
X208245083Y-98336428D01*
X208547464Y-98336428D01*
X208789369Y-98396904D01*
X208910321Y-98457380D01*
X208970797Y-98517857D01*
X209031273Y-98638809D01*
X209031273Y-98759761D01*
X208970797Y-98880714D01*
X208910321Y-98941190D01*
X208789369Y-99001666D01*
X208547464Y-99062142D01*
X208245083Y-99062142D01*
X208003178Y-99001666D01*
X207882226Y-98941190D01*
X207821750Y-98880714D01*
X207761273Y-98759761D01*
X208366035Y-97792142D02*
X208366035Y-97368809D01*
X209031273Y-97187380D02*
X209031273Y-97792142D01*
X207761273Y-97792142D01*
X207761273Y-97187380D01*
X208910321Y-95917380D02*
X208970797Y-95977857D01*
X209031273Y-96159285D01*
X209031273Y-96280238D01*
X208970797Y-96461666D01*
X208849845Y-96582619D01*
X208728892Y-96643095D01*
X208486988Y-96703571D01*
X208305559Y-96703571D01*
X208063654Y-96643095D01*
X207942702Y-96582619D01*
X207821750Y-96461666D01*
X207761273Y-96280238D01*
X207761273Y-96159285D01*
X207821750Y-95977857D01*
X207882226Y-95917380D01*
X209031273Y-95373095D02*
X207761273Y-95373095D01*
X208366035Y-95373095D02*
X208366035Y-94647380D01*
X209031273Y-94647380D02*
X207761273Y-94647380D01*
X209031273Y-93437857D02*
X209031273Y-94042619D01*
X207761273Y-94042619D01*
X208366035Y-92591190D02*
X208366035Y-93014523D01*
X209031273Y-93014523D02*
X207761273Y-93014523D01*
X207761273Y-92409761D01*
%TO.C,C8*%
X153757142Y-116566666D02*
X153804761Y-116614285D01*
X153852380Y-116757142D01*
X153852380Y-116852380D01*
X153804761Y-116995238D01*
X153709523Y-117090476D01*
X153614285Y-117138095D01*
X153423809Y-117185714D01*
X153280952Y-117185714D01*
X153090476Y-117138095D01*
X152995238Y-117090476D01*
X152900000Y-116995238D01*
X152852380Y-116852380D01*
X152852380Y-116757142D01*
X152900000Y-116614285D01*
X152947619Y-116566666D01*
X153280952Y-115995238D02*
X153233333Y-116090476D01*
X153185714Y-116138095D01*
X153090476Y-116185714D01*
X153042857Y-116185714D01*
X152947619Y-116138095D01*
X152900000Y-116090476D01*
X152852380Y-115995238D01*
X152852380Y-115804761D01*
X152900000Y-115709523D01*
X152947619Y-115661904D01*
X153042857Y-115614285D01*
X153090476Y-115614285D01*
X153185714Y-115661904D01*
X153233333Y-115709523D01*
X153280952Y-115804761D01*
X153280952Y-115995238D01*
X153328571Y-116090476D01*
X153376190Y-116138095D01*
X153471428Y-116185714D01*
X153661904Y-116185714D01*
X153757142Y-116138095D01*
X153804761Y-116090476D01*
X153852380Y-115995238D01*
X153852380Y-115804761D01*
X153804761Y-115709523D01*
X153757142Y-115661904D01*
X153661904Y-115614285D01*
X153471428Y-115614285D01*
X153376190Y-115661904D01*
X153328571Y-115709523D01*
X153280952Y-115804761D01*
D13*
%TO.C,R4*%
X173466666Y-122161904D02*
X173200000Y-121780952D01*
X173009523Y-122161904D02*
X173009523Y-121361904D01*
X173314285Y-121361904D01*
X173390476Y-121400000D01*
X173428571Y-121438095D01*
X173466666Y-121514285D01*
X173466666Y-121628571D01*
X173428571Y-121704761D01*
X173390476Y-121742857D01*
X173314285Y-121780952D01*
X173009523Y-121780952D01*
X174152380Y-121628571D02*
X174152380Y-122161904D01*
X173961904Y-121323809D02*
X173771428Y-121895238D01*
X174266666Y-121895238D01*
D12*
%TO.C,X1*%
X187890476Y-101552380D02*
X188557142Y-102552380D01*
X188557142Y-101552380D02*
X187890476Y-102552380D01*
X189461904Y-102552380D02*
X188890476Y-102552380D01*
X189176190Y-102552380D02*
X189176190Y-101552380D01*
X189080952Y-101695238D01*
X188985714Y-101790476D01*
X188890476Y-101838095D01*
%TO.C,R17*%
X176152380Y-89842857D02*
X175676190Y-90176190D01*
X176152380Y-90414285D02*
X175152380Y-90414285D01*
X175152380Y-90033333D01*
X175200000Y-89938095D01*
X175247619Y-89890476D01*
X175342857Y-89842857D01*
X175485714Y-89842857D01*
X175580952Y-89890476D01*
X175628571Y-89938095D01*
X175676190Y-90033333D01*
X175676190Y-90414285D01*
X176152380Y-88890476D02*
X176152380Y-89461904D01*
X176152380Y-89176190D02*
X175152380Y-89176190D01*
X175295238Y-89271428D01*
X175390476Y-89366666D01*
X175438095Y-89461904D01*
X175152380Y-88557142D02*
X175152380Y-87890476D01*
X176152380Y-88319047D01*
%TO.C,C13*%
X158657142Y-85857142D02*
X158609523Y-85904761D01*
X158466666Y-85952380D01*
X158371428Y-85952380D01*
X158228571Y-85904761D01*
X158133333Y-85809523D01*
X158085714Y-85714285D01*
X158038095Y-85523809D01*
X158038095Y-85380952D01*
X158085714Y-85190476D01*
X158133333Y-85095238D01*
X158228571Y-85000000D01*
X158371428Y-84952380D01*
X158466666Y-84952380D01*
X158609523Y-85000000D01*
X158657142Y-85047619D01*
X159609523Y-85952380D02*
X159038095Y-85952380D01*
X159323809Y-85952380D02*
X159323809Y-84952380D01*
X159228571Y-85095238D01*
X159133333Y-85190476D01*
X159038095Y-85238095D01*
X159942857Y-84952380D02*
X160561904Y-84952380D01*
X160228571Y-85333333D01*
X160371428Y-85333333D01*
X160466666Y-85380952D01*
X160514285Y-85428571D01*
X160561904Y-85523809D01*
X160561904Y-85761904D01*
X160514285Y-85857142D01*
X160466666Y-85904761D01*
X160371428Y-85952380D01*
X160085714Y-85952380D01*
X159990476Y-85904761D01*
X159942857Y-85857142D01*
%TO.C,C15*%
X170957142Y-102357142D02*
X170909523Y-102404761D01*
X170766666Y-102452380D01*
X170671428Y-102452380D01*
X170528571Y-102404761D01*
X170433333Y-102309523D01*
X170385714Y-102214285D01*
X170338095Y-102023809D01*
X170338095Y-101880952D01*
X170385714Y-101690476D01*
X170433333Y-101595238D01*
X170528571Y-101500000D01*
X170671428Y-101452380D01*
X170766666Y-101452380D01*
X170909523Y-101500000D01*
X170957142Y-101547619D01*
X171909523Y-102452380D02*
X171338095Y-102452380D01*
X171623809Y-102452380D02*
X171623809Y-101452380D01*
X171528571Y-101595238D01*
X171433333Y-101690476D01*
X171338095Y-101738095D01*
X172814285Y-101452380D02*
X172338095Y-101452380D01*
X172290476Y-101928571D01*
X172338095Y-101880952D01*
X172433333Y-101833333D01*
X172671428Y-101833333D01*
X172766666Y-101880952D01*
X172814285Y-101928571D01*
X172861904Y-102023809D01*
X172861904Y-102261904D01*
X172814285Y-102357142D01*
X172766666Y-102404761D01*
X172671428Y-102452380D01*
X172433333Y-102452380D01*
X172338095Y-102404761D01*
X172290476Y-102357142D01*
D13*
%TO.C,D8*%
X158061904Y-122290476D02*
X157261904Y-122290476D01*
X157261904Y-122100000D01*
X157300000Y-121985714D01*
X157376190Y-121909523D01*
X157452380Y-121871428D01*
X157604761Y-121833333D01*
X157719047Y-121833333D01*
X157871428Y-121871428D01*
X157947619Y-121909523D01*
X158023809Y-121985714D01*
X158061904Y-122100000D01*
X158061904Y-122290476D01*
X157604761Y-121376190D02*
X157566666Y-121452380D01*
X157528571Y-121490476D01*
X157452380Y-121528571D01*
X157414285Y-121528571D01*
X157338095Y-121490476D01*
X157300000Y-121452380D01*
X157261904Y-121376190D01*
X157261904Y-121223809D01*
X157300000Y-121147619D01*
X157338095Y-121109523D01*
X157414285Y-121071428D01*
X157452380Y-121071428D01*
X157528571Y-121109523D01*
X157566666Y-121147619D01*
X157604761Y-121223809D01*
X157604761Y-121376190D01*
X157642857Y-121452380D01*
X157680952Y-121490476D01*
X157757142Y-121528571D01*
X157909523Y-121528571D01*
X157985714Y-121490476D01*
X158023809Y-121452380D01*
X158061904Y-121376190D01*
X158061904Y-121223809D01*
X158023809Y-121147619D01*
X157985714Y-121109523D01*
X157909523Y-121071428D01*
X157757142Y-121071428D01*
X157680952Y-121109523D01*
X157642857Y-121147619D01*
X157604761Y-121223809D01*
%TO.C,R2*%
X170361904Y-122333333D02*
X169980952Y-122600000D01*
X170361904Y-122790476D02*
X169561904Y-122790476D01*
X169561904Y-122485714D01*
X169600000Y-122409523D01*
X169638095Y-122371428D01*
X169714285Y-122333333D01*
X169828571Y-122333333D01*
X169904761Y-122371428D01*
X169942857Y-122409523D01*
X169980952Y-122485714D01*
X169980952Y-122790476D01*
X169638095Y-122028571D02*
X169600000Y-121990476D01*
X169561904Y-121914285D01*
X169561904Y-121723809D01*
X169600000Y-121647619D01*
X169638095Y-121609523D01*
X169714285Y-121571428D01*
X169790476Y-121571428D01*
X169904761Y-121609523D01*
X170361904Y-122066666D01*
X170361904Y-121571428D01*
D12*
%TO.C,NT1*%
X147752380Y-107742857D02*
X146752380Y-107742857D01*
X147752380Y-107171428D01*
X146752380Y-107171428D01*
X146752380Y-106838095D02*
X146752380Y-106266666D01*
X147752380Y-106552380D02*
X146752380Y-106552380D01*
X147752380Y-105409523D02*
X147752380Y-105980952D01*
X147752380Y-105695238D02*
X146752380Y-105695238D01*
X146895238Y-105790476D01*
X146990476Y-105885714D01*
X147038095Y-105980952D01*
D13*
%TO.C,C4*%
X175666666Y-115185714D02*
X175628571Y-115223809D01*
X175514285Y-115261904D01*
X175438095Y-115261904D01*
X175323809Y-115223809D01*
X175247619Y-115147619D01*
X175209523Y-115071428D01*
X175171428Y-114919047D01*
X175171428Y-114804761D01*
X175209523Y-114652380D01*
X175247619Y-114576190D01*
X175323809Y-114500000D01*
X175438095Y-114461904D01*
X175514285Y-114461904D01*
X175628571Y-114500000D01*
X175666666Y-114538095D01*
X176352380Y-114728571D02*
X176352380Y-115261904D01*
X176161904Y-114423809D02*
X175971428Y-114995238D01*
X176466666Y-114995238D01*
D12*
%TO.C,R10*%
X183152380Y-104842857D02*
X182676190Y-105176190D01*
X183152380Y-105414285D02*
X182152380Y-105414285D01*
X182152380Y-105033333D01*
X182200000Y-104938095D01*
X182247619Y-104890476D01*
X182342857Y-104842857D01*
X182485714Y-104842857D01*
X182580952Y-104890476D01*
X182628571Y-104938095D01*
X182676190Y-105033333D01*
X182676190Y-105414285D01*
X183152380Y-103890476D02*
X183152380Y-104461904D01*
X183152380Y-104176190D02*
X182152380Y-104176190D01*
X182295238Y-104271428D01*
X182390476Y-104366666D01*
X182438095Y-104461904D01*
X182152380Y-103271428D02*
X182152380Y-103176190D01*
X182200000Y-103080952D01*
X182247619Y-103033333D01*
X182342857Y-102985714D01*
X182533333Y-102938095D01*
X182771428Y-102938095D01*
X182961904Y-102985714D01*
X183057142Y-103033333D01*
X183104761Y-103080952D01*
X183152380Y-103176190D01*
X183152380Y-103271428D01*
X183104761Y-103366666D01*
X183057142Y-103414285D01*
X182961904Y-103461904D01*
X182771428Y-103509523D01*
X182533333Y-103509523D01*
X182342857Y-103461904D01*
X182247619Y-103414285D01*
X182200000Y-103366666D01*
X182152380Y-103271428D01*
D13*
%TO.C,R8*%
X149961904Y-116533333D02*
X149580952Y-116800000D01*
X149961904Y-116990476D02*
X149161904Y-116990476D01*
X149161904Y-116685714D01*
X149200000Y-116609523D01*
X149238095Y-116571428D01*
X149314285Y-116533333D01*
X149428571Y-116533333D01*
X149504761Y-116571428D01*
X149542857Y-116609523D01*
X149580952Y-116685714D01*
X149580952Y-116990476D01*
X149504761Y-116076190D02*
X149466666Y-116152380D01*
X149428571Y-116190476D01*
X149352380Y-116228571D01*
X149314285Y-116228571D01*
X149238095Y-116190476D01*
X149200000Y-116152380D01*
X149161904Y-116076190D01*
X149161904Y-115923809D01*
X149200000Y-115847619D01*
X149238095Y-115809523D01*
X149314285Y-115771428D01*
X149352380Y-115771428D01*
X149428571Y-115809523D01*
X149466666Y-115847619D01*
X149504761Y-115923809D01*
X149504761Y-116076190D01*
X149542857Y-116152380D01*
X149580952Y-116190476D01*
X149657142Y-116228571D01*
X149809523Y-116228571D01*
X149885714Y-116190476D01*
X149923809Y-116152380D01*
X149961904Y-116076190D01*
X149961904Y-115923809D01*
X149923809Y-115847619D01*
X149885714Y-115809523D01*
X149809523Y-115771428D01*
X149657142Y-115771428D01*
X149580952Y-115809523D01*
X149542857Y-115847619D01*
X149504761Y-115923809D01*
%TO.C,C10*%
X182885714Y-101614285D02*
X182923809Y-101652380D01*
X182961904Y-101766666D01*
X182961904Y-101842857D01*
X182923809Y-101957142D01*
X182847619Y-102033333D01*
X182771428Y-102071428D01*
X182619047Y-102109523D01*
X182504761Y-102109523D01*
X182352380Y-102071428D01*
X182276190Y-102033333D01*
X182200000Y-101957142D01*
X182161904Y-101842857D01*
X182161904Y-101766666D01*
X182200000Y-101652380D01*
X182238095Y-101614285D01*
X182961904Y-100852380D02*
X182961904Y-101309523D01*
X182961904Y-101080952D02*
X182161904Y-101080952D01*
X182276190Y-101157142D01*
X182352380Y-101233333D01*
X182390476Y-101309523D01*
X182161904Y-100357142D02*
X182161904Y-100280952D01*
X182200000Y-100204761D01*
X182238095Y-100166666D01*
X182314285Y-100128571D01*
X182466666Y-100090476D01*
X182657142Y-100090476D01*
X182809523Y-100128571D01*
X182885714Y-100166666D01*
X182923809Y-100204761D01*
X182961904Y-100280952D01*
X182961904Y-100357142D01*
X182923809Y-100433333D01*
X182885714Y-100471428D01*
X182809523Y-100509523D01*
X182657142Y-100547619D01*
X182466666Y-100547619D01*
X182314285Y-100509523D01*
X182238095Y-100471428D01*
X182200000Y-100433333D01*
X182161904Y-100357142D01*
%TO.C,R30*%
X161385714Y-122911904D02*
X161119047Y-122530952D01*
X160928571Y-122911904D02*
X160928571Y-122111904D01*
X161233333Y-122111904D01*
X161309523Y-122150000D01*
X161347619Y-122188095D01*
X161385714Y-122264285D01*
X161385714Y-122378571D01*
X161347619Y-122454761D01*
X161309523Y-122492857D01*
X161233333Y-122530952D01*
X160928571Y-122530952D01*
X161652380Y-122111904D02*
X162147619Y-122111904D01*
X161880952Y-122416666D01*
X161995238Y-122416666D01*
X162071428Y-122454761D01*
X162109523Y-122492857D01*
X162147619Y-122569047D01*
X162147619Y-122759523D01*
X162109523Y-122835714D01*
X162071428Y-122873809D01*
X161995238Y-122911904D01*
X161766666Y-122911904D01*
X161690476Y-122873809D01*
X161652380Y-122835714D01*
X162642857Y-122111904D02*
X162719047Y-122111904D01*
X162795238Y-122150000D01*
X162833333Y-122188095D01*
X162871428Y-122264285D01*
X162909523Y-122416666D01*
X162909523Y-122607142D01*
X162871428Y-122759523D01*
X162833333Y-122835714D01*
X162795238Y-122873809D01*
X162719047Y-122911904D01*
X162642857Y-122911904D01*
X162566666Y-122873809D01*
X162528571Y-122835714D01*
X162490476Y-122759523D01*
X162452380Y-122607142D01*
X162452380Y-122416666D01*
X162490476Y-122264285D01*
X162528571Y-122188095D01*
X162566666Y-122150000D01*
X162642857Y-122111904D01*
D15*
%TO.C,J2*%
X152520769Y-104065593D02*
X153188426Y-104065593D01*
X153321958Y-104110104D01*
X153410979Y-104199125D01*
X153455489Y-104332656D01*
X153455489Y-104421677D01*
X152609790Y-103664999D02*
X152565280Y-103620489D01*
X152520769Y-103531468D01*
X152520769Y-103308915D01*
X152565280Y-103219894D01*
X152609790Y-103175384D01*
X152698811Y-103130873D01*
X152787832Y-103130873D01*
X152921363Y-103175384D01*
X153455489Y-103709510D01*
X153455489Y-103130873D01*
D12*
X145047773Y-113064523D02*
X145047773Y-113669285D01*
X145652535Y-113729761D01*
X145592059Y-113669285D01*
X145531583Y-113548333D01*
X145531583Y-113245952D01*
X145592059Y-113125000D01*
X145652535Y-113064523D01*
X145773488Y-113004047D01*
X146075869Y-113004047D01*
X146196821Y-113064523D01*
X146257297Y-113125000D01*
X146317773Y-113245952D01*
X146317773Y-113548333D01*
X146257297Y-113669285D01*
X146196821Y-113729761D01*
X146317773Y-112399285D02*
X146317773Y-112157380D01*
X146257297Y-112036428D01*
X146196821Y-111975952D01*
X146015392Y-111855000D01*
X145773488Y-111794523D01*
X145289678Y-111794523D01*
X145168726Y-111855000D01*
X145108250Y-111915476D01*
X145047773Y-112036428D01*
X145047773Y-112278333D01*
X145108250Y-112399285D01*
X145168726Y-112459761D01*
X145289678Y-112520238D01*
X145592059Y-112520238D01*
X145713011Y-112459761D01*
X145773488Y-112399285D01*
X145833964Y-112278333D01*
X145833964Y-112036428D01*
X145773488Y-111915476D01*
X145713011Y-111855000D01*
X145592059Y-111794523D01*
X145471107Y-110705952D02*
X146317773Y-110705952D01*
X144987297Y-111008333D02*
X145894440Y-111310714D01*
X145894440Y-110524523D01*
X145047773Y-109435952D02*
X145047773Y-110040714D01*
X145652535Y-110101190D01*
X145592059Y-110040714D01*
X145531583Y-109919761D01*
X145531583Y-109617380D01*
X145592059Y-109496428D01*
X145652535Y-109435952D01*
X145773488Y-109375476D01*
X146075869Y-109375476D01*
X146196821Y-109435952D01*
X146257297Y-109496428D01*
X146317773Y-109617380D01*
X146317773Y-109919761D01*
X146257297Y-110040714D01*
X146196821Y-110101190D01*
X145047773Y-108952142D02*
X145047773Y-108165952D01*
X145531583Y-108589285D01*
X145531583Y-108407857D01*
X145592059Y-108286904D01*
X145652535Y-108226428D01*
X145773488Y-108165952D01*
X146075869Y-108165952D01*
X146196821Y-108226428D01*
X146257297Y-108286904D01*
X146317773Y-108407857D01*
X146317773Y-108770714D01*
X146257297Y-108891666D01*
X146196821Y-108952142D01*
X145833964Y-107621666D02*
X145833964Y-106654047D01*
X145047773Y-105807380D02*
X145047773Y-105686428D01*
X145108250Y-105565476D01*
X145168726Y-105505000D01*
X145289678Y-105444523D01*
X145531583Y-105384047D01*
X145833964Y-105384047D01*
X146075869Y-105444523D01*
X146196821Y-105505000D01*
X146257297Y-105565476D01*
X146317773Y-105686428D01*
X146317773Y-105807380D01*
X146257297Y-105928333D01*
X146196821Y-105988809D01*
X146075869Y-106049285D01*
X145833964Y-106109761D01*
X145531583Y-106109761D01*
X145289678Y-106049285D01*
X145168726Y-105988809D01*
X145108250Y-105928333D01*
X145047773Y-105807380D01*
X145047773Y-104295476D02*
X145047773Y-104537380D01*
X145108250Y-104658333D01*
X145168726Y-104718809D01*
X145350154Y-104839761D01*
X145592059Y-104900238D01*
X146075869Y-104900238D01*
X146196821Y-104839761D01*
X146257297Y-104779285D01*
X146317773Y-104658333D01*
X146317773Y-104416428D01*
X146257297Y-104295476D01*
X146196821Y-104235000D01*
X146075869Y-104174523D01*
X145773488Y-104174523D01*
X145652535Y-104235000D01*
X145592059Y-104295476D01*
X145531583Y-104416428D01*
X145531583Y-104658333D01*
X145592059Y-104779285D01*
X145652535Y-104839761D01*
X145773488Y-104900238D01*
X146317773Y-102965000D02*
X146317773Y-103690714D01*
X146317773Y-103327857D02*
X145047773Y-103327857D01*
X145229202Y-103448809D01*
X145350154Y-103569761D01*
X145410630Y-103690714D01*
X146317773Y-101755476D02*
X146317773Y-102481190D01*
X146317773Y-102118333D02*
X145047773Y-102118333D01*
X145229202Y-102239285D01*
X145350154Y-102360238D01*
X145410630Y-102481190D01*
X146317773Y-100545952D02*
X146317773Y-101271666D01*
X146317773Y-100908809D02*
X145047773Y-100908809D01*
X145229202Y-101029761D01*
X145350154Y-101150714D01*
X145410630Y-101271666D01*
X145047773Y-99759761D02*
X145047773Y-99638809D01*
X145108250Y-99517857D01*
X145168726Y-99457380D01*
X145289678Y-99396904D01*
X145531583Y-99336428D01*
X145833964Y-99336428D01*
X146075869Y-99396904D01*
X146196821Y-99457380D01*
X146257297Y-99517857D01*
X146317773Y-99638809D01*
X146317773Y-99759761D01*
X146257297Y-99880714D01*
X146196821Y-99941190D01*
X146075869Y-100001666D01*
X145833964Y-100062142D01*
X145531583Y-100062142D01*
X145289678Y-100001666D01*
X145168726Y-99941190D01*
X145108250Y-99880714D01*
X145047773Y-99759761D01*
X145652535Y-98792142D02*
X145652535Y-98368809D01*
X146317773Y-98187380D02*
X146317773Y-98792142D01*
X145047773Y-98792142D01*
X145047773Y-98187380D01*
X146196821Y-96917380D02*
X146257297Y-96977857D01*
X146317773Y-97159285D01*
X146317773Y-97280238D01*
X146257297Y-97461666D01*
X146136345Y-97582619D01*
X146015392Y-97643095D01*
X145773488Y-97703571D01*
X145592059Y-97703571D01*
X145350154Y-97643095D01*
X145229202Y-97582619D01*
X145108250Y-97461666D01*
X145047773Y-97280238D01*
X145047773Y-97159285D01*
X145108250Y-96977857D01*
X145168726Y-96917380D01*
X146317773Y-96373095D02*
X145047773Y-96373095D01*
X145652535Y-96373095D02*
X145652535Y-95647380D01*
X146317773Y-95647380D02*
X145047773Y-95647380D01*
X146317773Y-94437857D02*
X146317773Y-95042619D01*
X145047773Y-95042619D01*
X145652535Y-93591190D02*
X145652535Y-94014523D01*
X146317773Y-94014523D02*
X145047773Y-94014523D01*
X145047773Y-93409761D01*
D16*
%TO.C,U1*%
X189086346Y-105218077D02*
X190410533Y-105218077D01*
X190566320Y-105140184D01*
X190644213Y-105062290D01*
X190722106Y-104906504D01*
X190722106Y-104594930D01*
X190644213Y-104439144D01*
X190566320Y-104361250D01*
X190410533Y-104283357D01*
X189086346Y-104283357D01*
X190722106Y-102647597D02*
X190722106Y-103582317D01*
X190722106Y-103114957D02*
X189086346Y-103114957D01*
X189320026Y-103270744D01*
X189475813Y-103426530D01*
X189553706Y-103582317D01*
D12*
%TO.C,D6*%
X194252380Y-121538095D02*
X193252380Y-121538095D01*
X193252380Y-121300000D01*
X193300000Y-121157142D01*
X193395238Y-121061904D01*
X193490476Y-121014285D01*
X193680952Y-120966666D01*
X193823809Y-120966666D01*
X194014285Y-121014285D01*
X194109523Y-121061904D01*
X194204761Y-121157142D01*
X194252380Y-121300000D01*
X194252380Y-121538095D01*
X193252380Y-120109523D02*
X193252380Y-120300000D01*
X193300000Y-120395238D01*
X193347619Y-120442857D01*
X193490476Y-120538095D01*
X193680952Y-120585714D01*
X194061904Y-120585714D01*
X194157142Y-120538095D01*
X194204761Y-120490476D01*
X194252380Y-120395238D01*
X194252380Y-120204761D01*
X194204761Y-120109523D01*
X194157142Y-120061904D01*
X194061904Y-120014285D01*
X193823809Y-120014285D01*
X193728571Y-120061904D01*
X193680952Y-120109523D01*
X193633333Y-120204761D01*
X193633333Y-120395238D01*
X193680952Y-120490476D01*
X193728571Y-120538095D01*
X193823809Y-120585714D01*
%TO.C,D7*%
X161361904Y-90152380D02*
X161361904Y-89152380D01*
X161600000Y-89152380D01*
X161742857Y-89200000D01*
X161838095Y-89295238D01*
X161885714Y-89390476D01*
X161933333Y-89580952D01*
X161933333Y-89723809D01*
X161885714Y-89914285D01*
X161838095Y-90009523D01*
X161742857Y-90104761D01*
X161600000Y-90152380D01*
X161361904Y-90152380D01*
X162266666Y-89152380D02*
X162933333Y-89152380D01*
X162504761Y-90152380D01*
D13*
%TO.C,R7*%
X175566666Y-110761904D02*
X175300000Y-110380952D01*
X175109523Y-110761904D02*
X175109523Y-109961904D01*
X175414285Y-109961904D01*
X175490476Y-110000000D01*
X175528571Y-110038095D01*
X175566666Y-110114285D01*
X175566666Y-110228571D01*
X175528571Y-110304761D01*
X175490476Y-110342857D01*
X175414285Y-110380952D01*
X175109523Y-110380952D01*
X175833333Y-109961904D02*
X176366666Y-109961904D01*
X176023809Y-110761904D01*
D12*
%TO.C,R16*%
X179252380Y-86742857D02*
X178776190Y-87076190D01*
X179252380Y-87314285D02*
X178252380Y-87314285D01*
X178252380Y-86933333D01*
X178300000Y-86838095D01*
X178347619Y-86790476D01*
X178442857Y-86742857D01*
X178585714Y-86742857D01*
X178680952Y-86790476D01*
X178728571Y-86838095D01*
X178776190Y-86933333D01*
X178776190Y-87314285D01*
X179252380Y-85790476D02*
X179252380Y-86361904D01*
X179252380Y-86076190D02*
X178252380Y-86076190D01*
X178395238Y-86171428D01*
X178490476Y-86266666D01*
X178538095Y-86361904D01*
X178252380Y-84933333D02*
X178252380Y-85123809D01*
X178300000Y-85219047D01*
X178347619Y-85266666D01*
X178490476Y-85361904D01*
X178680952Y-85409523D01*
X179061904Y-85409523D01*
X179157142Y-85361904D01*
X179204761Y-85314285D01*
X179252380Y-85219047D01*
X179252380Y-85028571D01*
X179204761Y-84933333D01*
X179157142Y-84885714D01*
X179061904Y-84838095D01*
X178823809Y-84838095D01*
X178728571Y-84885714D01*
X178680952Y-84933333D01*
X178633333Y-85028571D01*
X178633333Y-85219047D01*
X178680952Y-85314285D01*
X178728571Y-85361904D01*
X178823809Y-85409523D01*
D13*
%TO.C,R3*%
X167766666Y-122161904D02*
X167500000Y-121780952D01*
X167309523Y-122161904D02*
X167309523Y-121361904D01*
X167614285Y-121361904D01*
X167690476Y-121400000D01*
X167728571Y-121438095D01*
X167766666Y-121514285D01*
X167766666Y-121628571D01*
X167728571Y-121704761D01*
X167690476Y-121742857D01*
X167614285Y-121780952D01*
X167309523Y-121780952D01*
X168033333Y-121361904D02*
X168528571Y-121361904D01*
X168261904Y-121666666D01*
X168376190Y-121666666D01*
X168452380Y-121704761D01*
X168490476Y-121742857D01*
X168528571Y-121819047D01*
X168528571Y-122009523D01*
X168490476Y-122085714D01*
X168452380Y-122123809D01*
X168376190Y-122161904D01*
X168147619Y-122161904D01*
X168071428Y-122123809D01*
X168033333Y-122085714D01*
%TO.C,R22*%
X175085714Y-122961904D02*
X174819047Y-122580952D01*
X174628571Y-122961904D02*
X174628571Y-122161904D01*
X174933333Y-122161904D01*
X175009523Y-122200000D01*
X175047619Y-122238095D01*
X175085714Y-122314285D01*
X175085714Y-122428571D01*
X175047619Y-122504761D01*
X175009523Y-122542857D01*
X174933333Y-122580952D01*
X174628571Y-122580952D01*
X175390476Y-122238095D02*
X175428571Y-122200000D01*
X175504761Y-122161904D01*
X175695238Y-122161904D01*
X175771428Y-122200000D01*
X175809523Y-122238095D01*
X175847619Y-122314285D01*
X175847619Y-122390476D01*
X175809523Y-122504761D01*
X175352380Y-122961904D01*
X175847619Y-122961904D01*
X176152380Y-122238095D02*
X176190476Y-122200000D01*
X176266666Y-122161904D01*
X176457142Y-122161904D01*
X176533333Y-122200000D01*
X176571428Y-122238095D01*
X176609523Y-122314285D01*
X176609523Y-122390476D01*
X176571428Y-122504761D01*
X176114285Y-122961904D01*
X176609523Y-122961904D01*
%TO.C,C2*%
X185185714Y-99733333D02*
X185223809Y-99771428D01*
X185261904Y-99885714D01*
X185261904Y-99961904D01*
X185223809Y-100076190D01*
X185147619Y-100152380D01*
X185071428Y-100190476D01*
X184919047Y-100228571D01*
X184804761Y-100228571D01*
X184652380Y-100190476D01*
X184576190Y-100152380D01*
X184500000Y-100076190D01*
X184461904Y-99961904D01*
X184461904Y-99885714D01*
X184500000Y-99771428D01*
X184538095Y-99733333D01*
X184538095Y-99428571D02*
X184500000Y-99390476D01*
X184461904Y-99314285D01*
X184461904Y-99123809D01*
X184500000Y-99047619D01*
X184538095Y-99009523D01*
X184614285Y-98971428D01*
X184690476Y-98971428D01*
X184804761Y-99009523D01*
X185261904Y-99466666D01*
X185261904Y-98971428D01*
%TO.C,D5*%
X180961904Y-119790476D02*
X180161904Y-119790476D01*
X180161904Y-119600000D01*
X180200000Y-119485714D01*
X180276190Y-119409523D01*
X180352380Y-119371428D01*
X180504761Y-119333333D01*
X180619047Y-119333333D01*
X180771428Y-119371428D01*
X180847619Y-119409523D01*
X180923809Y-119485714D01*
X180961904Y-119600000D01*
X180961904Y-119790476D01*
X180161904Y-118609523D02*
X180161904Y-118990476D01*
X180542857Y-119028571D01*
X180504761Y-118990476D01*
X180466666Y-118914285D01*
X180466666Y-118723809D01*
X180504761Y-118647619D01*
X180542857Y-118609523D01*
X180619047Y-118571428D01*
X180809523Y-118571428D01*
X180885714Y-118609523D01*
X180923809Y-118647619D01*
X180961904Y-118723809D01*
X180961904Y-118914285D01*
X180923809Y-118990476D01*
X180885714Y-119028571D01*
D12*
%TO.C,C22*%
X187557142Y-104642857D02*
X187604761Y-104690476D01*
X187652380Y-104833333D01*
X187652380Y-104928571D01*
X187604761Y-105071428D01*
X187509523Y-105166666D01*
X187414285Y-105214285D01*
X187223809Y-105261904D01*
X187080952Y-105261904D01*
X186890476Y-105214285D01*
X186795238Y-105166666D01*
X186700000Y-105071428D01*
X186652380Y-104928571D01*
X186652380Y-104833333D01*
X186700000Y-104690476D01*
X186747619Y-104642857D01*
X186747619Y-104261904D02*
X186700000Y-104214285D01*
X186652380Y-104119047D01*
X186652380Y-103880952D01*
X186700000Y-103785714D01*
X186747619Y-103738095D01*
X186842857Y-103690476D01*
X186938095Y-103690476D01*
X187080952Y-103738095D01*
X187652380Y-104309523D01*
X187652380Y-103690476D01*
X186747619Y-103309523D02*
X186700000Y-103261904D01*
X186652380Y-103166666D01*
X186652380Y-102928571D01*
X186700000Y-102833333D01*
X186747619Y-102785714D01*
X186842857Y-102738095D01*
X186938095Y-102738095D01*
X187080952Y-102785714D01*
X187652380Y-103357142D01*
X187652380Y-102738095D01*
%TO.C,R23*%
X193652380Y-115242857D02*
X193176190Y-115576190D01*
X193652380Y-115814285D02*
X192652380Y-115814285D01*
X192652380Y-115433333D01*
X192700000Y-115338095D01*
X192747619Y-115290476D01*
X192842857Y-115242857D01*
X192985714Y-115242857D01*
X193080952Y-115290476D01*
X193128571Y-115338095D01*
X193176190Y-115433333D01*
X193176190Y-115814285D01*
X192747619Y-114861904D02*
X192700000Y-114814285D01*
X192652380Y-114719047D01*
X192652380Y-114480952D01*
X192700000Y-114385714D01*
X192747619Y-114338095D01*
X192842857Y-114290476D01*
X192938095Y-114290476D01*
X193080952Y-114338095D01*
X193652380Y-114909523D01*
X193652380Y-114290476D01*
X192652380Y-113957142D02*
X192652380Y-113338095D01*
X193033333Y-113671428D01*
X193033333Y-113528571D01*
X193080952Y-113433333D01*
X193128571Y-113385714D01*
X193223809Y-113338095D01*
X193461904Y-113338095D01*
X193557142Y-113385714D01*
X193604761Y-113433333D01*
X193652380Y-113528571D01*
X193652380Y-113814285D01*
X193604761Y-113909523D01*
X193557142Y-113957142D01*
%TO.C,C7*%
X167027142Y-108866666D02*
X167074761Y-108914285D01*
X167122380Y-109057142D01*
X167122380Y-109152380D01*
X167074761Y-109295238D01*
X166979523Y-109390476D01*
X166884285Y-109438095D01*
X166693809Y-109485714D01*
X166550952Y-109485714D01*
X166360476Y-109438095D01*
X166265238Y-109390476D01*
X166170000Y-109295238D01*
X166122380Y-109152380D01*
X166122380Y-109057142D01*
X166170000Y-108914285D01*
X166217619Y-108866666D01*
X166122380Y-108533333D02*
X166122380Y-107866666D01*
X167122380Y-108295238D01*
D13*
%TO.C,R1*%
X165261904Y-121533333D02*
X164880952Y-121800000D01*
X165261904Y-121990476D02*
X164461904Y-121990476D01*
X164461904Y-121685714D01*
X164500000Y-121609523D01*
X164538095Y-121571428D01*
X164614285Y-121533333D01*
X164728571Y-121533333D01*
X164804761Y-121571428D01*
X164842857Y-121609523D01*
X164880952Y-121685714D01*
X164880952Y-121990476D01*
X165261904Y-120771428D02*
X165261904Y-121228571D01*
X165261904Y-121000000D02*
X164461904Y-121000000D01*
X164576190Y-121076190D01*
X164652380Y-121152380D01*
X164690476Y-121228571D01*
D12*
%TO.C,R27*%
X162952380Y-100342857D02*
X162476190Y-100676190D01*
X162952380Y-100914285D02*
X161952380Y-100914285D01*
X161952380Y-100533333D01*
X162000000Y-100438095D01*
X162047619Y-100390476D01*
X162142857Y-100342857D01*
X162285714Y-100342857D01*
X162380952Y-100390476D01*
X162428571Y-100438095D01*
X162476190Y-100533333D01*
X162476190Y-100914285D01*
X162047619Y-99961904D02*
X162000000Y-99914285D01*
X161952380Y-99819047D01*
X161952380Y-99580952D01*
X162000000Y-99485714D01*
X162047619Y-99438095D01*
X162142857Y-99390476D01*
X162238095Y-99390476D01*
X162380952Y-99438095D01*
X162952380Y-100009523D01*
X162952380Y-99390476D01*
X161952380Y-99057142D02*
X161952380Y-98390476D01*
X162952380Y-98819047D01*
D13*
%TO.C,C3*%
X175566666Y-112185714D02*
X175528571Y-112223809D01*
X175414285Y-112261904D01*
X175338095Y-112261904D01*
X175223809Y-112223809D01*
X175147619Y-112147619D01*
X175109523Y-112071428D01*
X175071428Y-111919047D01*
X175071428Y-111804761D01*
X175109523Y-111652380D01*
X175147619Y-111576190D01*
X175223809Y-111500000D01*
X175338095Y-111461904D01*
X175414285Y-111461904D01*
X175528571Y-111500000D01*
X175566666Y-111538095D01*
X175833333Y-111461904D02*
X176328571Y-111461904D01*
X176061904Y-111766666D01*
X176176190Y-111766666D01*
X176252380Y-111804761D01*
X176290476Y-111842857D01*
X176328571Y-111919047D01*
X176328571Y-112109523D01*
X176290476Y-112185714D01*
X176252380Y-112223809D01*
X176176190Y-112261904D01*
X175947619Y-112261904D01*
X175871428Y-112223809D01*
X175833333Y-112185714D01*
D14*
%TO.C,U6*%
X157043380Y-107704523D02*
X157043380Y-108732619D01*
X157103857Y-108853571D01*
X157164333Y-108914047D01*
X157285285Y-108974523D01*
X157527190Y-108974523D01*
X157648142Y-108914047D01*
X157708619Y-108853571D01*
X157769095Y-108732619D01*
X157769095Y-107704523D01*
X158918142Y-107704523D02*
X158676238Y-107704523D01*
X158555285Y-107765000D01*
X158494809Y-107825476D01*
X158373857Y-108006904D01*
X158313380Y-108248809D01*
X158313380Y-108732619D01*
X158373857Y-108853571D01*
X158434333Y-108914047D01*
X158555285Y-108974523D01*
X158797190Y-108974523D01*
X158918142Y-108914047D01*
X158978619Y-108853571D01*
X159039095Y-108732619D01*
X159039095Y-108430238D01*
X158978619Y-108309285D01*
X158918142Y-108248809D01*
X158797190Y-108188333D01*
X158555285Y-108188333D01*
X158434333Y-108248809D01*
X158373857Y-108309285D01*
X158313380Y-108430238D01*
D12*
%TO.C,R13*%
X192752380Y-112142857D02*
X192276190Y-112476190D01*
X192752380Y-112714285D02*
X191752380Y-112714285D01*
X191752380Y-112333333D01*
X191800000Y-112238095D01*
X191847619Y-112190476D01*
X191942857Y-112142857D01*
X192085714Y-112142857D01*
X192180952Y-112190476D01*
X192228571Y-112238095D01*
X192276190Y-112333333D01*
X192276190Y-112714285D01*
X192752380Y-111190476D02*
X192752380Y-111761904D01*
X192752380Y-111476190D02*
X191752380Y-111476190D01*
X191895238Y-111571428D01*
X191990476Y-111666666D01*
X192038095Y-111761904D01*
X191752380Y-110857142D02*
X191752380Y-110238095D01*
X192133333Y-110571428D01*
X192133333Y-110428571D01*
X192180952Y-110333333D01*
X192228571Y-110285714D01*
X192323809Y-110238095D01*
X192561904Y-110238095D01*
X192657142Y-110285714D01*
X192704761Y-110333333D01*
X192752380Y-110428571D01*
X192752380Y-110714285D01*
X192704761Y-110809523D01*
X192657142Y-110857142D01*
D13*
%TO.C,C14*%
X166085714Y-97185714D02*
X166047619Y-97223809D01*
X165933333Y-97261904D01*
X165857142Y-97261904D01*
X165742857Y-97223809D01*
X165666666Y-97147619D01*
X165628571Y-97071428D01*
X165590476Y-96919047D01*
X165590476Y-96804761D01*
X165628571Y-96652380D01*
X165666666Y-96576190D01*
X165742857Y-96500000D01*
X165857142Y-96461904D01*
X165933333Y-96461904D01*
X166047619Y-96500000D01*
X166085714Y-96538095D01*
X166847619Y-97261904D02*
X166390476Y-97261904D01*
X166619047Y-97261904D02*
X166619047Y-96461904D01*
X166542857Y-96576190D01*
X166466666Y-96652380D01*
X166390476Y-96690476D01*
X167533333Y-96728571D02*
X167533333Y-97261904D01*
X167342857Y-96423809D02*
X167152380Y-96995238D01*
X167647619Y-96995238D01*
D12*
%TO.C,J1*%
X188352380Y-125233333D02*
X189066666Y-125233333D01*
X189209523Y-125280952D01*
X189304761Y-125376190D01*
X189352380Y-125519047D01*
X189352380Y-125614285D01*
X189352380Y-124233333D02*
X189352380Y-124804761D01*
X189352380Y-124519047D02*
X188352380Y-124519047D01*
X188495238Y-124614285D01*
X188590476Y-124709523D01*
X188638095Y-124804761D01*
D13*
%TO.C,R19*%
X182361904Y-93814285D02*
X181980952Y-94080952D01*
X182361904Y-94271428D02*
X181561904Y-94271428D01*
X181561904Y-93966666D01*
X181600000Y-93890476D01*
X181638095Y-93852380D01*
X181714285Y-93814285D01*
X181828571Y-93814285D01*
X181904761Y-93852380D01*
X181942857Y-93890476D01*
X181980952Y-93966666D01*
X181980952Y-94271428D01*
X182361904Y-93052380D02*
X182361904Y-93509523D01*
X182361904Y-93280952D02*
X181561904Y-93280952D01*
X181676190Y-93357142D01*
X181752380Y-93433333D01*
X181790476Y-93509523D01*
X182361904Y-92671428D02*
X182361904Y-92519047D01*
X182323809Y-92442857D01*
X182285714Y-92404761D01*
X182171428Y-92328571D01*
X182019047Y-92290476D01*
X181714285Y-92290476D01*
X181638095Y-92328571D01*
X181600000Y-92366666D01*
X181561904Y-92442857D01*
X181561904Y-92595238D01*
X181600000Y-92671428D01*
X181638095Y-92709523D01*
X181714285Y-92747619D01*
X181904761Y-92747619D01*
X181980952Y-92709523D01*
X182019047Y-92671428D01*
X182057142Y-92595238D01*
X182057142Y-92442857D01*
X182019047Y-92366666D01*
X181980952Y-92328571D01*
X181904761Y-92290476D01*
%TO.C,Q1*%
X152638095Y-116411190D02*
X152600000Y-116487380D01*
X152523809Y-116563571D01*
X152409523Y-116677857D01*
X152371428Y-116754047D01*
X152371428Y-116830238D01*
X152561904Y-116792142D02*
X152523809Y-116868333D01*
X152447619Y-116944523D01*
X152295238Y-116982619D01*
X152028571Y-116982619D01*
X151876190Y-116944523D01*
X151800000Y-116868333D01*
X151761904Y-116792142D01*
X151761904Y-116639761D01*
X151800000Y-116563571D01*
X151876190Y-116487380D01*
X152028571Y-116449285D01*
X152295238Y-116449285D01*
X152447619Y-116487380D01*
X152523809Y-116563571D01*
X152561904Y-116639761D01*
X152561904Y-116792142D01*
X152561904Y-115687380D02*
X152561904Y-116144523D01*
X152561904Y-115915952D02*
X151761904Y-115915952D01*
X151876190Y-115992142D01*
X151952380Y-116068333D01*
X151990476Y-116144523D01*
%TO.C,R14*%
X154085714Y-122761904D02*
X153819047Y-122380952D01*
X153628571Y-122761904D02*
X153628571Y-121961904D01*
X153933333Y-121961904D01*
X154009523Y-122000000D01*
X154047619Y-122038095D01*
X154085714Y-122114285D01*
X154085714Y-122228571D01*
X154047619Y-122304761D01*
X154009523Y-122342857D01*
X153933333Y-122380952D01*
X153628571Y-122380952D01*
X154847619Y-122761904D02*
X154390476Y-122761904D01*
X154619047Y-122761904D02*
X154619047Y-121961904D01*
X154542857Y-122076190D01*
X154466666Y-122152380D01*
X154390476Y-122190476D01*
X155533333Y-122228571D02*
X155533333Y-122761904D01*
X155342857Y-121923809D02*
X155152380Y-122495238D01*
X155647619Y-122495238D01*
%TO.C,R18*%
X179685714Y-92361904D02*
X179419047Y-91980952D01*
X179228571Y-92361904D02*
X179228571Y-91561904D01*
X179533333Y-91561904D01*
X179609523Y-91600000D01*
X179647619Y-91638095D01*
X179685714Y-91714285D01*
X179685714Y-91828571D01*
X179647619Y-91904761D01*
X179609523Y-91942857D01*
X179533333Y-91980952D01*
X179228571Y-91980952D01*
X180447619Y-92361904D02*
X179990476Y-92361904D01*
X180219047Y-92361904D02*
X180219047Y-91561904D01*
X180142857Y-91676190D01*
X180066666Y-91752380D01*
X179990476Y-91790476D01*
X180904761Y-91904761D02*
X180828571Y-91866666D01*
X180790476Y-91828571D01*
X180752380Y-91752380D01*
X180752380Y-91714285D01*
X180790476Y-91638095D01*
X180828571Y-91600000D01*
X180904761Y-91561904D01*
X181057142Y-91561904D01*
X181133333Y-91600000D01*
X181171428Y-91638095D01*
X181209523Y-91714285D01*
X181209523Y-91752380D01*
X181171428Y-91828571D01*
X181133333Y-91866666D01*
X181057142Y-91904761D01*
X180904761Y-91904761D01*
X180828571Y-91942857D01*
X180790476Y-91980952D01*
X180752380Y-92057142D01*
X180752380Y-92209523D01*
X180790476Y-92285714D01*
X180828571Y-92323809D01*
X180904761Y-92361904D01*
X181057142Y-92361904D01*
X181133333Y-92323809D01*
X181171428Y-92285714D01*
X181209523Y-92209523D01*
X181209523Y-92057142D01*
X181171428Y-91980952D01*
X181133333Y-91942857D01*
X181057142Y-91904761D01*
%TO.C,IC1*%
X169852380Y-91876190D02*
X168852380Y-91876190D01*
X169757142Y-90828571D02*
X169804761Y-90876190D01*
X169852380Y-91019047D01*
X169852380Y-91114285D01*
X169804761Y-91257142D01*
X169709523Y-91352380D01*
X169614285Y-91400000D01*
X169423809Y-91447619D01*
X169280952Y-91447619D01*
X169090476Y-91400000D01*
X168995238Y-91352380D01*
X168900000Y-91257142D01*
X168852380Y-91114285D01*
X168852380Y-91019047D01*
X168900000Y-90876190D01*
X168947619Y-90828571D01*
X169852380Y-89876190D02*
X169852380Y-90447619D01*
X169852380Y-90161904D02*
X168852380Y-90161904D01*
X168995238Y-90257142D01*
X169090476Y-90352380D01*
X169138095Y-90447619D01*
D10*
%TO.C,U4*%
X172952380Y-99227944D02*
X173761904Y-99227944D01*
X173857142Y-99180325D01*
X173904761Y-99132706D01*
X173952380Y-99037468D01*
X173952380Y-98846992D01*
X173904761Y-98751754D01*
X173857142Y-98704135D01*
X173761904Y-98656516D01*
X172952380Y-98656516D01*
X173285714Y-97751754D02*
X173952380Y-97751754D01*
X172904761Y-97989849D02*
X173619047Y-98227944D01*
X173619047Y-97608897D01*
D13*
%TO.C,L1*%
X175766666Y-113761904D02*
X175385714Y-113761904D01*
X175385714Y-112961904D01*
X176452380Y-113761904D02*
X175995238Y-113761904D01*
X176223809Y-113761904D02*
X176223809Y-112961904D01*
X176147619Y-113076190D01*
X176071428Y-113152380D01*
X175995238Y-113190476D01*
D17*
%TO.C,C9*%
X152890000Y-108153733D02*
X152890000Y-108446267D01*
X153910000Y-108153733D02*
X153910000Y-108446267D01*
%TO.C,R26*%
X155545276Y-87422500D02*
X156054724Y-87422500D01*
X155545276Y-86377500D02*
X156054724Y-86377500D01*
%TO.C,C6*%
X169553733Y-115090000D02*
X169846267Y-115090000D01*
X169553733Y-116110000D02*
X169846267Y-116110000D01*
%TO.C,C11*%
X163310000Y-110846267D02*
X163310000Y-110553733D01*
X162290000Y-110846267D02*
X162290000Y-110553733D01*
%TO.C,R25*%
X159045276Y-90822500D02*
X159554724Y-90822500D01*
X159045276Y-89777500D02*
X159554724Y-89777500D01*
%TO.C,R29*%
X165154724Y-101122500D02*
X164645276Y-101122500D01*
X165154724Y-100077500D02*
X164645276Y-100077500D01*
%TO.C,D4*%
X151165000Y-123060000D02*
X152635000Y-123060000D01*
X152635000Y-123060000D02*
X152635000Y-120600000D01*
X151165000Y-120600000D02*
X151165000Y-123060000D01*
%TO.C,R20*%
X179777500Y-88945276D02*
X179777500Y-89454724D01*
X180822500Y-88945276D02*
X180822500Y-89454724D01*
%TO.C,R9*%
X150777500Y-110345276D02*
X150777500Y-110854724D01*
X151822500Y-110345276D02*
X151822500Y-110854724D01*
D11*
%TO.C,U3*%
X159598000Y-116452000D02*
X156402000Y-116452000D01*
X159598000Y-111548000D02*
X159598000Y-116452000D01*
X156402000Y-111548000D02*
X159598000Y-111548000D01*
X161475000Y-116580000D02*
X159948000Y-116580000D01*
X156402000Y-116452000D02*
X156402000Y-111548000D01*
D17*
%TO.C,D2*%
X181035000Y-87460000D02*
X181035000Y-85000000D01*
X179565000Y-87460000D02*
X181035000Y-87460000D01*
X179565000Y-85000000D02*
X179565000Y-87460000D01*
%TO.C,D1*%
X177835000Y-87460000D02*
X177835000Y-85000000D01*
X176365000Y-87460000D02*
X177835000Y-87460000D01*
X176365000Y-85000000D02*
X176365000Y-87460000D01*
%TO.C,R24*%
X155545276Y-90822500D02*
X156054724Y-90822500D01*
X155545276Y-89777500D02*
X156054724Y-89777500D01*
%TO.C,C5*%
X178153733Y-115890000D02*
X178446267Y-115890000D01*
X178153733Y-116910000D02*
X178446267Y-116910000D01*
%TO.C,R5*%
X162277500Y-107145276D02*
X162277500Y-107654724D01*
X163322500Y-107145276D02*
X163322500Y-107654724D01*
%TO.C,R28*%
X168554724Y-101122500D02*
X168045276Y-101122500D01*
X168554724Y-100077500D02*
X168045276Y-100077500D01*
D18*
%TO.C,U2*%
X168775000Y-110675000D02*
G75*
G03*
X168775000Y-110675000I-125000J0D01*
G01*
D17*
%TO.C,R21*%
X180054724Y-95722500D02*
X179545276Y-95722500D01*
X180054724Y-94677500D02*
X179545276Y-94677500D01*
%TO.C,C12*%
X151990000Y-89311252D02*
X151990000Y-87888748D01*
X153810000Y-89311252D02*
X153810000Y-87888748D01*
%TO.C,R6*%
X163777500Y-110445276D02*
X163777500Y-110954724D01*
X164822500Y-110445276D02*
X164822500Y-110954724D01*
%TO.C,C1*%
X190190000Y-99453733D02*
X190190000Y-99746267D01*
X191210000Y-99453733D02*
X191210000Y-99746267D01*
%TO.C,R11*%
X173354724Y-115077500D02*
X172845276Y-115077500D01*
X173354724Y-116122500D02*
X172845276Y-116122500D01*
%TO.C,D3*%
X165035000Y-105740000D02*
X163565000Y-105740000D01*
X165035000Y-108200000D02*
X165035000Y-105740000D01*
X163565000Y-105740000D02*
X163565000Y-108200000D01*
D19*
%TO.C,J3*%
X193300000Y-105750000D02*
X193900000Y-105750000D01*
X191400000Y-105750000D02*
X191400000Y-105250000D01*
X191400000Y-101450000D02*
X191400000Y-101950000D01*
X193900000Y-101450000D02*
X193300000Y-101450000D01*
X191900000Y-101450000D02*
X191400000Y-101450000D01*
X191900000Y-105750000D02*
X191400000Y-105750000D01*
X193900000Y-105750000D02*
X193900000Y-101450000D01*
D17*
%TO.C,C8*%
X154010000Y-113553733D02*
X154010000Y-113846267D01*
X152990000Y-113553733D02*
X152990000Y-113846267D01*
%TO.C,R4*%
X174854724Y-119977500D02*
X174345276Y-119977500D01*
X174854724Y-121022500D02*
X174345276Y-121022500D01*
%TO.C,X1*%
X187000000Y-101250000D02*
X189800000Y-101250000D01*
X189800000Y-101250000D02*
X189800000Y-97950000D01*
%TO.C,R17*%
X176577500Y-88945276D02*
X176577500Y-89454724D01*
X177622500Y-88945276D02*
X177622500Y-89454724D01*
%TO.C,C13*%
X159446267Y-87410000D02*
X159153733Y-87410000D01*
X159446267Y-86390000D02*
X159153733Y-86390000D01*
%TO.C,C15*%
X171553733Y-101110000D02*
X171846267Y-101110000D01*
X171553733Y-100090000D02*
X171846267Y-100090000D01*
%TO.C,D8*%
X158465000Y-120600000D02*
X158465000Y-123060000D01*
X158465000Y-123060000D02*
X159935000Y-123060000D01*
X159935000Y-123060000D02*
X159935000Y-120600000D01*
%TO.C,R2*%
X170677500Y-121145276D02*
X170677500Y-121654724D01*
X171722500Y-121145276D02*
X171722500Y-121654724D01*
%TO.C,C4*%
X178153733Y-114390000D02*
X178446267Y-114390000D01*
X178153733Y-115410000D02*
X178446267Y-115410000D01*
%TO.C,R10*%
X183677500Y-103145276D02*
X183677500Y-103654724D01*
X184722500Y-103145276D02*
X184722500Y-103654724D01*
%TO.C,R8*%
X149677500Y-118645276D02*
X149677500Y-119154724D01*
X150722500Y-118645276D02*
X150722500Y-119154724D01*
%TO.C,C10*%
X181790000Y-98546267D02*
X181790000Y-98253733D01*
X182810000Y-98546267D02*
X182810000Y-98253733D01*
%TO.C,R30*%
X162127064Y-121635000D02*
X161672936Y-121635000D01*
X162127064Y-120165000D02*
X161672936Y-120165000D01*
D19*
%TO.C,J2*%
X149300000Y-105750000D02*
X149900000Y-105750000D01*
X149300000Y-101450000D02*
X149300000Y-105750000D01*
X151800000Y-101450000D02*
X151800000Y-101950000D01*
X149900000Y-101450000D02*
X149300000Y-101450000D01*
X151800000Y-105750000D02*
X151800000Y-105250000D01*
X151300000Y-101450000D02*
X151800000Y-101450000D01*
X151300000Y-105750000D02*
X151800000Y-105750000D01*
D20*
%TO.C,U1*%
X189100000Y-107250000D02*
X189350000Y-107250000D01*
X182050000Y-114550000D02*
X182050000Y-114300000D01*
X189350000Y-107250000D02*
X189350000Y-107500000D01*
X189350000Y-114300000D02*
X189350000Y-114550000D01*
X182050000Y-107500000D02*
X182050000Y-107250000D01*
X182300000Y-114550000D02*
X182050000Y-114550000D01*
X189350000Y-114550000D02*
X189100000Y-114550000D01*
X182050000Y-107250000D02*
X182300000Y-107250000D01*
D11*
X188600000Y-105200000D02*
G75*
G03*
X188600000Y-105200000I-100000J0D01*
G01*
D17*
%TO.C,D6*%
X193035000Y-122200000D02*
X193035000Y-119740000D01*
X193035000Y-119740000D02*
X191565000Y-119740000D01*
X191565000Y-119740000D02*
X191565000Y-122200000D01*
%TO.C,D7*%
X170400000Y-84350000D02*
X163100000Y-84350000D01*
X170400000Y-88650000D02*
X163100000Y-88650000D01*
X170400000Y-88650000D02*
X170400000Y-84350000D01*
%TO.C,R7*%
X178554724Y-110922500D02*
X178045276Y-110922500D01*
X178554724Y-109877500D02*
X178045276Y-109877500D01*
%TO.C,R16*%
X178177500Y-88945276D02*
X178177500Y-89454724D01*
X179222500Y-88945276D02*
X179222500Y-89454724D01*
%TO.C,R3*%
X168445276Y-121022500D02*
X168954724Y-121022500D01*
X168445276Y-119977500D02*
X168954724Y-119977500D01*
%TO.C,R22*%
X176977500Y-121045276D02*
X176977500Y-121554724D01*
X178022500Y-121045276D02*
X178022500Y-121554724D01*
%TO.C,C2*%
X185590000Y-99746267D02*
X185590000Y-99453733D01*
X186610000Y-99746267D02*
X186610000Y-99453733D01*
%TO.C,D5*%
X178365000Y-120500000D02*
X178365000Y-122960000D01*
X179835000Y-122960000D02*
X179835000Y-120500000D01*
X178365000Y-122960000D02*
X179835000Y-122960000D01*
%TO.C,C22*%
X185290000Y-103546267D02*
X185290000Y-103253733D01*
X186310000Y-103546267D02*
X186310000Y-103253733D01*
%TO.C,R23*%
X192777500Y-117645276D02*
X192777500Y-118154724D01*
X193822500Y-117645276D02*
X193822500Y-118154724D01*
%TO.C,C7*%
X167590000Y-108846267D02*
X167590000Y-108553733D01*
X168610000Y-108846267D02*
X168610000Y-108553733D01*
%TO.C,R1*%
X166722500Y-121654724D02*
X166722500Y-121145276D01*
X165677500Y-121654724D02*
X165677500Y-121145276D01*
%TO.C,R27*%
X164522500Y-97845276D02*
X164522500Y-98354724D01*
X163477500Y-97845276D02*
X163477500Y-98354724D01*
%TO.C,C3*%
X178446267Y-112410000D02*
X178153733Y-112410000D01*
X178446267Y-111390000D02*
X178153733Y-111390000D01*
D11*
%TO.C,U6*%
X156413000Y-105948000D02*
X159609000Y-105948000D01*
X159609000Y-110852000D02*
X156413000Y-110852000D01*
X156413000Y-110852000D02*
X156413000Y-105948000D01*
X161486000Y-110980000D02*
X159959000Y-110980000D01*
X159609000Y-105948000D02*
X159609000Y-110852000D01*
D17*
%TO.C,R13*%
X191877500Y-108754724D02*
X191877500Y-108245276D01*
X192922500Y-108754724D02*
X192922500Y-108245276D01*
%TO.C,C14*%
X166353733Y-98710000D02*
X166646267Y-98710000D01*
X166353733Y-97690000D02*
X166646267Y-97690000D01*
%TO.C,J1*%
X190730000Y-119970000D02*
X190730000Y-121300000D01*
X188130000Y-119970000D02*
X180450000Y-119970000D01*
X188130000Y-119970000D02*
X188130000Y-122630000D01*
X189400000Y-119970000D02*
X190730000Y-119970000D01*
X180450000Y-119970000D02*
X180450000Y-122630000D01*
X188130000Y-122630000D02*
X180450000Y-122630000D01*
%TO.C,R19*%
X180054724Y-94122500D02*
X179545276Y-94122500D01*
X180054724Y-93077500D02*
X179545276Y-93077500D01*
%TO.C,R14*%
X154827064Y-120065000D02*
X154372936Y-120065000D01*
X154827064Y-121535000D02*
X154372936Y-121535000D01*
%TO.C,R18*%
X177754724Y-92522500D02*
X177245276Y-92522500D01*
X177754724Y-91477500D02*
X177245276Y-91477500D01*
D11*
%TO.C,IC1*%
X168605000Y-89125000D02*
X168605000Y-90650000D01*
D19*
%TO.C,U4*%
X179750000Y-96275000D02*
X175850000Y-96275000D01*
X179750000Y-101325000D02*
X175850000Y-101325000D01*
D11*
X181940000Y-101105000D02*
G75*
G03*
X181940000Y-101105000I-100000J0D01*
G01*
%TD*%
M02*
