%TF.GenerationSoftware,KiCad,Pcbnew,(5.99.0-12980-gcf6acae791)*%
%TF.CreationDate,2022-01-10T14:37:02+01:00*%
%TF.ProjectId,GRIPPER_TWO_ADVANCED_CONTROL_BOARD,47524950-5045-4525-9f54-574f5f414456,rev?*%
%TF.SameCoordinates,Original*%
%TF.FileFunction,Legend,Bot*%
%TF.FilePolarity,Positive*%
%FSLAX46Y46*%
G04 Gerber Fmt 4.6, Leading zero omitted, Abs format (unit mm)*
G04 Created by KiCad (PCBNEW (5.99.0-12980-gcf6acae791)) date 2022-01-10 14:37:02*
%MOMM*%
%LPD*%
G01*
G04 APERTURE LIST*
%ADD10C,0.142240*%
%ADD11C,0.150000*%
%ADD12C,0.120000*%
G04 APERTURE END LIST*
D10*
X166504029Y-124145253D02*
X167282962Y-124145253D01*
X166348242Y-123677893D02*
X166893496Y-125313653D01*
X167438749Y-123677893D01*
X169775549Y-124534720D02*
X170009229Y-124456826D01*
X170087122Y-124378933D01*
X170165016Y-124223146D01*
X170165016Y-123989466D01*
X170087122Y-123833680D01*
X170009229Y-123755786D01*
X169853442Y-123677893D01*
X169230296Y-123677893D01*
X169230296Y-125313653D01*
X169775549Y-125313653D01*
X169931336Y-125235760D01*
X170009229Y-125157866D01*
X170087122Y-125002080D01*
X170087122Y-124846293D01*
X170009229Y-124690506D01*
X169931336Y-124612613D01*
X169775549Y-124534720D01*
X169230296Y-124534720D01*
X173460856Y-123577893D02*
X172681922Y-123577893D01*
X172681922Y-125213653D01*
X175252402Y-123577893D02*
X175252402Y-125213653D01*
X175252402Y-124434720D02*
X176187122Y-124434720D01*
X176187122Y-123577893D02*
X176187122Y-125213653D01*
D11*
%TO.C,Q3*%
X152120952Y-112195476D02*
X152241904Y-112135000D01*
X152362857Y-112014047D01*
X152544285Y-111832619D01*
X152665238Y-111772142D01*
X152786190Y-111772142D01*
X152725714Y-112074523D02*
X152846666Y-112014047D01*
X152967619Y-111893095D01*
X153028095Y-111651190D01*
X153028095Y-111227857D01*
X152967619Y-110985952D01*
X152846666Y-110865000D01*
X152725714Y-110804523D01*
X152483809Y-110804523D01*
X152362857Y-110865000D01*
X152241904Y-110985952D01*
X152181428Y-111227857D01*
X152181428Y-111651190D01*
X152241904Y-111893095D01*
X152362857Y-112014047D01*
X152483809Y-112074523D01*
X152725714Y-112074523D01*
X151758095Y-110804523D02*
X150971904Y-110804523D01*
X151395238Y-111288333D01*
X151213809Y-111288333D01*
X151092857Y-111348809D01*
X151032380Y-111409285D01*
X150971904Y-111530238D01*
X150971904Y-111832619D01*
X151032380Y-111953571D01*
X151092857Y-112014047D01*
X151213809Y-112074523D01*
X151576666Y-112074523D01*
X151697619Y-112014047D01*
X151758095Y-111953571D01*
X147686904Y-114814047D02*
X147505476Y-114874523D01*
X147203095Y-114874523D01*
X147082142Y-114814047D01*
X147021666Y-114753571D01*
X146961190Y-114632619D01*
X146961190Y-114511666D01*
X147021666Y-114390714D01*
X147082142Y-114330238D01*
X147203095Y-114269761D01*
X147445000Y-114209285D01*
X147565952Y-114148809D01*
X147626428Y-114088333D01*
X147686904Y-113967380D01*
X147686904Y-113846428D01*
X147626428Y-113725476D01*
X147565952Y-113665000D01*
X147445000Y-113604523D01*
X147142619Y-113604523D01*
X146961190Y-113665000D01*
X145570238Y-114995476D02*
X145691190Y-114935000D01*
X145812142Y-114814047D01*
X145993571Y-114632619D01*
X146114523Y-114572142D01*
X146235476Y-114572142D01*
X146175000Y-114874523D02*
X146295952Y-114814047D01*
X146416904Y-114693095D01*
X146477380Y-114451190D01*
X146477380Y-114027857D01*
X146416904Y-113785952D01*
X146295952Y-113665000D01*
X146175000Y-113604523D01*
X145933095Y-113604523D01*
X145812142Y-113665000D01*
X145691190Y-113785952D01*
X145630714Y-114027857D01*
X145630714Y-114451190D01*
X145691190Y-114693095D01*
X145812142Y-114814047D01*
X145933095Y-114874523D01*
X146175000Y-114874523D01*
X145207380Y-113604523D02*
X144360714Y-113604523D01*
X144905000Y-114874523D01*
X143332619Y-114027857D02*
X143332619Y-114874523D01*
X143635000Y-113544047D02*
X143937380Y-114451190D01*
X143151190Y-114451190D01*
X142002142Y-114874523D02*
X142727857Y-114874523D01*
X142365000Y-114874523D02*
X142365000Y-113604523D01*
X142485952Y-113785952D01*
X142606904Y-113906904D01*
X142727857Y-113967380D01*
X140853095Y-113604523D02*
X141457857Y-113604523D01*
X141518333Y-114209285D01*
X141457857Y-114148809D01*
X141336904Y-114088333D01*
X141034523Y-114088333D01*
X140913571Y-114148809D01*
X140853095Y-114209285D01*
X140792619Y-114330238D01*
X140792619Y-114632619D01*
X140853095Y-114753571D01*
X140913571Y-114814047D01*
X141034523Y-114874523D01*
X141336904Y-114874523D01*
X141457857Y-114814047D01*
X141518333Y-114753571D01*
X140248333Y-114209285D02*
X139825000Y-114209285D01*
X139643571Y-114874523D02*
X140248333Y-114874523D01*
X140248333Y-113604523D01*
X139643571Y-113604523D01*
X139099285Y-114874523D02*
X139099285Y-113604523D01*
X138373571Y-114874523D01*
X138373571Y-113604523D01*
%TO.C,R12*%
X163552380Y-107757142D02*
X163076190Y-107423809D01*
X163552380Y-107185714D02*
X162552380Y-107185714D01*
X162552380Y-107566666D01*
X162600000Y-107661904D01*
X162647619Y-107709523D01*
X162742857Y-107757142D01*
X162885714Y-107757142D01*
X162980952Y-107709523D01*
X163028571Y-107661904D01*
X163076190Y-107566666D01*
X163076190Y-107185714D01*
X163552380Y-108709523D02*
X163552380Y-108138095D01*
X163552380Y-108423809D02*
X162552380Y-108423809D01*
X162695238Y-108328571D01*
X162790476Y-108233333D01*
X162838095Y-108138095D01*
X162647619Y-109090476D02*
X162600000Y-109138095D01*
X162552380Y-109233333D01*
X162552380Y-109471428D01*
X162600000Y-109566666D01*
X162647619Y-109614285D01*
X162742857Y-109661904D01*
X162838095Y-109661904D01*
X162980952Y-109614285D01*
X163552380Y-109042857D01*
X163552380Y-109661904D01*
%TO.C,R15*%
X163652380Y-113657142D02*
X163176190Y-113323809D01*
X163652380Y-113085714D02*
X162652380Y-113085714D01*
X162652380Y-113466666D01*
X162700000Y-113561904D01*
X162747619Y-113609523D01*
X162842857Y-113657142D01*
X162985714Y-113657142D01*
X163080952Y-113609523D01*
X163128571Y-113561904D01*
X163176190Y-113466666D01*
X163176190Y-113085714D01*
X163652380Y-114609523D02*
X163652380Y-114038095D01*
X163652380Y-114323809D02*
X162652380Y-114323809D01*
X162795238Y-114228571D01*
X162890476Y-114133333D01*
X162938095Y-114038095D01*
X162652380Y-115514285D02*
X162652380Y-115038095D01*
X163128571Y-114990476D01*
X163080952Y-115038095D01*
X163033333Y-115133333D01*
X163033333Y-115371428D01*
X163080952Y-115466666D01*
X163128571Y-115514285D01*
X163223809Y-115561904D01*
X163461904Y-115561904D01*
X163557142Y-115514285D01*
X163604761Y-115466666D01*
X163652380Y-115371428D01*
X163652380Y-115133333D01*
X163604761Y-115038095D01*
X163557142Y-114990476D01*
D12*
%TO.C,R12*%
X160577064Y-110110000D02*
X156222936Y-110110000D01*
X160577064Y-106690000D02*
X156222936Y-106690000D01*
%TO.C,R15*%
X160577064Y-116010000D02*
X156222936Y-116010000D01*
X160577064Y-112590000D02*
X156222936Y-112590000D01*
%TD*%
M02*
