M48
; DRILL file {KiCad (6.0.1)} date Sun Jan 30 21:26:36 2022
; FORMAT={-:-/ absolute / inch / decimal}
; #@! TF.CreationDate,2022-01-30T21:26:36+01:00
; #@! TF.GenerationSoftware,Kicad,Pcbnew,(6.0.1)
; #@! TF.FileFunction,Plated,1,2,PTH
FMAT,2
INCH
; #@! TA.AperFunction,Plated,PTH,ViaDrill
T1C0.0236
; #@! TA.AperFunction,Plated,PTH,ComponentDrill
T2C0.0394
; #@! TA.AperFunction,Plated,PTH,ComponentDrill
T3C0.0728
; #@! TA.AperFunction,Plated,PTH,ComponentDrill
T4C0.1260
%
G90
G05
T1
X4.8031Y-4.5866
X4.8031Y-4.6417
X4.8071Y-5.8386
X4.8071Y-5.8937
X4.811Y-7.1654
X4.811Y-7.2205
X4.8189Y-6.3346
X4.8465Y-4.6142
X4.8504Y-5.8661
X4.8543Y-7.1929
X4.8898Y-4.5866
X4.8898Y-4.6417
X4.8937Y-5.8386
X4.8937Y-5.8937
X4.8976Y-7.1654
X4.8976Y-7.2205
X5.0472Y-6.9409
X5.0551Y-5.7008
X5.0906Y-6.9409
X5.3701Y-5.8701
X5.6181Y-5.8031
X5.6181Y-5.8583
X5.6614Y-5.8307
X5.7047Y-5.8031
X5.7047Y-5.8583
X5.8543Y-6.3228
X5.8858Y-6.0433
X5.9134Y-6.2304
X5.9488Y-5.5591
X5.9528Y-5.9094
X5.9528Y-5.9646
X5.9961Y-5.937
X6.0276Y-6.2402
X6.0394Y-5.9094
X6.0394Y-5.9646
X6.0748Y-5.7854
X6.2756Y-5.5197
X6.2756Y-5.5748
X6.3189Y-5.5472
X6.3622Y-5.5197
X6.3622Y-5.5748
X6.6457Y-5.3189
X7.0354Y-5.3898
X7.0827Y-5.6575
X7.2441Y-5.5984
X7.6496Y-5.6417
X7.6496Y-5.6969
X7.6929Y-5.6693
X7.7362Y-5.6417
X7.7362Y-5.6969
X8.252Y-5.9606
X8.252Y-6.0472
X8.2795Y-6.0039
X8.3071Y-5.9606
X8.3071Y-6.0472
X8.3465Y-7.1614
X8.3465Y-7.2165
X8.3898Y-7.189
X8.4331Y-7.1614
X8.4331Y-7.2165
X8.874Y-4.5866
X8.874Y-4.6417
X8.9173Y-4.6142
X8.9606Y-4.5866
X8.9606Y-4.6417
T2
X4.9831Y-5.2061
X4.9831Y-5.3152
X4.9831Y-5.4242
X4.9831Y-5.5333
X5.0949Y-5.1516
X5.0949Y-5.2606
X5.0949Y-5.3697
X5.0949Y-5.4787
X5.0949Y-5.5878
X6.3969Y-4.9551
X6.3969Y-5.0551
X6.4969Y-4.9551
X6.4969Y-5.0551
X6.5969Y-4.9551
X6.5969Y-5.0551
X6.6969Y-4.9551
X6.6969Y-5.0551
X6.7969Y-4.9551
X6.7969Y-5.0551
X6.8969Y-4.9551
X6.8969Y-5.0551
X6.9969Y-4.9551
X6.9969Y-5.0551
X7.0969Y-4.9551
X7.0969Y-5.0551
X7.2965Y-4.9551
X7.2965Y-5.0551
X7.3965Y-4.9551
X7.3965Y-5.0551
X7.4965Y-4.9551
X7.4965Y-5.0551
X7.5965Y-4.9551
X7.5965Y-5.0551
X7.6965Y-4.9551
X7.6965Y-5.0551
X7.7965Y-4.9551
X7.7965Y-5.0551
X7.8965Y-4.9551
X7.8965Y-5.0551
X7.9965Y-4.9551
X7.9965Y-5.0551
X8.0965Y-4.9551
X8.0965Y-5.0551
X8.1811Y-5.2008
X8.1811Y-5.4016
X8.1811Y-5.6024
X8.1811Y-5.8031
X8.1811Y-6.0039
X8.1811Y-6.2047
X8.1811Y-6.4055
X8.1811Y-6.6063
X8.1965Y-4.9551
X8.1965Y-5.0551
X8.2965Y-4.9551
X8.2965Y-5.0551
X8.378Y-5.2008
X8.378Y-5.4016
X8.378Y-5.6024
X8.378Y-5.8031
X8.378Y-6.0039
X8.378Y-6.2047
X8.378Y-6.4055
X8.378Y-6.6063
X8.3965Y-4.9551
X8.3965Y-5.0551
X8.4965Y-4.9551
X8.4965Y-5.0551
X8.5965Y-4.9551
X8.5965Y-5.0551
X8.6965Y-4.9551
X8.6965Y-5.0551
T3
X5.2164Y-6.4449
X5.2164Y-6.6102
X5.2164Y-6.7756
X5.2164Y-6.9409
X5.4329Y-6.4449
X5.4329Y-6.6102
X5.4329Y-6.7756
X5.4329Y-6.9409
T4
X5.039Y-4.8776
X5.039Y-5.8618
T0
M30
