G04 #@! TF.GenerationSoftware,KiCad,Pcbnew,(6.0.1)*
G04 #@! TF.CreationDate,2022-01-30T21:26:31+01:00*
G04 #@! TF.ProjectId,ARM_NUCLEO_HAT_1.0,41524d5f-4e55-4434-9c45-4f5f4841545f,rev?*
G04 #@! TF.SameCoordinates,Original*
G04 #@! TF.FileFunction,Legend,Bot*
G04 #@! TF.FilePolarity,Positive*
%FSLAX46Y46*%
G04 Gerber Fmt 4.6, Leading zero omitted, Abs format (unit mm)*
G04 Created by KiCad (PCBNEW (6.0.1)) date 2022-01-30 21:26:31*
%MOMM*%
%LPD*%
G01*
G04 APERTURE LIST*
%ADD10C,0.400000*%
%ADD11C,0.150000*%
%ADD12C,0.254000*%
%ADD13C,0.120000*%
%ADD14C,0.127000*%
%ADD15C,0.200000*%
%ADD16C,0.100000*%
G04 APERTURE END LIST*
D10*
X222000000Y-123000000D02*
X207000000Y-123000000D01*
X181500000Y-123000000D02*
X167000000Y-123000000D01*
X199000000Y-131000000D02*
X184000000Y-131000000D01*
D11*
X219261904Y-161952380D02*
X218690476Y-161952380D01*
X218976190Y-162952380D02*
X218976190Y-161952380D01*
X218357142Y-162952380D02*
X218357142Y-161952380D01*
X217976190Y-161952380D01*
X217880952Y-162000000D01*
X217833333Y-162047619D01*
X217785714Y-162142857D01*
X217785714Y-162285714D01*
X217833333Y-162380952D01*
X217880952Y-162428571D01*
X217976190Y-162476190D01*
X218357142Y-162476190D01*
X217404761Y-162047619D02*
X217357142Y-162000000D01*
X217261904Y-161952380D01*
X217023809Y-161952380D01*
X216928571Y-162000000D01*
X216880952Y-162047619D01*
X216833333Y-162142857D01*
X216833333Y-162238095D01*
X216880952Y-162380952D01*
X217452380Y-162952380D01*
X216833333Y-162952380D01*
X203561904Y-132052380D02*
X203561904Y-132861904D01*
X203514285Y-132957142D01*
X203466666Y-133004761D01*
X203371428Y-133052380D01*
X203180952Y-133052380D01*
X203085714Y-133004761D01*
X203038095Y-132957142D01*
X202990476Y-132861904D01*
X202990476Y-132052380D01*
X202561904Y-132147619D02*
X202514285Y-132100000D01*
X202419047Y-132052380D01*
X202180952Y-132052380D01*
X202085714Y-132100000D01*
X202038095Y-132147619D01*
X201990476Y-132242857D01*
X201990476Y-132338095D01*
X202038095Y-132480952D01*
X202609523Y-133052380D01*
X201990476Y-133052380D01*
X204542857Y-143652380D02*
X204876190Y-143176190D01*
X205114285Y-143652380D02*
X205114285Y-142652380D01*
X204733333Y-142652380D01*
X204638095Y-142700000D01*
X204590476Y-142747619D01*
X204542857Y-142842857D01*
X204542857Y-142985714D01*
X204590476Y-143080952D01*
X204638095Y-143128571D01*
X204733333Y-143176190D01*
X205114285Y-143176190D01*
X203590476Y-143652380D02*
X204161904Y-143652380D01*
X203876190Y-143652380D02*
X203876190Y-142652380D01*
X203971428Y-142795238D01*
X204066666Y-142890476D01*
X204161904Y-142938095D01*
X202638095Y-143652380D02*
X203209523Y-143652380D01*
X202923809Y-143652380D02*
X202923809Y-142652380D01*
X203019047Y-142795238D01*
X203114285Y-142890476D01*
X203209523Y-142938095D01*
X156691904Y-129015380D02*
X156691904Y-129824904D01*
X156644285Y-129920142D01*
X156596666Y-129967761D01*
X156501428Y-130015380D01*
X156310952Y-130015380D01*
X156215714Y-129967761D01*
X156168095Y-129920142D01*
X156120476Y-129824904D01*
X156120476Y-129015380D01*
X155120476Y-130015380D02*
X155691904Y-130015380D01*
X155406190Y-130015380D02*
X155406190Y-129015380D01*
X155501428Y-129158238D01*
X155596666Y-129253476D01*
X155691904Y-129301095D01*
X219261904Y-167052380D02*
X218690476Y-167052380D01*
X218976190Y-168052380D02*
X218976190Y-167052380D01*
X218357142Y-168052380D02*
X218357142Y-167052380D01*
X217976190Y-167052380D01*
X217880952Y-167100000D01*
X217833333Y-167147619D01*
X217785714Y-167242857D01*
X217785714Y-167385714D01*
X217833333Y-167480952D01*
X217880952Y-167528571D01*
X217976190Y-167576190D01*
X218357142Y-167576190D01*
X216833333Y-168052380D02*
X217404761Y-168052380D01*
X217119047Y-168052380D02*
X217119047Y-167052380D01*
X217214285Y-167195238D01*
X217309523Y-167290476D01*
X217404761Y-167338095D01*
X191852380Y-137133333D02*
X191376190Y-136800000D01*
X191852380Y-136561904D02*
X190852380Y-136561904D01*
X190852380Y-136942857D01*
X190900000Y-137038095D01*
X190947619Y-137085714D01*
X191042857Y-137133333D01*
X191185714Y-137133333D01*
X191280952Y-137085714D01*
X191328571Y-137038095D01*
X191376190Y-136942857D01*
X191376190Y-136561904D01*
X191852380Y-137609523D02*
X191852380Y-137800000D01*
X191804761Y-137895238D01*
X191757142Y-137942857D01*
X191614285Y-138038095D01*
X191423809Y-138085714D01*
X191042857Y-138085714D01*
X190947619Y-138038095D01*
X190900000Y-137990476D01*
X190852380Y-137895238D01*
X190852380Y-137704761D01*
X190900000Y-137609523D01*
X190947619Y-137561904D01*
X191042857Y-137514285D01*
X191280952Y-137514285D01*
X191376190Y-137561904D01*
X191423809Y-137609523D01*
X191471428Y-137704761D01*
X191471428Y-137895238D01*
X191423809Y-137990476D01*
X191376190Y-138038095D01*
X191280952Y-138085714D01*
X157066666Y-144857142D02*
X157114285Y-144904761D01*
X157257142Y-144952380D01*
X157352380Y-144952380D01*
X157495238Y-144904761D01*
X157590476Y-144809523D01*
X157638095Y-144714285D01*
X157685714Y-144523809D01*
X157685714Y-144380952D01*
X157638095Y-144190476D01*
X157590476Y-144095238D01*
X157495238Y-144000000D01*
X157352380Y-143952380D01*
X157257142Y-143952380D01*
X157114285Y-144000000D01*
X157066666Y-144047619D01*
X156209523Y-143952380D02*
X156400000Y-143952380D01*
X156495238Y-144000000D01*
X156542857Y-144047619D01*
X156638095Y-144190476D01*
X156685714Y-144380952D01*
X156685714Y-144761904D01*
X156638095Y-144857142D01*
X156590476Y-144904761D01*
X156495238Y-144952380D01*
X156304761Y-144952380D01*
X156209523Y-144904761D01*
X156161904Y-144857142D01*
X156114285Y-144761904D01*
X156114285Y-144523809D01*
X156161904Y-144428571D01*
X156209523Y-144380952D01*
X156304761Y-144333333D01*
X156495238Y-144333333D01*
X156590476Y-144380952D01*
X156638095Y-144428571D01*
X156685714Y-144523809D01*
X193357142Y-137233333D02*
X193404761Y-137185714D01*
X193452380Y-137042857D01*
X193452380Y-136947619D01*
X193404761Y-136804761D01*
X193309523Y-136709523D01*
X193214285Y-136661904D01*
X193023809Y-136614285D01*
X192880952Y-136614285D01*
X192690476Y-136661904D01*
X192595238Y-136709523D01*
X192500000Y-136804761D01*
X192452380Y-136947619D01*
X192452380Y-137042857D01*
X192500000Y-137185714D01*
X192547619Y-137233333D01*
X193452380Y-138185714D02*
X193452380Y-137614285D01*
X193452380Y-137900000D02*
X192452380Y-137900000D01*
X192595238Y-137804761D01*
X192690476Y-137709523D01*
X192738095Y-137614285D01*
X219261904Y-156852380D02*
X218690476Y-156852380D01*
X218976190Y-157852380D02*
X218976190Y-156852380D01*
X218357142Y-157852380D02*
X218357142Y-156852380D01*
X217976190Y-156852380D01*
X217880952Y-156900000D01*
X217833333Y-156947619D01*
X217785714Y-157042857D01*
X217785714Y-157185714D01*
X217833333Y-157280952D01*
X217880952Y-157328571D01*
X217976190Y-157376190D01*
X218357142Y-157376190D01*
X217452380Y-156852380D02*
X216833333Y-156852380D01*
X217166666Y-157233333D01*
X217023809Y-157233333D01*
X216928571Y-157280952D01*
X216880952Y-157328571D01*
X216833333Y-157423809D01*
X216833333Y-157661904D01*
X216880952Y-157757142D01*
X216928571Y-157804761D01*
X217023809Y-157852380D01*
X217309523Y-157852380D01*
X217404761Y-157804761D01*
X217452380Y-157757142D01*
X184866666Y-144152380D02*
X185200000Y-143676190D01*
X185438095Y-144152380D02*
X185438095Y-143152380D01*
X185057142Y-143152380D01*
X184961904Y-143200000D01*
X184914285Y-143247619D01*
X184866666Y-143342857D01*
X184866666Y-143485714D01*
X184914285Y-143580952D01*
X184961904Y-143628571D01*
X185057142Y-143676190D01*
X185438095Y-143676190D01*
X183961904Y-143152380D02*
X184438095Y-143152380D01*
X184485714Y-143628571D01*
X184438095Y-143580952D01*
X184342857Y-143533333D01*
X184104761Y-143533333D01*
X184009523Y-143580952D01*
X183961904Y-143628571D01*
X183914285Y-143723809D01*
X183914285Y-143961904D01*
X183961904Y-144057142D01*
X184009523Y-144104761D01*
X184104761Y-144152380D01*
X184342857Y-144152380D01*
X184438095Y-144104761D01*
X184485714Y-144057142D01*
X181647619Y-134904761D02*
X181600000Y-134809523D01*
X181504761Y-134714285D01*
X181361904Y-134571428D01*
X181314285Y-134476190D01*
X181314285Y-134380952D01*
X181552380Y-134428571D02*
X181504761Y-134333333D01*
X181409523Y-134238095D01*
X181219047Y-134190476D01*
X180885714Y-134190476D01*
X180695238Y-134238095D01*
X180600000Y-134333333D01*
X180552380Y-134428571D01*
X180552380Y-134619047D01*
X180600000Y-134714285D01*
X180695238Y-134809523D01*
X180885714Y-134857142D01*
X181219047Y-134857142D01*
X181409523Y-134809523D01*
X181504761Y-134714285D01*
X181552380Y-134619047D01*
X181552380Y-134428571D01*
X180647619Y-135238095D02*
X180600000Y-135285714D01*
X180552380Y-135380952D01*
X180552380Y-135619047D01*
X180600000Y-135714285D01*
X180647619Y-135761904D01*
X180742857Y-135809523D01*
X180838095Y-135809523D01*
X180980952Y-135761904D01*
X181552380Y-135190476D01*
X181552380Y-135809523D01*
X150628142Y-158833333D02*
X150675761Y-158785714D01*
X150723380Y-158642857D01*
X150723380Y-158547619D01*
X150675761Y-158404761D01*
X150580523Y-158309523D01*
X150485285Y-158261904D01*
X150294809Y-158214285D01*
X150151952Y-158214285D01*
X149961476Y-158261904D01*
X149866238Y-158309523D01*
X149771000Y-158404761D01*
X149723380Y-158547619D01*
X149723380Y-158642857D01*
X149771000Y-158785714D01*
X149818619Y-158833333D01*
X150151952Y-159404761D02*
X150104333Y-159309523D01*
X150056714Y-159261904D01*
X149961476Y-159214285D01*
X149913857Y-159214285D01*
X149818619Y-159261904D01*
X149771000Y-159309523D01*
X149723380Y-159404761D01*
X149723380Y-159595238D01*
X149771000Y-159690476D01*
X149818619Y-159738095D01*
X149913857Y-159785714D01*
X149961476Y-159785714D01*
X150056714Y-159738095D01*
X150104333Y-159690476D01*
X150151952Y-159595238D01*
X150151952Y-159404761D01*
X150199571Y-159309523D01*
X150247190Y-159261904D01*
X150342428Y-159214285D01*
X150532904Y-159214285D01*
X150628142Y-159261904D01*
X150675761Y-159309523D01*
X150723380Y-159404761D01*
X150723380Y-159595238D01*
X150675761Y-159690476D01*
X150628142Y-159738095D01*
X150532904Y-159785714D01*
X150342428Y-159785714D01*
X150247190Y-159738095D01*
X150199571Y-159690476D01*
X150151952Y-159595238D01*
X138766666Y-138457142D02*
X138814285Y-138504761D01*
X138957142Y-138552380D01*
X139052380Y-138552380D01*
X139195238Y-138504761D01*
X139290476Y-138409523D01*
X139338095Y-138314285D01*
X139385714Y-138123809D01*
X139385714Y-137980952D01*
X139338095Y-137790476D01*
X139290476Y-137695238D01*
X139195238Y-137600000D01*
X139052380Y-137552380D01*
X138957142Y-137552380D01*
X138814285Y-137600000D01*
X138766666Y-137647619D01*
X137861904Y-137552380D02*
X138338095Y-137552380D01*
X138385714Y-138028571D01*
X138338095Y-137980952D01*
X138242857Y-137933333D01*
X138004761Y-137933333D01*
X137909523Y-137980952D01*
X137861904Y-138028571D01*
X137814285Y-138123809D01*
X137814285Y-138361904D01*
X137861904Y-138457142D01*
X137909523Y-138504761D01*
X138004761Y-138552380D01*
X138242857Y-138552380D01*
X138338095Y-138504761D01*
X138385714Y-138457142D01*
X184866666Y-142652380D02*
X185200000Y-142176190D01*
X185438095Y-142652380D02*
X185438095Y-141652380D01*
X185057142Y-141652380D01*
X184961904Y-141700000D01*
X184914285Y-141747619D01*
X184866666Y-141842857D01*
X184866666Y-141985714D01*
X184914285Y-142080952D01*
X184961904Y-142128571D01*
X185057142Y-142176190D01*
X185438095Y-142176190D01*
X184009523Y-141652380D02*
X184200000Y-141652380D01*
X184295238Y-141700000D01*
X184342857Y-141747619D01*
X184438095Y-141890476D01*
X184485714Y-142080952D01*
X184485714Y-142461904D01*
X184438095Y-142557142D01*
X184390476Y-142604761D01*
X184295238Y-142652380D01*
X184104761Y-142652380D01*
X184009523Y-142604761D01*
X183961904Y-142557142D01*
X183914285Y-142461904D01*
X183914285Y-142223809D01*
X183961904Y-142128571D01*
X184009523Y-142080952D01*
X184104761Y-142033333D01*
X184295238Y-142033333D01*
X184390476Y-142080952D01*
X184438095Y-142128571D01*
X184485714Y-142223809D01*
X219361904Y-151752380D02*
X218790476Y-151752380D01*
X219076190Y-152752380D02*
X219076190Y-151752380D01*
X218457142Y-152752380D02*
X218457142Y-151752380D01*
X218076190Y-151752380D01*
X217980952Y-151800000D01*
X217933333Y-151847619D01*
X217885714Y-151942857D01*
X217885714Y-152085714D01*
X217933333Y-152180952D01*
X217980952Y-152228571D01*
X218076190Y-152276190D01*
X218457142Y-152276190D01*
X217028571Y-152085714D02*
X217028571Y-152752380D01*
X217266666Y-151704761D02*
X217504761Y-152419047D01*
X216885714Y-152419047D01*
X149057142Y-158833333D02*
X149104761Y-158785714D01*
X149152380Y-158642857D01*
X149152380Y-158547619D01*
X149104761Y-158404761D01*
X149009523Y-158309523D01*
X148914285Y-158261904D01*
X148723809Y-158214285D01*
X148580952Y-158214285D01*
X148390476Y-158261904D01*
X148295238Y-158309523D01*
X148200000Y-158404761D01*
X148152380Y-158547619D01*
X148152380Y-158642857D01*
X148200000Y-158785714D01*
X148247619Y-158833333D01*
X148152380Y-159166666D02*
X148152380Y-159833333D01*
X149152380Y-159404761D01*
X157442857Y-149782380D02*
X157776190Y-149306190D01*
X158014285Y-149782380D02*
X158014285Y-148782380D01*
X157633333Y-148782380D01*
X157538095Y-148830000D01*
X157490476Y-148877619D01*
X157442857Y-148972857D01*
X157442857Y-149115714D01*
X157490476Y-149210952D01*
X157538095Y-149258571D01*
X157633333Y-149306190D01*
X158014285Y-149306190D01*
X157061904Y-148877619D02*
X157014285Y-148830000D01*
X156919047Y-148782380D01*
X156680952Y-148782380D01*
X156585714Y-148830000D01*
X156538095Y-148877619D01*
X156490476Y-148972857D01*
X156490476Y-149068095D01*
X156538095Y-149210952D01*
X157109523Y-149782380D01*
X156490476Y-149782380D01*
X155871428Y-148782380D02*
X155776190Y-148782380D01*
X155680952Y-148830000D01*
X155633333Y-148877619D01*
X155585714Y-148972857D01*
X155538095Y-149163333D01*
X155538095Y-149401428D01*
X155585714Y-149591904D01*
X155633333Y-149687142D01*
X155680952Y-149734761D01*
X155776190Y-149782380D01*
X155871428Y-149782380D01*
X155966666Y-149734761D01*
X156014285Y-149687142D01*
X156061904Y-149591904D01*
X156109523Y-149401428D01*
X156109523Y-149163333D01*
X156061904Y-148972857D01*
X156014285Y-148877619D01*
X155966666Y-148830000D01*
X155871428Y-148782380D01*
X185547619Y-134904761D02*
X185500000Y-134809523D01*
X185404761Y-134714285D01*
X185261904Y-134571428D01*
X185214285Y-134476190D01*
X185214285Y-134380952D01*
X185452380Y-134428571D02*
X185404761Y-134333333D01*
X185309523Y-134238095D01*
X185119047Y-134190476D01*
X184785714Y-134190476D01*
X184595238Y-134238095D01*
X184500000Y-134333333D01*
X184452380Y-134428571D01*
X184452380Y-134619047D01*
X184500000Y-134714285D01*
X184595238Y-134809523D01*
X184785714Y-134857142D01*
X185119047Y-134857142D01*
X185309523Y-134809523D01*
X185404761Y-134714285D01*
X185452380Y-134619047D01*
X185452380Y-134428571D01*
X185452380Y-135809523D02*
X185452380Y-135238095D01*
X185452380Y-135523809D02*
X184452380Y-135523809D01*
X184595238Y-135428571D01*
X184690476Y-135333333D01*
X184738095Y-135238095D01*
X157923380Y-152257142D02*
X157447190Y-151923809D01*
X157923380Y-151685714D02*
X156923380Y-151685714D01*
X156923380Y-152066666D01*
X156971000Y-152161904D01*
X157018619Y-152209523D01*
X157113857Y-152257142D01*
X157256714Y-152257142D01*
X157351952Y-152209523D01*
X157399571Y-152161904D01*
X157447190Y-152066666D01*
X157447190Y-151685714D01*
X157018619Y-152638095D02*
X156971000Y-152685714D01*
X156923380Y-152780952D01*
X156923380Y-153019047D01*
X156971000Y-153114285D01*
X157018619Y-153161904D01*
X157113857Y-153209523D01*
X157209095Y-153209523D01*
X157351952Y-153161904D01*
X157923380Y-152590476D01*
X157923380Y-153209523D01*
X157923380Y-154161904D02*
X157923380Y-153590476D01*
X157923380Y-153876190D02*
X156923380Y-153876190D01*
X157066238Y-153780952D01*
X157161476Y-153685714D01*
X157209095Y-153590476D01*
X131662380Y-136056666D02*
X132376666Y-136056666D01*
X132519523Y-136009047D01*
X132614761Y-135913809D01*
X132662380Y-135770952D01*
X132662380Y-135675714D01*
X132662380Y-137056666D02*
X132662380Y-136485238D01*
X132662380Y-136770952D02*
X131662380Y-136770952D01*
X131805238Y-136675714D01*
X131900476Y-136580476D01*
X131948095Y-136485238D01*
X184866666Y-141152380D02*
X185200000Y-140676190D01*
X185438095Y-141152380D02*
X185438095Y-140152380D01*
X185057142Y-140152380D01*
X184961904Y-140200000D01*
X184914285Y-140247619D01*
X184866666Y-140342857D01*
X184866666Y-140485714D01*
X184914285Y-140580952D01*
X184961904Y-140628571D01*
X185057142Y-140676190D01*
X185438095Y-140676190D01*
X184533333Y-140152380D02*
X183866666Y-140152380D01*
X184295238Y-141152380D01*
X146642857Y-142552380D02*
X146976190Y-142076190D01*
X147214285Y-142552380D02*
X147214285Y-141552380D01*
X146833333Y-141552380D01*
X146738095Y-141600000D01*
X146690476Y-141647619D01*
X146642857Y-141742857D01*
X146642857Y-141885714D01*
X146690476Y-141980952D01*
X146738095Y-142028571D01*
X146833333Y-142076190D01*
X147214285Y-142076190D01*
X145690476Y-142552380D02*
X146261904Y-142552380D01*
X145976190Y-142552380D02*
X145976190Y-141552380D01*
X146071428Y-141695238D01*
X146166666Y-141790476D01*
X146261904Y-141838095D01*
X145214285Y-142552380D02*
X145023809Y-142552380D01*
X144928571Y-142504761D01*
X144880952Y-142457142D01*
X144785714Y-142314285D01*
X144738095Y-142123809D01*
X144738095Y-141742857D01*
X144785714Y-141647619D01*
X144833333Y-141600000D01*
X144928571Y-141552380D01*
X145119047Y-141552380D01*
X145214285Y-141600000D01*
X145261904Y-141647619D01*
X145309523Y-141742857D01*
X145309523Y-141980952D01*
X145261904Y-142076190D01*
X145214285Y-142123809D01*
X145119047Y-142171428D01*
X144928571Y-142171428D01*
X144833333Y-142123809D01*
X144785714Y-142076190D01*
X144738095Y-141980952D01*
X148222380Y-130757142D02*
X147746190Y-130423809D01*
X148222380Y-130185714D02*
X147222380Y-130185714D01*
X147222380Y-130566666D01*
X147270000Y-130661904D01*
X147317619Y-130709523D01*
X147412857Y-130757142D01*
X147555714Y-130757142D01*
X147650952Y-130709523D01*
X147698571Y-130661904D01*
X147746190Y-130566666D01*
X147746190Y-130185714D01*
X148222380Y-131709523D02*
X148222380Y-131138095D01*
X148222380Y-131423809D02*
X147222380Y-131423809D01*
X147365238Y-131328571D01*
X147460476Y-131233333D01*
X147508095Y-131138095D01*
X147317619Y-132090476D02*
X147270000Y-132138095D01*
X147222380Y-132233333D01*
X147222380Y-132471428D01*
X147270000Y-132566666D01*
X147317619Y-132614285D01*
X147412857Y-132661904D01*
X147508095Y-132661904D01*
X147650952Y-132614285D01*
X148222380Y-132042857D01*
X148222380Y-132661904D01*
D12*
X153039761Y-146174523D02*
X153039761Y-144904523D01*
X151709285Y-146053571D02*
X151769761Y-146114047D01*
X151951190Y-146174523D01*
X152072142Y-146174523D01*
X152253571Y-146114047D01*
X152374523Y-145993095D01*
X152435000Y-145872142D01*
X152495476Y-145630238D01*
X152495476Y-145448809D01*
X152435000Y-145206904D01*
X152374523Y-145085952D01*
X152253571Y-144965000D01*
X152072142Y-144904523D01*
X151951190Y-144904523D01*
X151769761Y-144965000D01*
X151709285Y-145025476D01*
X151225476Y-145025476D02*
X151165000Y-144965000D01*
X151044047Y-144904523D01*
X150741666Y-144904523D01*
X150620714Y-144965000D01*
X150560238Y-145025476D01*
X150499761Y-145146428D01*
X150499761Y-145267380D01*
X150560238Y-145448809D01*
X151285952Y-146174523D01*
X150499761Y-146174523D01*
D11*
X219361904Y-141652380D02*
X218790476Y-141652380D01*
X219076190Y-142652380D02*
X219076190Y-141652380D01*
X218457142Y-142652380D02*
X218457142Y-141652380D01*
X218076190Y-141652380D01*
X217980952Y-141700000D01*
X217933333Y-141747619D01*
X217885714Y-141842857D01*
X217885714Y-141985714D01*
X217933333Y-142080952D01*
X217980952Y-142128571D01*
X218076190Y-142176190D01*
X218457142Y-142176190D01*
X217028571Y-141652380D02*
X217219047Y-141652380D01*
X217314285Y-141700000D01*
X217361904Y-141747619D01*
X217457142Y-141890476D01*
X217504761Y-142080952D01*
X217504761Y-142461904D01*
X217457142Y-142557142D01*
X217409523Y-142604761D01*
X217314285Y-142652380D01*
X217123809Y-142652380D01*
X217028571Y-142604761D01*
X216980952Y-142557142D01*
X216933333Y-142461904D01*
X216933333Y-142223809D01*
X216980952Y-142128571D01*
X217028571Y-142080952D01*
X217123809Y-142033333D01*
X217314285Y-142033333D01*
X217409523Y-142080952D01*
X217457142Y-142128571D01*
X217504761Y-142223809D01*
X153552380Y-158757142D02*
X153076190Y-158423809D01*
X153552380Y-158185714D02*
X152552380Y-158185714D01*
X152552380Y-158566666D01*
X152600000Y-158661904D01*
X152647619Y-158709523D01*
X152742857Y-158757142D01*
X152885714Y-158757142D01*
X152980952Y-158709523D01*
X153028571Y-158661904D01*
X153076190Y-158566666D01*
X153076190Y-158185714D01*
X152647619Y-159138095D02*
X152600000Y-159185714D01*
X152552380Y-159280952D01*
X152552380Y-159519047D01*
X152600000Y-159614285D01*
X152647619Y-159661904D01*
X152742857Y-159709523D01*
X152838095Y-159709523D01*
X152980952Y-159661904D01*
X153552380Y-159090476D01*
X153552380Y-159709523D01*
X152552380Y-160042857D02*
X152552380Y-160661904D01*
X152933333Y-160328571D01*
X152933333Y-160471428D01*
X152980952Y-160566666D01*
X153028571Y-160614285D01*
X153123809Y-160661904D01*
X153361904Y-160661904D01*
X153457142Y-160614285D01*
X153504761Y-160566666D01*
X153552380Y-160471428D01*
X153552380Y-160185714D01*
X153504761Y-160090476D01*
X153457142Y-160042857D01*
X155052380Y-158757142D02*
X154576190Y-158423809D01*
X155052380Y-158185714D02*
X154052380Y-158185714D01*
X154052380Y-158566666D01*
X154100000Y-158661904D01*
X154147619Y-158709523D01*
X154242857Y-158757142D01*
X154385714Y-158757142D01*
X154480952Y-158709523D01*
X154528571Y-158661904D01*
X154576190Y-158566666D01*
X154576190Y-158185714D01*
X154147619Y-159138095D02*
X154100000Y-159185714D01*
X154052380Y-159280952D01*
X154052380Y-159519047D01*
X154100000Y-159614285D01*
X154147619Y-159661904D01*
X154242857Y-159709523D01*
X154338095Y-159709523D01*
X154480952Y-159661904D01*
X155052380Y-159090476D01*
X155052380Y-159709523D01*
X154147619Y-160090476D02*
X154100000Y-160138095D01*
X154052380Y-160233333D01*
X154052380Y-160471428D01*
X154100000Y-160566666D01*
X154147619Y-160614285D01*
X154242857Y-160661904D01*
X154338095Y-160661904D01*
X154480952Y-160614285D01*
X155052380Y-160042857D01*
X155052380Y-160661904D01*
X148222380Y-134057142D02*
X147746190Y-133723809D01*
X148222380Y-133485714D02*
X147222380Y-133485714D01*
X147222380Y-133866666D01*
X147270000Y-133961904D01*
X147317619Y-134009523D01*
X147412857Y-134057142D01*
X147555714Y-134057142D01*
X147650952Y-134009523D01*
X147698571Y-133961904D01*
X147746190Y-133866666D01*
X147746190Y-133485714D01*
X148222380Y-135009523D02*
X148222380Y-134438095D01*
X148222380Y-134723809D02*
X147222380Y-134723809D01*
X147365238Y-134628571D01*
X147460476Y-134533333D01*
X147508095Y-134438095D01*
X147222380Y-135914285D02*
X147222380Y-135438095D01*
X147698571Y-135390476D01*
X147650952Y-135438095D01*
X147603333Y-135533333D01*
X147603333Y-135771428D01*
X147650952Y-135866666D01*
X147698571Y-135914285D01*
X147793809Y-135961904D01*
X148031904Y-135961904D01*
X148127142Y-135914285D01*
X148174761Y-135866666D01*
X148222380Y-135771428D01*
X148222380Y-135533333D01*
X148174761Y-135438095D01*
X148127142Y-135390476D01*
X138038095Y-156052380D02*
X138038095Y-155052380D01*
X137800000Y-155052380D01*
X137657142Y-155100000D01*
X137561904Y-155195238D01*
X137514285Y-155290476D01*
X137466666Y-155480952D01*
X137466666Y-155623809D01*
X137514285Y-155814285D01*
X137561904Y-155909523D01*
X137657142Y-156004761D01*
X137800000Y-156052380D01*
X138038095Y-156052380D01*
X137085714Y-155147619D02*
X137038095Y-155100000D01*
X136942857Y-155052380D01*
X136704761Y-155052380D01*
X136609523Y-155100000D01*
X136561904Y-155147619D01*
X136514285Y-155242857D01*
X136514285Y-155338095D01*
X136561904Y-155480952D01*
X137133333Y-156052380D01*
X136514285Y-156052380D01*
D12*
X128419523Y-166376666D02*
X129326666Y-166376666D01*
X129508095Y-166316190D01*
X129629047Y-166195238D01*
X129689523Y-166013809D01*
X129689523Y-165892857D01*
X128540476Y-166920952D02*
X128480000Y-166981428D01*
X128419523Y-167102380D01*
X128419523Y-167404761D01*
X128480000Y-167525714D01*
X128540476Y-167586190D01*
X128661428Y-167646666D01*
X128782380Y-167646666D01*
X128963809Y-167586190D01*
X129689523Y-166860476D01*
X129689523Y-167646666D01*
D11*
X219361904Y-136752380D02*
X218790476Y-136752380D01*
X219076190Y-137752380D02*
X219076190Y-136752380D01*
X218457142Y-137752380D02*
X218457142Y-136752380D01*
X218076190Y-136752380D01*
X217980952Y-136800000D01*
X217933333Y-136847619D01*
X217885714Y-136942857D01*
X217885714Y-137085714D01*
X217933333Y-137180952D01*
X217980952Y-137228571D01*
X218076190Y-137276190D01*
X218457142Y-137276190D01*
X217552380Y-136752380D02*
X216885714Y-136752380D01*
X217314285Y-137752380D01*
X136742857Y-142552380D02*
X137076190Y-142076190D01*
X137314285Y-142552380D02*
X137314285Y-141552380D01*
X136933333Y-141552380D01*
X136838095Y-141600000D01*
X136790476Y-141647619D01*
X136742857Y-141742857D01*
X136742857Y-141885714D01*
X136790476Y-141980952D01*
X136838095Y-142028571D01*
X136933333Y-142076190D01*
X137314285Y-142076190D01*
X135790476Y-142552380D02*
X136361904Y-142552380D01*
X136076190Y-142552380D02*
X136076190Y-141552380D01*
X136171428Y-141695238D01*
X136266666Y-141790476D01*
X136361904Y-141838095D01*
X135219047Y-141980952D02*
X135314285Y-141933333D01*
X135361904Y-141885714D01*
X135409523Y-141790476D01*
X135409523Y-141742857D01*
X135361904Y-141647619D01*
X135314285Y-141600000D01*
X135219047Y-141552380D01*
X135028571Y-141552380D01*
X134933333Y-141600000D01*
X134885714Y-141647619D01*
X134838095Y-141742857D01*
X134838095Y-141790476D01*
X134885714Y-141885714D01*
X134933333Y-141933333D01*
X135028571Y-141980952D01*
X135219047Y-141980952D01*
X135314285Y-142028571D01*
X135361904Y-142076190D01*
X135409523Y-142171428D01*
X135409523Y-142361904D01*
X135361904Y-142457142D01*
X135314285Y-142504761D01*
X135219047Y-142552380D01*
X135028571Y-142552380D01*
X134933333Y-142504761D01*
X134885714Y-142457142D01*
X134838095Y-142361904D01*
X134838095Y-142171428D01*
X134885714Y-142076190D01*
X134933333Y-142028571D01*
X135028571Y-141980952D01*
X162750476Y-123467142D02*
X162798095Y-123514761D01*
X162940952Y-123562380D01*
X163036190Y-123562380D01*
X163179047Y-123514761D01*
X163274285Y-123419523D01*
X163321904Y-123324285D01*
X163369523Y-123133809D01*
X163369523Y-122990952D01*
X163321904Y-122800476D01*
X163274285Y-122705238D01*
X163179047Y-122610000D01*
X163036190Y-122562380D01*
X162940952Y-122562380D01*
X162798095Y-122610000D01*
X162750476Y-122657619D01*
X162321904Y-123562380D02*
X162321904Y-122562380D01*
X161750476Y-123562380D01*
X161750476Y-122562380D01*
X161131428Y-122990952D02*
X161226666Y-122943333D01*
X161274285Y-122895714D01*
X161321904Y-122800476D01*
X161321904Y-122752857D01*
X161274285Y-122657619D01*
X161226666Y-122610000D01*
X161131428Y-122562380D01*
X160940952Y-122562380D01*
X160845714Y-122610000D01*
X160798095Y-122657619D01*
X160750476Y-122752857D01*
X160750476Y-122800476D01*
X160798095Y-122895714D01*
X160845714Y-122943333D01*
X160940952Y-122990952D01*
X161131428Y-122990952D01*
X161226666Y-123038571D01*
X161274285Y-123086190D01*
X161321904Y-123181428D01*
X161321904Y-123371904D01*
X161274285Y-123467142D01*
X161226666Y-123514761D01*
X161131428Y-123562380D01*
X160940952Y-123562380D01*
X160845714Y-123514761D01*
X160798095Y-123467142D01*
X160750476Y-123371904D01*
X160750476Y-123181428D01*
X160798095Y-123086190D01*
X160845714Y-123038571D01*
X160940952Y-122990952D01*
X173966666Y-137252380D02*
X174300000Y-136776190D01*
X174538095Y-137252380D02*
X174538095Y-136252380D01*
X174157142Y-136252380D01*
X174061904Y-136300000D01*
X174014285Y-136347619D01*
X173966666Y-136442857D01*
X173966666Y-136585714D01*
X174014285Y-136680952D01*
X174061904Y-136728571D01*
X174157142Y-136776190D01*
X174538095Y-136776190D01*
X173395238Y-136680952D02*
X173490476Y-136633333D01*
X173538095Y-136585714D01*
X173585714Y-136490476D01*
X173585714Y-136442857D01*
X173538095Y-136347619D01*
X173490476Y-136300000D01*
X173395238Y-136252380D01*
X173204761Y-136252380D01*
X173109523Y-136300000D01*
X173061904Y-136347619D01*
X173014285Y-136442857D01*
X173014285Y-136490476D01*
X173061904Y-136585714D01*
X173109523Y-136633333D01*
X173204761Y-136680952D01*
X173395238Y-136680952D01*
X173490476Y-136728571D01*
X173538095Y-136776190D01*
X173585714Y-136871428D01*
X173585714Y-137061904D01*
X173538095Y-137157142D01*
X173490476Y-137204761D01*
X173395238Y-137252380D01*
X173204761Y-137252380D01*
X173109523Y-137204761D01*
X173061904Y-137157142D01*
X173014285Y-137061904D01*
X173014285Y-136871428D01*
X173061904Y-136776190D01*
X173109523Y-136728571D01*
X173204761Y-136680952D01*
X142833333Y-150547619D02*
X142357142Y-150547619D01*
X142357142Y-151547619D01*
X143119047Y-151452380D02*
X143166666Y-151500000D01*
X143261904Y-151547619D01*
X143500000Y-151547619D01*
X143595238Y-151500000D01*
X143642857Y-151452380D01*
X143690476Y-151357142D01*
X143690476Y-151261904D01*
X143642857Y-151119047D01*
X143071428Y-150547619D01*
X143690476Y-150547619D01*
X219361904Y-131552380D02*
X218790476Y-131552380D01*
X219076190Y-132552380D02*
X219076190Y-131552380D01*
X218457142Y-132552380D02*
X218457142Y-131552380D01*
X218076190Y-131552380D01*
X217980952Y-131600000D01*
X217933333Y-131647619D01*
X217885714Y-131742857D01*
X217885714Y-131885714D01*
X217933333Y-131980952D01*
X217980952Y-132028571D01*
X218076190Y-132076190D01*
X218457142Y-132076190D01*
X217314285Y-131980952D02*
X217409523Y-131933333D01*
X217457142Y-131885714D01*
X217504761Y-131790476D01*
X217504761Y-131742857D01*
X217457142Y-131647619D01*
X217409523Y-131600000D01*
X217314285Y-131552380D01*
X217123809Y-131552380D01*
X217028571Y-131600000D01*
X216980952Y-131647619D01*
X216933333Y-131742857D01*
X216933333Y-131790476D01*
X216980952Y-131885714D01*
X217028571Y-131933333D01*
X217123809Y-131980952D01*
X217314285Y-131980952D01*
X217409523Y-132028571D01*
X217457142Y-132076190D01*
X217504761Y-132171428D01*
X217504761Y-132361904D01*
X217457142Y-132457142D01*
X217409523Y-132504761D01*
X217314285Y-132552380D01*
X217123809Y-132552380D01*
X217028571Y-132504761D01*
X216980952Y-132457142D01*
X216933333Y-132361904D01*
X216933333Y-132171428D01*
X216980952Y-132076190D01*
X217028571Y-132028571D01*
X217123809Y-131980952D01*
X204138095Y-142152380D02*
X204138095Y-141152380D01*
X203900000Y-141152380D01*
X203757142Y-141200000D01*
X203661904Y-141295238D01*
X203614285Y-141390476D01*
X203566666Y-141580952D01*
X203566666Y-141723809D01*
X203614285Y-141914285D01*
X203661904Y-142009523D01*
X203757142Y-142104761D01*
X203900000Y-142152380D01*
X204138095Y-142152380D01*
X202614285Y-142152380D02*
X203185714Y-142152380D01*
X202900000Y-142152380D02*
X202900000Y-141152380D01*
X202995238Y-141295238D01*
X203090476Y-141390476D01*
X203185714Y-141438095D01*
X184866666Y-145652380D02*
X185200000Y-145176190D01*
X185438095Y-145652380D02*
X185438095Y-144652380D01*
X185057142Y-144652380D01*
X184961904Y-144700000D01*
X184914285Y-144747619D01*
X184866666Y-144842857D01*
X184866666Y-144985714D01*
X184914285Y-145080952D01*
X184961904Y-145128571D01*
X185057142Y-145176190D01*
X185438095Y-145176190D01*
X184009523Y-144985714D02*
X184009523Y-145652380D01*
X184247619Y-144604761D02*
X184485714Y-145319047D01*
X183866666Y-145319047D01*
X219261904Y-146652380D02*
X218690476Y-146652380D01*
X218976190Y-147652380D02*
X218976190Y-146652380D01*
X218357142Y-147652380D02*
X218357142Y-146652380D01*
X217976190Y-146652380D01*
X217880952Y-146700000D01*
X217833333Y-146747619D01*
X217785714Y-146842857D01*
X217785714Y-146985714D01*
X217833333Y-147080952D01*
X217880952Y-147128571D01*
X217976190Y-147176190D01*
X218357142Y-147176190D01*
X216880952Y-146652380D02*
X217357142Y-146652380D01*
X217404761Y-147128571D01*
X217357142Y-147080952D01*
X217261904Y-147033333D01*
X217023809Y-147033333D01*
X216928571Y-147080952D01*
X216880952Y-147128571D01*
X216833333Y-147223809D01*
X216833333Y-147461904D01*
X216880952Y-147557142D01*
X216928571Y-147604761D01*
X217023809Y-147652380D01*
X217261904Y-147652380D01*
X217357142Y-147604761D01*
X217404761Y-147557142D01*
X185530476Y-123557142D02*
X185578095Y-123604761D01*
X185720952Y-123652380D01*
X185816190Y-123652380D01*
X185959047Y-123604761D01*
X186054285Y-123509523D01*
X186101904Y-123414285D01*
X186149523Y-123223809D01*
X186149523Y-123080952D01*
X186101904Y-122890476D01*
X186054285Y-122795238D01*
X185959047Y-122700000D01*
X185816190Y-122652380D01*
X185720952Y-122652380D01*
X185578095Y-122700000D01*
X185530476Y-122747619D01*
X185101904Y-123652380D02*
X185101904Y-122652380D01*
X184530476Y-123652380D01*
X184530476Y-122652380D01*
X184006666Y-123652380D02*
X183816190Y-123652380D01*
X183720952Y-123604761D01*
X183673333Y-123557142D01*
X183578095Y-123414285D01*
X183530476Y-123223809D01*
X183530476Y-122842857D01*
X183578095Y-122747619D01*
X183625714Y-122700000D01*
X183720952Y-122652380D01*
X183911428Y-122652380D01*
X184006666Y-122700000D01*
X184054285Y-122747619D01*
X184101904Y-122842857D01*
X184101904Y-123080952D01*
X184054285Y-123176190D01*
X184006666Y-123223809D01*
X183911428Y-123271428D01*
X183720952Y-123271428D01*
X183625714Y-123223809D01*
X183578095Y-123176190D01*
X183530476Y-123080952D01*
D13*
X197900000Y-132040000D02*
X199850000Y-132040000D01*
X197900000Y-137160000D02*
X194450000Y-137160000D01*
X197900000Y-137160000D02*
X199850000Y-137160000D01*
X197900000Y-132040000D02*
X195950000Y-132040000D01*
X200445276Y-143722500D02*
X200954724Y-143722500D01*
X200445276Y-142677500D02*
X200954724Y-142677500D01*
D14*
X157495000Y-135625000D02*
X153595000Y-135625000D01*
X157495000Y-130575000D02*
X153595000Y-130575000D01*
D15*
X159685000Y-130795000D02*
G75*
G03*
X159685000Y-130795000I-100000J0D01*
G01*
D13*
X191922500Y-134654724D02*
X191922500Y-134145276D01*
X190877500Y-134654724D02*
X190877500Y-134145276D01*
X156653733Y-146810000D02*
X156946267Y-146810000D01*
X156653733Y-145790000D02*
X156946267Y-145790000D01*
X193510000Y-134253733D02*
X193510000Y-134546267D01*
X192490000Y-134253733D02*
X192490000Y-134546267D01*
X181745276Y-143177500D02*
X182254724Y-143177500D01*
X181745276Y-144222500D02*
X182254724Y-144222500D01*
X178440000Y-138000000D02*
X178440000Y-137350000D01*
X178440000Y-138000000D02*
X178440000Y-138650000D01*
X181560000Y-138000000D02*
X181560000Y-139675000D01*
X181560000Y-138000000D02*
X181560000Y-137350000D01*
X150781000Y-156153733D02*
X150781000Y-156446267D01*
X149761000Y-156153733D02*
X149761000Y-156446267D01*
X137888748Y-141010000D02*
X139311252Y-141010000D01*
X137888748Y-139190000D02*
X139311252Y-139190000D01*
X181745276Y-142722500D02*
X182254724Y-142722500D01*
X181745276Y-141677500D02*
X182254724Y-141677500D01*
X149210000Y-156153733D02*
X149210000Y-156446267D01*
X148190000Y-156153733D02*
X148190000Y-156446267D01*
X156545276Y-147377500D02*
X157054724Y-147377500D01*
X156545276Y-148422500D02*
X157054724Y-148422500D01*
X182340000Y-138000000D02*
X182340000Y-137350000D01*
X185460000Y-138000000D02*
X185460000Y-137350000D01*
X185460000Y-138000000D02*
X185460000Y-139675000D01*
X182340000Y-138000000D02*
X182340000Y-138650000D01*
X156393500Y-153154724D02*
X156393500Y-152645276D01*
X155348500Y-153154724D02*
X155348500Y-152645276D01*
X118930000Y-151875000D02*
X131270000Y-151875000D01*
X132164338Y-141680000D02*
X131731325Y-141930000D01*
X131270000Y-151875000D02*
X131270000Y-120905000D01*
X132164338Y-142180000D02*
X132164338Y-141680000D01*
X131270000Y-120905000D02*
X118930000Y-120905000D01*
X131731325Y-141930000D02*
X132164338Y-142180000D01*
X182254724Y-141222500D02*
X181745276Y-141222500D01*
X182254724Y-140177500D02*
X181745276Y-140177500D01*
X142545276Y-142622500D02*
X143054724Y-142622500D01*
X142545276Y-141577500D02*
X143054724Y-141577500D01*
X148677500Y-131145276D02*
X148677500Y-131654724D01*
X149722500Y-131145276D02*
X149722500Y-131654724D01*
D15*
X149695000Y-147325000D02*
X149695000Y-148850000D01*
D13*
X153622500Y-156045276D02*
X153622500Y-156554724D01*
X152577500Y-156045276D02*
X152577500Y-156554724D01*
X155122500Y-156554724D02*
X155122500Y-156045276D01*
X154077500Y-156554724D02*
X154077500Y-156045276D01*
X149722500Y-134445276D02*
X149722500Y-134954724D01*
X148677500Y-134445276D02*
X148677500Y-134954724D01*
X147600000Y-157650000D02*
X140300000Y-157650000D01*
X147600000Y-153350000D02*
X140300000Y-153350000D01*
X147600000Y-153350000D02*
X147600000Y-157650000D01*
D15*
X132496000Y-161700000D02*
X132496000Y-161700000D01*
D16*
X118596000Y-179000000D02*
X118596000Y-161000000D01*
X118596000Y-161000000D02*
X131396000Y-161000000D01*
D15*
X132696000Y-161700000D02*
X132696000Y-161700000D01*
D16*
X131396000Y-179000000D02*
X118596000Y-179000000D01*
D15*
X132696000Y-161700000D02*
G75*
G03*
X132496000Y-161700000I-100000J0D01*
G01*
X132496000Y-161700000D02*
G75*
G03*
X132696000Y-161700000I100000J0D01*
G01*
D13*
X139145276Y-141577500D02*
X139654724Y-141577500D01*
X139145276Y-142622500D02*
X139654724Y-142622500D01*
X161150000Y-129730000D02*
X162480000Y-129730000D01*
X163750000Y-127130000D02*
X163750000Y-129730000D01*
X161150000Y-128400000D02*
X161150000Y-129730000D01*
X161150000Y-124530000D02*
X161150000Y-127130000D01*
X163750000Y-129730000D02*
X181590000Y-129730000D01*
X161150000Y-127130000D02*
X163750000Y-127130000D01*
X161150000Y-124530000D02*
X181590000Y-124530000D01*
X181590000Y-124530000D02*
X181590000Y-129730000D01*
X176245276Y-137322500D02*
X176754724Y-137322500D01*
X176245276Y-136277500D02*
X176754724Y-136277500D01*
X201500000Y-142435000D02*
X199040000Y-142435000D01*
X199040000Y-140965000D02*
X201500000Y-140965000D01*
X199040000Y-142435000D02*
X199040000Y-140965000D01*
X182254724Y-144677500D02*
X181745276Y-144677500D01*
X182254724Y-145722500D02*
X181745276Y-145722500D01*
X184000000Y-129730000D02*
X185330000Y-129730000D01*
X186600000Y-127130000D02*
X186600000Y-129730000D01*
X184000000Y-124530000D02*
X184000000Y-127130000D01*
X222220000Y-124530000D02*
X222220000Y-129730000D01*
X186600000Y-129730000D02*
X222220000Y-129730000D01*
X184000000Y-124530000D02*
X222220000Y-124530000D01*
X184000000Y-127130000D02*
X186600000Y-127130000D01*
X184000000Y-128400000D02*
X184000000Y-129730000D01*
M02*
