G04 #@! TF.GenerationSoftware,KiCad,Pcbnew,(6.0.1)*
G04 #@! TF.CreationDate,2022-01-30T21:26:31+01:00*
G04 #@! TF.ProjectId,ARM_NUCLEO_HAT_1.0,41524d5f-4e55-4434-9c45-4f5f4841545f,rev?*
G04 #@! TF.SameCoordinates,Original*
G04 #@! TF.FileFunction,Soldermask,Bot*
G04 #@! TF.FilePolarity,Negative*
%FSLAX46Y46*%
G04 Gerber Fmt 4.6, Leading zero omitted, Abs format (unit mm)*
G04 Created by KiCad (PCBNEW (6.0.1)) date 2022-01-30 21:26:31*
%MOMM*%
%LPD*%
G01*
G04 APERTURE LIST*
G04 Aperture macros list*
%AMRoundRect*
0 Rectangle with rounded corners*
0 $1 Rounding radius*
0 $2 $3 $4 $5 $6 $7 $8 $9 X,Y pos of 4 corners*
0 Add a 4 corners polygon primitive as box body*
4,1,4,$2,$3,$4,$5,$6,$7,$8,$9,$2,$3,0*
0 Add four circle primitives for the rounded corners*
1,1,$1+$1,$2,$3*
1,1,$1+$1,$4,$5*
1,1,$1+$1,$6,$7*
1,1,$1+$1,$8,$9*
0 Add four rect primitives between the rounded corners*
20,1,$1+$1,$2,$3,$4,$5,0*
20,1,$1+$1,$4,$5,$6,$7,0*
20,1,$1+$1,$6,$7,$8,$9,0*
20,1,$1+$1,$8,$9,$2,$3,0*%
G04 Aperture macros list end*
%ADD10C,2.700000*%
%ADD11C,1.600000*%
%ADD12RoundRect,0.150000X-0.725000X-0.150000X0.725000X-0.150000X0.725000X0.150000X-0.725000X0.150000X0*%
%ADD13RoundRect,0.237500X-0.250000X-0.237500X0.250000X-0.237500X0.250000X0.237500X-0.250000X0.237500X0*%
%ADD14RoundRect,0.042000X0.943000X0.258000X-0.943000X0.258000X-0.943000X-0.258000X0.943000X-0.258000X0*%
%ADD15RoundRect,0.237500X0.237500X-0.250000X0.237500X0.250000X-0.237500X0.250000X-0.237500X-0.250000X0*%
%ADD16RoundRect,0.237500X-0.300000X-0.237500X0.300000X-0.237500X0.300000X0.237500X-0.300000X0.237500X0*%
%ADD17RoundRect,0.237500X-0.237500X0.300000X-0.237500X-0.300000X0.237500X-0.300000X0.237500X0.300000X0*%
%ADD18RoundRect,0.150000X0.150000X-0.587500X0.150000X0.587500X-0.150000X0.587500X-0.150000X-0.587500X0*%
%ADD19RoundRect,0.250000X-0.412500X-0.650000X0.412500X-0.650000X0.412500X0.650000X-0.412500X0.650000X0*%
%ADD20C,4.000000*%
%ADD21R,1.600000X1.600000*%
%ADD22RoundRect,0.237500X0.250000X0.237500X-0.250000X0.237500X-0.250000X-0.237500X0.250000X-0.237500X0*%
%ADD23RoundRect,0.237500X-0.237500X0.250000X-0.237500X-0.250000X0.237500X-0.250000X0.237500X0.250000X0*%
%ADD24R,0.700000X1.525000*%
%ADD25R,3.200000X2.400000*%
%ADD26R,3.500000X2.300000*%
%ADD27C,3.050000*%
%ADD28C,2.775000*%
%ADD29R,1.700000X1.700000*%
%ADD30O,1.700000X1.700000*%
%ADD31RoundRect,0.312200X-1.248800X-1.313300X1.248800X-1.313300X1.248800X1.313300X-1.248800X1.313300X0*%
%ADD32RoundRect,0.237500X-0.287500X-0.237500X0.287500X-0.237500X0.287500X0.237500X-0.287500X0.237500X0*%
G04 APERTURE END LIST*
D10*
X224710000Y-127140000D03*
X148510000Y-125870000D03*
X200580000Y-158890000D03*
D11*
X207800000Y-162700000D03*
X212800000Y-162700000D03*
D12*
X195325000Y-136505000D03*
X195325000Y-135235000D03*
X195325000Y-133965000D03*
X195325000Y-132695000D03*
X200475000Y-132695000D03*
X200475000Y-133965000D03*
X200475000Y-135235000D03*
X200475000Y-136505000D03*
D13*
X199787500Y-143200000D03*
X201612500Y-143200000D03*
D14*
X158015000Y-131195000D03*
X158015000Y-132465000D03*
X158015000Y-133735000D03*
X158015000Y-135005000D03*
X153075000Y-135005000D03*
X153075000Y-133735000D03*
X153075000Y-132465000D03*
X153075000Y-131195000D03*
D11*
X207800000Y-167800000D03*
X212800000Y-167800000D03*
D15*
X191400000Y-135312500D03*
X191400000Y-133487500D03*
D16*
X155937500Y-146300000D03*
X157662500Y-146300000D03*
D17*
X193000000Y-133537500D03*
X193000000Y-135262500D03*
D11*
X212800000Y-157600000D03*
X207800000Y-157600000D03*
D13*
X181087500Y-143700000D03*
X182912500Y-143700000D03*
D18*
X180950000Y-138937500D03*
X179050000Y-138937500D03*
X180000000Y-137062500D03*
D17*
X150271000Y-155437500D03*
X150271000Y-157162500D03*
D19*
X137037500Y-140100000D03*
X140162500Y-140100000D03*
D13*
X181087500Y-142200000D03*
X182912500Y-142200000D03*
D11*
X207800000Y-152500000D03*
X212800000Y-152500000D03*
D17*
X148700000Y-155437500D03*
X148700000Y-157162500D03*
D13*
X155887500Y-147900000D03*
X157712500Y-147900000D03*
D18*
X184850000Y-138937500D03*
X182950000Y-138937500D03*
X183900000Y-137062500D03*
D15*
X155871000Y-153812500D03*
X155871000Y-151987500D03*
D20*
X127990000Y-148890000D03*
X127990000Y-123890000D03*
D21*
X129410000Y-141930000D03*
D11*
X129410000Y-139160000D03*
X129410000Y-136390000D03*
X129410000Y-133620000D03*
X129410000Y-130850000D03*
X126570000Y-140545000D03*
X126570000Y-137775000D03*
X126570000Y-135005000D03*
X126570000Y-132235000D03*
D22*
X182912500Y-140700000D03*
X181087500Y-140700000D03*
D13*
X141887500Y-142100000D03*
X143712500Y-142100000D03*
D23*
X149200000Y-130487500D03*
X149200000Y-132312500D03*
D24*
X150395000Y-148088000D03*
X151665000Y-148088000D03*
X152935000Y-148088000D03*
X154205000Y-148088000D03*
X154205000Y-153512000D03*
X152935000Y-153512000D03*
X151665000Y-153512000D03*
X150395000Y-153512000D03*
D25*
X152300000Y-150800000D03*
D11*
X207800000Y-142300000D03*
X212800000Y-142300000D03*
D23*
X153100000Y-155387500D03*
X153100000Y-157212500D03*
D15*
X154600000Y-157212500D03*
X154600000Y-155387500D03*
D23*
X149200000Y-133787500D03*
X149200000Y-135612500D03*
D26*
X145700000Y-155500000D03*
X140300000Y-155500000D03*
D27*
X125196000Y-176300000D03*
X125196000Y-163700000D03*
D28*
X132496000Y-163700000D03*
X132496000Y-167900000D03*
X132496000Y-172100000D03*
X132496000Y-176300000D03*
X137996000Y-163700000D03*
X137996000Y-167900000D03*
X137996000Y-172100000D03*
X137996000Y-176300000D03*
D11*
X212800000Y-137200000D03*
X207800000Y-137200000D03*
D13*
X138487500Y-142100000D03*
X140312500Y-142100000D03*
D29*
X162480000Y-128400000D03*
D30*
X162480000Y-125860000D03*
X165020000Y-128400000D03*
X165020000Y-125860000D03*
X167560000Y-128400000D03*
X167560000Y-125860000D03*
X170100000Y-128400000D03*
X170100000Y-125860000D03*
X172640000Y-128400000D03*
X172640000Y-125860000D03*
X175180000Y-128400000D03*
X175180000Y-125860000D03*
X177720000Y-128400000D03*
X177720000Y-125860000D03*
X180260000Y-128400000D03*
X180260000Y-125860000D03*
D13*
X175587500Y-136800000D03*
X177412500Y-136800000D03*
D31*
X138429000Y-148100000D03*
X147371000Y-148100000D03*
D11*
X212800000Y-132100000D03*
X207800000Y-132100000D03*
D32*
X199825000Y-141700000D03*
X201575000Y-141700000D03*
D22*
X182912500Y-145200000D03*
X181087500Y-145200000D03*
D11*
X212800000Y-147400000D03*
X207800000Y-147400000D03*
D29*
X185330000Y-128400000D03*
D30*
X185330000Y-125860000D03*
X187870000Y-128400000D03*
X187870000Y-125860000D03*
X190410000Y-128400000D03*
X190410000Y-125860000D03*
X192950000Y-128400000D03*
X192950000Y-125860000D03*
X195490000Y-128400000D03*
X195490000Y-125860000D03*
X198030000Y-128400000D03*
X198030000Y-125860000D03*
X200570000Y-128400000D03*
X200570000Y-125860000D03*
X203110000Y-128400000D03*
X203110000Y-125860000D03*
X205650000Y-128400000D03*
X205650000Y-125860000D03*
X208190000Y-128400000D03*
X208190000Y-125860000D03*
X210730000Y-128400000D03*
X210730000Y-125860000D03*
X213270000Y-128400000D03*
X213270000Y-125860000D03*
X215810000Y-128400000D03*
X215810000Y-125860000D03*
X218350000Y-128400000D03*
X218350000Y-125860000D03*
X220890000Y-128400000D03*
X220890000Y-125860000D03*
M02*
