G04 #@! TF.GenerationSoftware,KiCad,Pcbnew,(6.0.1)*
G04 #@! TF.CreationDate,2022-01-30T21:26:31+01:00*
G04 #@! TF.ProjectId,ARM_NUCLEO_HAT_1.0,41524d5f-4e55-4434-9c45-4f5f4841545f,rev?*
G04 #@! TF.SameCoordinates,Original*
G04 #@! TF.FileFunction,Legend,Top*
G04 #@! TF.FilePolarity,Positive*
%FSLAX46Y46*%
G04 Gerber Fmt 4.6, Leading zero omitted, Abs format (unit mm)*
G04 Created by KiCad (PCBNEW (6.0.1)) date 2022-01-30 21:26:31*
%MOMM*%
%LPD*%
G01*
G04 APERTURE LIST*
%ADD10C,0.300000*%
%ADD11C,0.150000*%
%ADD12C,0.120000*%
G04 APERTURE END LIST*
D10*
X129000000Y-183000000D02*
X130428571Y-183000000D01*
X128714285Y-183857142D02*
X129714285Y-180857142D01*
X130714285Y-183857142D01*
X133428571Y-183857142D02*
X132428571Y-182428571D01*
X131714285Y-183857142D02*
X131714285Y-180857142D01*
X132857142Y-180857142D01*
X133142857Y-181000000D01*
X133285714Y-181142857D01*
X133428571Y-181428571D01*
X133428571Y-181857142D01*
X133285714Y-182142857D01*
X133142857Y-182285714D01*
X132857142Y-182428571D01*
X131714285Y-182428571D01*
X134714285Y-183857142D02*
X134714285Y-180857142D01*
X135714285Y-183000000D01*
X136714285Y-180857142D01*
X136714285Y-183857142D01*
X142142857Y-183571428D02*
X142000000Y-183714285D01*
X141571428Y-183857142D01*
X141285714Y-183857142D01*
X140857142Y-183714285D01*
X140571428Y-183428571D01*
X140428571Y-183142857D01*
X140285714Y-182571428D01*
X140285714Y-182142857D01*
X140428571Y-181571428D01*
X140571428Y-181285714D01*
X140857142Y-181000000D01*
X141285714Y-180857142D01*
X141571428Y-180857142D01*
X142000000Y-181000000D01*
X142142857Y-181142857D01*
X144000000Y-180857142D02*
X144571428Y-180857142D01*
X144857142Y-181000000D01*
X145142857Y-181285714D01*
X145285714Y-181857142D01*
X145285714Y-182857142D01*
X145142857Y-183428571D01*
X144857142Y-183714285D01*
X144571428Y-183857142D01*
X144000000Y-183857142D01*
X143714285Y-183714285D01*
X143428571Y-183428571D01*
X143285714Y-182857142D01*
X143285714Y-181857142D01*
X143428571Y-181285714D01*
X143714285Y-181000000D01*
X144000000Y-180857142D01*
X146571428Y-183857142D02*
X146571428Y-180857142D01*
X148285714Y-183857142D01*
X148285714Y-180857142D01*
X149285714Y-180857142D02*
X151000000Y-180857142D01*
X150142857Y-183857142D02*
X150142857Y-180857142D01*
X153714285Y-183857142D02*
X152714285Y-182428571D01*
X152000000Y-183857142D02*
X152000000Y-180857142D01*
X153142857Y-180857142D01*
X153428571Y-181000000D01*
X153571428Y-181142857D01*
X153714285Y-181428571D01*
X153714285Y-181857142D01*
X153571428Y-182142857D01*
X153428571Y-182285714D01*
X153142857Y-182428571D01*
X152000000Y-182428571D01*
X155571428Y-180857142D02*
X156142857Y-180857142D01*
X156428571Y-181000000D01*
X156714285Y-181285714D01*
X156857142Y-181857142D01*
X156857142Y-182857142D01*
X156714285Y-183428571D01*
X156428571Y-183714285D01*
X156142857Y-183857142D01*
X155571428Y-183857142D01*
X155285714Y-183714285D01*
X155000000Y-183428571D01*
X154857142Y-182857142D01*
X154857142Y-181857142D01*
X155000000Y-181285714D01*
X155285714Y-181000000D01*
X155571428Y-180857142D01*
X159571428Y-183857142D02*
X158142857Y-183857142D01*
X158142857Y-180857142D01*
X162000000Y-183857142D02*
X160571428Y-183857142D01*
X160571428Y-180857142D01*
X163000000Y-182285714D02*
X164000000Y-182285714D01*
X164428571Y-183857142D02*
X163000000Y-183857142D01*
X163000000Y-180857142D01*
X164428571Y-180857142D01*
X167428571Y-183857142D02*
X166428571Y-182428571D01*
X165714285Y-183857142D02*
X165714285Y-180857142D01*
X166857142Y-180857142D01*
X167142857Y-181000000D01*
X167285714Y-181142857D01*
X167428571Y-181428571D01*
X167428571Y-181857142D01*
X167285714Y-182142857D01*
X167142857Y-182285714D01*
X166857142Y-182428571D01*
X165714285Y-182428571D01*
X171000000Y-183857142D02*
X171000000Y-180857142D01*
X172714285Y-183857142D01*
X172714285Y-180857142D01*
X174142857Y-180857142D02*
X174142857Y-183285714D01*
X174285714Y-183571428D01*
X174428571Y-183714285D01*
X174714285Y-183857142D01*
X175285714Y-183857142D01*
X175571428Y-183714285D01*
X175714285Y-183571428D01*
X175857142Y-183285714D01*
X175857142Y-180857142D01*
X179000000Y-183571428D02*
X178857142Y-183714285D01*
X178428571Y-183857142D01*
X178142857Y-183857142D01*
X177714285Y-183714285D01*
X177428571Y-183428571D01*
X177285714Y-183142857D01*
X177142857Y-182571428D01*
X177142857Y-182142857D01*
X177285714Y-181571428D01*
X177428571Y-181285714D01*
X177714285Y-181000000D01*
X178142857Y-180857142D01*
X178428571Y-180857142D01*
X178857142Y-181000000D01*
X179000000Y-181142857D01*
X181714285Y-183857142D02*
X180285714Y-183857142D01*
X180285714Y-180857142D01*
X182714285Y-182285714D02*
X183714285Y-182285714D01*
X184142857Y-183857142D02*
X182714285Y-183857142D01*
X182714285Y-180857142D01*
X184142857Y-180857142D01*
X186000000Y-180857142D02*
X186571428Y-180857142D01*
X186857142Y-181000000D01*
X187142857Y-181285714D01*
X187285714Y-181857142D01*
X187285714Y-182857142D01*
X187142857Y-183428571D01*
X186857142Y-183714285D01*
X186571428Y-183857142D01*
X186000000Y-183857142D01*
X185714285Y-183714285D01*
X185428571Y-183428571D01*
X185285714Y-182857142D01*
X185285714Y-181857142D01*
X185428571Y-181285714D01*
X185714285Y-181000000D01*
X186000000Y-180857142D01*
X190857142Y-183857142D02*
X190857142Y-180857142D01*
X190857142Y-182285714D02*
X192571428Y-182285714D01*
X192571428Y-183857142D02*
X192571428Y-180857142D01*
X193857142Y-183000000D02*
X195285714Y-183000000D01*
X193571428Y-183857142D02*
X194571428Y-180857142D01*
X195571428Y-183857142D01*
X196142857Y-180857142D02*
X197857142Y-180857142D01*
X197000000Y-183857142D02*
X197000000Y-180857142D01*
X202714285Y-183857142D02*
X201000000Y-183857142D01*
X201857142Y-183857142D02*
X201857142Y-180857142D01*
X201571428Y-181285714D01*
X201285714Y-181571428D01*
X201000000Y-181714285D01*
X204000000Y-183571428D02*
X204142857Y-183714285D01*
X204000000Y-183857142D01*
X203857142Y-183714285D01*
X204000000Y-183571428D01*
X204000000Y-183857142D01*
X206000000Y-180857142D02*
X206285714Y-180857142D01*
X206571428Y-181000000D01*
X206714285Y-181142857D01*
X206857142Y-181428571D01*
X207000000Y-182000000D01*
X207000000Y-182714285D01*
X206857142Y-183285714D01*
X206714285Y-183571428D01*
X206571428Y-183714285D01*
X206285714Y-183857142D01*
X206000000Y-183857142D01*
X205714285Y-183714285D01*
X205571428Y-183571428D01*
X205428571Y-183285714D01*
X205285714Y-182714285D01*
X205285714Y-182000000D01*
X205428571Y-181428571D01*
X205571428Y-181142857D01*
X205714285Y-181000000D01*
X206000000Y-180857142D01*
D11*
X125157142Y-161452380D02*
X124823809Y-160976190D01*
X124585714Y-161452380D02*
X124585714Y-160452380D01*
X124966666Y-160452380D01*
X125061904Y-160500000D01*
X125109523Y-160547619D01*
X125157142Y-160642857D01*
X125157142Y-160785714D01*
X125109523Y-160880952D01*
X125061904Y-160928571D01*
X124966666Y-160976190D01*
X124585714Y-160976190D01*
X126109523Y-161452380D02*
X125538095Y-161452380D01*
X125823809Y-161452380D02*
X125823809Y-160452380D01*
X125728571Y-160595238D01*
X125633333Y-160690476D01*
X125538095Y-160738095D01*
X126966666Y-160452380D02*
X126776190Y-160452380D01*
X126680952Y-160500000D01*
X126633333Y-160547619D01*
X126538095Y-160690476D01*
X126490476Y-160880952D01*
X126490476Y-161261904D01*
X126538095Y-161357142D01*
X126585714Y-161404761D01*
X126680952Y-161452380D01*
X126871428Y-161452380D01*
X126966666Y-161404761D01*
X127014285Y-161357142D01*
X127061904Y-161261904D01*
X127061904Y-161023809D01*
X127014285Y-160928571D01*
X126966666Y-160880952D01*
X126871428Y-160833333D01*
X126680952Y-160833333D01*
X126585714Y-160880952D01*
X126538095Y-160928571D01*
X126490476Y-161023809D01*
X125433333Y-147252380D02*
X125100000Y-146776190D01*
X124861904Y-147252380D02*
X124861904Y-146252380D01*
X125242857Y-146252380D01*
X125338095Y-146300000D01*
X125385714Y-146347619D01*
X125433333Y-146442857D01*
X125433333Y-146585714D01*
X125385714Y-146680952D01*
X125338095Y-146728571D01*
X125242857Y-146776190D01*
X124861904Y-146776190D01*
X125766666Y-146252380D02*
X126385714Y-146252380D01*
X126052380Y-146633333D01*
X126195238Y-146633333D01*
X126290476Y-146680952D01*
X126338095Y-146728571D01*
X126385714Y-146823809D01*
X126385714Y-147061904D01*
X126338095Y-147157142D01*
X126290476Y-147204761D01*
X126195238Y-147252380D01*
X125909523Y-147252380D01*
X125814285Y-147204761D01*
X125766666Y-147157142D01*
X125733333Y-154752380D02*
X125400000Y-154276190D01*
X125161904Y-154752380D02*
X125161904Y-153752380D01*
X125542857Y-153752380D01*
X125638095Y-153800000D01*
X125685714Y-153847619D01*
X125733333Y-153942857D01*
X125733333Y-154085714D01*
X125685714Y-154180952D01*
X125638095Y-154228571D01*
X125542857Y-154276190D01*
X125161904Y-154276190D01*
X126685714Y-154752380D02*
X126114285Y-154752380D01*
X126400000Y-154752380D02*
X126400000Y-153752380D01*
X126304761Y-153895238D01*
X126209523Y-153990476D01*
X126114285Y-154038095D01*
X125257142Y-158052380D02*
X124923809Y-157576190D01*
X124685714Y-158052380D02*
X124685714Y-157052380D01*
X125066666Y-157052380D01*
X125161904Y-157100000D01*
X125209523Y-157147619D01*
X125257142Y-157242857D01*
X125257142Y-157385714D01*
X125209523Y-157480952D01*
X125161904Y-157528571D01*
X125066666Y-157576190D01*
X124685714Y-157576190D01*
X126209523Y-158052380D02*
X125638095Y-158052380D01*
X125923809Y-158052380D02*
X125923809Y-157052380D01*
X125828571Y-157195238D01*
X125733333Y-157290476D01*
X125638095Y-157338095D01*
X126542857Y-157052380D02*
X127161904Y-157052380D01*
X126828571Y-157433333D01*
X126971428Y-157433333D01*
X127066666Y-157480952D01*
X127114285Y-157528571D01*
X127161904Y-157623809D01*
X127161904Y-157861904D01*
X127114285Y-157957142D01*
X127066666Y-158004761D01*
X126971428Y-158052380D01*
X126685714Y-158052380D01*
X126590476Y-158004761D01*
X126542857Y-157957142D01*
X129433333Y-154752380D02*
X129100000Y-154276190D01*
X128861904Y-154752380D02*
X128861904Y-153752380D01*
X129242857Y-153752380D01*
X129338095Y-153800000D01*
X129385714Y-153847619D01*
X129433333Y-153942857D01*
X129433333Y-154085714D01*
X129385714Y-154180952D01*
X129338095Y-154228571D01*
X129242857Y-154276190D01*
X128861904Y-154276190D01*
X129814285Y-153847619D02*
X129861904Y-153800000D01*
X129957142Y-153752380D01*
X130195238Y-153752380D01*
X130290476Y-153800000D01*
X130338095Y-153847619D01*
X130385714Y-153942857D01*
X130385714Y-154038095D01*
X130338095Y-154180952D01*
X129766666Y-154752380D01*
X130385714Y-154752380D01*
X121180952Y-147252380D02*
X120704761Y-147252380D01*
X120704761Y-146252380D01*
X121514285Y-146728571D02*
X121847619Y-146728571D01*
X121990476Y-147252380D02*
X121514285Y-147252380D01*
X121514285Y-146252380D01*
X121990476Y-146252380D01*
X122419047Y-147252380D02*
X122419047Y-146252380D01*
X122657142Y-146252380D01*
X122800000Y-146300000D01*
X122895238Y-146395238D01*
X122942857Y-146490476D01*
X122990476Y-146680952D01*
X122990476Y-146823809D01*
X122942857Y-147014285D01*
X122895238Y-147109523D01*
X122800000Y-147204761D01*
X122657142Y-147252380D01*
X122419047Y-147252380D01*
X123371428Y-146347619D02*
X123419047Y-146300000D01*
X123514285Y-146252380D01*
X123752380Y-146252380D01*
X123847619Y-146300000D01*
X123895238Y-146347619D01*
X123942857Y-146442857D01*
X123942857Y-146538095D01*
X123895238Y-146680952D01*
X123323809Y-147252380D01*
X123942857Y-147252380D01*
X238590476Y-124852380D02*
X238590476Y-123852380D01*
X238923809Y-124566666D01*
X239257142Y-123852380D01*
X239257142Y-124852380D01*
X239733333Y-124852380D02*
X239733333Y-123852380D01*
X240304761Y-124852380D02*
X239876190Y-124280952D01*
X240304761Y-123852380D02*
X239733333Y-124423809D01*
X241161904Y-124185714D02*
X241161904Y-124852380D01*
X240923809Y-123804761D02*
X240685714Y-124519047D01*
X241304761Y-124519047D01*
X128957142Y-158052380D02*
X128623809Y-157576190D01*
X128385714Y-158052380D02*
X128385714Y-157052380D01*
X128766666Y-157052380D01*
X128861904Y-157100000D01*
X128909523Y-157147619D01*
X128957142Y-157242857D01*
X128957142Y-157385714D01*
X128909523Y-157480952D01*
X128861904Y-157528571D01*
X128766666Y-157576190D01*
X128385714Y-157576190D01*
X129909523Y-158052380D02*
X129338095Y-158052380D01*
X129623809Y-158052380D02*
X129623809Y-157052380D01*
X129528571Y-157195238D01*
X129433333Y-157290476D01*
X129338095Y-157338095D01*
X130766666Y-157385714D02*
X130766666Y-158052380D01*
X130528571Y-157004761D02*
X130290476Y-157719047D01*
X130909523Y-157719047D01*
X121280952Y-157952380D02*
X120804761Y-157952380D01*
X120804761Y-156952380D01*
X121614285Y-157428571D02*
X121947619Y-157428571D01*
X122090476Y-157952380D02*
X121614285Y-157952380D01*
X121614285Y-156952380D01*
X122090476Y-156952380D01*
X122519047Y-157952380D02*
X122519047Y-156952380D01*
X122757142Y-156952380D01*
X122900000Y-157000000D01*
X122995238Y-157095238D01*
X123042857Y-157190476D01*
X123090476Y-157380952D01*
X123090476Y-157523809D01*
X123042857Y-157714285D01*
X122995238Y-157809523D01*
X122900000Y-157904761D01*
X122757142Y-157952380D01*
X122519047Y-157952380D01*
X123995238Y-156952380D02*
X123519047Y-156952380D01*
X123471428Y-157428571D01*
X123519047Y-157380952D01*
X123614285Y-157333333D01*
X123852380Y-157333333D01*
X123947619Y-157380952D01*
X123995238Y-157428571D01*
X124042857Y-157523809D01*
X124042857Y-157761904D01*
X123995238Y-157857142D01*
X123947619Y-157904761D01*
X123852380Y-157952380D01*
X123614285Y-157952380D01*
X123519047Y-157904761D01*
X123471428Y-157857142D01*
X121180952Y-142652380D02*
X120704761Y-142652380D01*
X120704761Y-141652380D01*
X121514285Y-142128571D02*
X121847619Y-142128571D01*
X121990476Y-142652380D02*
X121514285Y-142652380D01*
X121514285Y-141652380D01*
X121990476Y-141652380D01*
X122419047Y-142652380D02*
X122419047Y-141652380D01*
X122657142Y-141652380D01*
X122800000Y-141700000D01*
X122895238Y-141795238D01*
X122942857Y-141890476D01*
X122990476Y-142080952D01*
X122990476Y-142223809D01*
X122942857Y-142414285D01*
X122895238Y-142509523D01*
X122800000Y-142604761D01*
X122657142Y-142652380D01*
X122419047Y-142652380D01*
X123323809Y-141652380D02*
X123942857Y-141652380D01*
X123609523Y-142033333D01*
X123752380Y-142033333D01*
X123847619Y-142080952D01*
X123895238Y-142128571D01*
X123942857Y-142223809D01*
X123942857Y-142461904D01*
X123895238Y-142557142D01*
X123847619Y-142604761D01*
X123752380Y-142652380D01*
X123466666Y-142652380D01*
X123371428Y-142604761D01*
X123323809Y-142557142D01*
X121280952Y-154352380D02*
X120804761Y-154352380D01*
X120804761Y-153352380D01*
X121614285Y-153828571D02*
X121947619Y-153828571D01*
X122090476Y-154352380D02*
X121614285Y-154352380D01*
X121614285Y-153352380D01*
X122090476Y-153352380D01*
X122519047Y-154352380D02*
X122519047Y-153352380D01*
X122757142Y-153352380D01*
X122900000Y-153400000D01*
X122995238Y-153495238D01*
X123042857Y-153590476D01*
X123090476Y-153780952D01*
X123090476Y-153923809D01*
X123042857Y-154114285D01*
X122995238Y-154209523D01*
X122900000Y-154304761D01*
X122757142Y-154352380D01*
X122519047Y-154352380D01*
X124042857Y-154352380D02*
X123471428Y-154352380D01*
X123757142Y-154352380D02*
X123757142Y-153352380D01*
X123661904Y-153495238D01*
X123566666Y-153590476D01*
X123471428Y-153638095D01*
X152590476Y-107352380D02*
X152590476Y-106352380D01*
X152923809Y-107066666D01*
X153257142Y-106352380D01*
X153257142Y-107352380D01*
X153733333Y-107352380D02*
X153733333Y-106352380D01*
X154304761Y-107352380D02*
X153876190Y-106780952D01*
X154304761Y-106352380D02*
X153733333Y-106923809D01*
X154685714Y-106447619D02*
X154733333Y-106400000D01*
X154828571Y-106352380D01*
X155066666Y-106352380D01*
X155161904Y-106400000D01*
X155209523Y-106447619D01*
X155257142Y-106542857D01*
X155257142Y-106638095D01*
X155209523Y-106780952D01*
X154638095Y-107352380D01*
X155257142Y-107352380D01*
X129752380Y-175242857D02*
X128752380Y-175242857D01*
X129752380Y-174671428D01*
X128752380Y-174671428D01*
X128752380Y-174338095D02*
X128752380Y-173766666D01*
X129752380Y-174052380D02*
X128752380Y-174052380D01*
X129752380Y-172909523D02*
X129752380Y-173480952D01*
X129752380Y-173195238D02*
X128752380Y-173195238D01*
X128895238Y-173290476D01*
X128990476Y-173385714D01*
X129038095Y-173480952D01*
X124957142Y-142752380D02*
X124623809Y-142276190D01*
X124385714Y-142752380D02*
X124385714Y-141752380D01*
X124766666Y-141752380D01*
X124861904Y-141800000D01*
X124909523Y-141847619D01*
X124957142Y-141942857D01*
X124957142Y-142085714D01*
X124909523Y-142180952D01*
X124861904Y-142228571D01*
X124766666Y-142276190D01*
X124385714Y-142276190D01*
X125909523Y-142752380D02*
X125338095Y-142752380D01*
X125623809Y-142752380D02*
X125623809Y-141752380D01*
X125528571Y-141895238D01*
X125433333Y-141990476D01*
X125338095Y-142038095D01*
X126528571Y-141752380D02*
X126623809Y-141752380D01*
X126719047Y-141800000D01*
X126766666Y-141847619D01*
X126814285Y-141942857D01*
X126861904Y-142133333D01*
X126861904Y-142371428D01*
X126814285Y-142561904D01*
X126766666Y-142657142D01*
X126719047Y-142704761D01*
X126623809Y-142752380D01*
X126528571Y-142752380D01*
X126433333Y-142704761D01*
X126385714Y-142657142D01*
X126338095Y-142561904D01*
X126290476Y-142371428D01*
X126290476Y-142133333D01*
X126338095Y-141942857D01*
X126385714Y-141847619D01*
X126433333Y-141800000D01*
X126528571Y-141752380D01*
X121280952Y-161552380D02*
X120804761Y-161552380D01*
X120804761Y-160552380D01*
X121614285Y-161028571D02*
X121947619Y-161028571D01*
X122090476Y-161552380D02*
X121614285Y-161552380D01*
X121614285Y-160552380D01*
X122090476Y-160552380D01*
X122519047Y-161552380D02*
X122519047Y-160552380D01*
X122757142Y-160552380D01*
X122900000Y-160600000D01*
X122995238Y-160695238D01*
X123042857Y-160790476D01*
X123090476Y-160980952D01*
X123090476Y-161123809D01*
X123042857Y-161314285D01*
X122995238Y-161409523D01*
X122900000Y-161504761D01*
X122757142Y-161552380D01*
X122519047Y-161552380D01*
X123947619Y-160885714D02*
X123947619Y-161552380D01*
X123709523Y-160504761D02*
X123471428Y-161219047D01*
X124090476Y-161219047D01*
X224490476Y-168852380D02*
X224490476Y-167852380D01*
X224823809Y-168566666D01*
X225157142Y-167852380D01*
X225157142Y-168852380D01*
X225633333Y-168852380D02*
X225633333Y-167852380D01*
X226204761Y-168852380D02*
X225776190Y-168280952D01*
X226204761Y-167852380D02*
X225633333Y-168423809D01*
X227061904Y-167852380D02*
X226871428Y-167852380D01*
X226776190Y-167900000D01*
X226728571Y-167947619D01*
X226633333Y-168090476D01*
X226585714Y-168280952D01*
X226585714Y-168661904D01*
X226633333Y-168757142D01*
X226680952Y-168804761D01*
X226776190Y-168852380D01*
X226966666Y-168852380D01*
X227061904Y-168804761D01*
X227109523Y-168757142D01*
X227157142Y-168661904D01*
X227157142Y-168423809D01*
X227109523Y-168328571D01*
X227061904Y-168280952D01*
X226966666Y-168233333D01*
X226776190Y-168233333D01*
X226680952Y-168280952D01*
X226633333Y-168328571D01*
X226585714Y-168423809D01*
D12*
X125445276Y-159077500D02*
X125954724Y-159077500D01*
X125445276Y-160122500D02*
X125954724Y-160122500D01*
X125345276Y-144777500D02*
X125854724Y-144777500D01*
X125345276Y-145822500D02*
X125854724Y-145822500D01*
X126127064Y-153435000D02*
X125672936Y-153435000D01*
X126127064Y-151965000D02*
X125672936Y-151965000D01*
X126127064Y-155265000D02*
X125672936Y-155265000D01*
X126127064Y-156735000D02*
X125672936Y-156735000D01*
X129827064Y-153435000D02*
X129372936Y-153435000D01*
X129827064Y-151965000D02*
X129372936Y-151965000D01*
X121400000Y-146035000D02*
X123860000Y-146035000D01*
X123860000Y-144565000D02*
X121400000Y-144565000D01*
X123860000Y-146035000D02*
X123860000Y-144565000D01*
X129827064Y-155265000D02*
X129372936Y-155265000D01*
X129827064Y-156735000D02*
X129372936Y-156735000D01*
X123960000Y-156735000D02*
X123960000Y-155265000D01*
X121500000Y-156735000D02*
X123960000Y-156735000D01*
X123960000Y-155265000D02*
X121500000Y-155265000D01*
X121400000Y-144435000D02*
X123860000Y-144435000D01*
X123860000Y-142965000D02*
X121400000Y-142965000D01*
X123860000Y-144435000D02*
X123860000Y-142965000D01*
X121500000Y-153135000D02*
X123960000Y-153135000D01*
X123960000Y-153135000D02*
X123960000Y-151665000D01*
X123960000Y-151665000D02*
X121500000Y-151665000D01*
X125345276Y-143177500D02*
X125854724Y-143177500D01*
X125345276Y-144222500D02*
X125854724Y-144222500D01*
X121500000Y-160335000D02*
X123960000Y-160335000D01*
X123960000Y-160335000D02*
X123960000Y-158865000D01*
X123960000Y-158865000D02*
X121500000Y-158865000D01*
M02*
