%TF.GenerationSoftware,KiCad,Pcbnew,(6.0.1)*%
%TF.CreationDate,2022-01-31T09:22:11+01:00*%
%TF.ProjectId,GRIPPER_TWO_ADVANCED_CONECTION_BOARD,47524950-5045-4525-9f54-574f5f414456,rev?*%
%TF.SameCoordinates,Original*%
%TF.FileFunction,Copper,L1,Top*%
%TF.FilePolarity,Positive*%
%FSLAX46Y46*%
G04 Gerber Fmt 4.6, Leading zero omitted, Abs format (unit mm)*
G04 Created by KiCad (PCBNEW (6.0.1)) date 2022-01-31 09:22:11*
%MOMM*%
%LPD*%
G01*
G04 APERTURE LIST*
G04 Aperture macros list*
%AMOutline5P*
0 Free polygon, 5 corners , with rotation*
0 The origin of the aperture is its center*
0 number of corners: always 5*
0 $1 to $10 corner X, Y*
0 $11 Rotation angle, in degrees counterclockwise*
0 create outline with 5 corners*
4,1,5,$1,$2,$3,$4,$5,$6,$7,$8,$9,$10,$1,$2,$11*%
%AMOutline6P*
0 Free polygon, 6 corners , with rotation*
0 The origin of the aperture is its center*
0 number of corners: always 6*
0 $1 to $12 corner X, Y*
0 $13 Rotation angle, in degrees counterclockwise*
0 create outline with 6 corners*
4,1,6,$1,$2,$3,$4,$5,$6,$7,$8,$9,$10,$11,$12,$1,$2,$13*%
%AMOutline7P*
0 Free polygon, 7 corners , with rotation*
0 The origin of the aperture is its center*
0 number of corners: always 7*
0 $1 to $14 corner X, Y*
0 $15 Rotation angle, in degrees counterclockwise*
0 create outline with 7 corners*
4,1,7,$1,$2,$3,$4,$5,$6,$7,$8,$9,$10,$11,$12,$13,$14,$1,$2,$15*%
%AMOutline8P*
0 Free polygon, 8 corners , with rotation*
0 The origin of the aperture is its center*
0 number of corners: always 8*
0 $1 to $16 corner X, Y*
0 $17 Rotation angle, in degrees counterclockwise*
0 create outline with 8 corners*
4,1,8,$1,$2,$3,$4,$5,$6,$7,$8,$9,$10,$11,$12,$13,$14,$15,$16,$1,$2,$17*%
G04 Aperture macros list end*
%TA.AperFunction,SMDPad,CuDef*%
%ADD10R,0.800000X2.000000*%
%TD*%
%TA.AperFunction,ComponentPad*%
%ADD11R,1.700000X1.700000*%
%TD*%
%TA.AperFunction,ComponentPad*%
%ADD12O,1.700000X1.700000*%
%TD*%
%TA.AperFunction,ComponentPad*%
%ADD13Outline8P,-1.079500X0.539750X-0.539750X1.079500X0.539750X1.079500X1.079500X0.539750X1.079500X-0.539750X0.539750X-1.079500X-0.539750X-1.079500X-1.079500X-0.539750X0.000000*%
%TD*%
%TA.AperFunction,SMDPad,CuDef*%
%ADD14R,1.000000X1.000000*%
%TD*%
%TA.AperFunction,ViaPad*%
%ADD15C,0.800000*%
%TD*%
%TA.AperFunction,Conductor*%
%ADD16C,1.270000*%
%TD*%
%TA.AperFunction,Conductor*%
%ADD17C,0.800000*%
%TD*%
%TA.AperFunction,Conductor*%
%ADD18C,0.200000*%
%TD*%
%TA.AperFunction,Conductor*%
%ADD19C,0.250000*%
%TD*%
G04 APERTURE END LIST*
D10*
%TO.P,MOTOR_2,1,P*%
%TO.N,/MOTOR_2*%
X151300000Y-60300000D03*
%TD*%
D11*
%TO.P,J1,1,Pin_1*%
%TO.N,/RX*%
X169275000Y-149000000D03*
D12*
%TO.P,J1,2,Pin_2*%
%TO.N,/TX*%
X166735000Y-149000000D03*
%TD*%
D13*
%TO.P,LSP16,MP,MP*%
%TO.N,/RS485-*%
X145502000Y-126659900D03*
%TD*%
D10*
%TO.P,12V1,1,P*%
%TO.N,/12V*%
X172300000Y-60300000D03*
%TD*%
D14*
%TO.P,TP7,1,1*%
%TO.N,GNDPWR*%
X155800000Y-149000000D03*
%TD*%
%TO.P,TP4,1,1*%
%TO.N,/GND*%
X160600000Y-149000000D03*
%TD*%
%TO.P,TP2,1,1*%
%TO.N,/SAFETY*%
X163800000Y-149000000D03*
%TD*%
D10*
%TO.P,RS485+1,1,P*%
%TO.N,/RS485+*%
X157300000Y-60300000D03*
%TD*%
D14*
%TO.P,TP5,1,1*%
%TO.N,/CAN+*%
X159000000Y-149000000D03*
%TD*%
D10*
%TO.P,MOTOR_1,1,P*%
%TO.N,/MOTOR_1*%
X148300000Y-60300000D03*
%TD*%
%TO.P,RS485-1,1,P*%
%TO.N,/RS485-*%
X160300000Y-60300000D03*
%TD*%
D13*
%TO.P,LSP15,MP,MP*%
%TO.N,/RS485+*%
X145502000Y-82463900D03*
%TD*%
%TO.P,LSP10,MP,MP*%
%TO.N,/MOTOR_1*%
X145502000Y-77383900D03*
%TD*%
D10*
%TO.P,RX1,1,P*%
%TO.N,/RX*%
X181300000Y-60300000D03*
%TD*%
D13*
%TO.P,LSP14,MP,MP*%
%TO.N,/MOTOR_2*%
X145502000Y-124119900D03*
%TD*%
%TO.P,LSP13,MP,MP*%
%TO.N,GNDPWR*%
X145502000Y-121579900D03*
%TD*%
%TO.P,LSP11,MP,MP*%
%TO.N,/RS485+*%
X145502000Y-129199900D03*
%TD*%
D10*
%TO.P,CAN_L1,1,P*%
%TO.N,/CAN-*%
X163300000Y-60300000D03*
%TD*%
%TO.P,PGND1,1,P*%
%TO.N,GNDPWR*%
X145300000Y-60300000D03*
%TD*%
%TO.P,CAN_H1,1,P*%
%TO.N,/CAN+*%
X166300000Y-60300000D03*
%TD*%
D14*
%TO.P,TP1,1,1*%
%TO.N,/24V*%
X154200000Y-149000000D03*
%TD*%
%TO.P,TP6,1,1*%
%TO.N,/CAN-*%
X157400000Y-149000000D03*
%TD*%
D13*
%TO.P,LSP12,MP,MP*%
%TO.N,/RS485-*%
X145502000Y-79923900D03*
%TD*%
D10*
%TO.P,12V_GND1,1,P*%
%TO.N,/GND*%
X169300000Y-60300000D03*
%TD*%
D14*
%TO.P,TP3,1,1*%
%TO.N,/12V*%
X162200000Y-149000000D03*
%TD*%
D10*
%TO.P,TX1,1,P*%
%TO.N,/TX*%
X178300000Y-60300000D03*
%TD*%
%TO.P,24V1,1,P*%
%TO.N,/24V*%
X142300000Y-60300000D03*
%TD*%
D13*
%TO.P,LSP9,MP,MP*%
%TO.N,GNDPWR*%
X145502000Y-74843900D03*
%TD*%
D10*
%TO.P,SAFETY1,1,P*%
%TO.N,/SAFETY*%
X175300000Y-60300000D03*
%TD*%
D15*
%TO.N,/12V*%
X172300000Y-62200000D03*
%TO.N,/CAN+*%
X165902501Y-62202501D03*
%TO.N,/CAN-*%
X163747500Y-62252500D03*
%TO.N,/RS485+*%
X157847499Y-62352501D03*
%TO.N,/RS485-*%
X159852500Y-62252500D03*
%TO.N,/MOTOR_1*%
X148300000Y-62000000D03*
%TO.N,/MOTOR_2*%
X151300000Y-62000000D03*
%TO.N,/24V*%
X142300000Y-61900000D03*
%TO.N,/SAFETY*%
X175300000Y-62200000D03*
%TO.N,/TX*%
X178300000Y-62600000D03*
%TO.N,/RX*%
X181300000Y-62700000D03*
%TO.N,/GND*%
X169300000Y-62000000D03*
%TO.N,GNDPWR*%
X145300000Y-61900000D03*
%TD*%
D16*
%TO.N,/12V*%
X172300000Y-63000000D02*
X168600000Y-66700000D01*
X162200000Y-144900000D02*
X162200000Y-149000000D01*
X172300000Y-62200000D02*
X172300000Y-63000000D01*
X168600000Y-66700000D02*
X168600000Y-138500000D01*
D17*
X172300000Y-62200000D02*
X172300000Y-60300000D01*
D16*
X168600000Y-138500000D02*
X162200000Y-144900000D01*
D18*
%TO.N,/CAN+*%
X166300000Y-61805001D02*
X165902501Y-62202501D01*
X158351920Y-70948080D02*
X158351920Y-146951920D01*
X166300000Y-59900000D02*
X166300000Y-61805001D01*
X159000000Y-147600000D02*
X159000000Y-149000000D01*
X165902501Y-63397499D02*
X158351920Y-70948080D01*
X165902501Y-62202501D02*
X165902501Y-63397499D01*
X158351920Y-146951920D02*
X159000000Y-147600000D01*
%TO.N,/CAN-*%
X157355466Y-75800000D02*
X157700000Y-75800000D01*
X163747500Y-62252500D02*
X163747500Y-65054810D01*
X163300000Y-59900000D02*
X163300000Y-61805001D01*
X157700000Y-72800000D02*
X157355466Y-72800000D01*
X163747500Y-65054810D02*
X158000000Y-70802310D01*
X157355466Y-74600000D02*
X157700000Y-74600000D01*
X158000000Y-147000000D02*
X157400000Y-147600000D01*
X157700000Y-74000000D02*
X157355466Y-74000000D01*
X158000000Y-76100000D02*
X158000000Y-78550000D01*
X163300000Y-61805001D02*
X163747500Y-62252500D01*
X157400000Y-147600000D02*
X157400000Y-149000000D01*
X157700000Y-75200000D02*
X157355466Y-75200000D01*
X158000000Y-70802310D02*
X158000000Y-71300000D01*
X157355466Y-72200000D02*
X157700000Y-72200000D01*
X157355466Y-73400000D02*
X157700000Y-73400000D01*
X157700000Y-71600000D02*
X157355466Y-71600000D01*
X158000000Y-78550000D02*
X158000000Y-147000000D01*
X158000000Y-76100000D02*
G75*
G03*
X157700000Y-75800000I-300000J0D01*
G01*
X157055466Y-73100000D02*
G75*
G02*
X157355466Y-72800000I300000J0D01*
G01*
X158000000Y-73700000D02*
G75*
G03*
X157700000Y-73400000I-300000J0D01*
G01*
X157355466Y-72200000D02*
G75*
G02*
X157055466Y-71900000I0J300000D01*
G01*
X157355466Y-75800000D02*
G75*
G02*
X157055466Y-75500000I0J300000D01*
G01*
X157700000Y-71600000D02*
G75*
G03*
X158000000Y-71300000I0J300000D01*
G01*
X157700000Y-72800000D02*
G75*
G03*
X158000000Y-72500000I0J300000D01*
G01*
X157700000Y-74000000D02*
G75*
G03*
X158000000Y-73700000I0J300000D01*
G01*
X157355466Y-74600000D02*
G75*
G02*
X157055466Y-74300000I0J300000D01*
G01*
X157055466Y-71900000D02*
G75*
G02*
X157355466Y-71600000I300000J0D01*
G01*
X157700000Y-75200000D02*
G75*
G03*
X158000000Y-74900000I0J300000D01*
G01*
X158000000Y-74900000D02*
G75*
G03*
X157700000Y-74600000I-300000J0D01*
G01*
X157355466Y-73400000D02*
G75*
G02*
X157055466Y-73100000I0J300000D01*
G01*
X158000000Y-72500000D02*
G75*
G03*
X157700000Y-72200000I-300000J0D01*
G01*
X157055466Y-74300000D02*
G75*
G02*
X157355466Y-74000000I300000J0D01*
G01*
X157055466Y-75500000D02*
G75*
G02*
X157355466Y-75200000I300000J0D01*
G01*
%TO.N,/RS485+*%
X157300000Y-61800000D02*
X157300000Y-60300000D01*
X157847499Y-62352501D02*
X157847499Y-62347499D01*
X157847499Y-62347499D02*
X157300000Y-61800000D01*
%TO.N,/RS485-*%
X160300000Y-61800000D02*
X160300000Y-60300000D01*
X159852500Y-62252500D02*
X159852500Y-62247500D01*
X159852500Y-62247500D02*
X160300000Y-61800000D01*
D16*
%TO.N,/MOTOR_1*%
X148300000Y-75000000D02*
X145916100Y-77383900D01*
X148300000Y-62000000D02*
X148300000Y-75000000D01*
D17*
X148300000Y-62000000D02*
X148300000Y-60300000D01*
D16*
X145916100Y-77383900D02*
X145552800Y-77383900D01*
D17*
%TO.N,/MOTOR_2*%
X151300000Y-60300000D02*
X151300000Y-62000000D01*
D16*
X151300000Y-81400000D02*
X145800000Y-86900000D01*
X145800000Y-103600000D02*
X147500000Y-105300000D01*
X147500000Y-105300000D02*
X147500000Y-122700000D01*
X147500000Y-122700000D02*
X146080100Y-124119900D01*
X146080100Y-124119900D02*
X145451200Y-124119900D01*
X151300000Y-62000000D02*
X151300000Y-81400000D01*
X145800000Y-86900000D02*
X145800000Y-103600000D01*
%TO.N,/24V*%
X140100000Y-65300000D02*
X140100000Y-131100000D01*
X142300000Y-63100000D02*
X140100000Y-65300000D01*
X154200000Y-145200000D02*
X154200000Y-149000000D01*
X140100000Y-131100000D02*
X154200000Y-145200000D01*
X142300000Y-61900000D02*
X142300000Y-63100000D01*
D17*
X142300000Y-60300000D02*
X142300000Y-61900000D01*
%TO.N,/SAFETY*%
X175300000Y-60300000D02*
X175300000Y-62200000D01*
D16*
X175300000Y-65400000D02*
X170200000Y-70500000D01*
X163800000Y-145605449D02*
X163800000Y-149000000D01*
D17*
X175300000Y-63200000D02*
X175400000Y-63300000D01*
D16*
X175300000Y-62200000D02*
X175300000Y-65400000D01*
D17*
X175300000Y-62200000D02*
X175300000Y-63200000D01*
D16*
X170200000Y-70500000D02*
X170200000Y-139205449D01*
X170200000Y-139205449D02*
X163800000Y-145605449D01*
D19*
%TO.N,/TX*%
X178300000Y-64000000D02*
X171300000Y-71000000D01*
X171298080Y-76401920D02*
X171298080Y-140801920D01*
X178300000Y-59900000D02*
X178300000Y-62600000D01*
X166735000Y-145365000D02*
X166735000Y-149000000D01*
X171300000Y-76400000D02*
X171298080Y-76401920D01*
X171300000Y-71000000D02*
X171300000Y-76400000D01*
X171298080Y-140801920D02*
X166735000Y-145365000D01*
X178300000Y-62600000D02*
X178300000Y-64000000D01*
%TO.N,/RX*%
X171800000Y-72200000D02*
X171800000Y-141000000D01*
X181300000Y-59800000D02*
X181300000Y-62700000D01*
X171800000Y-141000000D02*
X169275000Y-143525000D01*
X181300000Y-62700000D02*
X171800000Y-72200000D01*
X169275000Y-143525000D02*
X169275000Y-149000000D01*
D16*
%TO.N,/GND*%
X169300000Y-62000000D02*
X169300000Y-62400000D01*
X166911920Y-137888080D02*
X160600000Y-144200000D01*
X169300000Y-62400000D02*
X166911920Y-64788080D01*
D17*
X169300000Y-60300000D02*
X169300000Y-62000000D01*
D16*
X160600000Y-144200000D02*
X160600000Y-149000000D01*
X166911920Y-64788080D02*
X166911920Y-137888080D01*
%TO.N,GNDPWR*%
X141700000Y-130300000D02*
X155800000Y-144400000D01*
X145502000Y-74843900D02*
X144956100Y-74843900D01*
X143420100Y-121579900D02*
X145502000Y-121579900D01*
X155800000Y-144400000D02*
X155800000Y-149000000D01*
X145300000Y-74641900D02*
X145502000Y-74843900D01*
X141700000Y-123300000D02*
X143420100Y-121579900D01*
X141700000Y-123600000D02*
X141700000Y-123300000D01*
X141700000Y-123600000D02*
X141700000Y-130300000D01*
X144956100Y-74843900D02*
X141700000Y-78100000D01*
X141700000Y-78100000D02*
X141700000Y-123600000D01*
X145451200Y-121451200D02*
X145451200Y-121579900D01*
D17*
X145300000Y-60300000D02*
X145300000Y-61900000D01*
D16*
X145300000Y-61900000D02*
X145300000Y-74641900D01*
%TD*%
M02*
