%TF.GenerationSoftware,KiCad,Pcbnew,(6.0.1)*%
%TF.CreationDate,2022-01-31T09:22:11+01:00*%
%TF.ProjectId,GRIPPER_TWO_ADVANCED_CONECTION_BOARD,47524950-5045-4525-9f54-574f5f414456,rev?*%
%TF.SameCoordinates,Original*%
%TF.FileFunction,Profile,NP*%
%FSLAX46Y46*%
G04 Gerber Fmt 4.6, Leading zero omitted, Abs format (unit mm)*
G04 Created by KiCad (PCBNEW (6.0.1)) date 2022-01-31 09:22:11*
%MOMM*%
%LPD*%
G01*
G04 APERTURE LIST*
%TA.AperFunction,Profile*%
%ADD10C,0.050000*%
%TD*%
%TA.AperFunction,Profile*%
%ADD11C,0.100000*%
%TD*%
G04 APERTURE END LIST*
D10*
X157800000Y-60811100D02*
X159800000Y-60811100D01*
X148796400Y-59241100D02*
X147796400Y-59241100D01*
X169800000Y-59230000D02*
X168800000Y-59230000D01*
X157800000Y-59241100D02*
X156800000Y-59241100D01*
X174803600Y-60811100D02*
X172803600Y-60811100D01*
X156800000Y-59241100D02*
X156800000Y-60811100D01*
X172803600Y-59241100D02*
X171803600Y-59241100D01*
X180807200Y-60811100D02*
X178803600Y-60811100D01*
X175803600Y-59241100D02*
X174803600Y-59241100D01*
X141796400Y-59241100D02*
X142796400Y-59241100D01*
X145796400Y-59241100D02*
X144796400Y-59241100D01*
X175803600Y-60811100D02*
X175803600Y-59241100D01*
X140300000Y-154311100D02*
X140296400Y-144622200D01*
X142796400Y-60811100D02*
X144796400Y-60811100D01*
X181807200Y-60811100D02*
X181807200Y-59241100D01*
X163800000Y-59241100D02*
X162800000Y-59241100D01*
X172803600Y-60811100D02*
X172803600Y-59241100D01*
X151800000Y-60811100D02*
X151800000Y-59241100D01*
X177800000Y-60811100D02*
X175803600Y-60811100D01*
X163800000Y-60811100D02*
X163800000Y-59241100D01*
X160800000Y-60811100D02*
X162800000Y-60811100D01*
X165803600Y-59241100D02*
X165803600Y-60811100D01*
X147796400Y-59241100D02*
X147796400Y-60811100D01*
X183807200Y-60811100D02*
X183807200Y-63800000D01*
X172296400Y-73000000D02*
X172296400Y-154311100D01*
X141796400Y-60811100D02*
X139296400Y-60811100D01*
X166803600Y-60811100D02*
X168800000Y-60811100D01*
X166803600Y-59241100D02*
X165803600Y-59241100D01*
X144796400Y-59241100D02*
X144796400Y-60811100D01*
X183807200Y-60811100D02*
X181807200Y-60811100D01*
X177800000Y-59241100D02*
X177800000Y-60811100D01*
X142796400Y-60811100D02*
X142796400Y-59241100D01*
X168800000Y-59230000D02*
X168800000Y-60811100D01*
X181807200Y-59241100D02*
X180807200Y-59241100D01*
X178803600Y-59241100D02*
X177800000Y-59241100D01*
X162800000Y-59241100D02*
X162800000Y-60811100D01*
X159800000Y-59241100D02*
X159800000Y-60811100D01*
X140296400Y-144622200D02*
X139296400Y-143561100D01*
D11*
X151096400Y-100811100D02*
G75*
G03*
X151096400Y-100811100I-1300000J0D01*
G01*
D10*
X171803600Y-60811100D02*
X169800000Y-60811100D01*
X145796400Y-60811100D02*
X147796400Y-60811100D01*
X145796400Y-60811100D02*
X145796400Y-59241100D01*
X140300000Y-154311100D02*
X172296400Y-154311100D01*
X141796400Y-59241100D02*
X141796400Y-60811100D01*
X139296400Y-60811100D02*
X139296400Y-143561100D01*
X166803600Y-60811100D02*
X166803600Y-59241100D01*
X148796400Y-60811100D02*
X148796400Y-59241100D01*
X180807200Y-59241100D02*
X180807200Y-60811100D01*
X183807200Y-63800000D02*
X172296400Y-73000000D01*
D11*
X163096400Y-76811100D02*
G75*
G03*
X163096400Y-76811100I-1300000J0D01*
G01*
D10*
X151800000Y-60811100D02*
X156800000Y-60811100D01*
X160800000Y-59241100D02*
X159800000Y-59241100D01*
D11*
X151096400Y-147561100D02*
G75*
G03*
X151096400Y-147561100I-1300000J0D01*
G01*
D10*
X148796400Y-60811100D02*
X150800000Y-60811100D01*
X160800000Y-60811100D02*
X160800000Y-59241100D01*
X151800000Y-59241100D02*
X150800000Y-59241100D01*
X171803600Y-59241100D02*
X171803600Y-60811100D01*
D11*
X163096400Y-123561100D02*
G75*
G03*
X163096400Y-123561100I-1300000J0D01*
G01*
D10*
X169800000Y-60811100D02*
X169800000Y-59230000D01*
X163800000Y-60811100D02*
X165803600Y-60811100D01*
X174803600Y-59241100D02*
X174803600Y-60811100D01*
X178803600Y-60811100D02*
X178803600Y-59241100D01*
X157800000Y-60811100D02*
X157800000Y-59241100D01*
X150800000Y-59241100D02*
X150800000Y-60811100D01*
M02*
