M48
; DRILL file {KiCad (6.0.1)} date Mon Jan 31 09:22:15 2022
; FORMAT={-:-/ absolute / inch / decimal}
; #@! TF.CreationDate,2022-01-31T09:22:15+01:00
; #@! TF.GenerationSoftware,Kicad,Pcbnew,(6.0.1)
; #@! TF.FileFunction,Plated,1,2,PTH
FMAT,2
INCH
; #@! TA.AperFunction,Plated,PTH,ViaDrill
T1C0.0157
; #@! TA.AperFunction,Plated,PTH,ComponentDrill
T2C0.0394
; #@! TA.AperFunction,Plated,PTH,ComponentDrill
T3C0.0440
%
G90
G05
T1
X5.6024Y-2.437
X5.7205Y-2.437
X5.8386Y-2.4409
X5.9567Y-2.4409
X6.2145Y-2.4548
X6.2934Y-2.4509
X6.4468Y-2.4509
X6.5316Y-2.4489
X6.6654Y-2.4409
X6.7835Y-2.4488
X6.9016Y-2.4488
X7.0197Y-2.4646
X7.1378Y-2.4685
T2
X6.5644Y-5.8661
X6.6644Y-5.8661
T3
X5.7284Y-2.9466
X5.7284Y-3.0466
X5.7284Y-3.1466
X5.7284Y-3.2466
X5.7284Y-4.7866
X5.7284Y-4.8866
X5.7284Y-4.9866
X5.7284Y-5.0866
T0
M30
