G04 #@! TF.GenerationSoftware,KiCad,Pcbnew,(5.99.0-12980-gcf6acae791)*
G04 #@! TF.CreationDate,2022-01-10T16:17:47+01:00*
G04 #@! TF.ProjectId,ARM_RPI4_HAT,41524d5f-5250-4493-945f-4841542e6b69,rev?*
G04 #@! TF.SameCoordinates,Original*
G04 #@! TF.FileFunction,Profile,NP*
%FSLAX46Y46*%
G04 Gerber Fmt 4.6, Leading zero omitted, Abs format (unit mm)*
G04 Created by KiCad (PCBNEW (5.99.0-12980-gcf6acae791)) date 2022-01-10 16:17:47*
%MOMM*%
%LPD*%
G01*
G04 APERTURE LIST*
G04 #@! TA.AperFunction,Profile*
%ADD10C,0.100000*%
G04 #@! TD*
G04 #@! TA.AperFunction,Profile*
%ADD11C,0.120000*%
G04 #@! TD*
G04 APERTURE END LIST*
D10*
X264950000Y-113400000D02*
X264950000Y-95100000D01*
X203200000Y-61999999D02*
G75*
G03*
X200000000Y-65000000I-99998J-3100003D01*
G01*
X200000000Y-100778680D02*
X200000000Y-65000000D01*
X264950000Y-113400000D02*
X270478680Y-113400000D01*
X270478680Y-147000000D02*
X270478680Y-113400000D01*
X284000000Y-95100000D02*
X284000000Y-65200000D01*
X255800000Y-147000000D02*
X255800000Y-104000000D01*
X255800000Y-147000000D02*
G75*
G03*
X258821320Y-150000000I3010660J10660D01*
G01*
X284000001Y-65200000D02*
G75*
G03*
X281000000Y-62000000I-3100003J99998D01*
G01*
X255800000Y-104000000D02*
X203000000Y-104000000D01*
X200000000Y-100778680D02*
G75*
G03*
X203000000Y-104000000I3110661J-110659D01*
G01*
X203200000Y-62000000D02*
X281000000Y-62000000D01*
X264950000Y-95100000D02*
X284000000Y-95100000D01*
X267478680Y-150000000D02*
G75*
G03*
X270478680Y-147000000I-1J3000001D01*
G01*
X258821320Y-150000000D02*
X267478680Y-150000000D01*
D11*
X281400000Y-81750000D02*
X281400000Y-81900000D01*
X279800000Y-81750000D02*
X279800000Y-81900000D01*
X279800000Y-81900000D02*
G75*
G03*
X281400000Y-81900000I800000J0D01*
G01*
X281400000Y-81750000D02*
G75*
G03*
X279800000Y-81750000I-800000J0D01*
G01*
X281400000Y-74325000D02*
G75*
G03*
X281400000Y-74325000I-800000J0D01*
G01*
M02*
