G04 #@! TF.GenerationSoftware,KiCad,Pcbnew,(5.99.0-12980-gcf6acae791)*
G04 #@! TF.CreationDate,2022-01-10T16:17:47+01:00*
G04 #@! TF.ProjectId,ARM_RPI4_HAT,41524d5f-5250-4493-945f-4841542e6b69,rev?*
G04 #@! TF.SameCoordinates,Original*
G04 #@! TF.FileFunction,Legend,Top*
G04 #@! TF.FilePolarity,Positive*
%FSLAX46Y46*%
G04 Gerber Fmt 4.6, Leading zero omitted, Abs format (unit mm)*
G04 Created by KiCad (PCBNEW (5.99.0-12980-gcf6acae791)) date 2022-01-10 16:17:47*
%MOMM*%
%LPD*%
G01*
G04 APERTURE LIST*
%ADD10C,0.100000*%
%ADD11C,0.150000*%
G04 APERTURE END LIST*
D10*
X202776190Y-89423809D02*
X202890476Y-89461904D01*
X203080952Y-89461904D01*
X203157142Y-89423809D01*
X203195238Y-89385714D01*
X203233333Y-89309523D01*
X203233333Y-89233333D01*
X203195238Y-89157142D01*
X203157142Y-89119047D01*
X203080952Y-89080952D01*
X202928571Y-89042857D01*
X202852380Y-89004761D01*
X202814285Y-88966666D01*
X202776190Y-88890476D01*
X202776190Y-88814285D01*
X202814285Y-88738095D01*
X202852380Y-88700000D01*
X202928571Y-88661904D01*
X203119047Y-88661904D01*
X203233333Y-88700000D01*
X203538095Y-89233333D02*
X203919047Y-89233333D01*
X203461904Y-89461904D02*
X203728571Y-88661904D01*
X203995238Y-89461904D01*
X204528571Y-89042857D02*
X204261904Y-89042857D01*
X204261904Y-89461904D02*
X204261904Y-88661904D01*
X204642857Y-88661904D01*
X204947619Y-89042857D02*
X205214285Y-89042857D01*
X205328571Y-89461904D02*
X204947619Y-89461904D01*
X204947619Y-88661904D01*
X205328571Y-88661904D01*
X205557142Y-88661904D02*
X206014285Y-88661904D01*
X205785714Y-89461904D02*
X205785714Y-88661904D01*
X206433333Y-89080952D02*
X206433333Y-89461904D01*
X206166666Y-88661904D02*
X206433333Y-89080952D01*
X206700000Y-88661904D01*
X209447619Y-94361904D02*
X209066666Y-94361904D01*
X209028571Y-94742857D01*
X209066666Y-94704761D01*
X209142857Y-94666666D01*
X209333333Y-94666666D01*
X209409523Y-94704761D01*
X209447619Y-94742857D01*
X209485714Y-94819047D01*
X209485714Y-95009523D01*
X209447619Y-95085714D01*
X209409523Y-95123809D01*
X209333333Y-95161904D01*
X209142857Y-95161904D01*
X209066666Y-95123809D01*
X209028571Y-95085714D01*
X209714285Y-94361904D02*
X209980952Y-95161904D01*
X210247619Y-94361904D01*
X203838095Y-91400000D02*
X203742857Y-91352380D01*
X203600000Y-91352380D01*
X203457142Y-91400000D01*
X203361904Y-91495238D01*
X203314285Y-91590476D01*
X203266666Y-91780952D01*
X203266666Y-91923809D01*
X203314285Y-92114285D01*
X203361904Y-92209523D01*
X203457142Y-92304761D01*
X203600000Y-92352380D01*
X203695238Y-92352380D01*
X203838095Y-92304761D01*
X203885714Y-92257142D01*
X203885714Y-91923809D01*
X203695238Y-91923809D01*
X204314285Y-92352380D02*
X204314285Y-91352380D01*
X204885714Y-92352380D01*
X204885714Y-91352380D01*
X205361904Y-92352380D02*
X205361904Y-91352380D01*
X205600000Y-91352380D01*
X205742857Y-91400000D01*
X205838095Y-91495238D01*
X205885714Y-91590476D01*
X205933333Y-91780952D01*
X205933333Y-91923809D01*
X205885714Y-92114285D01*
X205838095Y-92209523D01*
X205742857Y-92304761D01*
X205600000Y-92352380D01*
X205361904Y-92352380D01*
X203566666Y-63185714D02*
X203528571Y-63223809D01*
X203414285Y-63261904D01*
X203338095Y-63261904D01*
X203223809Y-63223809D01*
X203147619Y-63147619D01*
X203109523Y-63071428D01*
X203071428Y-62919047D01*
X203071428Y-62804761D01*
X203109523Y-62652380D01*
X203147619Y-62576190D01*
X203223809Y-62500000D01*
X203338095Y-62461904D01*
X203414285Y-62461904D01*
X203528571Y-62500000D01*
X203566666Y-62538095D01*
X203871428Y-63033333D02*
X204252380Y-63033333D01*
X203795238Y-63261904D02*
X204061904Y-62461904D01*
X204328571Y-63261904D01*
X204595238Y-63261904D02*
X204595238Y-62461904D01*
X205052380Y-63261904D01*
X205052380Y-62461904D01*
X205433333Y-63261904D02*
X205433333Y-62461904D01*
X205433333Y-62842857D02*
X205890476Y-62842857D01*
X205890476Y-63261904D02*
X205890476Y-62461904D01*
X201742857Y-71952380D02*
X201742857Y-70952380D01*
X202123809Y-70952380D01*
X202219047Y-71000000D01*
X202266666Y-71047619D01*
X202314285Y-71142857D01*
X202314285Y-71285714D01*
X202266666Y-71380952D01*
X202219047Y-71428571D01*
X202123809Y-71476190D01*
X201742857Y-71476190D01*
X202647619Y-70952380D02*
X202885714Y-71952380D01*
X203076190Y-71238095D01*
X203266666Y-71952380D01*
X203504761Y-70952380D01*
X204457142Y-71952380D02*
X204123809Y-71476190D01*
X203885714Y-71952380D02*
X203885714Y-70952380D01*
X204266666Y-70952380D01*
X204361904Y-71000000D01*
X204409523Y-71047619D01*
X204457142Y-71142857D01*
X204457142Y-71285714D01*
X204409523Y-71380952D01*
X204361904Y-71428571D01*
X204266666Y-71476190D01*
X203885714Y-71476190D01*
X205409523Y-71000000D02*
X205314285Y-70952380D01*
X205171428Y-70952380D01*
X205028571Y-71000000D01*
X204933333Y-71095238D01*
X204885714Y-71190476D01*
X204838095Y-71380952D01*
X204838095Y-71523809D01*
X204885714Y-71714285D01*
X204933333Y-71809523D01*
X205028571Y-71904761D01*
X205171428Y-71952380D01*
X205266666Y-71952380D01*
X205409523Y-71904761D01*
X205457142Y-71857142D01*
X205457142Y-71523809D01*
X205266666Y-71523809D01*
X205885714Y-71952380D02*
X205885714Y-70952380D01*
X206457142Y-71952380D01*
X206457142Y-70952380D01*
X206933333Y-71952380D02*
X206933333Y-70952380D01*
X207171428Y-70952380D01*
X207314285Y-71000000D01*
X207409523Y-71095238D01*
X207457142Y-71190476D01*
X207504761Y-71380952D01*
X207504761Y-71523809D01*
X207457142Y-71714285D01*
X207409523Y-71809523D01*
X207314285Y-71904761D01*
X207171428Y-71952380D01*
X206933333Y-71952380D01*
X202638095Y-80871428D02*
X203400000Y-80871428D01*
X203019047Y-81252380D02*
X203019047Y-80490476D01*
X204304761Y-80585714D02*
X204304761Y-81252380D01*
X204066666Y-80204761D02*
X203828571Y-80919047D01*
X204447619Y-80919047D01*
X204971428Y-80680952D02*
X204876190Y-80633333D01*
X204828571Y-80585714D01*
X204780952Y-80490476D01*
X204780952Y-80442857D01*
X204828571Y-80347619D01*
X204876190Y-80300000D01*
X204971428Y-80252380D01*
X205161904Y-80252380D01*
X205257142Y-80300000D01*
X205304761Y-80347619D01*
X205352380Y-80442857D01*
X205352380Y-80490476D01*
X205304761Y-80585714D01*
X205257142Y-80633333D01*
X205161904Y-80680952D01*
X204971428Y-80680952D01*
X204876190Y-80728571D01*
X204828571Y-80776190D01*
X204780952Y-80871428D01*
X204780952Y-81061904D01*
X204828571Y-81157142D01*
X204876190Y-81204761D01*
X204971428Y-81252380D01*
X205161904Y-81252380D01*
X205257142Y-81204761D01*
X205304761Y-81157142D01*
X205352380Y-81061904D01*
X205352380Y-80871428D01*
X205304761Y-80776190D01*
X205257142Y-80728571D01*
X205161904Y-80680952D01*
X205638095Y-80252380D02*
X205971428Y-81252380D01*
X206304761Y-80252380D01*
X203661904Y-65885714D02*
X203623809Y-65923809D01*
X203509523Y-65961904D01*
X203433333Y-65961904D01*
X203319047Y-65923809D01*
X203242857Y-65847619D01*
X203204761Y-65771428D01*
X203166666Y-65619047D01*
X203166666Y-65504761D01*
X203204761Y-65352380D01*
X203242857Y-65276190D01*
X203319047Y-65200000D01*
X203433333Y-65161904D01*
X203509523Y-65161904D01*
X203623809Y-65200000D01*
X203661904Y-65238095D01*
X203966666Y-65733333D02*
X204347619Y-65733333D01*
X203890476Y-65961904D02*
X204157142Y-65161904D01*
X204423809Y-65961904D01*
X204690476Y-65961904D02*
X204690476Y-65161904D01*
X205147619Y-65961904D01*
X205147619Y-65161904D01*
X205909523Y-65961904D02*
X205528571Y-65961904D01*
X205528571Y-65161904D01*
X202638095Y-86171428D02*
X203400000Y-86171428D01*
X203019047Y-86552380D02*
X203019047Y-85790476D01*
X204400000Y-86552380D02*
X203828571Y-86552380D01*
X204114285Y-86552380D02*
X204114285Y-85552380D01*
X204019047Y-85695238D01*
X203923809Y-85790476D01*
X203828571Y-85838095D01*
X204780952Y-85647619D02*
X204828571Y-85600000D01*
X204923809Y-85552380D01*
X205161904Y-85552380D01*
X205257142Y-85600000D01*
X205304761Y-85647619D01*
X205352380Y-85742857D01*
X205352380Y-85838095D01*
X205304761Y-85980952D01*
X204733333Y-86552380D01*
X205352380Y-86552380D01*
X205638095Y-85552380D02*
X205971428Y-86552380D01*
X206304761Y-85552380D01*
D11*
X196290476Y-103452380D02*
X196290476Y-102452380D01*
X196623809Y-103166666D01*
X196957142Y-102452380D01*
X196957142Y-103452380D01*
X197433333Y-103452380D02*
X197433333Y-102452380D01*
X198004761Y-103452380D02*
X197576190Y-102880952D01*
X198004761Y-102452380D02*
X197433333Y-103023809D01*
X198957142Y-103452380D02*
X198385714Y-103452380D01*
X198671428Y-103452380D02*
X198671428Y-102452380D01*
X198576190Y-102595238D01*
X198480952Y-102690476D01*
X198385714Y-102738095D01*
X250390476Y-106452380D02*
X250390476Y-105452380D01*
X250723809Y-106166666D01*
X251057142Y-105452380D01*
X251057142Y-106452380D01*
X251533333Y-106452380D02*
X251533333Y-105452380D01*
X252104761Y-106452380D02*
X251676190Y-105880952D01*
X252104761Y-105452380D02*
X251533333Y-106023809D01*
X252485714Y-105547619D02*
X252533333Y-105500000D01*
X252628571Y-105452380D01*
X252866666Y-105452380D01*
X252961904Y-105500000D01*
X253009523Y-105547619D01*
X253057142Y-105642857D01*
X253057142Y-105738095D01*
X253009523Y-105880952D01*
X252438095Y-106452380D01*
X253057142Y-106452380D01*
X260090476Y-152852380D02*
X260090476Y-151852380D01*
X260423809Y-152566666D01*
X260757142Y-151852380D01*
X260757142Y-152852380D01*
X261233333Y-152852380D02*
X261233333Y-151852380D01*
X261804761Y-152852380D02*
X261376190Y-152280952D01*
X261804761Y-151852380D02*
X261233333Y-152423809D01*
X262661904Y-152185714D02*
X262661904Y-152852380D01*
X262423809Y-151804761D02*
X262185714Y-152519047D01*
X262804761Y-152519047D01*
X260190476Y-60752380D02*
X260190476Y-59752380D01*
X260523809Y-60466666D01*
X260857142Y-59752380D01*
X260857142Y-60752380D01*
X261333333Y-60752380D02*
X261333333Y-59752380D01*
X261904761Y-60752380D02*
X261476190Y-60180952D01*
X261904761Y-59752380D02*
X261333333Y-60323809D01*
X262761904Y-59752380D02*
X262571428Y-59752380D01*
X262476190Y-59800000D01*
X262428571Y-59847619D01*
X262333333Y-59990476D01*
X262285714Y-60180952D01*
X262285714Y-60561904D01*
X262333333Y-60657142D01*
X262380952Y-60704761D01*
X262476190Y-60752380D01*
X262666666Y-60752380D01*
X262761904Y-60704761D01*
X262809523Y-60657142D01*
X262857142Y-60561904D01*
X262857142Y-60323809D01*
X262809523Y-60228571D01*
X262761904Y-60180952D01*
X262666666Y-60133333D01*
X262476190Y-60133333D01*
X262380952Y-60180952D01*
X262333333Y-60228571D01*
X262285714Y-60323809D01*
M02*
