G04 #@! TF.GenerationSoftware,KiCad,Pcbnew,(5.99.0-12980-gcf6acae791)*
G04 #@! TF.CreationDate,2022-01-10T16:17:47+01:00*
G04 #@! TF.ProjectId,ARM_RPI4_HAT,41524d5f-5250-4493-945f-4841542e6b69,rev?*
G04 #@! TF.SameCoordinates,Original*
G04 #@! TF.FileFunction,Soldermask,Top*
G04 #@! TF.FilePolarity,Negative*
%FSLAX46Y46*%
G04 Gerber Fmt 4.6, Leading zero omitted, Abs format (unit mm)*
G04 Created by KiCad (PCBNEW (5.99.0-12980-gcf6acae791)) date 2022-01-10 16:17:47*
%MOMM*%
%LPD*%
G01*
G04 APERTURE LIST*
%ADD10C,2.000000*%
%ADD11C,1.600000*%
%ADD12C,2.700000*%
%ADD13R,1.700000X1.700000*%
%ADD14O,1.700000X1.700000*%
G04 APERTURE END LIST*
D10*
X273420000Y-81825000D03*
X273420000Y-79325000D03*
X273400000Y-76825000D03*
X273400000Y-74325000D03*
X270920000Y-81825000D03*
X270920000Y-79325000D03*
X270920000Y-76825000D03*
X270920000Y-74325000D03*
D11*
X202100000Y-90400000D03*
X207100000Y-90400000D03*
X202100000Y-66700000D03*
X207100000Y-66700000D03*
X202100000Y-87600000D03*
X207100000Y-87600000D03*
X202100000Y-93200000D03*
X207100000Y-93200000D03*
X202100000Y-63800000D03*
X207100000Y-63800000D03*
X202100000Y-82300000D03*
X207100000Y-82300000D03*
X202100000Y-73200000D03*
X207100000Y-73200000D03*
D12*
X203500000Y-97500000D03*
X261500000Y-97500000D03*
X261500000Y-146500000D03*
X261500000Y-65500000D03*
D13*
X208370000Y-98770000D03*
D14*
X208370000Y-96230000D03*
X210910000Y-98770000D03*
X210910000Y-96230000D03*
X213450000Y-98770000D03*
X213450000Y-96230000D03*
X215990000Y-98770000D03*
X215990000Y-96230000D03*
X218530000Y-98770000D03*
X218530000Y-96230000D03*
X221070000Y-98770000D03*
X221070000Y-96230000D03*
X223610000Y-98770000D03*
X223610000Y-96230000D03*
X226150000Y-98770000D03*
X226150000Y-96230000D03*
X228690000Y-98770000D03*
X228690000Y-96230000D03*
X231230000Y-98770000D03*
X231230000Y-96230000D03*
X233770000Y-98770000D03*
X233770000Y-96230000D03*
X236310000Y-98770000D03*
X236310000Y-96230000D03*
X238850000Y-98770000D03*
X238850000Y-96230000D03*
X241390000Y-98770000D03*
X241390000Y-96230000D03*
X243930000Y-98770000D03*
X243930000Y-96230000D03*
X246470000Y-98770000D03*
X246470000Y-96230000D03*
X249010000Y-98770000D03*
X249010000Y-96230000D03*
X251550000Y-98770000D03*
X251550000Y-96230000D03*
X254090000Y-98770000D03*
X254090000Y-96230000D03*
X256630000Y-98770000D03*
X256630000Y-96230000D03*
D13*
X278525000Y-93125000D03*
D14*
X278525000Y-90585000D03*
X278525000Y-88045000D03*
D13*
X235900000Y-66650000D03*
D14*
X238440000Y-66650000D03*
X240980000Y-66650000D03*
X243520000Y-66650000D03*
X246060000Y-66650000D03*
X248600000Y-66650000D03*
X251140000Y-66650000D03*
X253680000Y-66650000D03*
D13*
X223650000Y-66650000D03*
D14*
X226190000Y-66650000D03*
D13*
X235900000Y-89500000D03*
D14*
X238440000Y-89500000D03*
X240980000Y-89500000D03*
X243520000Y-89500000D03*
X246060000Y-89500000D03*
X248600000Y-89500000D03*
X251140000Y-89500000D03*
X253680000Y-89500000D03*
M02*
