M48
; DRILL file {KiCad (5.99.0-12980-gcf6acae791)} date Mon Jan 10 16:17:49 2022
; FORMAT={-:-/ absolute / inch / decimal}
; #@! TF.CreationDate,2022-01-10T16:17:49+01:00
; #@! TF.GenerationSoftware,Kicad,Pcbnew,(5.99.0-12980-gcf6acae791)
; #@! TF.FileFunction,Plated,1,2,PTH
FMAT,2
INCH
; #@! TA.AperFunction,Plated,PTH,ViaDrill
T1C0.0236
; #@! TA.AperFunction,Plated,PTH,ComponentDrill
T2C0.0394
; #@! TA.AperFunction,Plated,PTH,ComponentDrill
T3C0.0472
%
G90
G05
T1
X8.4646Y-2.6181
X8.5157Y-2.6181
X8.5669Y-2.6181
X8.6181Y-2.6181
X9.0157Y-3.6299
X9.0669Y-3.6299
X9.1181Y-3.6299
X10.0551Y-3.5236
X10.1063Y-3.5236
X10.2087Y-4.6941
X10.2087Y-4.7453
X10.2244Y-3.5236
X10.2283Y-3.6024
X10.2323Y-5.1004
X10.2323Y-5.1555
X10.2362Y-4.5098
X10.2402Y-4.4055
X10.2402Y-4.4547
X10.248Y-4.7192
X10.2756Y-3.5236
X10.2756Y-4.5445
X10.2835Y-5.1004
X10.2835Y-5.1555
X10.2874Y-4.6941
X10.2874Y-4.7453
X10.2913Y-4.4055
X10.2913Y-4.4547
X10.311Y-3.6457
X10.3268Y-3.5236
X10.3346Y-5.1004
X10.3346Y-5.1555
X10.374Y-4.6063
X10.374Y-4.6575
X10.378Y-3.5236
X10.3858Y-5.1004
X10.3858Y-5.1555
X10.3898Y-4.7106
X10.4252Y-4.6378
X10.5Y-2.6181
X10.5512Y-2.6181
X10.6024Y-2.6181
X10.6142Y-3.7008
X10.6535Y-2.6181
X10.6654Y-3.7008
X10.7165Y-3.7008
X10.7677Y-3.7008
X11.1339Y-2.7008
X11.1339Y-3.3819
T2
X7.9567Y-2.5118
X7.9567Y-2.626
X7.9567Y-2.8819
X7.9567Y-3.2402
X7.9567Y-3.4488
X7.9567Y-3.5591
X7.9567Y-3.6693
X8.1535Y-2.5118
X8.1535Y-2.626
X8.1535Y-2.8819
X8.1535Y-3.2402
X8.1535Y-3.4488
X8.1535Y-3.5591
X8.1535Y-3.6693
X8.2035Y-3.7886
X8.2035Y-3.8886
X8.3035Y-3.7886
X8.3035Y-3.8886
X8.4035Y-3.7886
X8.4035Y-3.8886
X8.5035Y-3.7886
X8.5035Y-3.8886
X8.6035Y-3.7886
X8.6035Y-3.8886
X8.7035Y-3.7886
X8.7035Y-3.8886
X8.8035Y-3.7886
X8.8035Y-3.8886
X8.8051Y-2.624
X8.9035Y-3.7886
X8.9035Y-3.8886
X8.9051Y-2.624
X9.0035Y-3.7886
X9.0035Y-3.8886
X9.1035Y-3.7886
X9.1035Y-3.8886
X9.2035Y-3.7886
X9.2035Y-3.8886
X9.2874Y-2.624
X9.2874Y-3.5236
X9.3035Y-3.7886
X9.3035Y-3.8886
X9.3874Y-2.624
X9.3874Y-3.5236
X9.4035Y-3.7886
X9.4035Y-3.8886
X9.4874Y-2.624
X9.4874Y-3.5236
X9.5035Y-3.7886
X9.5035Y-3.8886
X9.5874Y-2.624
X9.5874Y-3.5236
X9.6035Y-3.7886
X9.6035Y-3.8886
X9.6874Y-2.624
X9.6874Y-3.5236
X9.7035Y-3.7886
X9.7035Y-3.8886
X9.7874Y-2.624
X9.7874Y-3.5236
X9.8035Y-3.7886
X9.8035Y-3.8886
X9.8874Y-2.624
X9.8874Y-3.5236
X9.9035Y-3.7886
X9.9035Y-3.8886
X9.9874Y-2.624
X9.9874Y-3.5236
X10.0035Y-3.7886
X10.0035Y-3.8886
X10.1035Y-3.7886
X10.1035Y-3.8886
X10.9656Y-3.4663
X10.9656Y-3.5663
X10.9656Y-3.6663
T3
X10.6661Y-2.9262
X10.6661Y-3.0246
X10.6661Y-3.123
X10.6661Y-3.2215
X10.7638Y-2.9262
X10.7638Y-3.0246
X10.7646Y-3.123
X10.7646Y-3.2215
T0
M30
