%TF.GenerationSoftware,KiCad,Pcbnew,(5.99.0-12980-gcf6acae791)*%
%TF.CreationDate,2022-01-08T17:20:55+01:00*%
%TF.ProjectId,GRIPPER_TWO_ADVANCED_CONECTION_BOARD,47524950-5045-4525-9f54-574f5f414456,rev?*%
%TF.SameCoordinates,Original*%
%TF.FileFunction,Copper,L2,Bot*%
%TF.FilePolarity,Positive*%
%FSLAX46Y46*%
G04 Gerber Fmt 4.6, Leading zero omitted, Abs format (unit mm)*
G04 Created by KiCad (PCBNEW (5.99.0-12980-gcf6acae791)) date 2022-01-08 17:20:55*
%MOMM*%
%LPD*%
G01*
G04 APERTURE LIST*
G04 Aperture macros list*
%AMOutline5P*
0 Free polygon, 5 corners , with rotation*
0 The origin of the aperture is its center*
0 number of corners: always 5*
0 $1 to $10 corner X, Y*
0 $11 Rotation angle, in degrees counterclockwise*
0 create outline with 5 corners*
4,1,5,$1,$2,$3,$4,$5,$6,$7,$8,$9,$10,$1,$2,$11*%
%AMOutline6P*
0 Free polygon, 6 corners , with rotation*
0 The origin of the aperture is its center*
0 number of corners: always 6*
0 $1 to $12 corner X, Y*
0 $13 Rotation angle, in degrees counterclockwise*
0 create outline with 6 corners*
4,1,6,$1,$2,$3,$4,$5,$6,$7,$8,$9,$10,$11,$12,$1,$2,$13*%
%AMOutline7P*
0 Free polygon, 7 corners , with rotation*
0 The origin of the aperture is its center*
0 number of corners: always 7*
0 $1 to $14 corner X, Y*
0 $15 Rotation angle, in degrees counterclockwise*
0 create outline with 7 corners*
4,1,7,$1,$2,$3,$4,$5,$6,$7,$8,$9,$10,$11,$12,$13,$14,$1,$2,$15*%
%AMOutline8P*
0 Free polygon, 8 corners , with rotation*
0 The origin of the aperture is its center*
0 number of corners: always 8*
0 $1 to $16 corner X, Y*
0 $17 Rotation angle, in degrees counterclockwise*
0 create outline with 8 corners*
4,1,8,$1,$2,$3,$4,$5,$6,$7,$8,$9,$10,$11,$12,$13,$14,$15,$16,$1,$2,$17*%
G04 Aperture macros list end*
%TA.AperFunction,SMDPad,CuDef*%
%ADD10R,0.800000X2.000000*%
%TD*%
%TA.AperFunction,ComponentPad*%
%ADD11R,1.700000X1.700000*%
%TD*%
%TA.AperFunction,ComponentPad*%
%ADD12O,1.700000X1.700000*%
%TD*%
%TA.AperFunction,ComponentPad*%
%ADD13Outline8P,-1.079500X0.539750X-0.539750X1.079500X0.539750X1.079500X1.079500X0.539750X1.079500X-0.539750X0.539750X-1.079500X-0.539750X-1.079500X-1.079500X-0.539750X0.000000*%
%TD*%
%TA.AperFunction,ViaPad*%
%ADD14C,0.800000*%
%TD*%
%TA.AperFunction,Conductor*%
%ADD15C,0.800000*%
%TD*%
%TA.AperFunction,Conductor*%
%ADD16C,0.200000*%
%TD*%
%TA.AperFunction,Conductor*%
%ADD17C,1.270000*%
%TD*%
%TA.AperFunction,Conductor*%
%ADD18C,0.250000*%
%TD*%
G04 APERTURE END LIST*
D10*
%TO.P,MOTOR_2,2,P*%
%TO.N,/MOTOR_2*%
X151300000Y-60300000D03*
%TD*%
D11*
%TO.P,J1,1,Pin_1*%
%TO.N,/RX*%
X169275000Y-149000000D03*
D12*
%TO.P,J1,2,Pin_2*%
%TO.N,/TX*%
X166735000Y-149000000D03*
%TD*%
D13*
%TO.P,LSP16,MP,MP*%
%TO.N,/RS485-*%
X145502000Y-126659900D03*
%TD*%
D10*
%TO.P,12V1,2,P*%
%TO.N,/12V*%
X172300000Y-60300000D03*
%TD*%
%TO.P,RS485-1,2,P*%
%TO.N,/RS485-*%
X157300000Y-60300000D03*
%TD*%
%TO.P,MOTOR_1,2,P*%
%TO.N,/MOTOR_1*%
X148300000Y-60300000D03*
%TD*%
%TO.P,RS485+1,2,P*%
%TO.N,/RS485+*%
X160300000Y-60300000D03*
%TD*%
D13*
%TO.P,LSP15,MP,MP*%
%TO.N,/RS485+*%
X145502000Y-82463900D03*
%TD*%
%TO.P,LSP10,MP,MP*%
%TO.N,/MOTOR_1*%
X145502000Y-77383900D03*
%TD*%
D10*
%TO.P,RX1,2,P*%
%TO.N,/RX*%
X181300000Y-60300000D03*
%TD*%
D13*
%TO.P,LSP14,MP,MP*%
%TO.N,/MOTOR_2*%
X145502000Y-124119900D03*
%TD*%
%TO.P,LSP13,MP,MP*%
%TO.N,GNDPWR*%
X145502000Y-121579900D03*
%TD*%
%TO.P,LSP11,MP,MP*%
%TO.N,/RS485+*%
X145502000Y-129199900D03*
%TD*%
D10*
%TO.P,CAN_L1,2,P*%
%TO.N,/CAN-*%
X163300000Y-60300000D03*
%TD*%
%TO.P,PGND1,2,P*%
%TO.N,GNDPWR*%
X145300000Y-60300000D03*
%TD*%
%TO.P,CAN_H1,2,P*%
%TO.N,/CAN+*%
X166300000Y-60300000D03*
%TD*%
D13*
%TO.P,LSP12,MP,MP*%
%TO.N,/RS485-*%
X145502000Y-79923900D03*
%TD*%
D10*
%TO.P,12V_GND1,2,P*%
%TO.N,/GND*%
X169300000Y-60300000D03*
%TD*%
%TO.P,TX1,2,P*%
%TO.N,/TX*%
X178300000Y-60300000D03*
%TD*%
%TO.P,24V1,2,P*%
%TO.N,/24V*%
X142300000Y-60300000D03*
%TD*%
D13*
%TO.P,LSP9,MP,MP*%
%TO.N,GNDPWR*%
X145502000Y-74843900D03*
%TD*%
D10*
%TO.P,SAFETY1,2,P*%
%TO.N,/SAFETY*%
X175300000Y-60300000D03*
%TD*%
D14*
%TO.N,/12V*%
X172300000Y-62200000D03*
%TO.N,/CAN+*%
X165902501Y-62202501D03*
%TO.N,/CAN-*%
X163747500Y-62252500D03*
%TO.N,/RS485+*%
X159852500Y-62252500D03*
%TO.N,/RS485-*%
X157847499Y-62352501D03*
%TO.N,/MOTOR_1*%
X148300000Y-62000000D03*
%TO.N,/MOTOR_2*%
X151300000Y-62000000D03*
%TO.N,/24V*%
X142300000Y-61900000D03*
%TO.N,/SAFETY*%
X175300000Y-62200000D03*
%TO.N,/TX*%
X178300000Y-62600000D03*
%TO.N,/RX*%
X181300000Y-62700000D03*
%TO.N,/GND*%
X169300000Y-62000000D03*
%TO.N,GNDPWR*%
X145300000Y-61900000D03*
%TD*%
D15*
%TO.N,/12V*%
X172300000Y-62200000D02*
X172300000Y-60300000D01*
D16*
%TO.N,/CAN+*%
X166300000Y-61800000D02*
X166300000Y-60300000D01*
X165902501Y-62197499D02*
X166300000Y-61800000D01*
X165902501Y-62202501D02*
X165902501Y-62197499D01*
%TO.N,/CAN-*%
X163300000Y-61800000D02*
X163300000Y-60300000D01*
X163747500Y-62252500D02*
X163747500Y-62247500D01*
X163747500Y-62247500D02*
X163300000Y-61800000D01*
%TO.N,/RS485+*%
X160300000Y-61805001D02*
X159852500Y-62252500D01*
X143125000Y-108906800D02*
X148625000Y-114406800D01*
X160300000Y-59900000D02*
X160300000Y-61805001D01*
X143125000Y-82937297D02*
X143125000Y-108906800D01*
X159852500Y-62252500D02*
X159025000Y-63080001D01*
X148625000Y-126076900D02*
X145502000Y-129199900D01*
X159025000Y-68940900D02*
X145502000Y-82463900D01*
X148625000Y-114406800D02*
X148625000Y-126076900D01*
X159025000Y-63080001D02*
X159025000Y-68940900D01*
X145502000Y-82463900D02*
X143598397Y-82463900D01*
X143598397Y-82463900D02*
X143125000Y-82937297D01*
%TO.N,/RS485-*%
X148175000Y-114593200D02*
X148175000Y-125890503D01*
X158575000Y-66525000D02*
X158575000Y-66575000D01*
X145502000Y-79923900D02*
X142675000Y-82750900D01*
X147405603Y-79923900D02*
X145502000Y-79923900D01*
X147405603Y-126659900D02*
X145502000Y-126659900D01*
X148175000Y-125890503D02*
X147405603Y-126659900D01*
X158214761Y-65025000D02*
X158275000Y-65025000D01*
X158214761Y-66225000D02*
X158275000Y-66225000D01*
X158575000Y-66575000D02*
X158575000Y-68754503D01*
X158275000Y-64425000D02*
X158214761Y-64425000D01*
X158575000Y-68754503D02*
X147405603Y-79923900D01*
X157847499Y-62352501D02*
X158575000Y-63080001D01*
X157300000Y-59900000D02*
X157300000Y-61805001D01*
X157300000Y-61805001D02*
X157847499Y-62352501D01*
X158275000Y-65625000D02*
X158214761Y-65625000D01*
X142675000Y-82750900D02*
X142675000Y-109093200D01*
X158575000Y-63080001D02*
X158575000Y-64125000D01*
X142675000Y-109093200D02*
X148175000Y-114593200D01*
X158275000Y-64425000D02*
G75*
G03*
X158575000Y-64125000I0J300000D01*
G01*
X158575000Y-66525000D02*
G75*
G03*
X158275000Y-66225000I-300000J0D01*
G01*
X158575000Y-65325000D02*
G75*
G03*
X158275000Y-65025000I-300000J0D01*
G01*
X158275000Y-65625000D02*
G75*
G03*
X158575000Y-65325000I0J300000D01*
G01*
X157914761Y-65925000D02*
G75*
G02*
X158214761Y-65625000I300000J0D01*
G01*
X157914761Y-64725000D02*
G75*
G02*
X158214761Y-64425000I300000J0D01*
G01*
X158214761Y-66225000D02*
G75*
G02*
X157914761Y-65925000I0J300000D01*
G01*
X158214761Y-65025000D02*
G75*
G02*
X157914761Y-64725000I0J300000D01*
G01*
D17*
%TO.N,/MOTOR_1*%
X145694122Y-77383900D02*
X145552800Y-77383900D01*
D15*
X148300000Y-62000000D02*
X148300000Y-60300000D01*
%TO.N,/MOTOR_2*%
X151300000Y-60300000D02*
X151300000Y-62000000D01*
%TO.N,/24V*%
X142300000Y-60300000D02*
X142300000Y-61900000D01*
%TO.N,/SAFETY*%
X175300000Y-62200000D02*
X175300000Y-60300000D01*
D18*
%TO.N,/TX*%
X178300000Y-62600000D02*
X178300000Y-60300000D01*
%TO.N,/RX*%
X181300000Y-62700000D02*
X181300000Y-60300000D01*
D15*
%TO.N,/GND*%
X169300000Y-60300000D02*
X169300000Y-62000000D01*
%TO.N,GNDPWR*%
X145300000Y-60300000D02*
X145300000Y-61900000D01*
%TD*%
M02*
